<?xml version="1.0" encoding="UTF-8" standalone="no"?>
<!DOCTYPE svg PUBLIC "-//W3C//DTD SVG 1.1//EN" "http://www.w3.org/Graphics/SVG/1.1/DTD/svg11.dtd">
<svg width="100%" height="100%" viewBox="0 0 1052 140" version="1.1" xmlns="http://www.w3.org/2000/svg" xmlns:xlink="http://www.w3.org/1999/xlink" xml:space="preserve" xmlns:serif="http://www.serif.com/" style="fill-rule:evenodd;clip-rule:evenodd;stroke-miterlimit:10;">
    <g transform="matrix(1,0,0,1,-2171,-2463)">
        <g id="AnswersAreIn" transform="matrix(0.798148,0,0,0.218999,437.964,1923.51)">
            <rect x="2171.32" y="2463.42" width="1317.15" height="636.116" style="fill:none;"/>
            <clipPath id="_clip1">
                <rect x="2171.32" y="2463.42" width="1317.15" height="636.116"/>
            </clipPath>
            <g clip-path="url(#_clip1)">
                <g transform="matrix(1.2529,0,0,4.56623,2028.34,2245.93)">
                    <text x="114.412px" y="169.08px" style="font-family:'Modak';font-size:181.019px;fill:rgb(35,31,32);">A</text>
                    <text x="237.446px" y="169.08px" style="font-family:'Modak';font-size:109.959px;fill:rgb(35,31,32);">n<tspan x="302.571px 360.878px 449.359px 512.98px 566.777px " y="169.08px 169.08px 169.08px 169.08px 169.08px ">swers</tspan></text>
                    <text x="653.179px" y="169.08px" style="font-family:'Modak';font-size:181.019px;fill:rgb(35,31,32);">A</text>
                    <text x="776.213px" y="169.08px" style="font-family:'Modak';font-size:109.959px;fill:rgb(35,31,32);">r<tspan x="828.667px " y="169.08px ">e</tspan></text>
                    <text x="919.84px" y="169.08px" style="font-family:'Modak';font-size:181.019px;fill:rgb(35,31,32);">I</text>
                    <text x="980.914px" y="169.08px" style="font-family:'Modak';font-size:109.959px;fill:rgb(35,31,32);">n<tspan x="1046.31px 1081.26px 1116.21px " y="169.08px 169.08px 169.08px ">...</tspan></text>
                </g>
                <g transform="matrix(1.2529,0,0,4.56623,2180.58,2621.77)">
                    <path d="M0,70.269C-0.177,70.976 -0.296,71.669 -0.354,72.346C-0.413,73.024 -0.442,73.687 -0.442,74.335C-0.442,77.282 0.382,79.948 2.032,82.334C3.682,84.721 5.892,86.753 8.662,88.433C11.431,90.112 14.672,91.424 18.385,92.366C22.097,93.308 26.044,93.78 30.229,93.78C33.587,93.78 36.754,93.456 39.73,92.808C42.705,92.161 45.356,91.336 47.686,90.333C50.013,89.332 51.957,88.256 53.519,87.107C55.079,85.958 56.126,84.884 56.656,83.881C56.243,83.233 55.816,81.686 55.375,79.241C54.933,76.796 54.535,73.511 54.182,69.385C52.001,69.268 49.924,69.032 47.95,68.678C45.976,68.325 44.223,67.869 42.691,67.308C41.158,66.749 39.936,66.101 39.023,65.364C38.108,64.627 37.653,63.817 37.653,62.933C37.653,62.462 37.741,62.035 37.918,61.651C38.095,61.269 38.301,60.93 38.537,60.635C39.244,61.165 40.128,61.711 41.188,62.27C42.249,62.831 43.516,63.346 44.989,63.817C46.462,64.289 48.186,64.687 50.16,65.01C52.134,65.334 54.388,65.496 56.922,65.496C58.276,65.496 59.735,65.394 61.297,65.187C62.857,64.981 64.42,64.672 65.981,64.259C67.542,63.847 69.031,63.331 70.445,62.712C71.859,62.093 73.097,61.401 74.157,60.635C74.923,61.225 75.307,61.991 75.307,62.933C75.307,63.64 74.85,64.347 73.937,65.054C73.022,65.761 71.844,66.395 70.401,66.955C68.956,67.515 67.336,67.986 65.54,68.369C63.741,68.753 61.93,68.974 60.104,69.032L62.048,79.815C62.46,82.172 63.388,84.221 64.832,85.958C66.275,87.697 68.103,89.14 70.313,90.289C72.522,91.438 75.07,92.307 77.958,92.896C80.845,93.485 83.938,93.78 87.239,93.78C94.722,93.78 100.908,92.66 105.801,90.422C110.69,88.183 114.491,85.326 117.202,81.848L97.05,-1.502C96.106,-5.391 94.31,-8.735 91.658,-11.534C89.007,-14.332 85.824,-16.617 82.112,-18.384C78.4,-20.152 74.29,-21.447 69.782,-22.273C65.274,-23.098 60.723,-23.511 56.126,-23.511C52.648,-23.511 49.188,-23.29 45.74,-22.848C42.294,-22.406 38.964,-21.772 35.753,-20.947C32.54,-20.122 29.491,-19.105 26.604,-17.898C23.717,-16.689 21.124,-15.349 18.826,-13.877L0,70.269ZM60.811,34.206C60.574,34.326 60.221,34.458 59.75,34.604C59.277,34.752 58.778,34.826 58.247,34.826C57.894,34.826 57.496,34.768 57.055,34.649C56.612,34.531 56.272,34.354 56.038,34.118L52.679,16.264C52.974,16.146 53.298,16.029 53.651,15.91C54.005,15.793 54.388,15.733 54.801,15.733C55.448,15.733 55.993,15.896 56.436,16.22C56.878,16.544 57.289,17.251 57.673,18.341C58.056,19.432 58.438,21.037 58.822,23.158C59.205,25.28 59.72,28.108 60.369,31.644L60.811,34.206Z" style="fill:none;fill-rule:nonzero;stroke:rgb(249,220,173);stroke-width:18.95px;"/>
                </g>
                <g transform="matrix(1.2529,0,0,4.56623,2335.72,3041.26)">
                    <path d="M0,-58.361C-1.074,-56.75 -1.871,-54.906 -2.39,-52.831C-2.907,-50.755 -3.168,-48.858 -3.168,-47.139C-3.168,-45.063 -2.907,-43.077 -2.39,-41.18C-1.871,-39.282 -1.074,-37.583 0,-36.079L0,-10.093C0,-8.16 0.43,-6.486 1.289,-5.073C2.147,-3.658 3.248,-2.477 4.591,-1.529C5.933,-0.58 7.437,0.127 9.101,0.592C10.765,1.056 12.402,1.289 14.014,1.289C17.234,1.289 20.107,0.797 22.631,-0.187C25.154,-1.171 27.203,-2.486 28.778,-4.133C28.062,-5.457 27.427,-7.032 26.872,-8.858C26.316,-10.683 26.04,-12.992 26.04,-15.784C26.04,-16.285 26.058,-16.929 26.094,-17.717C26.129,-18.504 26.183,-19.382 26.255,-20.348C26.326,-21.314 26.424,-22.343 26.55,-23.435C26.675,-24.527 26.827,-25.61 27.007,-26.683L26.309,-35.435C26.773,-35.721 27.274,-35.864 27.812,-35.864C28.635,-35.864 29.234,-35.55 29.61,-34.925C29.986,-34.298 30.174,-33.126 30.174,-31.408C30.174,-30.477 30.103,-29.457 29.959,-28.348C29.816,-27.238 29.664,-26.03 29.503,-24.724C29.342,-23.417 29.198,-22.012 29.073,-20.509C28.947,-19.006 28.886,-17.412 28.886,-15.731C28.886,-12.58 29.323,-9.923 30.201,-7.757C31.078,-5.591 32.259,-3.838 33.744,-2.496C35.229,-1.153 36.947,-0.187 38.899,0.404C40.85,0.994 42.898,1.289 45.047,1.289C47.087,1.289 49.011,0.958 50.818,0.296C52.625,-0.366 54.209,-1.359 55.57,-2.684C56.93,-4.007 58.004,-5.645 58.791,-7.596C59.578,-9.547 59.973,-11.793 59.973,-14.335L59.973,-15.274C59.973,-15.685 59.954,-16.034 59.919,-16.321C58.415,-17.252 57.396,-18.522 56.858,-20.133C56.321,-21.744 56.053,-23.784 56.053,-26.254C56.053,-27.972 56.08,-29.833 56.134,-31.838C56.188,-33.842 56.214,-35.65 56.214,-37.26C56.214,-41.663 55.534,-45.314 54.174,-48.213C52.813,-51.112 51.06,-53.403 48.912,-55.086C46.765,-56.768 44.356,-57.949 41.69,-58.629C39.024,-59.309 36.402,-59.65 33.825,-59.65C31.642,-59.65 29.592,-59.389 27.678,-58.871C25.763,-58.352 24.026,-57.663 22.47,-56.804C20.912,-55.944 19.552,-54.942 18.389,-53.797C17.226,-52.651 16.286,-51.452 15.57,-50.2C14.89,-50.2 14.407,-50.369 14.121,-50.71C13.834,-51.049 13.691,-51.435 13.691,-51.864C13.691,-52.831 14.479,-54.047 16.054,-55.515C15.266,-56.338 14.362,-57.019 13.342,-57.555C12.322,-58.092 11.061,-58.361 9.557,-58.361L0,-58.361Z" style="fill:none;fill-rule:nonzero;stroke:rgb(249,220,173);stroke-width:18.95px;"/>
                </g>
                <g transform="matrix(1.2529,0,0,4.56623,2461.61,2966.12)">
                    <path d="M0,-25.236C1.413,-25.039 2.756,-24.779 4.026,-24.457C5.297,-24.135 6.47,-23.768 7.543,-23.357C8.617,-22.944 9.565,-22.506 10.389,-22.041C11.355,-22.971 12.196,-24.26 12.912,-25.907C13.628,-27.553 13.986,-29.611 13.986,-32.081C13.986,-33.155 13.905,-34.318 13.745,-35.571C13.584,-36.824 13.323,-37.826 12.966,-38.578C11.785,-39.257 10.397,-39.911 8.805,-40.538C7.212,-41.163 5.477,-41.71 3.597,-42.175C1.718,-42.64 -0.296,-43.007 -2.443,-43.276C-4.591,-43.544 -6.828,-43.678 -9.154,-43.678C-13.879,-43.678 -17.996,-43.106 -21.503,-41.961C-25.012,-40.815 -27.929,-39.276 -30.255,-37.343C-32.582,-35.41 -34.317,-33.164 -35.463,-30.605C-36.608,-28.045 -37.181,-25.352 -37.181,-22.525C-37.181,-19.123 -36.483,-16.224 -35.087,-13.826C-33.691,-11.428 -31.812,-9.451 -29.449,-7.894C-27.087,-6.337 -24.341,-5.2 -21.208,-4.485C-18.076,-3.768 -14.757,-3.41 -11.248,-3.41L-10.658,-3.41C-10.443,-3.41 -10.14,-3.428 -9.745,-3.464C-9.638,-3.177 -9.584,-2.891 -9.584,-2.605C-9.584,-2.104 -9.736,-1.71 -10.04,-1.424C-10.345,-1.137 -11.033,-0.994 -12.107,-0.994C-14.435,-0.994 -16.636,-1.173 -18.711,-1.531C-20.788,-1.889 -22.711,-2.354 -24.483,-2.927C-26.255,-3.5 -27.83,-4.153 -29.208,-4.887C-30.586,-5.62 -31.704,-6.345 -32.563,-7.062C-33.065,-6.739 -33.566,-6.283 -34.066,-5.693C-34.568,-5.102 -35.016,-4.412 -35.409,-3.625C-35.804,-2.838 -36.126,-1.969 -36.376,-1.021C-36.626,-0.072 -36.751,0.921 -36.751,1.958C-36.751,4.75 -36.107,7.176 -34.818,9.234C-33.53,11.292 -31.723,13.001 -29.396,14.361C-27.069,15.722 -24.269,16.742 -20.993,17.422C-17.718,18.101 -14.112,18.442 -10.175,18.442C-5.915,18.442 -2.05,17.985 1.423,17.073C4.895,16.16 7.865,14.791 10.335,12.965C12.805,11.139 14.711,8.84 16.054,6.066C17.396,3.292 18.066,0.044 18.066,-3.679C18.066,-6.149 17.727,-8.35 17.047,-10.283C16.366,-12.216 15.444,-13.898 14.281,-15.33C13.118,-16.761 11.749,-17.978 10.174,-18.981C8.599,-19.983 6.926,-20.788 5.154,-21.397C3.383,-22.005 1.548,-22.444 -0.349,-22.712C-2.247,-22.981 -4.09,-23.115 -5.879,-23.115L-7.168,-23.115C-7.598,-23.115 -8.116,-23.096 -8.725,-23.061C-8.761,-23.132 -8.778,-23.231 -8.778,-23.357L-8.778,-23.652C-8.778,-24.117 -8.653,-24.475 -8.402,-24.726C-8.152,-24.976 -7.821,-25.164 -7.409,-25.289C-6.998,-25.414 -6.523,-25.486 -5.986,-25.504C-5.45,-25.522 -4.896,-25.531 -4.322,-25.531C-2.854,-25.531 -1.414,-25.432 0,-25.236Z" style="fill:none;fill-rule:nonzero;stroke:rgb(249,220,173);stroke-width:18.95px;"/>
                </g>
                <g transform="matrix(1.2529,0,0,4.56623,2539.51,2805.04)">
                    <path d="M0,46.014C-0.196,45.495 -0.375,45.003 -0.536,44.537C-0.697,44.073 -0.832,43.651 -0.939,43.276C-1.047,42.9 -1.101,42.623 -1.101,42.443C-1.101,41.871 -0.931,41.459 -0.59,41.208C-0.25,40.958 0.26,40.779 0.94,40.672C1.154,41.352 1.458,42.184 1.853,43.168C2.246,44.153 2.666,45.155 3.114,46.175C3.562,47.195 4.018,48.18 4.483,49.128C4.948,50.076 5.378,50.873 5.772,51.517C6.237,51.697 6.908,51.875 7.785,52.054C8.662,52.233 9.611,52.394 10.631,52.537C11.651,52.68 12.689,52.797 13.745,52.886C14.801,52.975 15.74,53.02 16.563,53.02C18.998,53.02 21.109,52.895 22.899,52.645C24.688,52.394 26.246,51.965 27.57,51.356C28.895,50.748 30.04,49.933 31.007,48.913C31.974,47.893 32.877,46.614 33.718,45.074C34.559,43.535 35.391,41.701 36.215,39.571C37.038,37.442 37.95,34.98 38.953,32.188C39.633,30.256 40.33,28.081 41.047,25.665C41.763,23.249 42.407,20.825 42.979,18.39C43.552,15.956 44.018,13.621 44.376,11.383C44.733,9.147 44.913,7.259 44.913,5.719C44.913,3.786 44.572,2.041 43.893,0.484C43.212,-1.073 42.246,-2.406 40.993,-3.516C39.74,-4.625 38.246,-5.484 36.51,-6.093C34.773,-6.701 32.832,-7.006 30.685,-7.006C28.179,-7.006 25.799,-6.692 23.544,-6.066C21.289,-5.44 19.48,-4.607 18.121,-3.569C18.085,-2.889 18.031,-1.86 17.96,-0.482C17.888,0.896 17.78,2.48 17.638,4.269C17.494,6.059 17.333,7.974 17.154,10.014C16.975,12.055 16.77,14.059 16.537,16.028C16.304,17.996 16.035,19.867 15.731,21.639C15.427,23.41 15.096,24.923 14.738,26.175C14.451,27.106 14.175,27.849 13.906,28.403C13.638,28.959 13.235,29.236 12.698,29.236C12.519,29.236 12.304,29.218 12.054,29.182C11.803,29.147 11.553,29.057 11.303,28.913C11.695,27.59 12.063,26.086 12.403,24.403C12.743,22.722 13.047,20.967 13.315,19.141C13.584,17.316 13.826,15.491 14.04,13.665C14.255,11.84 14.425,10.121 14.551,8.511C14.676,6.9 14.773,5.442 14.846,4.135C14.917,2.829 14.953,1.8 14.953,1.048C14.058,-1.493 12.447,-3.47 10.121,-4.885C7.794,-6.299 4.823,-7.006 1.208,-7.006C-0.939,-7.006 -3.033,-6.728 -5.073,-6.174C-7.113,-5.618 -9.083,-4.678 -10.979,-3.355C-10.979,0.261 -11.016,3.366 -11.087,5.961C-11.159,8.556 -11.221,10.838 -11.274,12.806C-11.328,14.775 -11.382,16.511 -11.436,18.014C-11.489,19.517 -11.517,20.986 -11.517,22.417C-11.517,23.491 -11.508,24.502 -11.489,25.451C-11.472,26.399 -11.428,27.231 -11.355,27.947C-11.535,28.019 -11.704,28.055 -11.865,28.055L-12.321,28.055C-12.823,28.055 -13.217,27.903 -13.503,27.598C-13.79,27.294 -13.995,26.873 -14.12,26.336C-14.246,25.799 -14.317,25.174 -14.335,24.457C-14.354,23.742 -14.362,22.972 -14.362,22.148C-14.362,20.251 -14.345,18.57 -14.309,17.101C-14.273,15.634 -14.228,14.274 -14.174,13.021C-14.12,11.768 -14.076,10.578 -14.04,9.451C-14.005,8.323 -13.986,7.134 -13.986,5.88C-13.986,4.091 -14.139,2.426 -14.442,0.887C-14.747,-0.652 -15.364,-1.986 -16.295,-3.113C-17.226,-4.24 -18.532,-5.127 -20.214,-5.771C-21.897,-6.415 -24.134,-6.737 -26.926,-6.737L-39.919,-6.737C-41.064,-5.019 -41.887,-3.167 -42.389,-1.18C-42.89,0.806 -43.14,2.785 -43.14,4.753C-43.14,7.044 -42.791,9.12 -42.093,10.981C-41.396,12.842 -40.563,14.399 -39.597,15.652C-38.81,20.341 -37.941,24.475 -36.992,28.055C-36.045,31.634 -35.033,34.819 -33.959,37.611C-32.885,40.403 -31.749,42.865 -30.55,44.993C-29.351,47.124 -28.125,49.066 -26.872,50.819C-24.903,51.607 -22.729,52.17 -20.349,52.511C-17.969,52.85 -15.508,53.02 -12.966,53.02C-10.389,53.02 -8.134,52.877 -6.201,52.591C-4.268,52.304 -2.729,51.965 -1.584,51.571C-1.047,50.855 -0.617,50.148 -0.295,49.45C0.027,48.752 0.331,48.099 0.618,47.491C0.403,47.026 0.196,46.533 0,46.014Z" style="fill:none;fill-rule:nonzero;stroke:rgb(249,220,173);stroke-width:18.95px;"/>
                </g>
                <g transform="matrix(1.2529,0,0,4.56623,2636.48,2934.99)">
                    <path d="M0,-11.383C-0.573,-11.579 -1.038,-11.786 -1.396,-12C-1.253,-12.931 -0.886,-13.673 -0.295,-14.229C0.296,-14.783 1.092,-15.061 2.094,-15.061C2.81,-15.061 3.427,-14.917 3.946,-14.631C4.465,-14.344 4.725,-13.843 4.725,-13.128C4.725,-12.519 4.501,-12.027 4.054,-11.652C3.605,-11.276 2.935,-11.088 2.04,-11.088C1.253,-11.088 0.572,-11.186 0,-11.383ZM11.409,24.643C13.86,24.232 16.018,23.695 17.879,23.033C19.74,22.371 21.351,21.601 22.711,20.724C24.071,19.847 25.323,18.926 26.47,17.959C26.612,17.422 26.729,16.787 26.818,16.053C26.907,15.32 26.953,14.541 26.953,13.718C26.953,12.894 26.89,11.991 26.765,11.006C26.639,10.022 26.451,9.065 26.201,8.134C25.95,7.203 25.655,6.353 25.315,5.583C24.975,4.814 24.572,4.233 24.107,3.838C23.391,4.34 22.496,4.858 21.423,5.395C20.349,5.932 19.087,6.425 17.638,6.872C16.187,7.32 14.551,7.696 12.725,7.999C10.899,8.304 8.877,8.456 6.658,8.456C5.047,8.456 3.437,8.322 1.825,8.053C0.215,7.784 -1.217,7.445 -2.47,7.033C-3.723,6.622 -4.743,6.156 -5.53,5.637C-6.317,5.118 -6.711,4.59 -6.711,4.053C-6.711,3.874 -6.685,3.669 -6.631,3.436C-6.577,3.203 -6.461,3.015 -6.281,2.872C-4.671,3.838 -2.729,4.608 -0.456,5.18C1.816,5.754 4.17,6.04 6.604,6.04C9.825,6.04 12.813,5.682 15.57,4.966C18.326,4.25 20.706,3.15 22.711,1.664C24.716,0.179 26.282,-1.71 27.409,-4.001C28.537,-6.291 29.101,-9.029 29.101,-12.215C29.101,-15.579 28.437,-18.747 27.114,-21.718C25.789,-24.689 23.901,-27.284 21.449,-29.504C18.997,-31.722 16.035,-33.467 12.563,-34.738C9.092,-36.008 5.189,-36.644 0.859,-36.644C-3.222,-36.644 -7.105,-35.982 -10.792,-34.658C-14.479,-33.333 -17.709,-31.364 -20.482,-28.752C-23.257,-26.139 -25.458,-22.9 -27.087,-19.034C-28.716,-15.168 -29.529,-10.712 -29.529,-5.665C-29.529,-0.868 -28.77,3.445 -27.248,7.275C-25.727,11.105 -23.562,14.353 -20.751,17.019C-17.941,19.686 -14.55,21.726 -10.577,23.14C-6.604,24.554 -2.166,25.261 2.738,25.261C6.067,25.261 8.957,25.055 11.409,24.643Z" style="fill:none;fill-rule:nonzero;stroke:rgb(249,220,173);stroke-width:18.95px;"/>
                </g>
                <g transform="matrix(1.2529,0,0,4.56623,2680.95,3042.49)">
                    <path d="M0,-58.631C-1.074,-57.02 -1.871,-55.176 -2.39,-53.101C-2.907,-51.025 -3.168,-49.128 -3.168,-47.409C-3.168,-45.333 -2.907,-43.347 -2.39,-41.45C-1.871,-39.552 -1.074,-37.853 0,-36.349L0,-8.698C0,-7.052 0.376,-5.638 1.128,-4.457C1.879,-3.276 2.908,-2.3 4.215,-1.531C5.521,-0.761 7.051,-0.189 8.806,0.187C10.559,0.563 12.438,0.751 14.442,0.751C15.373,0.751 16.384,0.706 17.477,0.617C18.567,0.527 19.713,0.348 20.912,0.08C22.111,-0.189 23.337,-0.565 24.591,-1.048C25.843,-1.531 27.078,-2.166 28.295,-2.954L28.295,-29.906C26.577,-30.229 25.387,-30.532 24.725,-30.819C24.062,-31.105 23.731,-31.499 23.731,-32C23.731,-32.537 23.874,-32.948 24.161,-33.235C24.805,-33.091 25.44,-32.94 26.066,-32.779C26.692,-32.618 27.382,-32.474 28.134,-32.349C28.886,-32.223 29.718,-32.125 30.631,-32.054C31.543,-31.982 32.59,-31.946 33.771,-31.946C34.881,-31.946 36.008,-32.008 37.154,-32.134C38.299,-32.259 39.382,-32.43 40.402,-32.645C41.423,-32.86 42.362,-33.11 43.221,-33.396C44.08,-33.682 44.796,-33.968 45.369,-34.255C45.977,-35.508 46.541,-37.101 47.06,-39.034C47.578,-40.966 47.839,-43.382 47.839,-46.282C47.839,-47.893 47.713,-49.539 47.463,-51.221C47.212,-52.903 46.8,-54.497 46.228,-56C45.69,-56.393 45.028,-56.796 44.241,-57.208C43.453,-57.619 42.541,-57.986 41.503,-58.309C40.464,-58.631 39.302,-58.89 38.013,-59.087C36.725,-59.283 35.31,-59.382 33.771,-59.382C31.874,-59.382 30.004,-59.158 28.161,-58.712C26.316,-58.263 24.599,-57.503 23.007,-56.429C21.413,-55.356 20,-53.923 18.765,-52.134C17.53,-50.344 16.572,-48.125 15.893,-45.477C15.212,-45.477 14.711,-45.646 14.389,-45.986C14.067,-46.326 13.906,-46.712 13.906,-47.141C13.906,-47.498 13.995,-47.991 14.175,-48.617C14.354,-49.243 14.595,-49.906 14.899,-50.604C15.203,-51.302 15.562,-52.008 15.973,-52.725C16.384,-53.441 16.823,-54.048 17.288,-54.55C16.43,-55.839 15.257,-56.84 13.771,-57.557C12.286,-58.273 10.434,-58.631 8.215,-58.631L0,-58.631Z" style="fill:none;fill-rule:nonzero;stroke:rgb(249,220,173);stroke-width:18.95px;"/>
                </g>
                <g transform="matrix(1.2529,0,0,4.56623,2792.65,2966.12)">
                    <path d="M0,-25.236C1.413,-25.039 2.756,-24.779 4.026,-24.457C5.297,-24.135 6.47,-23.768 7.543,-23.357C8.617,-22.944 9.565,-22.506 10.389,-22.041C11.355,-22.971 12.196,-24.26 12.912,-25.907C13.628,-27.553 13.986,-29.611 13.986,-32.081C13.986,-33.155 13.906,-34.318 13.745,-35.571C13.584,-36.824 13.323,-37.826 12.966,-38.578C11.785,-39.257 10.397,-39.911 8.805,-40.538C7.212,-41.163 5.477,-41.71 3.597,-42.175C1.718,-42.64 -0.296,-43.007 -2.443,-43.276C-4.591,-43.544 -6.828,-43.678 -9.154,-43.678C-13.879,-43.678 -17.996,-43.106 -21.503,-41.961C-25.012,-40.815 -27.929,-39.276 -30.255,-37.343C-32.582,-35.41 -34.317,-33.164 -35.463,-30.605C-36.608,-28.045 -37.181,-25.352 -37.181,-22.525C-37.181,-19.123 -36.483,-16.224 -35.087,-13.826C-33.691,-11.428 -31.812,-9.451 -29.449,-7.894C-27.087,-6.337 -24.341,-5.2 -21.208,-4.485C-18.076,-3.768 -14.757,-3.41 -11.248,-3.41L-10.658,-3.41C-10.443,-3.41 -10.14,-3.428 -9.745,-3.464C-9.638,-3.177 -9.584,-2.891 -9.584,-2.605C-9.584,-2.104 -9.736,-1.71 -10.04,-1.424C-10.345,-1.137 -11.033,-0.994 -12.107,-0.994C-14.435,-0.994 -16.636,-1.173 -18.711,-1.531C-20.788,-1.889 -22.711,-2.354 -24.483,-2.927C-26.255,-3.5 -27.83,-4.153 -29.208,-4.887C-30.586,-5.62 -31.704,-6.345 -32.563,-7.062C-33.065,-6.739 -33.566,-6.283 -34.066,-5.693C-34.568,-5.102 -35.016,-4.412 -35.409,-3.625C-35.804,-2.838 -36.126,-1.969 -36.376,-1.021C-36.626,-0.072 -36.751,0.921 -36.751,1.958C-36.751,4.75 -36.107,7.176 -34.818,9.234C-33.53,11.292 -31.723,13.001 -29.396,14.361C-27.069,15.722 -24.269,16.742 -20.993,17.422C-17.718,18.101 -14.112,18.442 -10.175,18.442C-5.915,18.442 -2.05,17.985 1.423,17.073C4.895,16.16 7.865,14.791 10.335,12.965C12.805,11.139 14.711,8.84 16.054,6.066C17.396,3.292 18.066,0.044 18.066,-3.679C18.066,-6.149 17.727,-8.35 17.047,-10.283C16.366,-12.216 15.444,-13.898 14.281,-15.33C13.118,-16.761 11.749,-17.978 10.174,-18.981C8.599,-19.983 6.926,-20.788 5.154,-21.397C3.383,-22.005 1.548,-22.444 -0.349,-22.712C-2.247,-22.981 -4.09,-23.115 -5.879,-23.115L-7.168,-23.115C-7.598,-23.115 -8.116,-23.096 -8.725,-23.061C-8.761,-23.132 -8.778,-23.231 -8.778,-23.357L-8.778,-23.652C-8.778,-24.117 -8.653,-24.475 -8.402,-24.726C-8.152,-24.976 -7.821,-25.164 -7.409,-25.289C-6.998,-25.414 -6.523,-25.486 -5.986,-25.504C-5.45,-25.522 -4.896,-25.531 -4.322,-25.531C-2.854,-25.531 -1.414,-25.432 0,-25.236Z" style="fill:none;fill-rule:nonzero;stroke:rgb(249,220,173);stroke-width:18.95px;"/>
                </g>
                <g transform="matrix(1.2529,0,0,4.56623,2855.6,2621.77)">
                    <path d="M0,70.269C-0.177,70.976 -0.296,71.669 -0.354,72.346C-0.413,73.024 -0.442,73.687 -0.442,74.335C-0.442,77.282 0.382,79.948 2.032,82.334C3.682,84.721 5.892,86.753 8.662,88.433C11.431,90.112 14.672,91.424 18.385,92.366C22.097,93.308 26.044,93.78 30.229,93.78C33.587,93.78 36.754,93.456 39.73,92.808C42.705,92.161 45.356,91.336 47.686,90.333C50.013,89.332 51.957,88.256 53.519,87.107C55.079,85.958 56.126,84.884 56.656,83.881C56.243,83.233 55.816,81.686 55.375,79.241C54.933,76.796 54.535,73.511 54.182,69.385C52.001,69.268 49.924,69.032 47.95,68.678C45.976,68.325 44.223,67.869 42.691,67.308C41.158,66.749 39.936,66.101 39.023,65.364C38.108,64.627 37.653,63.817 37.653,62.933C37.653,62.462 37.741,62.035 37.918,61.651C38.095,61.269 38.301,60.93 38.537,60.635C39.244,61.165 40.128,61.711 41.188,62.27C42.249,62.831 43.516,63.346 44.989,63.817C46.462,64.289 48.186,64.687 50.16,65.01C52.134,65.334 54.388,65.496 56.922,65.496C58.276,65.496 59.735,65.394 61.297,65.187C62.857,64.981 64.42,64.672 65.981,64.259C67.542,63.847 69.031,63.331 70.445,62.712C71.859,62.093 73.097,61.401 74.157,60.635C74.923,61.225 75.307,61.991 75.307,62.933C75.307,63.64 74.85,64.347 73.937,65.054C73.022,65.761 71.844,66.395 70.401,66.955C68.956,67.515 67.336,67.986 65.54,68.369C63.741,68.753 61.93,68.974 60.104,69.032L62.048,79.815C62.46,82.172 63.388,84.221 64.832,85.958C66.275,87.697 68.103,89.14 70.313,90.289C72.522,91.438 75.07,92.307 77.958,92.896C80.845,93.485 83.938,93.78 87.239,93.78C94.722,93.78 100.908,92.66 105.801,90.422C110.69,88.183 114.491,85.326 117.202,81.848L97.05,-1.502C96.106,-5.391 94.31,-8.735 91.658,-11.534C89.007,-14.332 85.824,-16.617 82.112,-18.384C78.4,-20.152 74.29,-21.447 69.782,-22.273C65.274,-23.098 60.723,-23.511 56.126,-23.511C52.648,-23.511 49.188,-23.29 45.74,-22.848C42.294,-22.406 38.964,-21.772 35.753,-20.947C32.54,-20.122 29.491,-19.105 26.604,-17.898C23.717,-16.689 21.124,-15.349 18.826,-13.877L0,70.269ZM60.811,34.206C60.574,34.326 60.221,34.458 59.75,34.604C59.277,34.752 58.778,34.826 58.247,34.826C57.894,34.826 57.496,34.768 57.055,34.649C56.612,34.531 56.272,34.354 56.038,34.118L52.679,16.264C52.974,16.146 53.298,16.029 53.651,15.91C54.005,15.793 54.388,15.733 54.801,15.733C55.448,15.733 55.993,15.896 56.436,16.22C56.878,16.544 57.289,17.251 57.673,18.341C58.056,19.432 58.438,21.037 58.822,23.158C59.205,25.28 59.72,28.108 60.369,31.644L60.811,34.206Z" style="fill:none;fill-rule:nonzero;stroke:rgb(249,220,173);stroke-width:18.95px;"/>
                </g>
                <g transform="matrix(1.2529,0,0,4.56623,3010.74,3042.49)">
                    <path d="M0,-58.631C-1.074,-57.02 -1.871,-55.176 -2.39,-53.101C-2.907,-51.025 -3.168,-49.128 -3.168,-47.409C-3.168,-45.333 -2.907,-43.347 -2.39,-41.45C-1.871,-39.552 -1.074,-37.853 0,-36.349L0,-8.698C0,-7.052 0.376,-5.638 1.128,-4.457C1.879,-3.276 2.908,-2.3 4.215,-1.531C5.521,-0.761 7.051,-0.189 8.806,0.187C10.559,0.563 12.438,0.751 14.442,0.751C15.373,0.751 16.384,0.706 17.477,0.617C18.567,0.527 19.713,0.348 20.912,0.08C22.111,-0.189 23.337,-0.565 24.591,-1.048C25.843,-1.531 27.078,-2.166 28.295,-2.954L28.295,-29.906C26.577,-30.229 25.387,-30.532 24.725,-30.819C24.062,-31.105 23.731,-31.499 23.731,-32C23.731,-32.537 23.874,-32.948 24.161,-33.235C24.805,-33.091 25.44,-32.94 26.066,-32.779C26.692,-32.618 27.382,-32.474 28.134,-32.349C28.886,-32.223 29.718,-32.125 30.631,-32.054C31.543,-31.982 32.59,-31.946 33.771,-31.946C34.881,-31.946 36.008,-32.008 37.154,-32.134C38.299,-32.259 39.382,-32.43 40.402,-32.645C41.423,-32.86 42.362,-33.11 43.221,-33.396C44.08,-33.682 44.796,-33.968 45.369,-34.255C45.977,-35.508 46.541,-37.101 47.06,-39.034C47.578,-40.966 47.839,-43.382 47.839,-46.282C47.839,-47.893 47.713,-49.539 47.463,-51.221C47.212,-52.903 46.8,-54.497 46.228,-56C45.69,-56.393 45.028,-56.796 44.241,-57.208C43.453,-57.619 42.541,-57.986 41.503,-58.309C40.464,-58.631 39.302,-58.89 38.013,-59.087C36.725,-59.283 35.31,-59.382 33.771,-59.382C31.874,-59.382 30.004,-59.158 28.161,-58.712C26.316,-58.263 24.599,-57.503 23.007,-56.429C21.413,-55.356 20,-53.923 18.765,-52.134C17.53,-50.344 16.572,-48.125 15.893,-45.477C15.212,-45.477 14.711,-45.646 14.389,-45.986C14.067,-46.326 13.906,-46.712 13.906,-47.141C13.906,-47.498 13.995,-47.991 14.175,-48.617C14.354,-49.243 14.595,-49.906 14.899,-50.604C15.203,-51.302 15.562,-52.008 15.973,-52.725C16.384,-53.441 16.823,-54.048 17.288,-54.55C16.43,-55.839 15.257,-56.84 13.771,-57.557C12.286,-58.273 10.434,-58.631 8.215,-58.631L0,-58.631Z" style="fill:none;fill-rule:nonzero;stroke:rgb(249,220,173);stroke-width:18.95px;"/>
                </g>
                <g transform="matrix(1.2529,0,0,4.56623,3111.71,2934.99)">
                    <path d="M0,-11.383C-0.573,-11.579 -1.038,-11.786 -1.396,-12C-1.253,-12.931 -0.886,-13.673 -0.295,-14.229C0.296,-14.783 1.092,-15.061 2.094,-15.061C2.81,-15.061 3.427,-14.917 3.946,-14.631C4.465,-14.344 4.725,-13.843 4.725,-13.128C4.725,-12.519 4.501,-12.027 4.054,-11.652C3.605,-11.276 2.935,-11.088 2.04,-11.088C1.253,-11.088 0.572,-11.186 0,-11.383ZM11.409,24.643C13.86,24.232 16.018,23.695 17.879,23.033C19.74,22.371 21.351,21.601 22.711,20.724C24.071,19.847 25.323,18.926 26.47,17.959C26.612,17.422 26.729,16.787 26.818,16.053C26.907,15.32 26.953,14.541 26.953,13.718C26.953,12.894 26.89,11.991 26.765,11.006C26.639,10.022 26.451,9.065 26.201,8.134C25.95,7.203 25.655,6.353 25.315,5.583C24.975,4.814 24.572,4.233 24.107,3.838C23.391,4.34 22.496,4.858 21.423,5.395C20.349,5.932 19.087,6.425 17.638,6.872C16.187,7.32 14.551,7.696 12.725,7.999C10.899,8.304 8.877,8.456 6.658,8.456C5.047,8.456 3.437,8.322 1.825,8.053C0.215,7.784 -1.217,7.445 -2.47,7.033C-3.723,6.622 -4.743,6.156 -5.53,5.637C-6.317,5.118 -6.711,4.59 -6.711,4.053C-6.711,3.874 -6.685,3.669 -6.631,3.436C-6.577,3.203 -6.461,3.015 -6.281,2.872C-4.671,3.838 -2.729,4.608 -0.456,5.18C1.816,5.754 4.17,6.04 6.604,6.04C9.825,6.04 12.813,5.682 15.57,4.966C18.326,4.25 20.706,3.15 22.711,1.664C24.716,0.179 26.282,-1.71 27.409,-4.001C28.537,-6.291 29.101,-9.029 29.101,-12.215C29.101,-15.579 28.437,-18.747 27.114,-21.718C25.789,-24.689 23.901,-27.284 21.449,-29.504C18.997,-31.722 16.035,-33.467 12.563,-34.738C9.092,-36.008 5.189,-36.644 0.859,-36.644C-3.222,-36.644 -7.105,-35.982 -10.792,-34.658C-14.479,-33.333 -17.709,-31.364 -20.482,-28.752C-23.257,-26.139 -25.458,-22.9 -27.087,-19.034C-28.716,-15.168 -29.529,-10.712 -29.529,-5.665C-29.529,-0.868 -28.77,3.445 -27.248,7.275C-25.727,11.105 -23.562,14.353 -20.751,17.019C-17.941,19.686 -14.55,21.726 -10.577,23.14C-6.604,24.554 -2.166,25.261 2.738,25.261C6.067,25.261 8.957,25.055 11.409,24.643Z" style="fill:none;fill-rule:nonzero;stroke:rgb(249,220,173);stroke-width:18.95px;"/>
                </g>
                <g transform="matrix(1.2529,0,0,4.56623,3255.81,2552.76)">
                    <path d="M0,100.587L0,9.282C0,6.276 -0.693,3.669 -2.077,1.46C-3.463,-0.75 -5.318,-2.576 -7.646,-4.021C-9.975,-5.464 -12.67,-6.54 -15.733,-7.247C-18.798,-7.954 -21.979,-8.308 -25.279,-8.308C-31.525,-8.308 -36.873,-7.453 -41.321,-5.744C-45.771,-4.035 -49.203,-2.121 -51.619,0.001L-51.619,91.306C-51.619,94.311 -50.927,96.919 -49.542,99.129C-48.158,101.338 -46.302,103.165 -43.974,104.608C-41.646,106.053 -38.95,107.128 -35.886,107.835C-32.822,108.542 -29.641,108.895 -26.34,108.895C-20.095,108.895 -14.747,108.041 -10.297,106.332C-5.849,104.624 -2.417,102.708 0,100.587Z" style="fill:none;fill-rule:nonzero;stroke:rgb(249,220,173);stroke-width:18.95px;"/>
                </g>
                <g transform="matrix(1.2529,0,0,4.56623,3267.21,3041.26)">
                    <path d="M0,-58.361C-1.074,-56.75 -1.871,-54.906 -2.39,-52.831C-2.907,-50.755 -3.168,-48.858 -3.168,-47.139C-3.168,-45.063 -2.907,-43.077 -2.39,-41.18C-1.871,-39.282 -1.074,-37.583 0,-36.079L0,-10.093C0,-8.16 0.43,-6.486 1.289,-5.073C2.147,-3.658 3.248,-2.477 4.591,-1.529C5.933,-0.58 7.437,0.127 9.101,0.592C10.765,1.056 12.402,1.289 14.014,1.289C17.234,1.289 20.107,0.797 22.631,-0.187C25.154,-1.171 27.203,-2.486 28.778,-4.133C28.062,-5.457 27.427,-7.032 26.872,-8.858C26.316,-10.683 26.04,-12.992 26.04,-15.784C26.04,-16.285 26.058,-16.929 26.094,-17.717C26.129,-18.504 26.183,-19.382 26.255,-20.348C26.326,-21.314 26.424,-22.343 26.55,-23.435C26.675,-24.527 26.827,-25.61 27.007,-26.683L26.309,-35.435C26.773,-35.721 27.275,-35.864 27.812,-35.864C28.635,-35.864 29.234,-35.55 29.61,-34.925C29.986,-34.298 30.174,-33.126 30.174,-31.408C30.174,-30.477 30.102,-29.457 29.959,-28.348C29.816,-27.238 29.664,-26.03 29.503,-24.724C29.342,-23.417 29.198,-22.012 29.073,-20.509C28.947,-19.006 28.886,-17.412 28.886,-15.731C28.886,-12.58 29.323,-9.923 30.201,-7.757C31.078,-5.591 32.259,-3.838 33.744,-2.496C35.229,-1.153 36.947,-0.187 38.899,0.404C40.85,0.994 42.898,1.289 45.047,1.289C47.087,1.289 49.011,0.958 50.818,0.296C52.625,-0.366 54.209,-1.359 55.57,-2.684C56.93,-4.007 58.004,-5.645 58.791,-7.596C59.578,-9.547 59.973,-11.793 59.973,-14.335L59.973,-15.274C59.973,-15.685 59.954,-16.034 59.919,-16.321C58.415,-17.252 57.396,-18.522 56.858,-20.133C56.321,-21.744 56.053,-23.784 56.053,-26.254C56.053,-27.972 56.08,-29.833 56.134,-31.838C56.188,-33.842 56.214,-35.65 56.214,-37.26C56.214,-41.663 55.534,-45.314 54.174,-48.213C52.813,-51.112 51.06,-53.403 48.912,-55.086C46.765,-56.768 44.356,-57.949 41.69,-58.629C39.024,-59.309 36.402,-59.65 33.825,-59.65C31.642,-59.65 29.592,-59.389 27.678,-58.871C25.763,-58.352 24.026,-57.663 22.47,-56.804C20.912,-55.944 19.552,-54.942 18.389,-53.797C17.226,-52.651 16.286,-51.452 15.57,-50.2C14.89,-50.2 14.407,-50.369 14.121,-50.71C13.834,-51.049 13.691,-51.435 13.691,-51.864C13.691,-52.831 14.479,-54.047 16.054,-55.515C15.266,-56.338 14.362,-57.019 13.342,-57.555C12.322,-58.092 11.061,-58.361 9.557,-58.361L0,-58.361Z" style="fill:none;fill-rule:nonzero;stroke:rgb(249,220,173);stroke-width:18.95px;"/>
                </g>
                <g transform="matrix(1.2529,0,0,4.56623,3348.94,2946.51)">
                    <path d="M0,12.187C0.823,14.066 1.933,15.704 3.329,17.1C4.725,18.496 6.354,19.596 8.215,20.402C10.075,21.207 12.063,21.61 14.175,21.61C16.322,21.61 18.344,21.207 20.241,20.402C22.139,19.596 23.794,18.496 25.208,17.1C26.621,15.704 27.739,14.066 28.563,12.187C29.387,10.308 29.799,8.313 29.799,6.201C29.799,4.053 29.387,2.031 28.563,0.133C27.739,-1.763 26.621,-3.418 25.208,-4.833C23.794,-6.247 22.139,-7.365 20.241,-8.188C18.344,-9.012 16.322,-9.423 14.175,-9.423C12.063,-9.423 10.075,-9.012 8.215,-8.188C6.354,-7.365 4.725,-6.247 3.329,-4.833C1.933,-3.418 0.823,-1.763 0,0.133C-0.823,2.031 -1.234,4.053 -1.234,6.201C-1.234,8.313 -0.823,10.308 0,12.187Z" style="fill:none;fill-rule:nonzero;stroke:rgb(249,220,173);stroke-width:18.95px;"/>
                </g>
                <g transform="matrix(1.2529,0,0,4.56623,3392.74,2946.51)">
                    <path d="M0,12.187C0.823,14.066 1.933,15.704 3.329,17.1C4.725,18.496 6.354,19.596 8.215,20.402C10.075,21.207 12.063,21.61 14.175,21.61C16.322,21.61 18.344,21.207 20.241,20.402C22.139,19.596 23.794,18.496 25.208,17.1C26.621,15.704 27.739,14.066 28.563,12.187C29.387,10.308 29.799,8.313 29.799,6.201C29.799,4.053 29.387,2.031 28.563,0.133C27.739,-1.763 26.621,-3.418 25.208,-4.833C23.794,-6.247 22.139,-7.365 20.241,-8.188C18.344,-9.012 16.322,-9.423 14.175,-9.423C12.063,-9.423 10.075,-9.012 8.215,-8.188C6.354,-7.365 4.725,-6.247 3.329,-4.833C1.933,-3.418 0.823,-1.763 0,0.133C-0.823,2.031 -1.234,4.053 -1.234,6.201C-1.234,8.313 -0.823,10.308 0,12.187Z" style="fill:none;fill-rule:nonzero;stroke:rgb(249,220,173);stroke-width:18.95px;"/>
                </g>
                <g transform="matrix(1.2529,0,0,4.56623,3436.53,2946.51)">
                    <path d="M0,12.187C0.823,14.066 1.933,15.704 3.329,17.1C4.725,18.496 6.354,19.596 8.215,20.402C10.075,21.207 12.063,21.61 14.175,21.61C16.322,21.61 18.344,21.207 20.241,20.402C22.139,19.596 23.794,18.496 25.208,17.1C26.621,15.704 27.739,14.066 28.563,12.187C29.387,10.308 29.799,8.313 29.799,6.201C29.799,4.053 29.387,2.031 28.563,0.133C27.739,-1.763 26.621,-3.418 25.208,-4.833C23.794,-6.247 22.139,-7.365 20.241,-8.188C18.344,-9.012 16.322,-9.423 14.175,-9.423C12.063,-9.423 10.075,-9.012 8.215,-8.188C6.354,-7.365 4.725,-6.247 3.329,-4.833C1.933,-3.418 0.823,-1.763 0,0.133C-0.823,2.031 -1.234,4.053 -1.234,6.201C-1.234,8.313 -0.823,10.308 0,12.187Z" style="fill:none;fill-rule:nonzero;stroke:rgb(249,220,173);stroke-width:18.95px;"/>
                </g>
                <g transform="matrix(1.2529,0,0,4.56623,2028.34,2245.93)">
                    <text x="114.412px" y="169.08px" style="font-family:'Modak';font-size:181.019px;fill:rgb(46,41,79);">A</text>
                    <text x="237.446px" y="169.08px" style="font-family:'Modak';font-size:109.959px;fill:rgb(46,41,79);">n<tspan x="302.571px 360.878px 449.359px 512.98px 566.777px " y="169.08px 169.08px 169.08px 169.08px 169.08px ">swers</tspan></text>
                    <text x="653.179px" y="169.08px" style="font-family:'Modak';font-size:181.019px;fill:rgb(46,41,79);">A</text>
                    <text x="776.213px" y="169.08px" style="font-family:'Modak';font-size:109.959px;fill:rgb(46,41,79);">r<tspan x="828.667px " y="169.08px ">e</tspan></text>
                    <text x="919.84px" y="169.08px" style="font-family:'Modak';font-size:181.019px;fill:rgb(46,41,79);">I</text>
                    <text x="980.914px" y="169.08px" style="font-family:'Modak';font-size:109.959px;fill:rgb(46,41,79);">n<tspan x="1046.31px 1081.26px 1116.21px " y="169.08px 169.08px 169.08px ">...</tspan></text>
                </g>
            </g>
        </g>
    </g>
</svg>
