<?xml version="1.0" encoding="UTF-8" standalone="no"?>
<!DOCTYPE svg PUBLIC "-//W3C//DTD SVG 1.1//EN" "http://www.w3.org/Graphics/SVG/1.1/DTD/svg11.dtd">
<svg width="100%" height="100%" viewBox="0 0 401 532" version="1.1" xmlns="http://www.w3.org/2000/svg" xmlns:xlink="http://www.w3.org/1999/xlink" xml:space="preserve" xmlns:serif="http://www.serif.com/" style="fill-rule:evenodd;clip-rule:evenodd;stroke-linejoin:round;stroke-miterlimit:2;">
    <g transform="matrix(1,0,0,1,-2387,-4552)">
        <g id="PlayerIndicator" transform="matrix(0.35877,0,0,0.350689,1530.44,2955.6)">
            <rect x="2387.49" y="4552.18" width="1116.55" height="1514.37" style="fill:none;"/>
            <clipPath id="_clip1">
                <rect x="2387.49" y="4552.18" width="1116.55" height="1514.37"/>
            </clipPath>
            <g clip-path="url(#_clip1)">
                <g transform="matrix(2.7873,0,0,2.85153,2487.04,4551.87)">
                    <path d="M0,530.703L-35.714,530.703L-35.714,174.097L-35.695,158.463L-35.376,150.727C-35.313,149.442 -35.29,148.14 -35.195,146.868L-34.758,143.111C-34.456,140.608 -34.132,138.112 -33.787,135.623L-32.284,128.459C-31.775,126.076 -31.317,123.657 -30.626,121.405C-29.964,119.121 -29.248,116.852 -28.561,114.575C-22.524,96.409 -12.383,78.834 0.694,64.207C7.244,56.879 14.451,50.164 22.225,44.113C30.019,38.082 38.36,32.691 47.144,27.941C64.708,18.434 84.05,11.499 104.172,6.95C114.233,4.677 124.479,2.928 134.83,1.83C140.002,1.276 145.195,0.83 150.399,0.555L154.303,0.358L156.22,0.278L157.873,0.235C160.009,0.19 161.665,0.129 164.249,0.115C185.096,0 205.959,2.063 226.014,6.531C246.048,11.035 265.265,17.92 282.687,27.451C300.092,36.985 315.742,49.169 328.587,64.022C341.459,78.798 351.392,96.359 357.23,114.535C358.561,119.13 360.048,123.564 360.867,128.455L362.321,135.644L363.23,143.15L363.679,146.907C363.804,148.169 363.8,149.479 363.868,150.763L364.171,158.503L364.187,174.137L364.187,530.703L328.473,530.703L328.473,178.629L328.462,165.799L328.268,159.433C328.225,158.377 328.228,157.302 328.147,156.26L327.86,153.149L327.277,146.934L326.344,140.922C325.827,136.85 324.865,133.072 323.962,129.192C319.975,113.788 311.886,98.963 301.047,86.793C290.231,74.542 276.901,64.786 262.308,57.219C233.014,42.141 198.583,35.633 164.406,35.829C162.282,35.841 160.752,35.896 158.916,35.934L157.505,35.969L155.926,36.035L152.722,36.195C148.451,36.409 144.188,36.771 139.94,37.206C131.44,38.073 123.016,39.448 114.725,41.237C98.144,44.817 82.107,50.244 67.396,57.792C60.04,61.563 53.015,65.861 46.43,70.718C39.86,75.587 33.741,81.032 28.215,87.05C22.704,93.073 17.833,99.726 13.842,106.851C9.835,113.962 6.755,121.545 4.639,129.217C4.182,131.144 3.696,133.066 3.263,134.998C2.819,136.91 2.526,138.929 2.2,140.924L1.236,146.92L0.613,153.124L0.333,156.235C0.272,157.284 0.257,158.353 0.217,159.411L0.013,165.773L0,178.603L0,530.703Z" style="fill:rgb(249,163,95);fill-rule:nonzero;"/>
                </g>
                <g transform="matrix(2.7873,0,0,2.85153,2600.86,4668.11)">
                    <path d="M0,489.938L-35.714,489.938L-35.714,138.484L-35.703,126.057L-35.515,119.891C-35.478,118.866 -35.464,117.831 -35.408,116.813L-35.15,113.795L-34.578,107.776L-33.691,101.947C-33.392,100.007 -33.122,98.046 -32.714,96.183C-32.313,94.302 -31.861,92.429 -31.437,90.552C-29.455,83.079 -26.505,75.696 -22.632,68.781C-18.775,61.853 -14.041,55.395 -8.674,49.562C-3.295,43.732 2.667,38.469 9.065,33.769C15.477,29.08 22.312,24.939 29.463,21.309C43.766,14.041 59.328,8.831 75.401,5.39C83.438,3.671 91.602,2.349 99.836,1.515C103.952,1.097 108.081,0.747 112.218,0.541L115.322,0.387L116.853,0.324L118.228,0.289C120.022,0.252 121.533,0.198 123.592,0.187C156.695,0 190.054,6.218 218.548,20.724C232.738,28.009 245.735,37.416 256.26,49.294C266.807,61.09 274.632,75.523 278.354,90.529C279.196,94.307 280.082,97.991 280.556,101.945L281.414,107.788L281.95,113.819L282.214,116.836C282.288,117.847 282.286,118.888 282.325,119.912L282.504,126.081L282.514,138.508L282.514,489.938L246.8,489.938L246.8,143C246.797,136.588 246.854,130.144 246.579,123.818L246.369,119.078L246.033,114.411C245.926,112.852 245.812,111.298 245.658,109.772C245.491,108.241 245.275,106.714 245.087,105.185C244.13,99.088 242.191,93.082 239.398,87.479C236.605,81.872 232.957,76.685 228.719,72.065C220.225,62.789 209.546,55.811 198.169,50.491C186.742,45.199 174.493,41.578 161.966,39.206C149.424,36.859 136.579,35.826 123.749,35.9C122.15,35.909 120.766,35.959 119.271,35.988C117.804,36.007 116.12,36.107 114.541,36.181C112.938,36.254 111.338,36.351 109.74,36.484C108.141,36.613 106.541,36.714 104.947,36.892C98.563,37.495 92.221,38.442 85.953,39.677C73.421,42.15 61.165,45.851 49.715,51.16C38.288,56.458 27.577,63.355 18.847,72.405C14.489,76.916 10.71,82.02 7.785,87.571C4.849,93.114 2.81,99.107 1.764,105.195C1.569,106.722 1.347,108.247 1.175,109.776C1.015,111.298 0.91,112.859 0.792,114.412L0.445,119.073L0.221,123.809C0.044,126.953 0.078,130.181 0.004,133.367L0,142.991L0,489.938Z" style="fill:rgb(252,102,41);fill-rule:nonzero;"/>
                </g>
                <g transform="matrix(2.7873,0,0,2.85153,2942.34,5017.87)">
                    <path d="M0,367.28L-35.714,367.28L-35.714,31.284C-35.691,27.544 -35.767,23.801 -35.662,20.062C-35.366,16.312 -33.51,12.802 -30.843,10.19C-28.179,7.55 -24.882,5.635 -21.445,4.184C-17.995,2.732 -14.36,1.752 -10.682,1.088C-8.841,0.757 -6.985,0.504 -5.122,0.341C-4.658,0.282 -4.187,0.294 -3.722,0.246L-3.024,0.181L-2.322,0.164L-1.622,0.122C-1.496,0.115 -1.412,0.098 -1.25,0.099L-0.705,0.09C0.063,0.08 1.14,0.035 1.622,0.043C9.085,0 16.648,1.047 23.584,3.899C27.016,5.355 30.317,7.294 32.89,10.028C34.165,11.393 35.266,12.933 36.049,14.633C36.833,16.33 37.313,18.169 37.444,20.036C37.543,23.775 37.471,27.517 37.494,31.258L37.494,367.28L1.779,367.28L1.779,35.75C1.767,35.764 1.787,35.734 1.779,35.759L0,35.79L0,367.28Z" style="fill:rgb(0,112,143);fill-rule:nonzero;"/>
                </g>
                <g transform="matrix(2.7873,0,0,2.85153,2828.51,4901.41)">
                    <path d="M0,408.12L-35.714,408.12L-35.714,45.923C-35.695,44.921 -35.638,43.92 -35.602,42.918C-35.26,38.921 -34.142,35 -32.348,31.416C-30.555,27.831 -28.128,24.571 -25.273,21.758C-19.563,16.098 -12.497,11.995 -5.129,8.885C2.265,5.771 10.056,3.671 17.942,2.248C21.887,1.539 25.864,0.995 29.858,0.646C30.854,0.534 31.858,0.497 32.856,0.414C33.855,0.327 34.855,0.272 35.857,0.236C36.882,0.195 37.799,0.12 38.939,0.11C40.05,0.091 41.271,0.045 42.279,0.043C50.294,0 58.324,0.545 66.235,1.866C74.137,3.197 81.948,5.228 89.353,8.32C96.711,11.439 103.778,15.603 109.305,21.451C112.054,24.365 114.392,27.685 116.07,31.327C117.751,34.964 118.782,38.907 119.061,42.908C119.095,43.91 119.149,44.911 119.167,45.913L119.167,408.12L83.453,408.12L83.453,71.454C83.428,67.177 83.509,62.898 83.396,58.622C83.247,56.488 82.698,54.384 81.801,52.444C80.906,50.5 79.649,48.737 78.189,47.178C75.246,44.054 71.473,41.836 67.548,40.171C59.618,36.909 50.97,35.714 42.436,35.76C41.889,35.754 40.794,35.798 39.982,35.809L39.403,35.82C39.228,35.819 39.125,35.837 38.982,35.844L38.182,35.89L37.379,35.913L36.581,35.985C36.049,36.036 35.511,36.031 34.98,36.096C32.85,36.282 30.728,36.572 28.624,36.951C24.417,37.71 20.261,38.83 16.316,40.491C12.385,42.15 8.616,44.339 5.57,47.358C2.52,50.344 0.399,54.358 0.06,58.646C-0.06,62.921 0.027,67.201 0,71.478L0,408.12Z" style="fill:rgb(0,140,153);fill-rule:nonzero;"/>
                </g>
                <g transform="matrix(2.7873,0,0,2.85153,2714.69,4784.88)">
                    <path d="M0,448.987L-35.714,448.987L-35.714,102.686C-35.717,96.54 -35.749,90.373 -35.543,84.294L-35.369,79.742L-35.099,75.249C-35.008,73.752 -34.926,72.248 -34.802,70.775C-34.663,69.296 -34.474,67.821 -34.312,66.344C-33.399,60.455 -31.49,54.661 -28.689,49.315C-25.897,43.961 -22.256,39.052 -18.043,34.731C-9.604,26.057 0.768,19.509 11.783,14.49C22.824,9.462 34.606,5.978 46.629,3.643C52.644,2.479 58.725,1.585 64.844,1.015C66.37,0.845 67.905,0.753 69.436,0.629C70.968,0.503 72.501,0.411 74.037,0.342C75.554,0.271 77.153,0.176 78.583,0.158C80.036,0.129 81.402,0.081 82.935,0.072C95.229,0 107.537,0.965 119.576,3.17C131.601,5.398 143.383,8.801 154.409,13.81C165.383,18.847 175.729,25.477 183.932,34.38C188.023,38.814 191.534,43.808 194.191,49.22C196.849,54.629 198.654,60.438 199.479,66.336C200.768,78.094 200.908,90.375 200.84,102.693L200.84,448.987L165.126,448.987L165.126,84.728C165.107,83.659 165.049,82.59 165.013,81.522C164.714,77.253 163.615,73.046 161.822,69.166C160.031,65.28 157.538,61.737 154.604,58.628C148.707,52.389 141.168,47.946 133.317,44.619C125.417,41.32 117.083,39.153 108.652,37.732C100.211,36.325 91.645,35.74 83.092,35.787C82.019,35.791 80.78,35.836 79.626,35.857C78.45,35.868 77.447,35.944 76.361,35.989C75.292,36.029 74.224,36.088 73.159,36.179C72.093,36.266 71.023,36.31 69.96,36.429C65.699,36.801 61.456,37.381 57.246,38.138C48.833,39.656 40.521,41.896 32.631,45.219C24.771,48.537 17.232,52.915 11.139,58.953C8.094,61.955 5.503,65.431 3.591,69.258C1.677,73.081 0.484,77.265 0.12,81.529C0.081,82.598 0.02,83.666 0,84.735L0,448.987Z" style="fill:rgb(121,169,161);fill-rule:nonzero;"/>
                </g>
            </g>
        </g>
    </g>
</svg>
