<?xml version="1.0" encoding="UTF-8" standalone="no"?>
<!DOCTYPE svg PUBLIC "-//W3C//DTD SVG 1.1//EN" "http://www.w3.org/Graphics/SVG/1.1/DTD/svg11.dtd">
<svg width="100%" height="100%" viewBox="0 0 1275 167" version="1.1" xmlns="http://www.w3.org/2000/svg" xmlns:xlink="http://www.w3.org/1999/xlink" xml:space="preserve" xmlns:serif="http://www.serif.com/" style="fill-rule:evenodd;clip-rule:evenodd;stroke-linejoin:round;stroke-miterlimit:2;">
    <g transform="matrix(1,0,0,1,-3061.9,-4524.25)">
        <g id="AndTheWinnerIs" transform="matrix(0.663644,0,0,0.154539,3061.9,4524.25)">
            <rect x="0" y="0" width="1920" height="1080" style="fill:none;"/>
            <g id="Layer-1" serif:id="Layer 1">
            </g>
            <g id="Waiting-For-Players" serif:id="Waiting For Players" transform="matrix(1.50683,0,0,6.47085,-158.138,-150.215)">
                <g transform="matrix(1,0,0,1,-2951.44,-4495.52)">
                    <path d="M4176.68,4609.2C4175.75,4609.49 4175.29,4610.05 4175.29,4610.87L4175.29,4611.14C4175.29,4611.32 4175.31,4611.42 4175.34,4611.46C4175.73,4611.42 4176.25,4611.41 4176.9,4611.41L4178.19,4611.41C4182.27,4611.41 4186.09,4612.02 4189.65,4613.26C4193.22,4614.49 4196.13,4616.47 4198.38,4619.19C4200.89,4622.27 4202.14,4626.16 4202.14,4630.85C4202.14,4638.15 4199.62,4643.67 4194.57,4647.39C4189.52,4651.12 4182.77,4652.98 4174.32,4652.98C4165.87,4652.98 4159.25,4651.58 4154.47,4648.79C4149.69,4646 4147.3,4641.9 4147.3,4636.49C4147.3,4634.48 4147.73,4632.65 4148.59,4630.98C4149.45,4629.32 4150.42,4628.15 4151.49,4627.47C4153.46,4629.11 4156.32,4630.54 4160.06,4631.74C4163.8,4632.94 4167.77,4633.53 4171.96,4633.53C4173.64,4633.53 4174.48,4633.07 4174.48,4632.14C4174.48,4631.71 4174.43,4631.35 4174.32,4631.07C4174.07,4631.1 4173.77,4631.12 4173.41,4631.12L4172.82,4631.12C4165.23,4631.12 4159.16,4629.61 4154.61,4626.61C4149.45,4623.2 4146.87,4618.41 4146.87,4612.21C4146.87,4606.02 4149.18,4601 4153.8,4597.17C4158.92,4592.95 4165.96,4590.84 4174.91,4590.84C4179.32,4590.84 4183.42,4591.3 4187.24,4592.23C4191.05,4593.16 4194.32,4594.4 4197.04,4595.94C4197.72,4597.41 4198.06,4599.57 4198.06,4602.44C4198.06,4606.81 4196.86,4610.15 4194.46,4612.48C4192.64,4611.48 4190.41,4610.65 4187.77,4609.98C4185.14,4609.32 4182.77,4608.99 4180.66,4608.99C4178.55,4608.99 4177.22,4609.06 4176.68,4609.2ZM3976.13,4652.98C3966.21,4652.98 3958.39,4650.22 3952.66,4644.71C3946.79,4639.16 3943.85,4631.56 3943.85,4621.91C3943.85,4612.26 3946.88,4604.6 3952.93,4598.94C3958.51,4593.68 3965.58,4591.05 3974.14,4591.05C3982.7,4591.05 3989.57,4593.4 3994.74,4598.11C3999.91,4602.82 4002.5,4608.61 4002.5,4615.49C4002.5,4621.61 4000.37,4626.23 3996.11,4629.35C3992.17,4632.28 3986.8,4633.75 3980,4633.75C3974.91,4633.75 3970.62,4632.69 3967.11,4630.58C3966.82,4630.8 3966.68,4631.19 3966.68,4631.76C3966.68,4632.84 3968.09,4633.82 3970.92,4634.72C3973.75,4635.68 3976.96,4636.17 3980.56,4636.17C3984.16,4636.17 3987.44,4635.71 3990.39,4634.8C3993.34,4633.88 3995.72,4632.8 3997.51,4631.55C3998.37,4632.3 3999.06,4633.69 3999.57,4635.71C4000.09,4637.73 4000.35,4639.58 4000.35,4641.24C4000.35,4642.91 4000.19,4644.39 3999.87,4645.67C3997.08,4648.04 3994.21,4649.72 3991.28,4650.72C3987.12,4652.23 3982.07,4652.98 3976.13,4652.98ZM3555.67,4652.98C3545.75,4652.98 3537.93,4650.22 3532.2,4644.71C3526.33,4639.16 3523.39,4631.56 3523.39,4621.91C3523.39,4612.26 3526.42,4604.6 3532.47,4598.94C3538.06,4593.68 3545.13,4591.05 3553.68,4591.05C3562.24,4591.05 3569.11,4593.4 3574.28,4598.11C3579.46,4602.82 3582.05,4608.61 3582.05,4615.49C3582.05,4621.61 3579.91,4626.23 3575.65,4629.35C3571.71,4632.28 3566.34,4633.75 3559.54,4633.75C3554.45,4633.75 3550.16,4632.69 3546.65,4630.58C3546.36,4630.8 3546.22,4631.19 3546.22,4631.76C3546.22,4632.84 3547.63,4633.82 3550.46,4634.72C3553.29,4635.68 3556.51,4636.17 3560.1,4636.17C3563.7,4636.17 3566.98,4635.71 3569.93,4634.8C3572.89,4633.88 3575.26,4632.8 3577.05,4631.55C3577.91,4632.3 3578.6,4633.69 3579.12,4635.71C3579.64,4637.73 3579.9,4639.58 3579.9,4641.24C3579.9,4642.91 3579.74,4644.39 3579.41,4645.67C3576.62,4648.04 3573.76,4649.72 3570.82,4650.72C3566.66,4652.23 3561.62,4652.98 3555.67,4652.98ZM3111.5,4619.76C3110.91,4620.58 3110.61,4621.35 3110.61,4622.06C3110.61,4623.77 3112.22,4625.19 3115.43,4626.34C3118.64,4627.49 3122.55,4628.22 3127.14,4628.51C3127.91,4636.99 3128.73,4641.83 3129.62,4643.01C3128.5,4645.19 3125.4,4647.38 3120.34,4649.59C3115.27,4651.8 3109.55,4652.9 3103.19,4652.9C3094.76,4652.9 3087.54,4651.09 3081.53,4647.47C3075.52,4643.85 3072.52,4639.18 3072.52,4633.46C3072.52,4631.93 3072.66,4630.57 3072.96,4629.39L3091.78,4545.25C3096.5,4542.24 3102.13,4539.89 3108.67,4538.18C3115.21,4536.47 3122.01,4535.61 3129.09,4535.61C3139.22,4535.61 3147.88,4537.32 3155.07,4540.74C3163.26,4544.63 3168.24,4550.26 3170.01,4557.62L3190.16,4640.97C3184.03,4648.93 3174.05,4652.9 3160.2,4652.9C3153.48,4652.9 3147.79,4651.7 3143.14,4649.28C3138.48,4646.86 3135.77,4643.42 3135.01,4638.94L3133.06,4628.16C3136.6,4628.1 3140.02,4627.42 3143.32,4626.12C3146.62,4624.83 3148.26,4623.47 3148.26,4622.06C3148.26,4621.11 3147.88,4620.35 3147.12,4619.76C3144.88,4621.35 3142.14,4622.56 3138.9,4623.38C3135.66,4624.21 3132.65,4624.62 3129.88,4624.62C3121.93,4624.62 3115.8,4623 3111.5,4619.76ZM3432.6,4582.46L3432.6,4644.6C3429.89,4646.95 3426.27,4648.93 3421.73,4650.52C3417.19,4652.11 3411.68,4652.9 3405.2,4652.9C3398.72,4652.9 3393.21,4651.46 3388.67,4648.57C3383.55,4645.45 3380.98,4641.03 3380.98,4635.32L3380.98,4578.39L3360.39,4578.39C3356.14,4572.32 3354.02,4565.69 3354.02,4558.51C3354.02,4553.61 3354.8,4549.36 3356.37,4545.73C3357.93,4542.11 3359.86,4539.3 3362.16,4537.29L3453.55,4537.29C3455.26,4539.94 3456.67,4543.16 3457.79,4546.93C3458.91,4550.7 3459.47,4554.44 3459.47,4558.15C3459.47,4565.11 3457.94,4570.22 3454.87,4573.49C3451.81,4576.76 3447.68,4578.39 3442.5,4578.39L3416.6,4578.39C3416.43,4578.81 3416.34,4579.25 3416.34,4579.72C3416.34,4580.78 3416.96,4581.49 3418.19,4581.84C3419.49,4582.25 3422.26,4582.46 3426.5,4582.46L3432.6,4582.46ZM4139.6,4553.3L4139.6,4644.6C4136.89,4646.95 4133.27,4648.93 4128.73,4650.52C4124.2,4652.11 4118.69,4652.9 4112.21,4652.9C4105.73,4652.9 4100.22,4651.46 4095.68,4648.57C4090.55,4645.45 4087.99,4641.03 4087.99,4635.32L4087.99,4544.02C4090.7,4541.66 4094.32,4539.69 4098.86,4538.1C4103.4,4536.51 4108.88,4535.71 4115.3,4535.71C4121.72,4535.71 4127.29,4537.13 4132,4539.96C4137.07,4543.2 4139.6,4547.65 4139.6,4553.3ZM3668.14,4652.82C3662.43,4652.82 3657.65,4652.37 3653.82,4651.49C3648.52,4650.37 3644.63,4648.63 3642.16,4646.28C3636.62,4634.55 3631.87,4621.7 3627.93,4607.74C3622.45,4588.41 3618.62,4568.46 3616.44,4547.9C3619.09,4544.01 3622.71,4540.99 3627.31,4538.84C3631.9,4536.69 3637.03,4535.61 3642.69,4535.61C3651.17,4535.61 3657.85,4537.23 3662.71,4540.48C3667.57,4543.72 3670,4548.34 3670,4554.35C3669.59,4558.83 3669.22,4565.4 3668.89,4574.06C3668.57,4582.72 3668.41,4590.56 3668.41,4597.57C3668.41,4599.52 3668.6,4601.03 3668.98,4602.13C3669.37,4603.22 3670.18,4603.76 3671.41,4603.76C3671.88,4603.76 3672.47,4603.67 3673.18,4603.5C3673.12,4602.97 3673.09,4602.08 3673.09,4600.84L3673.09,4597.75C3673.09,4589.21 3673.39,4579.35 3673.98,4568.18C3674.57,4557.02 3675.27,4548.69 3676.1,4543.22C3681.46,4539.91 3687.76,4538.27 3695.01,4538.27C3702.26,4538.27 3708.09,4539.27 3712.51,4541.27C3717.82,4543.74 3720.62,4547.37 3720.91,4552.14C3720.62,4557.92 3720.07,4563.6 3719.28,4569.2C3718.48,4574.8 3717.52,4581.25 3716.4,4588.56C3715.28,4595.86 3714.58,4600.7 3714.28,4603.05C3714.75,4603.29 3715.37,4603.41 3716.14,4603.41C3716.9,4603.41 3717.61,4603.11 3718.26,4602.52C3718.91,4601.93 3719.44,4600.52 3719.85,4598.28C3721.68,4588.85 3723.18,4578.91 3724.36,4568.45C3725.54,4557.99 3726.3,4548.87 3726.66,4541.09C3732.08,4537.44 3739.56,4535.61 3749.11,4535.61C3756.83,4535.61 3762.98,4537.66 3767.58,4541.76C3772.18,4545.85 3774.47,4551.35 3774.47,4558.24C3774.47,4562.84 3772.29,4574.89 3767.93,4594.39C3765.69,4604.65 3763.54,4613.41 3761.48,4620.69C3759.42,4627.96 3757.74,4633.08 3756.44,4636.02C3753.73,4641.97 3749.68,4646.26 3744.29,4648.88C3738.9,4651.51 3732.02,4652.82 3723.65,4652.82C3720.29,4652.82 3716.42,4652.32 3712.03,4651.31C3707.64,4650.31 3704.29,4649.19 3701.99,4647.95C3700.82,4646.13 3699.49,4643.36 3698.02,4639.65C3696.55,4635.93 3695.63,4633.14 3695.28,4631.25C3692.98,4631.31 3691.83,4632.55 3691.83,4634.96C3691.83,4636.85 3692.74,4640.32 3694.57,4645.39C3688.38,4650.34 3679.57,4652.82 3668.14,4652.82ZM3806.41,4602.97L3806.41,4624.24C3806.41,4629.58 3807.7,4633.05 3810.27,4634.66C3810.31,4634.84 3810.33,4635.18 3810.33,4635.68L3810.33,4636.65C3810.33,4641.91 3808.9,4645.87 3806.03,4648.52C3803.38,4651.03 3799.85,4652.28 3795.42,4652.28C3791,4652.28 3787.36,4651.03 3784.49,4648.52C3780.88,4645.33 3779.07,4640.68 3779.07,4634.56L3779.07,4599.64C3779.71,4599.18 3780.41,4598.8 3781.16,4598.52C3781.91,4598.23 3782.7,4597.87 3783.53,4597.44C3781.99,4596.65 3780.59,4595.28 3779.34,4593.33C3778.08,4591.38 3777.46,4589.1 3777.46,4586.48C3777.46,4581.97 3778.94,4578.28 3781.91,4575.42C3784.89,4572.56 3788.53,4571.12 3792.85,4571.12C3797.16,4571.12 3800.78,4572.58 3803.7,4575.5C3806.61,4578.42 3808.07,4582.08 3808.07,4586.48C3808.07,4590.03 3806.96,4593.14 3804.74,4595.8C3802.52,4598.47 3799.82,4600.15 3796.63,4600.82C3796.63,4602.19 3797.15,4602.87 3798.19,4602.87C3800.01,4602.87 3801.88,4602.15 3803.78,4600.72C3805.21,4601.83 3806.09,4602.58 3806.41,4602.97ZM3287.12,4581.49C3289.02,4579.27 3291.12,4577.6 3293.41,4576.47C3295.7,4575.34 3298.62,4574.78 3302.16,4574.78C3306.46,4574.78 3309.95,4575.98 3312.64,4578.37C3315.39,4580.95 3316.77,4584.43 3316.77,4588.79L3316.77,4624.24C3316.77,4629.58 3318.06,4633.05 3320.64,4634.66C3320.68,4634.84 3320.69,4635.18 3320.69,4635.68L3320.69,4636.65C3320.69,4641.73 3319.15,4645.69 3316.08,4648.52C3313.35,4651.03 3309.99,4652.28 3305.98,4652.28C3303.18,4652.28 3300.77,4651.69 3298.73,4650.51C3296.33,4649.15 3294.64,4647.28 3293.68,4644.92C3292.46,4644.92 3291.85,4645.51 3291.85,4646.69C3291.85,4647.23 3292.06,4647.85 3292.47,4648.55C3292.88,4649.25 3293.45,4649.86 3294.16,4650.4C3292.05,4651.65 3289.31,4652.28 3285.94,4652.28C3281.4,4652.28 3277.14,4651.23 3273.19,4649.14C3269.23,4647.04 3266.09,4643.88 3263.76,4639.66C3261.08,4634.82 3259.73,4628.97 3259.73,4622.1C3259.73,4612.93 3262.3,4605.73 3267.44,4600.5C3272.58,4595.28 3279.14,4592.66 3287.12,4592.66C3291.85,4592.66 3295.97,4593.56 3299.48,4595.35C3299.87,4594.95 3300.07,4594.54 3300.07,4594.11C3300.07,4593.04 3298.8,4592.12 3296.26,4591.37C3293.71,4590.62 3291.15,4590.24 3288.58,4590.24C3288.58,4586.59 3288.09,4583.67 3287.12,4581.49ZM3516.52,4624.73C3516.52,4627.31 3516.81,4629.38 3517.38,4630.96C3517.95,4632.53 3518.95,4633.77 3520.39,4634.66C3520.42,4634.84 3520.44,4635.18 3520.44,4635.68L3520.44,4636.65C3520.44,4641.59 3519.02,4645.43 3516.17,4648.17C3513.32,4650.91 3509.65,4652.28 3505.16,4652.28C3500.66,4652.28 3497.02,4651.01 3494.23,4648.47C3490.97,4645.57 3489.34,4641.16 3489.34,4635.25C3489.34,4632.75 3489.46,4630.54 3489.69,4628.62C3489.92,4626.7 3490.08,4625.34 3490.17,4624.51C3490.26,4623.69 3490.36,4622.92 3490.47,4622.2C3490.58,4621.49 3490.63,4620.43 3490.63,4619.03C3490.63,4617.64 3490.44,4616.63 3490.07,4616.03C3489.69,4615.42 3489.17,4615.11 3488.51,4615.11C3487.85,4615.11 3487.26,4615.26 3486.76,4615.54L3487.46,4624.3C3486.82,4627.91 3486.49,4631.74 3486.49,4635.79C3486.49,4639.84 3487.41,4643.53 3489.23,4646.86C3485.72,4650.47 3480.8,4652.28 3474.46,4652.28C3470.85,4652.28 3467.71,4651.33 3465.06,4649.43C3461.98,4647.28 3460.44,4644.44 3460.44,4640.89L3460.44,4578.21C3462.16,4577.21 3464.23,4576.39 3466.65,4575.74C3469.07,4575.1 3471.51,4574.78 3473.98,4574.78C3478.1,4574.78 3481.5,4575.58 3484.18,4577.19C3487.23,4579.09 3488.75,4581.81 3488.75,4585.36L3488.75,4590.46C3485.64,4590.64 3482.64,4591.53 3479.78,4593.15C3477.31,4594.58 3476.07,4595.88 3476.07,4597.07C3476.07,4597.46 3476.22,4597.81 3476.5,4598.11C3476.79,4598.42 3477.13,4598.61 3477.52,4598.68C3479.03,4596.92 3481.15,4595.45 3483.89,4594.27C3486.63,4593.09 3489.88,4592.5 3493.64,4592.5C3497.4,4592.5 3500.78,4593.07 3503.79,4594.22C3507.59,4595.65 3510.58,4597.84 3512.76,4600.77C3515.37,4604.35 3516.68,4608.85 3516.68,4614.25L3516.52,4624.73ZM3936.98,4624.73C3936.98,4627.31 3937.26,4629.38 3937.84,4630.96C3938.41,4632.53 3939.41,4633.77 3940.84,4634.66C3940.88,4634.84 3940.9,4635.18 3940.9,4635.68L3940.9,4636.65C3940.9,4641.59 3939.47,4645.43 3936.63,4648.17C3933.78,4650.91 3930.11,4652.28 3925.62,4652.28C3921.12,4652.28 3917.48,4651.01 3914.69,4648.47C3911.43,4645.57 3909.8,4641.16 3909.8,4635.25C3909.8,4632.75 3909.91,4630.54 3910.15,4628.62C3910.38,4626.7 3910.54,4625.34 3910.63,4624.51C3910.72,4623.69 3910.82,4622.92 3910.93,4622.2C3911.03,4621.49 3911.09,4620.43 3911.09,4619.03C3911.09,4617.64 3910.9,4616.63 3910.52,4616.03C3910.15,4615.42 3909.63,4615.11 3908.97,4615.11C3908.3,4615.11 3907.72,4615.26 3907.22,4615.54L3907.92,4624.3C3907.27,4627.91 3906.95,4631.74 3906.95,4635.79C3906.95,4639.84 3907.86,4643.53 3909.69,4646.86C3906.18,4650.47 3901.26,4652.28 3894.92,4652.28C3891.3,4652.28 3888.17,4651.33 3885.52,4649.43C3882.44,4647.28 3880.9,4644.44 3880.9,4640.89L3880.9,4614.9C3878.79,4611.93 3877.73,4608.26 3877.73,4603.91C3877.73,4599.56 3878.79,4595.79 3880.9,4592.61L3890.46,4592.61C3893,4592.61 3895.17,4593.56 3896.96,4595.45C3895.39,4596.92 3894.6,4598.14 3894.6,4599.11C3894.6,4600.22 3895.22,4600.77 3896.48,4600.77C3898.05,4598.05 3900.46,4595.79 3903.7,4594C3906.94,4592.21 3910.62,4591.32 3914.74,4591.32C3920.93,4591.32 3925.97,4592.84 3929.83,4595.88C3934.7,4599.72 3937.14,4605.66 3937.14,4613.72L3936.98,4624.73ZM3871.83,4624.73C3871.83,4627.31 3872.11,4629.38 3872.68,4630.96C3873.26,4632.53 3874.26,4633.77 3875.69,4634.66C3875.73,4634.84 3875.75,4635.18 3875.75,4635.68L3875.75,4636.65C3875.75,4641.59 3874.32,4645.43 3871.48,4648.17C3868.63,4650.91 3864.96,4652.28 3860.47,4652.28C3855.97,4652.28 3852.33,4651.01 3849.54,4648.47C3846.28,4645.57 3844.65,4641.16 3844.65,4635.25C3844.65,4632.75 3844.76,4630.54 3845,4628.62C3845.23,4626.7 3845.39,4625.34 3845.48,4624.51C3845.57,4623.69 3845.67,4622.92 3845.78,4622.2C3845.88,4621.49 3845.94,4620.43 3845.94,4619.03C3845.94,4617.64 3845.75,4616.63 3845.37,4616.03C3845,4615.42 3844.48,4615.11 3843.82,4615.11C3843.15,4615.11 3842.57,4615.26 3842.07,4615.54L3842.77,4624.3C3842.12,4627.91 3841.8,4631.74 3841.8,4635.79C3841.8,4639.84 3842.71,4643.53 3844.54,4646.86C3841.03,4650.47 3836.11,4652.28 3829.77,4652.28C3826.15,4652.28 3823.02,4651.33 3820.37,4649.43C3817.29,4647.28 3815.75,4644.44 3815.75,4640.89L3815.75,4614.9C3813.64,4611.93 3812.58,4608.26 3812.58,4603.91C3812.58,4599.56 3813.64,4595.79 3815.75,4592.61L3825.31,4592.61C3827.85,4592.61 3830.02,4593.56 3831.81,4595.45C3830.24,4596.92 3829.45,4598.14 3829.45,4599.11C3829.45,4600.22 3830.07,4600.77 3831.33,4600.77C3832.9,4598.05 3835.31,4595.79 3838.55,4594C3841.79,4592.21 3845.47,4591.32 3849.59,4591.32C3855.78,4591.32 3860.82,4592.84 3864.68,4595.88C3869.55,4599.72 3871.99,4605.66 3871.99,4613.72L3871.83,4624.73ZM3252.86,4624.73C3252.86,4627.31 3253.14,4629.38 3253.72,4630.96C3254.29,4632.53 3255.29,4633.77 3256.73,4634.66C3256.76,4634.84 3256.78,4635.18 3256.78,4635.68L3256.78,4636.65C3256.78,4641.59 3255.36,4645.43 3252.51,4648.17C3249.66,4650.91 3245.99,4652.28 3241.5,4652.28C3237.01,4652.28 3233.36,4651.01 3230.57,4648.47C3227.31,4645.57 3225.68,4641.16 3225.68,4635.25C3225.68,4632.75 3225.8,4630.54 3226.03,4628.62C3226.26,4626.7 3226.42,4625.34 3226.51,4624.51C3226.6,4623.69 3226.7,4622.92 3226.81,4622.2C3226.92,4621.49 3226.97,4620.43 3226.97,4619.03C3226.97,4617.64 3226.78,4616.63 3226.41,4616.03C3226.03,4615.42 3225.51,4615.11 3224.85,4615.11C3224.19,4615.11 3223.6,4615.26 3223.1,4615.54L3223.8,4624.3C3223.16,4627.91 3222.83,4631.74 3222.83,4635.79C3222.83,4639.84 3223.75,4643.53 3225.57,4646.86C3222.06,4650.47 3217.14,4652.28 3210.8,4652.28C3207.19,4652.28 3204.05,4651.33 3201.4,4649.43C3198.32,4647.28 3196.78,4644.44 3196.78,4640.89L3196.78,4614.9C3194.67,4611.93 3193.62,4608.26 3193.62,4603.91C3193.62,4599.56 3194.67,4595.79 3196.78,4592.61L3206.35,4592.61C3208.89,4592.61 3211.05,4593.56 3212.84,4595.45C3211.27,4596.92 3210.48,4598.14 3210.48,4599.11C3210.48,4600.22 3211.11,4600.77 3212.36,4600.77C3213.94,4598.05 3216.34,4595.79 3219.59,4594C3222.83,4592.21 3226.5,4591.32 3230.62,4591.32C3236.82,4591.32 3241.85,4592.84 3245.72,4595.88C3250.59,4599.72 3253.02,4605.66 3253.02,4613.72L3252.86,4624.73ZM4023.34,4652.01C4019.08,4652.01 4015.68,4651.24 4013.14,4649.7C4010.31,4648.09 4008.89,4645.71 4008.89,4642.56L4008.89,4614.9C4006.78,4611.93 4005.72,4608.26 4005.72,4603.91C4005.72,4599.56 4006.78,4595.79 4008.89,4592.61L4017.11,4592.61C4021.34,4592.61 4024.36,4593.97 4026.19,4596.69C4025.29,4597.69 4024.5,4598.96 4023.82,4600.5C4023.14,4602.04 4022.8,4603.14 4022.8,4603.81C4022.8,4604.47 4022.97,4604.96 4023.31,4605.28C4023.65,4605.61 4024.15,4605.77 4024.79,4605.77C4026.04,4600.79 4028.43,4597.14 4031.93,4594.81C4034.83,4592.84 4038.41,4591.86 4042.68,4591.86C4047.98,4591.86 4052.13,4592.98 4055.14,4595.24C4056.21,4598.1 4056.75,4601.6 4056.75,4605.74C4056.75,4609.88 4055.93,4613.63 4054.28,4616.99C4053.06,4617.64 4051.38,4618.18 4049.23,4618.63C4047.08,4619.08 4044.91,4619.3 4042.73,4619.3C4040.55,4619.3 4038.59,4619.15 4036.85,4618.85C4035.11,4618.54 4033.85,4618.26 4033.06,4618.01C4032.78,4618.3 4032.63,4618.71 4032.63,4619.25C4032.63,4619.78 4032.98,4620.19 4033.68,4620.46C4034.38,4620.73 4035.55,4621.02 4037.2,4621.34L4037.2,4648.31C4033.3,4650.78 4028.68,4652.01 4023.34,4652.01ZM4211.27,4625.37C4214.32,4622.33 4217.95,4620.81 4222.18,4620.81C4226.4,4620.81 4230.07,4622.33 4233.19,4625.37C4236.23,4628.49 4237.75,4632.17 4237.75,4636.41C4237.75,4640.65 4236.23,4644.3 4233.19,4647.34C4230.11,4650.35 4226.44,4651.85 4222.18,4651.85C4217.91,4651.85 4214.27,4650.34 4211.24,4647.31C4208.22,4644.29 4206.71,4640.65 4206.71,4636.41C4206.71,4632.17 4208.23,4628.49 4211.27,4625.37ZM4246.24,4625.37C4249.28,4622.33 4252.91,4620.81 4257.14,4620.81C4261.36,4620.81 4265.03,4622.33 4268.15,4625.37C4271.19,4628.49 4272.72,4632.17 4272.72,4636.41C4272.72,4640.65 4271.19,4644.3 4268.15,4647.34C4265.07,4650.35 4261.4,4651.85 4257.14,4651.85C4252.88,4651.85 4249.23,4650.34 4246.21,4647.31C4243.18,4644.29 4241.67,4640.65 4241.67,4636.41C4241.67,4632.17 4243.19,4628.49 4246.24,4625.37ZM4281.2,4625.37C4284.24,4622.33 4287.88,4620.81 4292.1,4620.81C4296.33,4620.81 4300,4622.33 4303.11,4625.37C4306.16,4628.49 4307.68,4632.17 4307.68,4636.41C4307.68,4640.65 4306.16,4644.3 4303.11,4647.34C4300.04,4650.35 4296.36,4651.85 4292.1,4651.85C4287.84,4651.85 4284.2,4650.34 4281.17,4647.31C4278.15,4644.29 4276.64,4640.65 4276.64,4636.41C4276.64,4632.17 4278.16,4628.49 4281.2,4625.37ZM3290.99,4613.23C3290.63,4612.87 3290.2,4612.69 3289.7,4612.69C3288.91,4612.69 3288.38,4613.26 3288.09,4614.39C3287.81,4615.52 3287.66,4617.8 3287.66,4621.23L3287.66,4626.71C3287.66,4627.68 3287.79,4628.36 3288.04,4628.76C3288.29,4629.15 3288.7,4629.35 3289.27,4629.35C3289.85,4629.35 3290.26,4629.22 3290.51,4628.97L3290.51,4621.77C3290.51,4618.26 3290.67,4615.42 3290.99,4613.23ZM3554.97,4616.62C3556.76,4616.62 3557.66,4615.94 3557.66,4614.57C3557.66,4613.29 3556.71,4612.64 3554.81,4612.64C3552.91,4612.64 3551.82,4613.66 3551.54,4615.7C3552.54,4616.31 3553.68,4616.62 3554.97,4616.62ZM3975.43,4616.62C3977.22,4616.62 3978.12,4615.94 3978.12,4614.57C3978.12,4613.29 3977.17,4612.64 3975.27,4612.64C3973.37,4612.64 3972.28,4613.66 3971.99,4615.7C3973,4616.31 3974.14,4616.62 3975.43,4616.62ZM3129,4593.24C3129.47,4593.71 3130.2,4593.95 3131.21,4593.95C3132.21,4593.95 3133.06,4593.74 3133.77,4593.33C3132.24,4584.37 3131.21,4579.07 3130.68,4577.42C3130.03,4575.71 3129.06,4574.86 3127.76,4574.86C3127.17,4574.86 3126.46,4575.03 3125.64,4575.39L3129,4593.24Z" style="fill:none;fill-rule:nonzero;stroke:rgb(249,220,173);stroke-width:24px;"/>
                </g>
                <g>
                    <g transform="matrix(181.019,0,0,181.019,114.329,150.281)">
                        <path d="M0.319,-0.321C0.321,-0.318 0.326,-0.317 0.331,-0.317C0.337,-0.317 0.341,-0.318 0.345,-0.32C0.337,-0.37 0.331,-0.399 0.328,-0.408C0.325,-0.418 0.319,-0.422 0.312,-0.422C0.309,-0.422 0.305,-0.421 0.3,-0.419L0.319,-0.321ZM0.222,-0.174C0.219,-0.17 0.217,-0.166 0.217,-0.162C0.217,-0.152 0.226,-0.144 0.244,-0.138C0.262,-0.132 0.283,-0.128 0.309,-0.126C0.313,-0.079 0.317,-0.052 0.322,-0.046C0.316,-0.034 0.299,-0.022 0.271,-0.01C0.243,0.003 0.211,0.009 0.176,0.009C0.13,0.009 0.09,-0.001 0.057,-0.021C0.023,-0.041 0.007,-0.067 0.007,-0.099C0.007,-0.107 0.008,-0.115 0.009,-0.121L0.113,-0.586C0.139,-0.603 0.17,-0.616 0.207,-0.625C0.243,-0.634 0.28,-0.639 0.319,-0.639C0.375,-0.639 0.423,-0.63 0.463,-0.611C0.508,-0.589 0.536,-0.558 0.545,-0.518L0.657,-0.057C0.623,-0.013 0.568,0.009 0.491,0.009C0.454,0.009 0.423,0.002 0.397,-0.011C0.371,-0.025 0.356,-0.044 0.352,-0.068L0.341,-0.128C0.361,-0.128 0.38,-0.132 0.398,-0.139C0.416,-0.146 0.425,-0.154 0.425,-0.162C0.425,-0.167 0.423,-0.171 0.419,-0.174C0.407,-0.166 0.391,-0.159 0.374,-0.154C0.356,-0.15 0.339,-0.147 0.324,-0.147C0.28,-0.147 0.246,-0.156 0.222,-0.174Z" style="fill:rgb(46,41,79);fill-rule:nonzero;"/>
                    </g>
                    <g transform="matrix(110,0,0,110,237.363,150.281)">
                        <path d="M0.532,-0.242C0.532,-0.218 0.535,-0.199 0.54,-0.185C0.545,-0.171 0.554,-0.16 0.567,-0.151C0.568,-0.15 0.568,-0.147 0.568,-0.142L0.568,-0.133C0.568,-0.088 0.555,-0.053 0.529,-0.029C0.503,-0.004 0.47,0.009 0.429,0.009C0.388,0.009 0.355,-0.003 0.33,-0.026C0.3,-0.052 0.285,-0.092 0.285,-0.146C0.285,-0.169 0.286,-0.189 0.288,-0.206C0.29,-0.224 0.292,-0.236 0.293,-0.244C0.294,-0.251 0.294,-0.258 0.295,-0.265C0.296,-0.271 0.297,-0.281 0.297,-0.293C0.297,-0.306 0.295,-0.315 0.292,-0.321C0.288,-0.326 0.284,-0.329 0.278,-0.329C0.272,-0.329 0.266,-0.328 0.262,-0.325L0.268,-0.246C0.262,-0.213 0.259,-0.178 0.259,-0.141C0.259,-0.104 0.268,-0.071 0.284,-0.041C0.252,-0.008 0.208,0.009 0.15,0.009C0.117,0.009 0.089,0 0.064,-0.017C0.036,-0.037 0.022,-0.063 0.022,-0.095L0.022,-0.331C0.003,-0.358 -0.006,-0.391 -0.006,-0.431C-0.006,-0.47 0.003,-0.505 0.022,-0.534L0.109,-0.534C0.132,-0.534 0.152,-0.525 0.168,-0.508C0.154,-0.494 0.147,-0.483 0.147,-0.475C0.147,-0.465 0.153,-0.459 0.164,-0.459C0.178,-0.484 0.2,-0.505 0.23,-0.521C0.259,-0.537 0.293,-0.545 0.33,-0.545C0.386,-0.545 0.432,-0.532 0.467,-0.504C0.512,-0.469 0.534,-0.415 0.534,-0.342L0.532,-0.242Z" style="fill:rgb(46,41,79);fill-rule:nonzero;"/>
                    </g>
                    <g transform="matrix(110,0,0,110,301.708,150.281)">
                        <path d="M0.294,-0.346C0.291,-0.349 0.287,-0.351 0.282,-0.351C0.275,-0.351 0.27,-0.346 0.268,-0.336C0.265,-0.325 0.264,-0.305 0.264,-0.273L0.264,-0.224C0.264,-0.215 0.265,-0.209 0.267,-0.205C0.269,-0.201 0.273,-0.2 0.278,-0.2C0.284,-0.2 0.287,-0.201 0.29,-0.203L0.29,-0.269C0.29,-0.3 0.291,-0.326 0.294,-0.346ZM0.259,-0.635C0.276,-0.655 0.295,-0.67 0.316,-0.68C0.337,-0.691 0.363,-0.696 0.396,-0.696C0.435,-0.696 0.466,-0.685 0.491,-0.663C0.516,-0.64 0.528,-0.608 0.528,-0.568L0.528,-0.246C0.528,-0.198 0.54,-0.166 0.563,-0.151C0.564,-0.15 0.564,-0.147 0.564,-0.142L0.564,-0.133C0.564,-0.087 0.55,-0.051 0.522,-0.025C0.497,-0.003 0.467,0.009 0.43,0.009C0.405,0.009 0.383,0.003 0.364,-0.007C0.342,-0.02 0.327,-0.037 0.318,-0.058C0.307,-0.058 0.302,-0.053 0.302,-0.042C0.302,-0.037 0.304,-0.031 0.307,-0.025C0.311,-0.019 0.316,-0.013 0.323,-0.008C0.304,0.003 0.279,0.009 0.248,0.009C0.207,0.009 0.168,-0.001 0.132,-0.02C0.096,-0.039 0.068,-0.068 0.046,-0.106C0.022,-0.15 0.01,-0.203 0.01,-0.266C0.01,-0.349 0.033,-0.414 0.08,-0.462C0.127,-0.509 0.186,-0.533 0.259,-0.533C0.302,-0.533 0.339,-0.525 0.371,-0.509C0.375,-0.512 0.376,-0.516 0.376,-0.52C0.376,-0.53 0.365,-0.538 0.342,-0.545C0.319,-0.552 0.295,-0.555 0.272,-0.555C0.272,-0.588 0.268,-0.615 0.259,-0.635Z" style="fill:rgb(46,41,79);fill-rule:nonzero;"/>
                    </g>
                    <g transform="matrix(181.019,0,0,181.019,396.454,150.281)">
                        <path d="M0.438,-0.38L0.438,-0.037C0.423,-0.024 0.403,-0.013 0.377,-0.004C0.352,0.004 0.322,0.009 0.286,0.009C0.25,0.009 0.22,0.001 0.195,-0.015C0.167,-0.032 0.152,-0.057 0.152,-0.088L0.152,-0.403L0.039,-0.403C0.015,-0.436 0.003,-0.473 0.003,-0.513C0.003,-0.54 0.008,-0.563 0.016,-0.583C0.025,-0.603 0.036,-0.619 0.048,-0.63L0.553,-0.63C0.563,-0.615 0.57,-0.597 0.577,-0.577C0.583,-0.556 0.586,-0.535 0.586,-0.515C0.586,-0.476 0.577,-0.448 0.561,-0.43C0.544,-0.412 0.521,-0.403 0.492,-0.403L0.349,-0.403C0.348,-0.401 0.348,-0.398 0.348,-0.396C0.348,-0.39 0.351,-0.386 0.358,-0.384C0.365,-0.382 0.38,-0.38 0.404,-0.38L0.438,-0.38Z" style="fill:rgb(46,41,79);fill-rule:nonzero;"/>
                    </g>
                    <g transform="matrix(110,0,0,110,501.507,150.281)">
                        <path d="M0.528,-0.242C0.528,-0.218 0.53,-0.199 0.536,-0.185C0.541,-0.171 0.55,-0.16 0.563,-0.151C0.563,-0.15 0.563,-0.147 0.563,-0.142L0.563,-0.133C0.563,-0.088 0.551,-0.053 0.525,-0.029C0.499,-0.004 0.465,0.009 0.425,0.009C0.384,0.009 0.351,-0.003 0.325,-0.026C0.296,-0.052 0.281,-0.092 0.281,-0.146C0.281,-0.169 0.282,-0.189 0.284,-0.206C0.286,-0.224 0.288,-0.236 0.288,-0.244C0.289,-0.251 0.29,-0.258 0.291,-0.265C0.292,-0.271 0.292,-0.281 0.292,-0.293C0.292,-0.306 0.291,-0.315 0.287,-0.321C0.284,-0.326 0.279,-0.329 0.273,-0.329C0.267,-0.329 0.262,-0.328 0.257,-0.325L0.264,-0.246C0.258,-0.213 0.255,-0.178 0.255,-0.141C0.255,-0.104 0.263,-0.071 0.28,-0.041C0.248,-0.008 0.203,0.009 0.146,0.009C0.113,0.009 0.084,0 0.06,-0.017C0.032,-0.037 0.018,-0.063 0.018,-0.095L0.018,-0.665C0.034,-0.674 0.052,-0.681 0.074,-0.687C0.096,-0.693 0.119,-0.696 0.141,-0.696C0.179,-0.696 0.209,-0.688 0.234,-0.674C0.262,-0.657 0.275,-0.632 0.275,-0.6L0.275,-0.553C0.247,-0.552 0.22,-0.543 0.194,-0.529C0.171,-0.516 0.16,-0.504 0.16,-0.493C0.16,-0.49 0.161,-0.486 0.164,-0.484C0.167,-0.481 0.17,-0.479 0.173,-0.479C0.187,-0.494 0.206,-0.508 0.231,-0.519C0.256,-0.529 0.286,-0.535 0.32,-0.535C0.354,-0.535 0.385,-0.529 0.412,-0.519C0.447,-0.506 0.474,-0.486 0.494,-0.459C0.517,-0.427 0.529,-0.386 0.529,-0.337L0.528,-0.242Z" style="fill:rgb(46,41,79);fill-rule:nonzero;"/>
                    </g>
                    <g transform="matrix(110,0,0,110,565.368,150.281)">
                        <path d="M0.303,0.015C0.213,0.015 0.142,-0.01 0.09,-0.06C0.036,-0.111 0.01,-0.18 0.01,-0.267C0.01,-0.355 0.037,-0.425 0.092,-0.476C0.143,-0.524 0.207,-0.548 0.285,-0.548C0.363,-0.548 0.425,-0.526 0.472,-0.484C0.519,-0.441 0.543,-0.388 0.543,-0.326C0.543,-0.27 0.524,-0.228 0.485,-0.2C0.449,-0.173 0.4,-0.16 0.338,-0.16C0.292,-0.16 0.253,-0.169 0.221,-0.188C0.219,-0.187 0.217,-0.183 0.217,-0.178C0.217,-0.168 0.23,-0.159 0.256,-0.151C0.282,-0.142 0.311,-0.138 0.344,-0.138C0.376,-0.138 0.406,-0.142 0.433,-0.15C0.46,-0.158 0.481,-0.168 0.498,-0.18C0.505,-0.173 0.512,-0.16 0.516,-0.142C0.521,-0.123 0.523,-0.107 0.523,-0.092C0.523,-0.076 0.522,-0.063 0.519,-0.051C0.494,-0.03 0.468,-0.014 0.441,-0.005C0.403,0.008 0.357,0.015 0.303,0.015ZM0.297,-0.315C0.313,-0.315 0.321,-0.322 0.321,-0.334C0.321,-0.346 0.313,-0.352 0.295,-0.352C0.278,-0.352 0.268,-0.342 0.266,-0.324C0.275,-0.318 0.285,-0.315 0.297,-0.315Z" style="fill:rgb(46,41,79);fill-rule:nonzero;"/>
                    </g>
                    <g transform="matrix(181.019,0,0,181.019,659.309,150.281)">
                        <path d="M0.287,0.008C0.255,0.008 0.229,0.006 0.208,0.001C0.178,-0.005 0.157,-0.015 0.143,-0.028C0.112,-0.093 0.086,-0.164 0.064,-0.241C0.034,-0.347 0.013,-0.458 0.001,-0.571C0.016,-0.593 0.036,-0.609 0.061,-0.621C0.086,-0.633 0.115,-0.639 0.146,-0.639C0.193,-0.639 0.23,-0.63 0.257,-0.612C0.283,-0.594 0.297,-0.569 0.297,-0.536C0.295,-0.511 0.293,-0.475 0.291,-0.427C0.289,-0.379 0.288,-0.336 0.288,-0.297C0.288,-0.286 0.289,-0.278 0.291,-0.272C0.293,-0.266 0.298,-0.263 0.305,-0.263C0.307,-0.263 0.311,-0.263 0.314,-0.264C0.314,-0.267 0.314,-0.272 0.314,-0.279L0.314,-0.296C0.314,-0.343 0.316,-0.398 0.319,-0.459C0.322,-0.521 0.326,-0.567 0.331,-0.597C0.36,-0.615 0.395,-0.625 0.435,-0.625C0.475,-0.625 0.507,-0.619 0.532,-0.608C0.561,-0.594 0.576,-0.574 0.578,-0.548C0.576,-0.516 0.573,-0.485 0.569,-0.454C0.565,-0.423 0.559,-0.387 0.553,-0.347C0.547,-0.306 0.543,-0.28 0.542,-0.267C0.544,-0.265 0.548,-0.265 0.552,-0.265C0.556,-0.265 0.56,-0.266 0.563,-0.27C0.567,-0.273 0.57,-0.281 0.572,-0.293C0.582,-0.345 0.591,-0.4 0.597,-0.458C0.604,-0.516 0.608,-0.566 0.61,-0.609C0.64,-0.629 0.681,-0.639 0.734,-0.639C0.777,-0.639 0.811,-0.628 0.836,-0.605C0.861,-0.583 0.874,-0.552 0.874,-0.514C0.874,-0.489 0.862,-0.422 0.838,-0.314C0.826,-0.258 0.814,-0.209 0.802,-0.169C0.791,-0.129 0.782,-0.101 0.774,-0.084C0.759,-0.052 0.737,-0.028 0.707,-0.013C0.677,0.001 0.639,0.008 0.593,0.008C0.575,0.008 0.553,0.006 0.529,-0C0.505,-0.006 0.486,-0.012 0.474,-0.019C0.467,-0.029 0.46,-0.044 0.452,-0.064C0.444,-0.085 0.438,-0.1 0.437,-0.111C0.424,-0.111 0.417,-0.104 0.417,-0.09C0.417,-0.08 0.423,-0.061 0.433,-0.033C0.398,-0.005 0.35,0.008 0.287,0.008Z" style="fill:rgb(46,41,79);fill-rule:nonzero;"/>
                    </g>
                    <g transform="matrix(110,0,0,110,820.131,150.281)">
                        <path d="M0.267,-0.439L0.267,-0.246C0.267,-0.198 0.278,-0.166 0.302,-0.151C0.302,-0.15 0.302,-0.147 0.302,-0.142L0.302,-0.133C0.302,-0.085 0.289,-0.049 0.263,-0.025C0.239,-0.003 0.207,0.009 0.167,0.009C0.127,0.009 0.093,-0.003 0.067,-0.025C0.035,-0.054 0.018,-0.097 0.018,-0.152L0.018,-0.47C0.024,-0.474 0.03,-0.477 0.037,-0.48C0.044,-0.483 0.051,-0.486 0.059,-0.49C0.045,-0.497 0.032,-0.509 0.021,-0.527C0.009,-0.545 0.003,-0.566 0.003,-0.589C0.003,-0.63 0.017,-0.664 0.044,-0.69C0.071,-0.716 0.104,-0.729 0.143,-0.729C0.183,-0.729 0.215,-0.716 0.242,-0.689C0.268,-0.663 0.282,-0.629 0.282,-0.589C0.282,-0.557 0.272,-0.529 0.251,-0.505C0.231,-0.48 0.207,-0.465 0.178,-0.459C0.178,-0.447 0.182,-0.44 0.192,-0.44C0.208,-0.44 0.225,-0.447 0.243,-0.46C0.256,-0.45 0.264,-0.443 0.267,-0.439Z" style="fill:rgb(46,41,79);fill-rule:nonzero;"/>
                    </g>
                    <g transform="matrix(110,0,0,110,856.33,150.281)">
                        <path d="M0.532,-0.242C0.532,-0.218 0.535,-0.199 0.54,-0.185C0.545,-0.171 0.554,-0.16 0.567,-0.151C0.568,-0.15 0.568,-0.147 0.568,-0.142L0.568,-0.133C0.568,-0.088 0.555,-0.053 0.529,-0.029C0.503,-0.004 0.47,0.009 0.429,0.009C0.388,0.009 0.355,-0.003 0.33,-0.026C0.3,-0.052 0.285,-0.092 0.285,-0.146C0.285,-0.169 0.286,-0.189 0.288,-0.206C0.29,-0.224 0.292,-0.236 0.293,-0.244C0.294,-0.251 0.294,-0.258 0.295,-0.265C0.296,-0.271 0.297,-0.281 0.297,-0.293C0.297,-0.306 0.295,-0.315 0.292,-0.321C0.288,-0.326 0.284,-0.329 0.278,-0.329C0.272,-0.329 0.266,-0.328 0.262,-0.325L0.268,-0.246C0.262,-0.213 0.259,-0.178 0.259,-0.141C0.259,-0.104 0.268,-0.071 0.284,-0.041C0.252,-0.008 0.208,0.009 0.15,0.009C0.117,0.009 0.089,0 0.064,-0.017C0.036,-0.037 0.022,-0.063 0.022,-0.095L0.022,-0.331C0.003,-0.358 -0.006,-0.391 -0.006,-0.431C-0.006,-0.47 0.003,-0.505 0.022,-0.534L0.109,-0.534C0.132,-0.534 0.152,-0.525 0.168,-0.508C0.154,-0.494 0.147,-0.483 0.147,-0.475C0.147,-0.465 0.153,-0.459 0.164,-0.459C0.178,-0.484 0.2,-0.505 0.23,-0.521C0.259,-0.537 0.293,-0.545 0.33,-0.545C0.386,-0.545 0.432,-0.532 0.467,-0.504C0.512,-0.469 0.534,-0.415 0.534,-0.342L0.532,-0.242Z" style="fill:rgb(46,41,79);fill-rule:nonzero;"/>
                    </g>
                    <g transform="matrix(110,0,0,110,921.48,150.281)">
                        <path d="M0.532,-0.242C0.532,-0.218 0.535,-0.199 0.54,-0.185C0.545,-0.171 0.554,-0.16 0.567,-0.151C0.568,-0.15 0.568,-0.147 0.568,-0.142L0.568,-0.133C0.568,-0.088 0.555,-0.053 0.529,-0.029C0.503,-0.004 0.47,0.009 0.429,0.009C0.388,0.009 0.355,-0.003 0.33,-0.026C0.3,-0.052 0.285,-0.092 0.285,-0.146C0.285,-0.169 0.286,-0.189 0.288,-0.206C0.29,-0.224 0.292,-0.236 0.293,-0.244C0.294,-0.251 0.294,-0.258 0.295,-0.265C0.296,-0.271 0.297,-0.281 0.297,-0.293C0.297,-0.306 0.295,-0.315 0.292,-0.321C0.288,-0.326 0.284,-0.329 0.278,-0.329C0.272,-0.329 0.266,-0.328 0.262,-0.325L0.268,-0.246C0.262,-0.213 0.259,-0.178 0.259,-0.141C0.259,-0.104 0.268,-0.071 0.284,-0.041C0.252,-0.008 0.208,0.009 0.15,0.009C0.117,0.009 0.089,0 0.064,-0.017C0.036,-0.037 0.022,-0.063 0.022,-0.095L0.022,-0.331C0.003,-0.358 -0.006,-0.391 -0.006,-0.431C-0.006,-0.47 0.003,-0.505 0.022,-0.534L0.109,-0.534C0.132,-0.534 0.152,-0.525 0.168,-0.508C0.154,-0.494 0.147,-0.483 0.147,-0.475C0.147,-0.465 0.153,-0.459 0.164,-0.459C0.178,-0.484 0.2,-0.505 0.23,-0.521C0.259,-0.537 0.293,-0.545 0.33,-0.545C0.386,-0.545 0.432,-0.532 0.467,-0.504C0.512,-0.469 0.534,-0.415 0.534,-0.342L0.532,-0.242Z" style="fill:rgb(46,41,79);fill-rule:nonzero;"/>
                    </g>
                    <g transform="matrix(110,0,0,110,985.825,150.281)">
                        <path d="M0.303,0.015C0.213,0.015 0.142,-0.01 0.09,-0.06C0.036,-0.111 0.01,-0.18 0.01,-0.267C0.01,-0.355 0.037,-0.425 0.092,-0.476C0.143,-0.524 0.207,-0.548 0.285,-0.548C0.363,-0.548 0.425,-0.526 0.472,-0.484C0.519,-0.441 0.543,-0.388 0.543,-0.326C0.543,-0.27 0.524,-0.228 0.485,-0.2C0.449,-0.173 0.4,-0.16 0.338,-0.16C0.292,-0.16 0.253,-0.169 0.221,-0.188C0.219,-0.187 0.217,-0.183 0.217,-0.178C0.217,-0.168 0.23,-0.159 0.256,-0.151C0.282,-0.142 0.311,-0.138 0.344,-0.138C0.376,-0.138 0.406,-0.142 0.433,-0.15C0.46,-0.158 0.481,-0.168 0.498,-0.18C0.505,-0.173 0.512,-0.16 0.516,-0.142C0.521,-0.123 0.523,-0.107 0.523,-0.092C0.523,-0.076 0.522,-0.063 0.519,-0.051C0.494,-0.03 0.468,-0.014 0.441,-0.005C0.403,0.008 0.357,0.015 0.303,0.015ZM0.297,-0.315C0.313,-0.315 0.321,-0.322 0.321,-0.334C0.321,-0.346 0.313,-0.352 0.295,-0.352C0.278,-0.352 0.268,-0.342 0.266,-0.324C0.275,-0.318 0.285,-0.315 0.297,-0.315Z" style="fill:rgb(46,41,79);fill-rule:nonzero;"/>
                    </g>
                    <g transform="matrix(110,0,0,110,1049.47,150.281)">
                        <path d="M0.154,0.006C0.115,0.006 0.084,-0.001 0.061,-0.015C0.035,-0.029 0.022,-0.051 0.022,-0.08L0.022,-0.331C0.003,-0.358 -0.006,-0.391 -0.006,-0.431C-0.006,-0.47 0.003,-0.505 0.022,-0.534L0.097,-0.534C0.136,-0.534 0.163,-0.521 0.18,-0.497C0.172,-0.487 0.164,-0.476 0.158,-0.462C0.152,-0.448 0.149,-0.438 0.149,-0.432C0.149,-0.426 0.15,-0.421 0.154,-0.418C0.157,-0.416 0.161,-0.414 0.167,-0.414C0.178,-0.459 0.2,-0.493 0.232,-0.514C0.258,-0.532 0.291,-0.541 0.33,-0.541C0.378,-0.541 0.416,-0.53 0.443,-0.51C0.453,-0.484 0.458,-0.452 0.458,-0.414C0.458,-0.377 0.45,-0.343 0.435,-0.312C0.424,-0.306 0.409,-0.301 0.389,-0.297C0.37,-0.293 0.35,-0.291 0.33,-0.291C0.31,-0.291 0.292,-0.292 0.277,-0.295C0.261,-0.298 0.249,-0.3 0.242,-0.303C0.24,-0.3 0.238,-0.296 0.238,-0.292C0.238,-0.287 0.241,-0.283 0.248,-0.281C0.254,-0.278 0.265,-0.275 0.28,-0.272L0.28,-0.027C0.244,-0.005 0.202,0.006 0.154,0.006Z" style="fill:rgb(46,41,79);fill-rule:nonzero;"/>
                    </g>
                    <g transform="matrix(181,0,0,181,1128.21,150.281)">
                        <path d="M0.301,-0.542L0.301,-0.037C0.286,-0.024 0.266,-0.013 0.241,-0.004C0.216,0.004 0.185,0.009 0.149,0.009C0.114,0.009 0.083,0.001 0.058,-0.015C0.03,-0.032 0.016,-0.057 0.016,-0.088L0.016,-0.593C0.031,-0.606 0.051,-0.617 0.076,-0.625C0.101,-0.634 0.131,-0.639 0.167,-0.639C0.202,-0.639 0.233,-0.631 0.259,-0.615C0.287,-0.597 0.301,-0.573 0.301,-0.542Z" style="fill:rgb(46,41,79);fill-rule:nonzero;"/>
                    </g>
                    <g transform="matrix(110,0,0,110,1189.28,150.281)">
                        <path d="M0.277,-0.383C0.268,-0.38 0.264,-0.375 0.264,-0.368L0.264,-0.365C0.264,-0.364 0.264,-0.363 0.265,-0.362C0.268,-0.363 0.273,-0.363 0.279,-0.363L0.291,-0.363C0.328,-0.363 0.362,-0.357 0.395,-0.346C0.427,-0.335 0.454,-0.317 0.474,-0.292C0.497,-0.264 0.508,-0.229 0.508,-0.186C0.508,-0.12 0.485,-0.069 0.439,-0.036C0.394,-0.002 0.332,0.015 0.255,0.015C0.179,0.015 0.118,0.002 0.075,-0.023C0.031,-0.048 0.01,-0.086 0.01,-0.135C0.01,-0.153 0.014,-0.17 0.021,-0.185C0.029,-0.2 0.038,-0.211 0.048,-0.217C0.066,-0.202 0.092,-0.189 0.126,-0.178C0.16,-0.167 0.196,-0.162 0.234,-0.162C0.249,-0.162 0.257,-0.166 0.257,-0.174C0.257,-0.178 0.256,-0.181 0.255,-0.184C0.253,-0.184 0.25,-0.184 0.247,-0.184L0.242,-0.184C0.173,-0.184 0.118,-0.197 0.076,-0.225C0.029,-0.256 0.006,-0.299 0.006,-0.355C0.006,-0.412 0.027,-0.457 0.069,-0.492C0.115,-0.531 0.179,-0.55 0.261,-0.55C0.301,-0.55 0.338,-0.546 0.373,-0.537C0.407,-0.529 0.437,-0.517 0.462,-0.503C0.468,-0.49 0.471,-0.47 0.471,-0.444C0.471,-0.405 0.46,-0.374 0.438,-0.353C0.422,-0.362 0.402,-0.37 0.378,-0.376C0.354,-0.382 0.332,-0.385 0.313,-0.385C0.294,-0.385 0.282,-0.384 0.277,-0.383Z" style="fill:rgb(46,41,79);fill-rule:nonzero;"/>
                    </g>
                    <g transform="matrix(110,0,0,110,1248.68,150.281)">
                        <path d="M0.051,-0.236C0.079,-0.264 0.112,-0.277 0.15,-0.277C0.189,-0.277 0.222,-0.264 0.25,-0.236C0.278,-0.208 0.292,-0.174 0.292,-0.135C0.292,-0.097 0.278,-0.064 0.25,-0.036C0.222,-0.009 0.189,0.005 0.15,0.005C0.112,0.005 0.079,-0.009 0.051,-0.036C0.024,-0.064 0.01,-0.097 0.01,-0.135C0.01,-0.174 0.024,-0.208 0.051,-0.236Z" style="fill:rgb(46,41,79);fill-rule:nonzero;"/>
                    </g>
                    <g transform="matrix(110,0,0,110,1283.65,150.281)">
                        <path d="M0.051,-0.236C0.079,-0.264 0.112,-0.277 0.15,-0.277C0.189,-0.277 0.222,-0.264 0.25,-0.236C0.278,-0.208 0.292,-0.174 0.292,-0.135C0.292,-0.097 0.278,-0.064 0.25,-0.036C0.222,-0.009 0.189,0.005 0.15,0.005C0.112,0.005 0.079,-0.009 0.051,-0.036C0.024,-0.064 0.01,-0.097 0.01,-0.135C0.01,-0.174 0.024,-0.208 0.051,-0.236Z" style="fill:rgb(46,41,79);fill-rule:nonzero;"/>
                    </g>
                    <g transform="matrix(110,0,0,110,1318.61,150.281)">
                        <path d="M0.051,-0.236C0.079,-0.264 0.112,-0.277 0.15,-0.277C0.189,-0.277 0.222,-0.264 0.25,-0.236C0.278,-0.208 0.292,-0.174 0.292,-0.135C0.292,-0.097 0.278,-0.064 0.25,-0.036C0.222,-0.009 0.189,0.005 0.15,0.005C0.112,0.005 0.079,-0.009 0.051,-0.036C0.024,-0.064 0.01,-0.097 0.01,-0.135C0.01,-0.174 0.024,-0.208 0.051,-0.236Z" style="fill:rgb(46,41,79);fill-rule:nonzero;"/>
                    </g>
                </g>
            </g>
        </g>
    </g>
</svg>
