<?xml version="1.0" encoding="UTF-8" standalone="no"?>
<!DOCTYPE svg PUBLIC "-//W3C//DTD SVG 1.1//EN" "http://www.w3.org/Graphics/SVG/1.1/DTD/svg11.dtd">
<svg width="100%" height="100%" viewBox="0 0 1261 145" version="1.1" xmlns="http://www.w3.org/2000/svg" xmlns:xlink="http://www.w3.org/1999/xlink" xml:space="preserve" xmlns:serif="http://www.serif.com/" style="fill-rule:evenodd;clip-rule:evenodd;stroke-miterlimit:10;">
    <g transform="matrix(1,0,0,1,-2174.35,-2648.83)">
        <g id="AndTheWinnerIs" transform="matrix(1.20406,0,0,0.788168,-445.69,550.584)">
            <rect x="2176" y="2662.18" width="1047.11" height="182.961" style="fill:none;"/>
            <clipPath id="_clip1">
                <rect x="2176" y="2662.18" width="1047.11" height="182.961"/>
            </clipPath>
            <g clip-path="url(#_clip1)">
                <g transform="matrix(0.830521,0,0,1.26877,2089.24,2605.82)">
                    <text x="114.412px" y="169.08px" style="font-family:'Modak';font-size:109.959px;fill:rgb(35,31,32);">.<tspan x="149.366px 184.32px " y="169.08px 169.08px ">..</tspan></text>
                    <text x="219.274px" y="169.08px" style="font-family:'Modak';font-size:181.019px;fill:rgb(35,31,32);">A</text>
                    <text x="342.312px" y="169.08px" style="font-family:'Modak';font-size:109.959px;fill:rgb(35,31,32);">n<tspan x="406.635px " y="169.08px ">d</tspan></text>
                    <text x="498.603px" y="169.08px" style="font-family:'Modak';font-size:181.019px;fill:rgb(35,31,32);">T</text>
                    <text x="609.091px" y="169.08px" style="font-family:'Modak';font-size:109.959px;fill:rgb(35,31,32);">h<tspan x="672.93px " y="169.08px ">e</tspan></text>
                    <text x="764.096px" y="169.08px" style="font-family:'Modak';font-size:181.019px;fill:rgb(35,31,32);">W</text>
                    <text x="926.732px" y="169.08px" style="font-family:'Modak';font-size:109.959px;fill:rgb(35,31,32);">i<tspan x="962.921px 1028.05px 1092.37px 1156px " y="169.08px 169.08px 169.08px 169.08px ">nner</tspan></text>
                    <text x="1231.96px" y="169.08px" style="font-family:'Modak';font-size:181.019px;fill:rgb(35,31,32);">I</text>
                    <text x="1293.04px" y="169.08px" style="font-family:'Modak';font-size:109.959px;fill:rgb(35,31,32);">s</text>
                </g>
                <g transform="matrix(0.830521,0,0,1.26877,2190.68,2800.48)">
                    <path d="M0,12.187C0.823,14.066 1.933,15.704 3.329,17.1C4.725,18.496 6.354,19.596 8.215,20.402C10.075,21.207 12.063,21.61 14.175,21.61C16.322,21.61 18.344,21.207 20.241,20.402C22.139,19.596 23.794,18.496 25.208,17.1C26.621,15.704 27.739,14.066 28.563,12.187C29.387,10.308 29.799,8.313 29.799,6.201C29.799,4.053 29.387,2.031 28.563,0.133C27.739,-1.763 26.621,-3.418 25.208,-4.833C23.794,-6.247 22.139,-7.365 20.241,-8.188C18.344,-9.012 16.322,-9.423 14.175,-9.423C12.063,-9.423 10.075,-9.012 8.215,-8.188C6.354,-7.365 4.725,-6.247 3.329,-4.833C1.933,-3.418 0.823,-1.763 0,0.133C-0.823,2.031 -1.234,4.053 -1.234,6.201C-1.234,8.313 -0.823,10.308 0,12.187Z" style="fill:none;fill-rule:nonzero;stroke:rgb(249,220,173);stroke-width:18.95px;"/>
                </g>
                <g transform="matrix(0.830521,0,0,1.26877,2219.71,2800.48)">
                    <path d="M0,12.187C0.823,14.066 1.933,15.704 3.329,17.1C4.725,18.496 6.354,19.596 8.215,20.402C10.075,21.207 12.063,21.61 14.175,21.61C16.322,21.61 18.344,21.207 20.241,20.402C22.139,19.596 23.794,18.496 25.208,17.1C26.621,15.704 27.739,14.066 28.563,12.187C29.387,10.308 29.799,8.313 29.799,6.201C29.799,4.053 29.387,2.031 28.563,0.133C27.739,-1.763 26.621,-3.418 25.208,-4.833C23.794,-6.247 22.139,-7.365 20.241,-8.188C18.344,-9.012 16.322,-9.423 14.175,-9.423C12.063,-9.423 10.075,-9.012 8.215,-8.188C6.354,-7.365 4.725,-6.247 3.329,-4.833C1.933,-3.418 0.823,-1.763 0,0.133C-0.823,2.031 -1.234,4.053 -1.234,6.201C-1.234,8.313 -0.823,10.308 0,12.187Z" style="fill:none;fill-rule:nonzero;stroke:rgb(249,220,173);stroke-width:18.95px;"/>
                </g>
                <g transform="matrix(0.830521,0,0,1.26877,2248.74,2800.48)">
                    <path d="M0,12.187C0.823,14.066 1.933,15.704 3.329,17.1C4.725,18.496 6.354,19.596 8.215,20.402C10.075,21.207 12.063,21.61 14.175,21.61C16.322,21.61 18.344,21.207 20.241,20.402C22.139,19.596 23.794,18.496 25.208,17.1C26.621,15.704 27.739,14.066 28.563,12.187C29.387,10.308 29.799,8.313 29.799,6.201C29.799,4.053 29.387,2.031 28.563,0.133C27.739,-1.763 26.621,-3.418 25.208,-4.833C23.794,-6.247 22.139,-7.365 20.241,-8.188C18.344,-9.012 16.322,-9.423 14.175,-9.423C12.063,-9.423 10.075,-9.012 8.215,-8.188C6.354,-7.365 4.725,-6.247 3.329,-4.833C1.933,-3.418 0.823,-1.763 0,0.133C-0.823,2.031 -1.234,4.053 -1.234,6.201C-1.234,8.313 -0.823,10.308 0,12.187Z" style="fill:none;fill-rule:nonzero;stroke:rgb(249,220,173);stroke-width:18.95px;"/>
                </g>
                <g transform="matrix(0.830521,0,0,1.26877,2277.25,2710.25)">
                    <path d="M0,70.269C-0.177,70.976 -0.296,71.669 -0.354,72.346C-0.413,73.024 -0.442,73.687 -0.442,74.335C-0.442,77.282 0.382,79.948 2.032,82.334C3.682,84.721 5.892,86.753 8.662,88.433C11.431,90.112 14.672,91.424 18.385,92.366C22.097,93.308 26.044,93.78 30.229,93.78C33.587,93.78 36.754,93.456 39.73,92.808C42.705,92.161 45.356,91.336 47.686,90.333C50.013,89.332 51.957,88.256 53.519,87.107C55.079,85.958 56.126,84.884 56.656,83.881C56.243,83.233 55.816,81.686 55.375,79.241C54.933,76.796 54.535,73.511 54.182,69.385C52.001,69.268 49.924,69.032 47.95,68.678C45.976,68.325 44.223,67.869 42.691,67.308C41.158,66.749 39.936,66.101 39.023,65.364C38.108,64.627 37.653,63.817 37.653,62.933C37.653,62.462 37.741,62.035 37.918,61.651C38.095,61.269 38.301,60.93 38.537,60.635C39.244,61.165 40.128,61.711 41.188,62.27C42.249,62.831 43.516,63.346 44.989,63.817C46.462,64.289 48.186,64.687 50.16,65.01C52.134,65.334 54.388,65.496 56.922,65.496C58.276,65.496 59.735,65.394 61.297,65.187C62.857,64.981 64.42,64.672 65.981,64.259C67.542,63.847 69.031,63.331 70.445,62.712C71.859,62.093 73.097,61.401 74.157,60.635C74.923,61.225 75.307,61.991 75.307,62.933C75.307,63.64 74.85,64.347 73.937,65.054C73.022,65.761 71.844,66.395 70.401,66.955C68.956,67.515 67.336,67.986 65.54,68.369C63.741,68.753 61.93,68.974 60.104,69.032L62.048,79.815C62.46,82.172 63.388,84.221 64.832,85.958C66.275,87.697 68.103,89.14 70.313,90.289C72.522,91.438 75.07,92.307 77.958,92.896C80.845,93.485 83.938,93.78 87.239,93.78C94.722,93.78 100.908,92.66 105.801,90.422C110.69,88.183 114.491,85.326 117.202,81.848L97.05,-1.502C96.106,-5.391 94.31,-8.735 91.658,-11.534C89.007,-14.332 85.824,-16.617 82.112,-18.384C78.4,-20.152 74.29,-21.447 69.782,-22.273C65.274,-23.098 60.723,-23.511 56.126,-23.511C52.648,-23.511 49.188,-23.29 45.74,-22.848C42.294,-22.406 38.964,-21.772 35.753,-20.947C32.54,-20.122 29.491,-19.105 26.604,-17.898C23.717,-16.689 21.124,-15.349 18.826,-13.877L0,70.269ZM60.811,34.206C60.574,34.326 60.221,34.458 59.75,34.604C59.277,34.752 58.778,34.826 58.247,34.826C57.894,34.826 57.496,34.768 57.055,34.649C56.612,34.531 56.272,34.354 56.038,34.118L52.679,16.264C52.974,16.146 53.298,16.029 53.651,15.91C54.005,15.793 54.388,15.733 54.801,15.733C55.448,15.733 55.993,15.896 56.436,16.22C56.878,16.544 57.289,17.251 57.673,18.341C58.056,19.432 58.438,21.037 58.822,23.158C59.205,25.28 59.72,28.108 60.369,31.644L60.811,34.206Z" style="fill:none;fill-rule:nonzero;stroke:rgb(249,220,173);stroke-width:18.95px;"/>
                </g>
                <g transform="matrix(0.830521,0,0,1.26877,2380.09,2826.81)">
                    <path d="M0,-58.361C-1.074,-56.75 -1.871,-54.906 -2.39,-52.831C-2.907,-50.755 -3.168,-48.858 -3.168,-47.139C-3.168,-45.063 -2.907,-43.077 -2.39,-41.18C-1.871,-39.282 -1.074,-37.583 0,-36.079L0,-10.093C0,-8.16 0.43,-6.486 1.289,-5.073C2.147,-3.658 3.248,-2.477 4.591,-1.529C5.933,-0.58 7.437,0.127 9.101,0.592C10.765,1.056 12.402,1.289 14.014,1.289C17.234,1.289 20.107,0.797 22.631,-0.187C25.154,-1.171 27.203,-2.486 28.778,-4.133C28.062,-5.457 27.427,-7.032 26.872,-8.858C26.316,-10.683 26.04,-12.992 26.04,-15.784C26.04,-16.285 26.058,-16.929 26.094,-17.717C26.129,-18.504 26.183,-19.382 26.255,-20.348C26.326,-21.314 26.424,-22.343 26.55,-23.435C26.675,-24.527 26.827,-25.61 27.007,-26.683L26.309,-35.435C26.773,-35.721 27.274,-35.864 27.812,-35.864C28.635,-35.864 29.234,-35.55 29.61,-34.925C29.986,-34.298 30.174,-33.126 30.174,-31.408C30.174,-30.477 30.103,-29.457 29.959,-28.348C29.816,-27.238 29.664,-26.03 29.503,-24.724C29.342,-23.417 29.198,-22.012 29.073,-20.509C28.947,-19.006 28.886,-17.412 28.886,-15.731C28.886,-12.58 29.323,-9.923 30.201,-7.757C31.078,-5.591 32.259,-3.838 33.744,-2.496C35.229,-1.153 36.947,-0.187 38.899,0.404C40.85,0.994 42.898,1.289 45.047,1.289C47.087,1.289 49.011,0.958 50.818,0.296C52.625,-0.366 54.209,-1.359 55.57,-2.684C56.93,-4.007 58.004,-5.645 58.791,-7.596C59.578,-9.547 59.973,-11.793 59.973,-14.335L59.973,-15.274C59.973,-15.685 59.954,-16.034 59.919,-16.321C58.415,-17.252 57.396,-18.522 56.858,-20.133C56.321,-21.744 56.053,-23.784 56.053,-26.254C56.053,-27.972 56.08,-29.833 56.134,-31.838C56.188,-33.842 56.214,-35.65 56.214,-37.26C56.214,-41.663 55.534,-45.314 54.174,-48.213C52.813,-51.112 51.06,-53.403 48.912,-55.086C46.765,-56.768 44.356,-57.949 41.69,-58.629C39.024,-59.309 36.402,-59.65 33.825,-59.65C31.642,-59.65 29.592,-59.389 27.678,-58.871C25.763,-58.352 24.026,-57.663 22.47,-56.804C20.912,-55.944 19.552,-54.942 18.389,-53.797C17.226,-52.651 16.286,-51.452 15.57,-50.2C14.89,-50.2 14.407,-50.369 14.121,-50.71C13.834,-51.049 13.691,-51.435 13.691,-51.864C13.691,-52.831 14.479,-54.047 16.054,-55.515C15.266,-56.338 14.362,-57.019 13.342,-57.555C12.322,-58.092 11.061,-58.361 9.557,-58.361L0,-58.361Z" style="fill:none;fill-rule:nonzero;stroke:rgb(249,220,173);stroke-width:18.95px;"/>
                </g>
                <g transform="matrix(0.830521,0,0,1.26877,2479.7,2810.67)">
                    <path d="M0,-49.449C0,-51.704 -0.368,-53.699 -1.102,-55.435C-1.835,-57.171 -2.855,-58.638 -4.161,-59.838C-5.469,-61.037 -7.017,-61.94 -8.806,-62.55C-10.596,-63.157 -12.529,-63.462 -14.604,-63.462C-16.502,-63.462 -18.193,-63.292 -19.678,-62.952C-21.164,-62.612 -22.506,-62.147 -23.705,-61.556C-24.904,-60.966 -25.986,-60.258 -26.953,-59.435C-27.92,-58.612 -28.814,-57.717 -29.638,-56.751C-29.388,-56.214 -29.173,-55.578 -28.993,-54.845C-28.814,-54.111 -28.663,-53.359 -28.537,-52.59C-28.412,-51.82 -28.322,-51.032 -28.269,-50.227C-28.215,-49.422 -28.188,-48.678 -28.188,-47.999C-26.972,-47.999 -25.683,-47.9 -24.322,-47.704C-22.963,-47.507 -21.719,-47.238 -20.591,-46.899C-19.463,-46.558 -18.533,-46.155 -17.799,-45.691C-17.065,-45.225 -16.698,-44.706 -16.698,-44.134C-16.698,-43.954 -16.752,-43.748 -16.859,-43.516C-16.967,-43.283 -17.11,-43.077 -17.289,-42.899C-18.721,-43.614 -20.457,-44.241 -22.497,-44.778C-24.537,-45.315 -26.918,-45.583 -29.638,-45.583C-33.504,-45.583 -37.11,-44.929 -40.456,-43.623C-43.804,-42.316 -46.703,-40.41 -49.154,-37.906C-51.606,-35.4 -53.53,-32.322 -54.926,-28.671C-56.322,-25.02 -57.02,-20.849 -57.02,-16.16C-57.02,-12.473 -56.662,-9.181 -55.946,-6.282C-55.23,-3.382 -54.255,-0.813 -53.02,1.423C-51.785,3.66 -50.327,5.576 -48.645,7.168C-46.962,8.761 -45.154,10.067 -43.222,11.088C-41.288,12.108 -39.267,12.851 -37.154,13.316C-35.043,13.78 -32.932,14.013 -30.819,14.013C-29.388,14.013 -27.92,13.852 -26.416,13.53C-24.913,13.208 -23.643,12.743 -22.604,12.134C-23.32,11.562 -23.885,10.926 -24.296,10.228C-24.707,9.53 -24.913,8.931 -24.913,8.43C-24.913,7.248 -24.305,6.658 -23.088,6.658C-22.587,7.911 -21.897,9.003 -21.021,9.933C-20.144,10.864 -19.159,11.634 -18.067,12.242C-16.976,12.851 -15.813,13.297 -14.577,13.584C-13.343,13.87 -12.081,14.013 -10.792,14.013C-8.967,14.013 -7.178,13.709 -5.423,13.101C-3.67,12.492 -2.104,11.553 -0.726,10.282C0.652,9.012 1.771,7.392 2.631,5.423C3.489,3.455 3.919,1.11 3.919,-1.611L3.919,-2.55C3.919,-2.961 3.9,-3.31 3.865,-3.597C2.362,-4.528 1.342,-5.879 0.805,-7.651C0.268,-9.423 0,-11.543 0,-14.013L0,-49.449ZM-26.255,-9.288C-26.506,-9.037 -26.882,-8.912 -27.383,-8.912C-28.063,-8.912 -28.52,-9.118 -28.752,-9.53C-28.985,-9.941 -29.101,-10.612 -29.101,-11.543L-29.101,-17.02C-29.101,-18.631 -29.074,-19.991 -29.021,-21.1C-28.967,-22.209 -28.851,-23.122 -28.671,-23.838C-28.492,-24.554 -28.269,-25.02 -28,-25.234C-27.731,-25.449 -27.419,-25.556 -27.061,-25.556C-26.738,-25.556 -26.479,-25.503 -26.282,-25.395C-26.086,-25.288 -25.915,-25.162 -25.771,-25.02C-25.844,-24.447 -25.906,-23.91 -25.96,-23.409C-26.014,-22.907 -26.059,-22.344 -26.094,-21.718C-26.13,-21.091 -26.166,-20.357 -26.201,-19.516C-26.237,-18.675 -26.255,-17.664 -26.255,-16.483L-26.255,-9.288Z" style="fill:none;fill-rule:nonzero;stroke:rgb(249,220,173);stroke-width:18.95px;"/>
                </g>
                <g transform="matrix(0.830521,0,0,1.26877,2573.62,2771.93)">
                    <path d="M0,-25.278L-6.1,-25.278C-8.28,-25.278 -10.032,-25.322 -11.358,-25.41C-12.685,-25.499 -13.716,-25.66 -14.452,-25.897C-15.189,-26.132 -15.676,-26.412 -15.91,-26.736C-16.146,-27.06 -16.264,-27.487 -16.264,-28.018C-16.264,-28.429 -16.176,-28.871 -15.999,-29.344L9.899,-29.344C12.374,-29.344 14.642,-29.726 16.705,-30.493C18.767,-31.258 20.55,-32.451 22.053,-34.072C23.555,-35.693 24.733,-37.785 25.588,-40.348C26.441,-42.911 26.869,-45.99 26.869,-49.585C26.869,-53.414 26.295,-57.215 25.146,-60.987C23.997,-64.757 22.597,-67.91 20.947,-70.445L-70.446,-70.445C-71.448,-69.56 -72.435,-68.456 -73.407,-67.13C-74.379,-65.804 -75.249,-64.271 -76.015,-62.533C-76.781,-60.795 -77.399,-58.821 -77.87,-56.611C-78.343,-54.402 -78.577,-51.941 -78.577,-49.231C-78.577,-45.636 -78.077,-42.233 -77.075,-39.022C-76.073,-35.81 -74.454,-32.584 -72.214,-29.344L-51.619,-29.344L-51.619,27.578C-51.619,30.583 -50.927,33.191 -49.542,35.401C-48.158,37.61 -46.302,39.437 -43.974,40.881C-41.646,42.325 -38.95,43.4 -35.886,44.107C-32.823,44.814 -29.641,45.167 -26.34,45.167C-20.095,45.167 -14.747,44.313 -10.298,42.604C-5.85,40.896 -2.417,38.98 0,36.859L0,-25.278Z" style="fill:none;fill-rule:nonzero;stroke:rgb(249,220,173);stroke-width:18.95px;"/>
                </g>
                <g transform="matrix(0.830521,0,0,1.26877,2624.75,2815.03)">
                    <path d="M0,-56.321C0,-58.218 -0.421,-59.838 -1.262,-61.18C-2.103,-62.522 -3.213,-63.613 -4.59,-64.455C-5.969,-65.296 -7.543,-65.913 -9.315,-66.307C-11.087,-66.701 -12.904,-66.898 -14.765,-66.898C-17.307,-66.898 -19.785,-66.567 -22.201,-65.905C-24.617,-65.242 -26.648,-64.428 -28.295,-63.462L-28.295,-0.805C-28.295,1.128 -27.865,2.802 -27.006,4.215C-26.147,5.63 -25.047,6.811 -23.704,7.759C-22.362,8.708 -20.858,9.415 -19.194,9.88C-17.529,10.345 -15.893,10.577 -14.281,10.577C-11.06,10.577 -8.188,10.085 -5.664,9.101C-3.141,8.117 -1.092,6.802 0.483,5.155C-0.233,3.831 -0.868,2.256 -1.423,0.43C-1.978,-1.395 -2.255,-3.704 -2.255,-6.496C-2.255,-6.997 -2.237,-7.641 -2.201,-8.429C-2.166,-9.216 -2.112,-10.093 -2.04,-11.06C-1.969,-12.026 -1.87,-13.055 -1.745,-14.147C-1.62,-15.238 -1.468,-16.321 -1.288,-17.395L-1.986,-26.147C-1.521,-26.433 -1.02,-26.576 -0.483,-26.576C0.34,-26.576 0.939,-26.262 1.315,-25.637C1.691,-25.01 1.88,-23.838 1.88,-22.12C1.88,-21.189 1.808,-20.169 1.665,-19.06C1.521,-17.95 1.369,-16.742 1.208,-15.436C1.047,-14.129 0.903,-12.724 0.778,-11.221C0.653,-9.717 0.591,-8.124 0.591,-6.443C0.591,-3.292 1.028,-0.634 1.906,1.531C2.783,3.697 3.964,5.45 5.45,6.792C6.935,8.135 8.653,9.101 10.604,9.692C12.555,10.282 14.604,10.577 16.752,10.577C18.792,10.577 20.716,10.246 22.523,9.584C24.33,8.922 25.914,7.929 27.275,6.604C28.635,5.281 29.709,3.643 30.497,1.692C31.283,-0.258 31.678,-2.505 31.678,-5.047L31.678,-5.986C31.678,-6.397 31.659,-6.746 31.624,-7.033C30.121,-7.964 29.101,-9.234 28.563,-10.845C28.026,-12.456 27.759,-14.496 27.759,-16.966C27.759,-18.684 27.785,-20.456 27.839,-22.281C27.893,-24.107 27.919,-25.825 27.919,-27.435C27.919,-30.37 27.562,-32.947 26.846,-35.167C26.129,-37.386 25.172,-39.301 23.974,-40.912C22.773,-42.523 21.404,-43.856 19.866,-44.912C18.326,-45.967 16.716,-46.818 15.033,-47.462C13.351,-48.106 11.678,-48.553 10.014,-48.804C8.35,-49.054 6.801,-49.18 5.369,-49.18C3.186,-49.18 1.217,-49.001 -0.536,-48.643C-2.291,-48.285 -3.848,-47.811 -5.208,-47.22C-6.568,-46.63 -7.75,-45.967 -8.751,-45.234C-9.754,-44.5 -10.577,-43.758 -11.221,-43.006C-11.579,-43.077 -11.911,-43.256 -12.214,-43.543C-12.519,-43.829 -12.671,-44.187 -12.671,-44.616C-12.671,-45.154 -12.34,-45.771 -11.678,-46.469C-11.016,-47.167 -10.112,-47.846 -8.966,-48.509C-7.821,-49.171 -6.479,-49.761 -4.939,-50.281C-3.4,-50.799 -1.754,-51.113 0,-51.22L0,-56.321Z" style="fill:none;fill-rule:nonzero;stroke:rgb(249,220,173);stroke-width:18.95px;"/>
                </g>
                <g transform="matrix(0.830521,0,0,1.26877,2678.04,2797.28)">
                    <path d="M0,-11.383C-0.573,-11.579 -1.038,-11.786 -1.396,-12C-1.253,-12.931 -0.886,-13.673 -0.295,-14.229C0.296,-14.783 1.092,-15.061 2.094,-15.061C2.81,-15.061 3.427,-14.917 3.946,-14.631C4.465,-14.344 4.725,-13.843 4.725,-13.128C4.725,-12.519 4.501,-12.027 4.054,-11.652C3.605,-11.276 2.935,-11.088 2.04,-11.088C1.253,-11.088 0.572,-11.186 0,-11.383ZM11.409,24.643C13.86,24.232 16.018,23.695 17.879,23.033C19.74,22.371 21.351,21.601 22.711,20.724C24.071,19.847 25.323,18.926 26.47,17.959C26.612,17.422 26.729,16.787 26.818,16.053C26.907,15.32 26.953,14.541 26.953,13.718C26.953,12.894 26.89,11.991 26.765,11.006C26.639,10.022 26.451,9.065 26.201,8.134C25.95,7.203 25.655,6.353 25.315,5.583C24.975,4.814 24.572,4.233 24.107,3.838C23.391,4.34 22.496,4.858 21.423,5.395C20.349,5.932 19.087,6.425 17.638,6.872C16.187,7.32 14.551,7.696 12.725,7.999C10.899,8.304 8.877,8.456 6.658,8.456C5.047,8.456 3.437,8.322 1.825,8.053C0.215,7.784 -1.217,7.445 -2.47,7.033C-3.723,6.622 -4.743,6.156 -5.53,5.637C-6.317,5.118 -6.711,4.59 -6.711,4.053C-6.711,3.874 -6.685,3.669 -6.631,3.436C-6.577,3.203 -6.461,3.015 -6.281,2.872C-4.671,3.838 -2.729,4.608 -0.456,5.18C1.816,5.754 4.17,6.04 6.604,6.04C9.825,6.04 12.813,5.682 15.57,4.966C18.326,4.25 20.706,3.15 22.711,1.664C24.716,0.179 26.282,-1.71 27.409,-4.001C28.537,-6.291 29.101,-9.029 29.101,-12.215C29.101,-15.579 28.437,-18.747 27.114,-21.718C25.789,-24.689 23.901,-27.284 21.449,-29.504C18.997,-31.722 16.035,-33.467 12.563,-34.738C9.092,-36.008 5.189,-36.644 0.859,-36.644C-3.222,-36.644 -7.105,-35.982 -10.792,-34.658C-14.479,-33.333 -17.709,-31.364 -20.482,-28.752C-23.257,-26.139 -25.458,-22.9 -27.087,-19.034C-28.716,-15.168 -29.529,-10.712 -29.529,-5.665C-29.529,-0.868 -28.77,3.445 -27.248,7.275C-25.727,11.105 -23.562,14.353 -20.751,17.019C-17.941,19.686 -14.55,21.726 -10.577,23.14C-6.604,24.554 -2.166,25.261 2.738,25.261C6.067,25.261 8.957,25.055 11.409,24.643Z" style="fill:none;fill-rule:nonzero;stroke:rgb(249,220,173);stroke-width:18.95px;"/>
                </g>
                <g transform="matrix(0.830521,0,0,1.26877,2732.56,2772.33)">
                    <path d="M0,-27.665C2.033,-17.677 4.228,-8.558 6.585,-0.309C8.941,7.942 11.358,15.278 13.833,21.7C16.308,28.123 18.635,33.632 20.815,38.229C22.229,39.585 23.938,40.674 25.942,41.499C27.944,42.325 30.11,42.988 32.438,43.488C34.766,43.987 37.168,44.327 39.643,44.504C42.117,44.681 44.504,44.769 46.802,44.769C52.399,44.769 57.364,44.209 61.695,43.09C66.026,41.971 69.871,40.056 73.229,37.345C72.464,35.283 71.815,33.338 71.285,31.511C70.755,29.685 70.49,28.152 70.49,26.915C70.49,25.796 70.725,24.912 71.197,24.263C71.668,23.615 72.581,23.262 73.938,23.203C74.172,24.382 74.541,25.722 75.042,27.224C75.542,28.727 76.103,30.26 76.722,31.82C77.34,33.382 77.987,34.87 78.666,36.284C79.343,37.698 80.006,38.907 80.654,39.908C81.833,40.557 83.291,41.176 85.029,41.764C86.768,42.354 88.623,42.869 90.599,43.311C92.572,43.753 94.576,44.106 96.608,44.372C98.642,44.637 100.542,44.769 102.31,44.769C106.376,44.769 110.102,44.474 113.491,43.885C116.879,43.295 119.943,42.338 122.684,41.013C125.423,39.687 127.823,37.963 129.887,35.842C131.949,33.721 133.687,31.1 135.102,27.976C135.867,26.267 136.706,23.969 137.621,21.081C138.533,18.195 139.491,14.953 140.493,11.358C141.495,7.765 142.496,3.905 143.499,-0.22C144.5,-4.344 145.472,-8.498 146.415,-12.683C147.357,-16.866 148.241,-20.932 149.067,-24.881C149.892,-28.828 150.599,-32.467 151.188,-35.797C151.776,-39.125 152.249,-42.013 152.603,-44.458C152.956,-46.903 153.133,-48.686 153.133,-49.806C153.133,-53.223 152.528,-56.332 151.321,-59.131C150.112,-61.929 148.404,-64.316 146.194,-66.29C143.984,-68.264 141.318,-69.782 138.195,-70.843C135.071,-71.903 131.595,-72.434 127.766,-72.434C121.99,-72.434 117.35,-71.888 113.845,-70.798C110.338,-69.707 107.494,-68.426 105.314,-66.954C105.138,-63.241 104.873,-59.175 104.52,-54.756C104.166,-50.336 103.709,-45.681 103.149,-40.79C102.589,-35.899 101.926,-30.832 101.16,-25.588C100.395,-20.343 99.511,-15.07 98.509,-9.766C98.037,-7.468 97.478,-6.039 96.83,-5.479C96.181,-4.919 95.444,-4.64 94.62,-4.64C94.03,-4.64 93.471,-4.757 92.94,-4.993C93.588,-9.471 94.267,-14.053 94.974,-18.738C95.681,-23.422 96.344,-27.974 96.962,-32.394C97.581,-36.813 98.125,-41.04 98.598,-45.078C99.068,-49.113 99.393,-52.723 99.569,-55.905C99.393,-58.497 98.538,-60.678 97.007,-62.446C95.474,-64.213 93.529,-65.642 91.173,-66.732C88.815,-67.822 86.192,-68.603 83.307,-69.075C80.418,-69.546 77.53,-69.782 74.645,-69.782C70.932,-69.782 67.321,-69.34 63.816,-68.456C60.311,-67.572 57.29,-66.364 54.757,-64.832C54.284,-61.65 53.857,-57.717 53.476,-53.032C53.091,-48.348 52.769,-43.471 52.503,-38.404C52.237,-33.335 52.046,-28.328 51.929,-23.378C51.81,-18.428 51.752,-14.067 51.752,-10.297L51.752,-7.203C51.752,-6.26 51.78,-5.376 51.84,-4.551C51.133,-4.374 50.543,-4.286 50.072,-4.286C48.716,-4.286 47.876,-4.919 47.553,-6.186C47.229,-7.453 47.067,-8.882 47.067,-10.474C47.067,-13.006 47.096,-16.042 47.155,-19.578C47.214,-23.113 47.317,-26.825 47.465,-30.714C47.611,-34.603 47.774,-38.537 47.951,-42.514C48.128,-46.492 48.362,-50.218 48.658,-53.695C48.658,-56.758 48.009,-59.455 46.714,-61.783C45.417,-64.11 43.576,-66.07 41.189,-67.661C38.803,-69.251 35.93,-70.445 32.571,-71.24C29.213,-72.036 25.47,-72.434 21.346,-72.434C15.689,-72.434 10.563,-71.343 5.967,-69.163C1.37,-66.982 -2.254,-63.978 -4.905,-60.147C-3.668,-48.48 -2.032,-37.653 0,-27.665Z" style="fill:none;fill-rule:nonzero;stroke:rgb(249,220,173);stroke-width:18.95px;"/>
                </g>
                <g transform="matrix(0.830521,0,0,1.26877,2865.06,2748)">
                    <path d="M0,45.691C0,49.092 0.511,51.928 1.53,54.201C2.551,56.474 3.839,58.291 5.396,59.65C6.953,61.011 8.671,61.978 10.551,62.55C12.43,63.122 14.229,63.409 15.946,63.409C18.165,63.409 20.215,63.105 22.094,62.496C23.973,61.888 25.592,60.948 26.953,59.677C28.312,58.407 29.369,56.787 30.121,54.818C30.872,52.85 31.248,50.505 31.248,47.785L31.248,46.845C31.248,46.434 31.229,46.085 31.194,45.798C29.691,44.868 28.671,43.517 28.134,41.745C27.598,39.973 27.329,37.852 27.329,35.382L27.329,14.121C27.257,14.013 27.096,13.844 26.846,13.611C26.595,13.378 26.326,13.137 26.04,12.886C25.753,12.636 25.484,12.421 25.234,12.242C24.984,12.063 24.806,11.938 24.698,11.866C22.765,13.298 20.903,14.013 19.114,14.013C18.541,14.013 18.139,13.808 17.906,13.396C17.673,12.985 17.557,12.51 17.557,11.973C19.061,11.651 20.51,11.07 21.906,10.228C23.302,9.388 24.519,8.341 25.557,7.087C26.595,5.835 27.427,4.412 28.054,2.819C28.68,1.227 28.993,-0.5 28.993,-2.362C28.993,-4.545 28.608,-6.577 27.839,-8.456C27.068,-10.335 26.004,-11.955 24.645,-13.315C23.283,-14.675 21.682,-15.749 19.839,-16.537C17.995,-17.323 15.981,-17.718 13.799,-17.718C11.651,-17.718 9.646,-17.342 7.785,-16.59C5.924,-15.838 4.296,-14.791 2.899,-13.449C1.504,-12.107 0.403,-10.497 -0.402,-8.617C-1.208,-6.738 -1.61,-4.652 -1.61,-2.362C-1.61,-0.894 -1.423,0.43 -1.047,1.611C-0.671,2.792 -0.187,3.839 0.403,4.752C0.993,5.665 1.646,6.443 2.362,7.087C3.078,7.732 3.776,8.233 4.457,8.591C3.633,9.02 2.863,9.378 2.147,9.665C1.432,9.951 0.716,10.327 0,10.792L0,45.691Z" style="fill:none;fill-rule:nonzero;stroke:rgb(249,220,173);stroke-width:18.95px;"/>
                </g>
                <g transform="matrix(0.830521,0,0,1.26877,2895.52,2826.81)">
                    <path d="M0,-58.361C-1.074,-56.75 -1.871,-54.906 -2.39,-52.831C-2.907,-50.755 -3.168,-48.858 -3.168,-47.139C-3.168,-45.063 -2.907,-43.077 -2.39,-41.18C-1.871,-39.282 -1.074,-37.583 0,-36.079L0,-10.093C0,-8.16 0.43,-6.486 1.289,-5.073C2.147,-3.658 3.248,-2.477 4.591,-1.529C5.933,-0.58 7.437,0.127 9.101,0.592C10.765,1.056 12.402,1.289 14.014,1.289C17.234,1.289 20.107,0.797 22.631,-0.187C25.154,-1.171 27.203,-2.486 28.778,-4.133C28.062,-5.457 27.427,-7.032 26.872,-8.858C26.316,-10.683 26.04,-12.992 26.04,-15.784C26.04,-16.285 26.058,-16.929 26.094,-17.717C26.129,-18.504 26.183,-19.382 26.255,-20.348C26.326,-21.314 26.424,-22.343 26.55,-23.435C26.675,-24.527 26.827,-25.61 27.007,-26.683L26.309,-35.435C26.773,-35.721 27.274,-35.864 27.812,-35.864C28.635,-35.864 29.234,-35.55 29.61,-34.925C29.986,-34.298 30.174,-33.126 30.174,-31.408C30.174,-30.477 30.103,-29.457 29.959,-28.348C29.816,-27.238 29.664,-26.03 29.503,-24.724C29.342,-23.417 29.198,-22.012 29.073,-20.509C28.947,-19.006 28.886,-17.412 28.886,-15.731C28.886,-12.58 29.323,-9.923 30.201,-7.757C31.078,-5.591 32.259,-3.838 33.744,-2.496C35.229,-1.153 36.947,-0.187 38.899,0.404C40.85,0.994 42.898,1.289 45.047,1.289C47.087,1.289 49.011,0.958 50.818,0.296C52.625,-0.366 54.209,-1.359 55.57,-2.684C56.93,-4.007 58.004,-5.645 58.791,-7.596C59.578,-9.547 59.973,-11.793 59.973,-14.335L59.973,-15.274C59.973,-15.685 59.954,-16.034 59.919,-16.321C58.415,-17.252 57.396,-18.522 56.858,-20.133C56.321,-21.744 56.053,-23.784 56.053,-26.254C56.053,-27.972 56.08,-29.833 56.134,-31.838C56.188,-33.842 56.214,-35.65 56.214,-37.26C56.214,-41.663 55.534,-45.314 54.174,-48.213C52.813,-51.112 51.06,-53.403 48.912,-55.086C46.765,-56.768 44.356,-57.949 41.69,-58.629C39.024,-59.309 36.402,-59.65 33.825,-59.65C31.642,-59.65 29.592,-59.389 27.678,-58.871C25.763,-58.352 24.026,-57.663 22.47,-56.804C20.912,-55.944 19.552,-54.942 18.389,-53.797C17.226,-52.651 16.286,-51.452 15.57,-50.2C14.89,-50.2 14.407,-50.369 14.121,-50.71C13.834,-51.049 13.691,-51.435 13.691,-51.864C13.691,-52.831 14.479,-54.047 16.054,-55.515C15.266,-56.338 14.362,-57.019 13.342,-57.555C12.322,-58.092 11.061,-58.361 9.557,-58.361L0,-58.361Z" style="fill:none;fill-rule:nonzero;stroke:rgb(249,220,173);stroke-width:18.95px;"/>
                </g>
                <g transform="matrix(0.830521,0,0,1.26877,2949.61,2826.81)">
                    <path d="M0,-58.361C-1.074,-56.75 -1.871,-54.906 -2.39,-52.831C-2.907,-50.755 -3.168,-48.858 -3.168,-47.139C-3.168,-45.063 -2.907,-43.077 -2.39,-41.18C-1.871,-39.282 -1.074,-37.583 0,-36.079L0,-10.093C0,-8.16 0.43,-6.486 1.289,-5.073C2.147,-3.658 3.248,-2.477 4.591,-1.529C5.933,-0.58 7.437,0.127 9.101,0.592C10.765,1.056 12.402,1.289 14.014,1.289C17.234,1.289 20.107,0.797 22.631,-0.187C25.154,-1.171 27.203,-2.486 28.778,-4.133C28.062,-5.457 27.427,-7.032 26.872,-8.858C26.316,-10.683 26.04,-12.992 26.04,-15.784C26.04,-16.285 26.058,-16.929 26.094,-17.717C26.129,-18.504 26.183,-19.382 26.255,-20.348C26.326,-21.314 26.424,-22.343 26.55,-23.435C26.675,-24.527 26.827,-25.61 27.007,-26.683L26.309,-35.435C26.773,-35.721 27.275,-35.864 27.812,-35.864C28.635,-35.864 29.234,-35.55 29.61,-34.925C29.986,-34.298 30.174,-33.126 30.174,-31.408C30.174,-30.477 30.102,-29.457 29.959,-28.348C29.816,-27.238 29.664,-26.03 29.503,-24.724C29.342,-23.417 29.198,-22.012 29.073,-20.509C28.947,-19.006 28.886,-17.412 28.886,-15.731C28.886,-12.58 29.323,-9.923 30.201,-7.757C31.078,-5.591 32.259,-3.838 33.744,-2.496C35.229,-1.153 36.947,-0.187 38.899,0.404C40.85,0.994 42.898,1.289 45.047,1.289C47.087,1.289 49.011,0.958 50.818,0.296C52.625,-0.366 54.209,-1.359 55.57,-2.684C56.93,-4.007 58.004,-5.645 58.791,-7.596C59.578,-9.547 59.973,-11.793 59.973,-14.335L59.973,-15.274C59.973,-15.685 59.954,-16.034 59.919,-16.321C58.415,-17.252 57.396,-18.522 56.858,-20.133C56.321,-21.744 56.053,-23.784 56.053,-26.254C56.053,-27.972 56.08,-29.833 56.134,-31.838C56.188,-33.842 56.214,-35.65 56.214,-37.26C56.214,-41.663 55.534,-45.314 54.174,-48.213C52.813,-51.112 51.06,-53.403 48.912,-55.086C46.765,-56.768 44.356,-57.949 41.69,-58.629C39.024,-59.309 36.402,-59.65 33.825,-59.65C31.642,-59.65 29.592,-59.389 27.678,-58.871C25.763,-58.352 24.026,-57.663 22.47,-56.804C20.912,-55.944 19.552,-54.942 18.389,-53.797C17.226,-52.651 16.286,-51.452 15.57,-50.2C14.89,-50.2 14.407,-50.369 14.121,-50.71C13.834,-51.049 13.691,-51.435 13.691,-51.864C13.691,-52.831 14.479,-54.047 16.054,-55.515C15.266,-56.338 14.362,-57.019 13.342,-57.555C12.322,-58.092 11.061,-58.361 9.557,-58.361L0,-58.361Z" style="fill:none;fill-rule:nonzero;stroke:rgb(249,220,173);stroke-width:18.95px;"/>
                </g>
                <g transform="matrix(0.830521,0,0,1.26877,3026.39,2797.28)">
                    <path d="M0,-11.383C-0.573,-11.579 -1.038,-11.786 -1.396,-12C-1.253,-12.931 -0.886,-13.673 -0.295,-14.229C0.296,-14.783 1.092,-15.061 2.094,-15.061C2.81,-15.061 3.427,-14.917 3.946,-14.631C4.465,-14.344 4.725,-13.843 4.725,-13.128C4.725,-12.519 4.501,-12.027 4.054,-11.652C3.605,-11.276 2.935,-11.088 2.04,-11.088C1.253,-11.088 0.572,-11.186 0,-11.383ZM11.409,24.643C13.86,24.232 16.018,23.695 17.879,23.033C19.74,22.371 21.351,21.601 22.711,20.724C24.071,19.847 25.323,18.926 26.47,17.959C26.612,17.422 26.729,16.787 26.818,16.053C26.907,15.32 26.953,14.541 26.953,13.718C26.953,12.894 26.89,11.991 26.765,11.006C26.639,10.022 26.451,9.065 26.201,8.134C25.95,7.203 25.655,6.353 25.315,5.583C24.975,4.814 24.572,4.233 24.107,3.838C23.391,4.34 22.496,4.858 21.423,5.395C20.349,5.932 19.087,6.425 17.638,6.872C16.187,7.32 14.551,7.696 12.725,7.999C10.899,8.304 8.877,8.456 6.658,8.456C5.047,8.456 3.437,8.322 1.825,8.053C0.215,7.784 -1.217,7.445 -2.47,7.033C-3.723,6.622 -4.743,6.156 -5.53,5.637C-6.317,5.118 -6.711,4.59 -6.711,4.053C-6.711,3.874 -6.685,3.669 -6.631,3.436C-6.577,3.203 -6.461,3.015 -6.281,2.872C-4.671,3.838 -2.729,4.608 -0.456,5.18C1.816,5.754 4.17,6.04 6.604,6.04C9.825,6.04 12.813,5.682 15.57,4.966C18.326,4.25 20.706,3.15 22.711,1.664C24.716,0.179 26.282,-1.71 27.409,-4.001C28.537,-6.291 29.101,-9.029 29.101,-12.215C29.101,-15.579 28.437,-18.747 27.114,-21.718C25.789,-24.689 23.901,-27.284 21.449,-29.504C18.997,-31.722 16.035,-33.467 12.563,-34.738C9.092,-36.008 5.189,-36.644 0.859,-36.644C-3.222,-36.644 -7.105,-35.982 -10.792,-34.658C-14.479,-33.333 -17.709,-31.364 -20.482,-28.752C-23.257,-26.139 -25.458,-22.9 -27.087,-19.034C-28.716,-15.168 -29.529,-10.712 -29.529,-5.665C-29.529,-0.868 -28.77,3.445 -27.248,7.275C-25.727,11.105 -23.562,14.353 -20.751,17.019C-17.941,19.686 -14.55,21.726 -10.577,23.14C-6.604,24.554 -2.166,25.261 2.738,25.261C6.067,25.261 8.957,25.055 11.409,24.643Z" style="fill:none;fill-rule:nonzero;stroke:rgb(249,220,173);stroke-width:18.95px;"/>
                </g>
                <g transform="matrix(0.830521,0,0,1.26877,3055.87,2827.15)">
                    <path d="M0,-58.631C-1.074,-57.02 -1.871,-55.176 -2.39,-53.101C-2.907,-51.025 -3.168,-49.128 -3.168,-47.409C-3.168,-45.333 -2.907,-43.347 -2.39,-41.45C-1.871,-39.552 -1.074,-37.853 0,-36.349L0,-8.698C0,-7.052 0.376,-5.638 1.128,-4.457C1.879,-3.276 2.908,-2.3 4.215,-1.531C5.521,-0.761 7.051,-0.189 8.806,0.187C10.559,0.563 12.438,0.751 14.442,0.751C15.373,0.751 16.384,0.706 17.477,0.617C18.567,0.527 19.713,0.348 20.912,0.08C22.111,-0.189 23.337,-0.565 24.591,-1.048C25.843,-1.531 27.078,-2.166 28.295,-2.954L28.295,-29.906C26.577,-30.229 25.387,-30.532 24.725,-30.819C24.062,-31.105 23.731,-31.499 23.731,-32C23.731,-32.537 23.874,-32.948 24.161,-33.235C24.805,-33.091 25.44,-32.94 26.066,-32.779C26.692,-32.618 27.382,-32.474 28.134,-32.349C28.886,-32.223 29.718,-32.125 30.631,-32.054C31.543,-31.982 32.59,-31.946 33.771,-31.946C34.881,-31.946 36.008,-32.008 37.154,-32.134C38.299,-32.259 39.382,-32.43 40.402,-32.645C41.423,-32.86 42.362,-33.11 43.221,-33.396C44.08,-33.682 44.796,-33.968 45.369,-34.255C45.977,-35.508 46.541,-37.101 47.06,-39.034C47.578,-40.966 47.839,-43.382 47.839,-46.282C47.839,-47.893 47.713,-49.539 47.463,-51.221C47.212,-52.903 46.8,-54.497 46.228,-56C45.69,-56.393 45.028,-56.796 44.241,-57.208C43.453,-57.619 42.541,-57.986 41.503,-58.309C40.464,-58.631 39.302,-58.89 38.013,-59.087C36.725,-59.283 35.31,-59.382 33.771,-59.382C31.874,-59.382 30.004,-59.158 28.161,-58.712C26.316,-58.263 24.599,-57.503 23.007,-56.429C21.413,-55.356 20,-53.923 18.765,-52.134C17.53,-50.344 16.572,-48.125 15.893,-45.477C15.212,-45.477 14.711,-45.646 14.389,-45.986C14.067,-46.326 13.906,-46.712 13.906,-47.141C13.906,-47.498 13.995,-47.991 14.175,-48.617C14.354,-49.243 14.595,-49.906 14.899,-50.604C15.203,-51.302 15.562,-52.008 15.973,-52.725C16.384,-53.441 16.823,-54.048 17.288,-54.55C16.43,-55.839 15.257,-56.84 13.771,-57.557C12.286,-58.273 10.434,-58.631 8.215,-58.631L0,-58.631Z" style="fill:none;fill-rule:nonzero;stroke:rgb(249,220,173);stroke-width:18.95px;"/>
                </g>
                <g transform="matrix(0.830521,0,0,1.26877,3162.13,2691.08)">
                    <path d="M0,100.587L0,9.282C0,6.276 -0.693,3.669 -2.077,1.46C-3.463,-0.75 -5.318,-2.576 -7.646,-4.021C-9.975,-5.464 -12.67,-6.54 -15.733,-7.247C-18.798,-7.954 -21.979,-8.308 -25.279,-8.308C-31.525,-8.308 -36.873,-7.453 -41.321,-5.744C-45.771,-4.035 -49.203,-2.121 -51.619,0.001L-51.619,91.306C-51.619,94.311 -50.927,96.919 -49.542,99.129C-48.158,101.338 -46.302,103.165 -43.974,104.608C-41.646,106.053 -38.95,107.128 -35.886,107.835C-32.822,108.542 -29.641,108.895 -26.34,108.895C-20.095,108.895 -14.747,108.041 -10.297,106.332C-5.849,104.624 -2.417,102.708 0,100.587Z" style="fill:none;fill-rule:nonzero;stroke:rgb(249,220,173);stroke-width:18.95px;"/>
                </g>
                <g transform="matrix(0.830521,0,0,1.26877,3199.05,2805.94)">
                    <path d="M0,-25.236C1.413,-25.039 2.756,-24.779 4.026,-24.457C5.297,-24.135 6.47,-23.768 7.543,-23.357C8.617,-22.944 9.565,-22.506 10.389,-22.041C11.355,-22.971 12.196,-24.26 12.912,-25.907C13.628,-27.553 13.986,-29.611 13.986,-32.081C13.986,-33.155 13.905,-34.318 13.745,-35.571C13.584,-36.824 13.323,-37.826 12.966,-38.578C11.785,-39.257 10.397,-39.911 8.805,-40.538C7.212,-41.163 5.477,-41.71 3.597,-42.175C1.718,-42.64 -0.296,-43.007 -2.443,-43.276C-4.591,-43.544 -6.828,-43.678 -9.154,-43.678C-13.879,-43.678 -17.996,-43.106 -21.503,-41.961C-25.012,-40.815 -27.929,-39.276 -30.255,-37.343C-32.582,-35.41 -34.317,-33.164 -35.463,-30.605C-36.608,-28.045 -37.181,-25.352 -37.181,-22.525C-37.181,-19.123 -36.483,-16.224 -35.087,-13.826C-33.691,-11.428 -31.812,-9.451 -29.449,-7.894C-27.087,-6.337 -24.341,-5.2 -21.208,-4.485C-18.076,-3.768 -14.757,-3.41 -11.248,-3.41L-10.658,-3.41C-10.443,-3.41 -10.14,-3.428 -9.745,-3.464C-9.638,-3.177 -9.584,-2.891 -9.584,-2.605C-9.584,-2.104 -9.736,-1.71 -10.04,-1.424C-10.345,-1.137 -11.033,-0.994 -12.107,-0.994C-14.435,-0.994 -16.636,-1.173 -18.711,-1.531C-20.788,-1.889 -22.711,-2.354 -24.483,-2.927C-26.255,-3.5 -27.83,-4.153 -29.208,-4.887C-30.586,-5.62 -31.704,-6.345 -32.563,-7.062C-33.065,-6.739 -33.566,-6.283 -34.066,-5.693C-34.568,-5.102 -35.016,-4.412 -35.409,-3.625C-35.804,-2.838 -36.126,-1.969 -36.376,-1.021C-36.626,-0.072 -36.751,0.921 -36.751,1.958C-36.751,4.75 -36.107,7.176 -34.818,9.234C-33.53,11.292 -31.723,13.001 -29.396,14.361C-27.069,15.722 -24.269,16.742 -20.993,17.422C-17.718,18.101 -14.112,18.442 -10.175,18.442C-5.915,18.442 -2.05,17.985 1.423,17.073C4.895,16.16 7.865,14.791 10.335,12.965C12.805,11.139 14.711,8.84 16.054,6.066C17.396,3.292 18.066,0.044 18.066,-3.679C18.066,-6.149 17.727,-8.35 17.047,-10.283C16.366,-12.216 15.444,-13.898 14.281,-15.33C13.118,-16.761 11.749,-17.978 10.174,-18.981C8.599,-19.983 6.926,-20.788 5.154,-21.397C3.383,-22.005 1.548,-22.444 -0.349,-22.712C-2.247,-22.981 -4.09,-23.115 -5.879,-23.115L-7.168,-23.115C-7.598,-23.115 -8.116,-23.096 -8.725,-23.061C-8.761,-23.132 -8.778,-23.231 -8.778,-23.357L-8.778,-23.652C-8.778,-24.117 -8.653,-24.475 -8.402,-24.726C-8.152,-24.976 -7.821,-25.164 -7.409,-25.289C-6.998,-25.414 -6.523,-25.486 -5.986,-25.504C-5.45,-25.522 -4.896,-25.531 -4.322,-25.531C-2.854,-25.531 -1.414,-25.432 0,-25.236Z" style="fill:none;fill-rule:nonzero;stroke:rgb(249,220,173);stroke-width:18.95px;"/>
                </g>
                <g transform="matrix(0.830521,0,0,1.26877,2089.24,2605.82)">
                    <text x="114.412px" y="169.08px" style="font-family:'Modak';font-size:109.959px;fill:rgb(46,41,79);">.<tspan x="149.366px 184.32px " y="169.08px 169.08px ">..</tspan></text>
                    <text x="219.274px" y="169.08px" style="font-family:'Modak';font-size:181.019px;fill:rgb(46,41,79);">A</text>
                    <text x="342.312px" y="169.08px" style="font-family:'Modak';font-size:109.959px;fill:rgb(46,41,79);">n<tspan x="406.635px " y="169.08px ">d</tspan></text>
                    <text x="498.603px" y="169.08px" style="font-family:'Modak';font-size:181.019px;fill:rgb(46,41,79);">T</text>
                    <text x="609.091px" y="169.08px" style="font-family:'Modak';font-size:109.959px;fill:rgb(46,41,79);">h<tspan x="672.93px " y="169.08px ">e</tspan></text>
                    <text x="764.096px" y="169.08px" style="font-family:'Modak';font-size:181.019px;fill:rgb(46,41,79);">W</text>
                    <text x="926.732px" y="169.08px" style="font-family:'Modak';font-size:109.959px;fill:rgb(46,41,79);">i<tspan x="962.921px 1028.05px 1092.37px 1156px " y="169.08px 169.08px 169.08px 169.08px ">nner</tspan></text>
                    <text x="1231.96px" y="169.08px" style="font-family:'Modak';font-size:181.019px;fill:rgb(46,41,79);">I</text>
                    <text x="1293.04px" y="169.08px" style="font-family:'Modak';font-size:109.959px;fill:rgb(46,41,79);">s</text>
                </g>
            </g>
        </g>
    </g>
</svg>
