<?xml version="1.0" encoding="UTF-8" standalone="no"?>
<!DOCTYPE svg PUBLIC "-//W3C//DTD SVG 1.1//EN" "http://www.w3.org/Graphics/SVG/1.1/DTD/svg11.dtd">
<svg width="100%" height="100%" viewBox="0 0 1920 1080" version="1.1" xmlns="http://www.w3.org/2000/svg" xmlns:xlink="http://www.w3.org/1999/xlink" xml:space="preserve" xmlns:serif="http://www.serif.com/" style="fill-rule:evenodd;clip-rule:evenodd;stroke-linejoin:round;stroke-miterlimit:2;">
    <g transform="matrix(1,0,0,1,-7.14,-4189.83)">
        <g id="Background" transform="matrix(1,0,0,1,7.14,4189.83)">
            <rect x="0" y="0" width="1920" height="1080" style="fill:none;"/>
            <clipPath id="_clip1">
                <rect x="0" y="0" width="1920" height="1080"/>
            </clipPath>
            <g clip-path="url(#_clip1)">
                <g id="Layer-1" serif:id="Layer 1">
                    <rect x="0" y="0" width="1920" height="1080" style="fill:rgb(0,43,87);"/>
                </g>
                <g id="Game-Pin" serif:id="Game Pin">
                    <g transform="matrix(1,0,0,1,99.4431,25.4415)">
                        <path d="M0,1063.56L-35.714,1063.56C-35.729,1050.15 -34.159,1036.2 -30.935,1022.74C-27.735,1009.26 -22.915,996.327 -17.089,984.64C-11.266,972.928 -4.487,962.443 2.622,953.179C9.741,943.911 17.198,935.799 24.662,928.642C32.132,921.492 39.628,915.234 47.053,909.59C54.479,903.95 61.85,898.903 69.097,894.379C83.626,885.269 97.784,877.886 111.652,871.43C139.388,858.581 166.05,849.29 192.266,841.37C218.456,833.541 244.191,827.2 269.675,821.762C320.627,810.928 370.684,803.412 420.436,797.464C470.172,791.558 519.561,787.32 568.789,784.132C618.014,780.957 667.069,778.858 716.043,777.57C740.53,776.93 764.998,776.492 789.445,776.25C801.667,776.127 813.886,776.054 826.077,776.021L861.554,775.981C880.971,775.854 899.352,774.379 915.987,771.388C932.637,768.394 947.363,763.836 960.129,757.944C972.85,751.944 983.75,744.738 993.624,735.485C998.572,730.873 1003.29,725.772 1007.81,720.099C1012.33,714.432 1016.62,708.144 1020.7,701.33C1028.86,687.691 1036.11,671.838 1042.19,654.353C1045.25,645.623 1048.04,636.519 1050.59,627.138C1053.12,617.737 1055.36,608.012 1057.42,598.116C1059.48,588.22 1061.2,578.024 1062.82,567.748C1063.57,562.565 1064.36,557.411 1065,552.151C1065.72,546.937 1066.3,541.636 1066.9,536.347C1069.23,515.138 1070.72,493.399 1071.67,471.408C1071.93,465.916 1072.06,460.369 1072.26,454.853L1072.61,438.193L1072.7,429.825L1072.83,420.131L1072.95,414.024C1073.01,411.985 1073.13,409.925 1073.23,407.876C1073.33,405.823 1073.42,403.778 1073.56,401.72L1074.04,395.528C1076.7,362.528 1084.43,328.549 1097.5,296.594C1110.52,264.609 1128.78,234.946 1149.97,209.492C1155.24,203.066 1160.74,196.998 1166.31,191.039C1171.94,185.19 1177.65,179.448 1183.51,174.056C1189.34,168.587 1195.31,163.442 1201.32,158.411C1207.36,153.47 1213.45,148.633 1219.62,144.101C1231.95,134.949 1244.49,126.6 1257.15,118.951C1269.81,111.295 1282.58,104.256 1295.39,97.821C1321.03,84.948 1346.84,74.18 1372.62,64.962C1398.4,55.728 1424.17,47.979 1449.88,41.33C1475.58,34.67 1501.23,29.1 1526.81,24.367C1577.98,14.913 1628.89,8.706 1679.71,4.802C1705.12,2.855 1730.51,1.503 1755.99,0.729C1768.73,0.345 1781.49,0.106 1794.36,0.035C1800.79,0 1807.25,0.009 1813.79,0.07L1823.7,0.209L1828.8,0.321L1834.63,0.497L1833.25,36.185L1827.9,36.024L1823.02,35.917L1813.45,35.783C1807.11,35.724 1800.82,35.715 1794.55,35.749C1782.01,35.818 1769.53,36.051 1757.07,36.427C1732.15,37.184 1707.29,38.507 1682.43,40.412C1632.73,44.229 1583.02,50.301 1533.31,59.485C1508.47,64.081 1483.63,69.479 1458.83,75.904C1434.04,82.316 1409.28,89.767 1384.66,98.583C1360.05,107.383 1335.57,117.614 1311.45,129.722C1299.4,135.774 1287.45,142.365 1275.66,149.496C1263.87,156.62 1252.25,164.357 1240.9,172.786C1235.21,176.962 1229.63,181.403 1224.09,185.927C1218.59,190.533 1213.13,195.231 1207.83,200.208C1202.49,205.117 1197.32,210.327 1192.22,215.621C1187.18,221.013 1182.21,226.49 1177.47,232.274C1158.4,255.195 1142.16,281.628 1130.57,310.09C1118.94,338.531 1112.03,368.783 1109.63,398.5L1109.19,404.075C1109.07,405.93 1108.99,407.778 1108.9,409.63C1108.81,411.48 1108.7,413.336 1108.65,415.18L1108.54,420.706L1108.41,430.141L1108.32,438.727L1107.96,455.848C1107.75,461.531 1107.62,467.234 1107.36,472.9C1105.42,518.235 1101.07,562.985 1092.41,605.285C1090.21,615.835 1087.82,626.256 1085.08,636.43C1082.31,646.589 1079.27,656.535 1075.89,666.185C1069.16,685.5 1060.99,703.546 1051.35,719.666C1046.53,727.719 1041.36,735.309 1035.79,742.302C1030.21,749.3 1024.28,755.74 1017.96,761.624C1005.36,773.434 991.123,782.851 975.187,790.329C959.204,797.716 941.46,803.093 922.336,806.533C903.215,809.969 882.834,811.553 861.799,811.694L826.17,811.736C814.06,811.767 801.932,811.841 789.802,811.962C765.54,812.203 741.264,812.637 716.979,813.272C668.408,814.549 619.793,816.63 571.091,819.772C522.387,822.926 473.602,827.115 424.656,832.928C375.704,838.778 326.607,846.166 277.136,856.689C252.398,861.965 227.555,868.097 202.533,875.577C177.505,883.132 152.291,891.957 126.715,903.813C113.93,909.762 101.045,916.5 88.092,924.623C81.622,928.658 75.127,933.115 68.656,938.029C62.187,942.947 55.733,948.341 49.391,954.41C43.055,960.484 36.826,967.279 30.954,974.924C25.089,982.566 19.581,991.107 14.891,1000.54C10.199,1009.95 6.359,1020.27 3.809,1031C1.243,1041.72 -0.011,1052.81 0,1063.56" style="fill:rgb(249,163,95);fill-rule:nonzero;"/>
                    </g>
                    <g transform="matrix(1,0,0,1,140.28,66.2785)">
                        <path d="M0,1022.72L-35.714,1022.72C-35.724,1012.36 -34.516,1001.68 -32.044,991.349C-29.588,981.012 -25.888,971.071 -21.359,961.982C-16.831,952.877 -11.506,944.616 -5.819,937.205C-0.126,929.793 5.926,923.187 12.102,917.269C18.281,911.355 24.585,906.085 30.918,901.271C37.252,896.461 43.622,892.089 49.98,888.124C62.706,880.142 75.409,873.497 88.038,867.62C113.305,855.907 138.311,847.148 163.169,839.646C188.023,832.216 212.738,826.115 237.369,820.861C286.628,810.384 335.587,803.013 384.424,797.177C433.257,791.378 481.956,787.196 530.584,784.047C579.211,780.91 627.764,778.831 676.277,777.556C700.533,776.921 724.78,776.488 749.016,776.247C761.133,776.126 773.249,776.053 785.347,776.021L820.998,775.979C842.264,775.837 862.932,774.237 882.41,770.737C901.888,767.233 920.066,761.739 936.51,754.137C952.907,746.447 967.626,736.713 980.614,724.536C987.125,718.47 993.24,711.837 998.962,704.65C1004.69,697.467 1009.98,689.689 1014.91,681.459C1024.76,664.983 1033.06,646.623 1039.88,627.045C1043.31,617.263 1046.39,607.196 1049.18,596.926C1051.96,586.641 1054.38,576.12 1056.59,565.477C1065.33,522.806 1069.69,477.81 1071.64,432.277C1071.9,426.586 1072.03,420.861 1072.24,415.154L1072.61,397.967L1072.69,389.35L1072.82,379.952L1072.93,374.509C1072.98,372.693 1073.09,370.866 1073.18,369.045C1073.27,367.221 1073.35,365.401 1073.47,363.576L1073.9,358.089C1076.26,328.843 1083.06,299.126 1094.48,271.189C1105.86,243.232 1121.81,217.262 1140.58,194.705C1145.24,189.013 1150.14,183.621 1155.1,178.31C1160.12,173.095 1165.21,167.962 1170.48,163.122C1175.71,158.216 1181.09,153.581 1186.52,149.037C1191.98,144.572 1197.49,140.188 1203.11,136.064C1214.32,127.738 1225.81,120.088 1237.48,113.04C1249.14,105.985 1260.97,99.457 1272.92,93.46C1296.82,81.463 1321.11,71.309 1345.56,62.569C1370.01,53.812 1394.61,46.404 1419.28,40.026C1443.94,33.635 1468.67,28.261 1493.41,23.685C1542.9,14.54 1592.44,8.487 1641.99,4.683C1666.77,2.784 1691.55,1.464 1716.39,0.71C1728.81,0.335 1741.24,0.103 1753.74,0.034C1759.99,0 1766.25,0.009 1772.56,0.068L1782.09,0.201L1786.94,0.307L1792.22,0.466L1790.84,36.154L1786.04,36.01L1781.41,35.909L1772.22,35.781C1766.11,35.724 1760.02,35.715 1753.93,35.748C1741.76,35.815 1729.61,36.042 1717.47,36.408C1693.18,37.145 1668.93,38.437 1644.71,40.293C1596.28,44.011 1547.93,49.927 1499.91,58.802C1475.9,63.242 1451.99,68.444 1428.23,74.6C1404.48,80.742 1380.88,87.851 1357.6,96.191C1334.32,104.513 1311.35,114.129 1288.98,125.36C1277.79,130.974 1266.78,137.055 1255.99,143.585C1245.18,150.108 1234.62,157.147 1224.39,164.749C1214.14,172.332 1204.23,180.48 1194.8,189.275C1190.06,193.631 1185.51,198.233 1181.01,202.892C1176.59,207.636 1172.21,212.437 1168.09,217.487C1151.43,237.511 1137.5,260.251 1127.54,284.685C1117.57,309.108 1111.59,335.098 1109.49,361.061L1109.1,365.931C1109,367.554 1108.93,369.176 1108.85,370.799C1108.78,372.421 1108.67,374.045 1108.63,375.666L1108.53,380.527L1108.41,389.667L1108.32,398.501L1107.94,416.15C1107.73,422.022 1107.59,427.904 1107.32,433.769C1105.31,480.681 1100.83,527.39 1091.58,572.646C1089.23,583.942 1086.65,595.16 1083.67,606.218C1080.67,617.266 1077.33,628.174 1073.58,638.877C1066.11,660.286 1056.88,680.838 1045.56,699.795C1039.89,709.263 1033.71,718.344 1026.94,726.853C1020.16,735.366 1012.83,743.337 1004.95,750.675C989.239,765.41 971.18,777.354 951.568,786.521C931.908,795.619 910.711,801.933 888.76,805.882C866.795,809.827 844.127,811.535 821.243,811.693L785.441,811.735C773.423,811.767 761.398,811.839 749.373,811.96C725.322,812.198 701.267,812.629 677.213,813.258C629.103,814.523 580.99,816.583 532.885,819.687C484.783,822.801 436.686,826.936 388.644,832.641C340.607,838.379 292.609,845.622 244.831,855.787C220.945,860.88 197.121,866.772 173.437,873.853C149.766,880.99 126.208,889.283 103.101,900.003C91.555,905.373 80.125,911.372 68.974,918.369C57.83,925.352 46.951,933.397 36.831,943.037C26.77,952.7 17.436,964.202 10.622,977.88C7.225,984.697 4.506,992.026 2.7,999.615C0.885,1007.2 -0.006,1015.02 0,1022.72" style="fill:rgb(252,102,41);fill-rule:nonzero;"/>
                    </g>
                    <g transform="matrix(1,0,0,1,243.382,199.671)">
                        <path d="M0,889.331L-16.306,889.331C-16.302,888.11 -16.181,887.227 -15.963,886.312C-15.737,885.4 -15.401,884.42 -14.759,883.126C-13.514,880.586 -10.796,876.688 -6.173,872.268C-1.531,867.857 4.687,863.056 12.035,858.479C19.356,853.879 27.692,849.448 36.606,845.309C54.464,837.005 74.502,829.843 95.288,823.592C116.13,817.361 137.789,811.978 159.862,807.276C204.04,797.87 249.705,790.935 295.797,785.437C341.92,779.959 388.55,775.941 435.376,772.911C482.209,769.889 529.257,767.871 576.385,766.632C599.95,766.016 623.535,765.594 647.137,765.359C658.94,765.241 670.744,765.17 682.567,765.139L718.737,765.095C745.552,764.902 773.081,762.93 801.089,757.903C829.051,752.87 857.585,744.567 885.061,731.833C898.773,725.433 912.171,717.939 924.939,709.4C937.727,700.888 949.796,691.23 960.993,680.809C972.191,670.381 982.491,659.154 991.817,647.422C1001.15,635.689 1009.47,623.442 1016.94,610.964C1031.86,585.977 1043.33,560.098 1052.38,534.239C1056.91,521.301 1060.86,508.346 1064.37,495.409C1067.86,482.472 1070.83,469.561 1073.5,456.678C1076.18,443.793 1078.35,430.96 1080.36,418.149C1082.29,405.349 1083.95,392.583 1085.34,379.861C1088.13,354.414 1089.86,329.143 1090.94,304.004C1091.22,297.715 1091.38,291.454 1091.6,285.178L1092,266.408L1092.1,257.045L1092.14,252.363L1092.21,248.532L1092.28,245.084C1092.31,243.938 1092.39,242.808 1092.44,241.669L1092.61,238.262L1092.88,234.891C1093.62,225.909 1094.95,217.161 1096.97,208.706C1098.99,200.25 1101.51,192.013 1104.8,184.092C1108.07,176.164 1111.87,168.448 1116.43,161.029C1120.94,153.594 1126.05,146.386 1131.83,139.463C1134.66,135.973 1137.76,132.608 1140.87,129.242C1144.09,125.932 1147.33,122.622 1150.81,119.441C1154.22,116.221 1157.85,113.119 1161.52,110.034C1165.25,106.997 1169.03,103.97 1172.99,101.071C1180.85,95.227 1189.17,89.672 1197.86,84.425C1206.55,79.174 1215.57,74.178 1224.9,69.496C1243.57,60.124 1263.32,51.815 1283.77,44.509C1304.22,37.184 1325.34,30.801 1346.89,25.232C1368.43,19.649 1390.39,14.864 1412.61,10.756C1457.05,2.538 1502.5,-3.05 1548.24,-6.557C1571.11,-8.31 1594.06,-9.532 1616.99,-10.228C1628.44,-10.573 1639.9,-10.786 1651.29,-10.849C1656.99,-10.88 1662.67,-10.872 1668.29,-10.819L1676.67,-10.702L1680.76,-10.613L1684.38,-10.507L1683,25.18L1675.99,25.005L1667.95,24.894C1662.53,24.843 1657.02,24.834 1651.48,24.864C1640.41,24.926 1629.24,25.133 1618.07,25.47C1595.7,26.149 1573.28,27.343 1550.97,29.053C1506.34,32.473 1462.08,37.925 1419.11,45.874C1397.63,49.846 1376.47,54.458 1355.84,59.806C1335.2,65.139 1315.1,71.223 1295.82,78.131C1276.52,85.019 1258.11,92.79 1240.96,101.396C1232.39,105.695 1224.19,110.244 1216.37,114.97C1208.54,119.691 1201.15,124.635 1194.27,129.757C1190.78,132.298 1187.52,134.93 1184.28,137.55C1181.13,140.211 1178.02,142.865 1175.13,145.594C1172.17,148.291 1169.47,151.07 1166.78,153.824C1164.2,156.623 1161.63,159.398 1159.33,162.246C1154.61,167.897 1150.53,173.67 1146.97,179.54C1143.36,185.398 1140.42,191.416 1137.87,197.589C1135.29,203.753 1133.34,210.179 1131.74,216.853C1130.14,223.524 1129.08,230.527 1128.47,237.862L1128.25,240.617L1128.11,243.423C1128.07,244.363 1127.99,245.29 1127.97,246.24L1127.92,249.107L1127.89,250.539L1127.86,252.571L1127.81,257.361L1127.71,266.942L1127.3,286.174C1127.07,292.616 1126.91,299.033 1126.62,305.496C1125.51,331.323 1123.74,357.367 1120.85,383.74C1120.1,390.342 1119.37,396.936 1118.46,403.58C1117.65,410.198 1116.64,416.874 1115.67,423.534C1113.58,436.9 1111.3,450.309 1108.49,463.848C1105.68,477.384 1102.55,490.991 1098.86,504.701C1095.14,518.416 1090.93,532.212 1086.07,546.071C1076.39,573.761 1063.99,601.832 1047.59,629.3C1039.38,643.016 1030.18,656.566 1019.79,669.625C1009.41,682.682 997.894,695.248 985.329,706.948C972.767,718.641 959.187,729.501 944.821,739.069C930.475,748.666 915.438,757.071 900.119,764.218C869.427,778.447 837.874,787.569 807.438,793.049C776.944,798.521 747.414,800.601 718.983,800.808L682.661,800.853C670.918,800.884 659.204,800.955 647.494,801.072C624.077,801.304 600.685,801.723 577.321,802.334C530.597,803.562 483.988,805.562 437.677,808.551C391.376,811.547 345.349,815.516 300.017,820.901C254.724,826.3 210.02,833.108 167.323,842.202C145.996,846.744 125.229,851.917 105.556,857.799C95.736,860.747 86.23,863.893 77.148,867.206C72.649,868.882 68.188,870.568 63.956,872.331C61.793,873.193 59.758,874.1 57.671,874.98L54.642,876.332C53.626,876.779 52.628,877.23 51.669,877.691C43.838,881.323 36.775,885.109 31.029,888.723C28.117,890.523 25.626,892.278 23.524,893.875C21.423,895.47 19.737,896.915 18.557,898.036C17.378,899.154 16.766,899.927 16.595,900.149C16.535,900.189 16.551,900.2 16.56,900.205L16.56,900.211L15.544,899.505L14.29,898.662L13.214,897.909C12.488,897.413 11.742,896.93 10.978,896.46L9.837,895.771L8.885,895.169C8.242,894.773 7.58,894.389 6.901,894.017L5.896,893.477L5.077,893.015C4.524,892.712 3.953,892.419 3.366,892.137C-0.966,889.977 -3.685,889.227 -4.333,889.078C-4.995,888.924 -3.57,889.333 0,889.331" style="fill:rgb(0,112,143);fill-rule:nonzero;"/>
                    </g>
                    <g transform="matrix(1,0,0,1,221.953,147.954)">
                        <path d="M0,941.048L-35.714,941.048C-35.717,932.511 -33.776,924.456 -29.898,916.664C-26.032,908.884 -20.202,901.408 -13.02,894.521C-5.801,887.65 2.61,881.323 11.744,875.614C20.868,869.886 30.659,864.717 40.812,859.999C61.139,850.559 82.833,842.864 104.976,836.196C127.156,829.566 149.833,823.944 172.759,819.057C218.631,809.294 265.393,802.214 312.401,796.604C359.427,791.018 406.746,786.946 454.173,783.876C501.605,780.815 549.154,778.777 596.743,777.526C620.539,776.904 644.345,776.478 668.158,776.242C680.065,776.123 691.973,776.051 703.888,776.019L739.885,775.976C764.85,775.8 790.093,773.952 815.257,769.434C840.392,764.911 865.473,757.544 889.272,746.521C901.146,740.974 912.67,734.523 923.634,727.193C934.618,719.889 944.957,711.604 954.594,702.637C964.23,693.663 973.135,683.968 981.26,673.751C989.392,663.534 996.702,652.777 1003.33,641.715C1016.56,619.565 1026.97,596.193 1035.27,572.428C1039.44,560.541 1043.1,548.549 1046.37,536.501C1049.62,524.448 1052.41,512.334 1054.93,500.198C1064.85,451.614 1069.46,402.701 1071.57,354.015C1071.84,347.925 1071.99,341.843 1072.21,335.756L1072.6,317.514L1072.69,308.399C1072.72,305.385 1072.74,302.203 1072.81,299.591L1072.89,295.479C1072.92,294.109 1073.02,292.747 1073.08,291.381L1073.29,287.286L1073.62,283.21C1074.51,272.345 1076.14,261.603 1078.64,251.107C1081.13,240.614 1084.31,230.307 1088.42,220.378C1096.54,200.477 1107.86,181.894 1121.81,165.13C1125.25,160.906 1128.94,156.865 1132.67,152.851C1136.49,148.906 1140.35,144.988 1144.43,141.255C1152.5,133.719 1161.1,126.644 1170.09,119.988C1179.07,113.317 1188.44,107.064 1198.13,101.216C1207.81,95.364 1217.76,89.857 1227.97,84.737C1248.38,74.49 1269.64,65.566 1291.43,57.782C1313.21,49.98 1335.49,43.255 1358.08,37.417C1380.66,31.564 1403.54,26.583 1426.6,22.319C1472.73,13.791 1519.54,8.049 1566.55,4.443C1590.05,2.641 1613.62,1.387 1637.18,0.671C1648.96,0.316 1660.74,0.096 1672.5,0.031C1678.38,0 1684.26,0.008 1690.11,0.063L1698.87,0.185L1703.21,0.28L1707.39,0.404L1706.01,36.091L1702.31,35.983L1698.19,35.893L1689.77,35.776C1684.12,35.723 1678.41,35.714 1672.69,35.745C1661.26,35.808 1649.76,36.022 1638.26,36.369C1615.26,37.068 1592.22,38.294 1569.28,40.053C1523.38,43.572 1477.76,49.179 1433.11,57.436C1410.78,61.564 1388.7,66.373 1367.03,71.99C1345.36,77.593 1324.09,84.019 1303.47,91.404C1282.85,98.77 1262.91,107.156 1244.03,116.637C1234.58,121.375 1225.45,126.434 1216.64,131.761C1207.82,137.083 1199.37,142.725 1191.37,148.674C1187.33,151.624 1183.49,154.708 1179.68,157.804C1175.94,160.951 1172.24,164.117 1168.75,167.407C1165.19,170.657 1161.88,174.044 1158.58,177.433C1155.39,180.88 1152.22,184.331 1149.31,187.913C1143.38,195.018 1138.12,202.431 1133.48,210.091C1128.79,217.734 1124.86,225.694 1121.49,233.874C1118.09,242.047 1115.49,250.543 1113.41,259.254C1111.33,267.966 1109.97,276.963 1109.21,286.182L1108.93,289.641L1108.75,293.135C1108.7,294.302 1108.61,295.461 1108.58,296.635L1108.52,300.166L1108.45,304.05L1108.4,308.716L1108.31,318.048L1107.91,336.752C1107.69,343.005 1107.53,349.243 1107.25,355.507C1106.17,380.547 1104.45,405.707 1101.68,431.022C1100.3,443.678 1098.64,456.371 1096.73,469.094C1094.73,481.826 1092.57,494.576 1089.91,507.367C1087.26,520.156 1084.31,532.967 1080.86,545.793C1077.37,558.619 1073.46,571.453 1068.97,584.259C1060.02,609.855 1048.68,635.42 1033.97,660.051C1026.61,672.351 1018.42,684.411 1009.23,695.954C1000.06,707.496 989.933,718.531 978.931,728.776C967.929,739.015 956.078,748.502 943.516,756.862C930.974,765.249 917.811,772.612 904.33,778.905C877.315,791.424 849.215,799.61 821.607,804.579C793.956,809.543 766.713,811.499 740.131,811.689L703.982,811.733C692.147,811.765 680.33,811.836 668.515,811.954C644.886,812.189 621.273,812.611 597.679,813.228C550.493,814.468 503.383,816.489 456.475,819.516C409.573,822.551 362.856,826.576 316.621,832.068C270.413,837.579 224.611,844.532 180.221,853.983C158.04,858.709 136.254,864.122 115.244,870.403C94.287,876.706 74.042,883.935 55.874,892.382C46.805,896.593 38.287,901.116 30.739,905.858C23.167,910.577 16.674,915.569 11.709,920.289C6.765,925.019 3.656,929.365 2.083,932.563C1.278,934.183 0.801,935.537 0.483,936.843C0.17,938.152 0.003,939.444 0,941.048" style="fill:rgb(0,140,153);fill-rule:nonzero;"/>
                    </g>
                    <g transform="matrix(1,0,0,1,181.117,107.117)">
                        <path d="M0,981.885L-35.714,981.885C-35.72,974.568 -34.874,967.155 -33.153,959.963C-31.44,952.767 -28.862,945.813 -25.628,939.323C-19.143,926.302 -10.199,915.248 -0.459,905.894C9.338,896.564 19.942,888.71 30.862,881.868C41.787,875.014 53.034,869.106 64.425,863.809C87.222,853.232 110.572,845.006 134.073,837.921C157.589,830.891 181.286,825.029 205.064,819.959C252.63,809.838 300.49,802.613 348.413,796.89C396.342,791.198 444.351,787.07 492.379,783.961C540.408,780.862 588.459,778.804 636.51,777.541C660.536,776.912 684.563,776.482 708.587,776.244C720.599,776.124 732.611,776.051 744.618,776.02L780.442,775.977C803.557,775.818 826.512,774.094 848.834,770.085C871.14,766.071 892.77,759.641 912.891,750.328C932.964,740.949 951.502,728.688 967.604,713.586C975.677,706.066 983.188,697.902 990.111,689.2C997.04,680.5 1003.34,671.233 1009.12,661.586C1020.66,642.274 1030.02,621.407 1037.58,599.736C1041.37,588.901 1044.75,577.872 1047.78,566.713C1050.79,555.544 1053.39,544.226 1055.76,532.837C1065.09,487.21 1069.58,440.255 1071.6,393.145C1071.87,387.255 1072.01,381.351 1072.23,375.455L1072.6,357.74L1072.69,348.874C1072.73,345.9 1072.74,343.056 1072.82,339.771L1072.91,334.994C1072.95,333.401 1073.06,331.806 1073.13,330.212C1073.21,328.618 1073.27,327.024 1073.38,325.43L1073.76,320.649C1075.82,295.158 1081.68,269.702 1091.45,245.783C1101.2,221.854 1114.84,199.578 1131.19,179.917C1135.24,174.959 1139.54,170.242 1143.89,165.58C1148.31,161 1152.78,156.474 1157.45,152.188C1166.73,143.533 1176.5,135.505 1186.6,128.025C1196.7,120.527 1207.13,113.575 1217.8,107.128C1228.48,100.674 1239.37,94.657 1250.44,89.098C1272.6,77.976 1295.37,68.437 1318.49,60.175C1341.61,51.895 1365.05,44.829 1388.68,38.721C1412.3,32.599 1436.11,27.422 1460.01,23.001C1507.82,14.165 1555.99,8.268 1604.27,4.562C1628.41,2.712 1652.58,1.425 1676.78,0.69C1688.88,0.325 1700.99,0.099 1713.12,0.032C1719.18,0 1725.25,0.008 1731.34,0.065L1740.48,0.193L1745.08,0.293L1749.8,0.434L1748.42,36.122L1744.18,35.996L1739.8,35.901L1731,35.778C1725.11,35.723 1719.21,35.714 1713.31,35.746C1701.51,35.811 1689.68,36.031 1677.86,36.388C1654.22,37.106 1630.58,38.365 1607,40.172C1559.83,43.791 1512.85,49.553 1466.51,58.119C1443.34,62.403 1420.34,67.408 1397.63,73.295C1374.91,79.167 1352.49,85.934 1330.54,93.797C1308.58,101.641 1287.13,110.642 1266.5,120.998C1256.19,126.174 1246.12,131.744 1236.31,137.672C1226.5,143.595 1217,149.936 1207.88,156.711C1198.75,163.47 1190,170.664 1181.78,178.341C1177.62,182.143 1173.69,186.138 1169.8,190.162C1165.99,194.258 1162.21,198.383 1158.7,202.699C1144.45,219.827 1132.84,238.873 1124.51,259.279C1120.3,269.46 1117.04,280.027 1114.49,290.775C1111.93,301.527 1110.26,312.52 1109.35,323.621L1109.02,327.786L1108.8,331.966C1108.74,333.361 1108.64,334.752 1108.61,336.15L1108.53,340.346C1108.46,343.042 1108.44,346.182 1108.4,349.191L1108.31,358.274L1107.93,376.451C1107.71,382.513 1107.56,388.573 1107.28,394.638C1105.19,443.126 1100.59,491.794 1090.74,540.006C1088.25,552.049 1085.48,564.063 1082.26,576.005C1079.02,587.942 1075.39,599.813 1071.28,611.567C1063.07,635.07 1052.78,658.128 1039.77,679.922C1033.25,690.807 1026.07,701.377 1018.09,711.403C1010.11,721.43 1001.38,730.934 991.941,739.725C982.499,748.51 972.377,756.623 961.619,763.775C950.881,770.952 939.593,777.273 927.949,782.713C904.612,793.521 879.963,800.771 855.183,805.23C830.375,809.685 805.42,811.517 780.687,811.691L744.711,811.734C732.785,811.765 720.864,811.837 708.944,811.956C685.104,812.193 661.27,812.619 637.446,813.243C589.798,814.495 542.186,816.536 494.68,819.601C447.178,822.676 399.771,826.755 352.632,832.354C305.51,837.979 258.61,845.077 212.526,854.885C189.493,859.794 166.688,865.447 144.34,872.127C122.027,878.848 100.125,886.609 79.488,896.192C69.18,900.982 59.206,906.244 49.857,912.113C40.499,917.964 31.812,924.483 24.27,931.662C16.767,938.859 10.546,946.783 6.352,955.221C2.142,963.659 -0.012,972.581 0,981.885" style="fill:rgb(121,169,161);fill-rule:nonzero;"/>
                    </g>
                </g>
            </g>
        </g>
    </g>
</svg>
