<?xml version="1.0" encoding="UTF-8" standalone="no"?>
<!DOCTYPE svg PUBLIC "-//W3C//DTD SVG 1.1//EN" "http://www.w3.org/Graphics/SVG/1.1/DTD/svg11.dtd">
<svg width="100%" height="100%" viewBox="0 0 799 159" version="1.1" xmlns="http://www.w3.org/2000/svg" xmlns:xlink="http://www.w3.org/1999/xlink" xml:space="preserve" xmlns:serif="http://www.serif.com/" style="fill-rule:evenodd;clip-rule:evenodd;stroke-miterlimit:10;">
    <g transform="matrix(1,0,0,1,-2325,-5132)">
        <g id="CaptionThis" transform="matrix(0.559978,0,0,0.355439,1022.83,3307.57)">
            <rect x="2325.39" y="5132.89" width="1425.55" height="447.234" style="fill:none;"/>
            <clipPath id="_clip1">
                <rect x="2325.39" y="5132.89" width="1425.55" height="447.234"/>
            </clipPath>
            <g clip-path="url(#_clip1)">
                <g transform="matrix(1.78578,0,0,2.81342,2477.75,5172.27)">
                    <path d="M0,114.286C5.656,112.637 10.576,110.589 14.761,108.143C18.943,105.699 22.391,103.105 25.102,100.365C27.812,97.625 29.728,95.165 30.847,92.984C30.788,90.51 30.463,87.785 29.875,84.808C29.285,81.834 28.505,78.887 27.532,75.97C26.561,73.053 25.411,70.328 24.086,67.794C22.76,65.261 21.301,63.169 19.71,61.518C16.469,61.518 13.051,61.739 9.457,62.181C5.862,62.623 2.371,63.242 -1.017,64.037C-4.406,64.833 -7.602,65.791 -10.606,66.91C-13.612,68.03 -16.146,69.296 -18.208,70.711L-18.208,78.754C-18.681,79.05 -19.211,79.196 -19.799,79.196C-20.448,79.196 -21.037,78.725 -21.567,77.782C-22.098,76.84 -22.539,75.351 -22.893,73.318C-23.246,71.285 -23.526,68.664 -23.732,65.452C-23.939,62.241 -24.042,58.367 -24.042,53.828C-24.042,50.47 -23.998,47.701 -23.909,45.52C-23.821,43.341 -23.631,41.617 -23.335,40.349C-23.041,39.083 -22.643,38.199 -22.142,37.698C-21.642,37.198 -20.948,36.946 -20.064,36.946L-19.49,36.946C-19.225,36.946 -19.004,36.976 -18.827,37.035C-18.946,39.098 -19.019,41.131 -19.048,43.134C-19.078,45.138 -19.092,46.905 -19.092,48.437C-18.681,49.321 -17.753,50.337 -16.308,51.486C-14.865,52.635 -13.112,53.711 -11.049,54.712C-8.987,55.715 -6.733,56.555 -4.287,57.231C-1.843,57.91 0.618,58.248 3.093,58.248C7.04,58.248 10.694,57.806 14.054,56.922C17.412,56.038 20.285,54.668 22.671,52.812C25.058,50.956 26.928,48.556 28.284,45.608C29.639,42.662 30.316,39.098 30.316,34.913C30.316,29.669 29.079,24.779 26.604,20.241C24.13,15.704 20.667,11.756 16.219,8.397C11.77,5.038 6.422,2.387 0.177,0.442C-6.07,-1.503 -12.936,-2.475 -20.418,-2.475C-27.843,-2.475 -35.018,-1.266 -41.94,1.149C-48.865,3.566 -54.993,7.219 -60.325,12.109C-65.659,17.001 -69.931,23.114 -73.142,30.45C-76.354,37.786 -77.959,46.404 -77.959,56.303C-77.959,65.909 -76.56,74.467 -73.761,81.98C-70.962,89.493 -66.984,95.828 -61.828,100.984C-56.673,106.14 -50.47,110.058 -43.223,112.739C-35.975,115.42 -27.873,116.761 -18.915,116.761C-11.963,116.761 -5.657,115.935 0,114.286Z" style="fill:none;fill-rule:nonzero;stroke:rgb(249,220,173);stroke-width:18.95px;"/>
                </g>
                <g transform="matrix(1.78578,0,0,2.81342,2599.24,5395.41)">
                    <path d="M0,11.115C0,12.618 -0.305,13.657 -0.913,14.229C-1.522,14.802 -2.398,15.088 -3.544,15.088C-4.261,15.088 -4.878,14.945 -5.396,14.658C-5.916,14.372 -6.175,13.871 -6.175,13.155C-6.175,12.618 -6.005,12.144 -5.665,11.732C-5.325,11.321 -4.743,11.115 -3.92,11.115L0,11.115ZM23.945,-2.039C23.945,-5.618 23.373,-8.831 22.228,-11.677C21.082,-14.523 19.363,-16.92 17.073,-18.871C14.782,-20.822 11.91,-22.316 8.456,-23.355C5.001,-24.392 0.966,-24.912 -3.651,-24.912C-6.301,-24.912 -8.779,-24.751 -11.088,-24.428C-13.396,-24.106 -15.509,-23.721 -17.423,-23.274C-19.338,-22.826 -21.021,-22.343 -22.47,-21.824C-23.92,-21.305 -25.11,-20.831 -26.04,-20.402C-26.435,-19.614 -26.694,-18.71 -26.819,-17.69C-26.944,-16.67 -27.007,-15.658 -27.007,-14.657C-27.007,-12.544 -26.766,-10.469 -26.282,-8.428C-25.799,-6.388 -25.164,-4.705 -24.376,-3.382C-22.443,-4.491 -20.26,-5.315 -17.826,-5.851C-15.392,-6.388 -12.958,-6.657 -10.523,-6.657C-9.45,-6.657 -8.395,-6.621 -7.356,-6.55C-6.318,-6.477 -5.405,-6.362 -4.618,-6.2C-3.831,-6.039 -3.195,-5.798 -2.712,-5.476C-2.229,-5.154 -1.987,-4.759 -1.987,-4.295C-1.987,-4.044 -2.041,-3.739 -2.148,-3.382C-2.721,-3.524 -3.419,-3.668 -4.242,-3.811C-4.958,-3.919 -5.817,-4.017 -6.819,-4.107C-7.821,-4.196 -8.967,-4.241 -10.255,-4.241C-13.119,-4.241 -15.831,-3.846 -18.39,-3.06C-20.949,-2.272 -23.194,-1.064 -25.128,0.565C-27.061,2.194 -28.591,4.252 -29.718,6.739C-30.846,9.227 -31.409,12.171 -31.409,15.571C-31.409,18.865 -30.882,21.772 -29.825,24.296C-28.771,26.819 -27.284,28.959 -25.369,30.712C-23.455,32.466 -21.164,33.791 -18.497,34.685C-15.831,35.579 -12.868,36.027 -9.611,36.027C-7.606,36.027 -5.638,35.83 -3.705,35.437C-1.772,35.043 -0.233,34.452 0.912,33.665C0.304,33.056 -0.161,32.466 -0.483,31.893C-0.806,31.321 -0.967,30.784 -0.967,30.282C-0.967,29.745 -0.815,29.316 -0.511,28.994C-0.207,28.672 0.25,28.511 0.858,28.511C1.359,29.799 2.048,30.918 2.926,31.866C3.803,32.815 4.786,33.594 5.879,34.202C6.97,34.811 8.134,35.266 9.368,35.571C10.604,35.875 11.865,36.027 13.154,36.027C14.979,36.027 16.769,35.723 18.522,35.115C20.276,34.506 21.843,33.567 23.221,32.296C24.599,31.026 25.718,29.406 26.576,27.437C27.436,25.469 27.865,23.124 27.865,20.403L27.865,19.464C27.865,19.052 27.847,18.703 27.812,18.417C26.308,17.486 25.288,16.216 24.751,14.605C24.214,12.994 23.945,10.954 23.945,8.484L23.945,-2.039Z" style="fill:none;fill-rule:nonzero;stroke:rgb(249,220,173);stroke-width:18.95px;"/>
                </g>
                <g transform="matrix(1.78578,0,0,2.81342,2658.39,5542.85)">
                    <path d="M0,-76.027C-0.537,-75.203 -1.003,-74.317 -1.396,-73.369C-1.79,-72.42 -2.121,-71.444 -2.39,-70.443C-2.657,-69.441 -2.854,-68.456 -2.979,-67.49C-3.104,-66.524 -3.168,-65.611 -3.168,-64.752C-3.168,-62.675 -2.907,-60.689 -2.39,-58.792C-1.871,-56.895 -1.074,-55.195 0,-53.692L0,-10.47C0,-8.252 0.394,-6.372 1.182,-4.833C1.968,-3.295 3.068,-2.033 4.483,-1.048C5.896,-0.064 7.605,0.652 9.61,1.1C11.615,1.547 13.834,1.771 16.269,1.771C17.342,1.771 18.442,1.708 19.57,1.583C20.698,1.457 21.799,1.279 22.872,1.046C23.946,0.813 24.957,0.544 25.906,0.241C26.854,-0.064 27.686,-0.377 28.402,-0.699L28.402,-14.981C26.362,-15.088 24.635,-15.222 23.222,-15.383C21.807,-15.544 20.662,-15.751 19.785,-16.001C18.907,-16.252 18.272,-16.565 17.879,-16.94C17.484,-17.316 17.288,-17.773 17.288,-18.309C17.288,-18.739 17.413,-19.043 17.664,-19.222C17.95,-19.079 18.362,-18.908 18.899,-18.712C19.437,-18.515 20.151,-18.318 21.047,-18.121C21.941,-17.924 23.051,-17.754 24.376,-17.611C25.699,-17.468 27.311,-17.397 29.208,-17.397C33.61,-17.397 37.557,-18.049 41.047,-19.356C44.536,-20.663 47.498,-22.578 49.933,-25.101C52.366,-27.625 54.228,-30.72 55.517,-34.39C56.805,-38.058 57.449,-42.237 57.449,-46.926C57.449,-51.472 56.983,-55.391 56.053,-58.685C55.122,-61.978 53.905,-64.76 52.402,-67.034C50.898,-69.306 49.189,-71.15 47.274,-72.564C45.359,-73.977 43.417,-75.069 41.449,-75.839C39.48,-76.608 37.574,-77.128 35.731,-77.396C33.888,-77.664 32.269,-77.798 30.872,-77.798C28.617,-77.798 26.567,-77.592 24.725,-77.181C22.881,-76.769 21.208,-76.143 19.704,-75.302C18.201,-74.461 16.841,-73.423 15.624,-72.188C14.407,-70.953 13.279,-69.512 12.241,-67.866C11.525,-67.866 11.033,-68.027 10.765,-68.349C10.496,-68.671 10.362,-69.047 10.362,-69.477C10.362,-69.942 10.487,-70.389 10.738,-70.819C11.418,-71.964 12.76,-73.27 14.765,-74.738C13.941,-75.168 12.921,-75.49 11.705,-75.705C10.487,-75.92 9.128,-76.027 7.624,-76.027L0,-76.027ZM27.489,-46.336C27.489,-47.517 27.472,-48.528 27.436,-49.369C27.399,-50.21 27.364,-50.944 27.328,-51.571C27.293,-52.196 27.239,-52.76 27.168,-53.262C27.096,-53.763 27.042,-54.3 27.007,-54.873C27.149,-55.015 27.319,-55.141 27.517,-55.249C27.713,-55.356 27.973,-55.41 28.295,-55.41C28.652,-55.41 28.966,-55.302 29.234,-55.088C29.503,-54.873 29.727,-54.407 29.905,-53.692C30.084,-52.975 30.201,-52.062 30.255,-50.953C30.309,-49.843 30.335,-48.484 30.335,-46.873L30.335,-41.396C30.335,-40.465 30.219,-39.794 29.986,-39.383C29.753,-38.971 29.297,-38.765 28.617,-38.765C28.115,-38.765 27.739,-38.89 27.489,-39.141L27.489,-46.336Z" style="fill:none;fill-rule:nonzero;stroke:rgb(249,220,173);stroke-width:18.95px;"/>
                </g>
                <g transform="matrix(1.78578,0,0,2.81342,2778.82,5343.3)">
                    <path d="M0,35.168C0,38.462 0.465,41.315 1.396,43.732C2.326,46.148 3.651,48.161 5.369,49.772C7.087,51.383 9.136,52.583 11.517,53.369C13.896,54.156 16.537,54.55 19.436,54.55C25.198,54.55 29.637,53.244 32.751,50.631C35.865,48.019 37.422,44.224 37.422,39.249C37.422,38.032 37.306,36.815 37.073,35.598C36.84,34.381 36.581,33.235 36.295,32.162L33.986,32.162C32.16,32.162 30.746,31.634 29.744,30.578C28.742,29.522 28.241,27.759 28.241,25.289L28.241,17.182L35.919,17.182C36.957,15.678 37.735,13.898 38.255,11.839C38.773,9.782 39.033,7.839 39.033,6.014C39.033,4.081 38.773,2.14 38.255,0.189C37.735,-1.762 36.957,-3.524 35.919,-5.1L26.631,-5.1L26.631,-18.254C24.769,-18.647 23.061,-18.934 21.503,-19.113C19.946,-19.292 18.397,-19.382 16.858,-19.382C14.89,-19.382 12.957,-19.274 11.061,-19.06C9.162,-18.845 7.642,-18.594 6.496,-18.308C6.21,-17.484 5.87,-16.456 5.477,-15.221C5.082,-13.986 4.671,-12.706 4.241,-11.382C3.812,-10.057 3.383,-8.786 2.953,-7.57C2.523,-6.353 2.147,-5.368 1.825,-4.617C0.68,-3.758 -0.636,-2.791 -2.121,-1.717C-3.606,-0.644 -5.101,0.359 -6.604,1.289C-6.818,2.185 -6.989,3.303 -7.114,4.645C-7.24,5.987 -7.302,7.178 -7.302,8.215C-7.302,9.826 -7.204,11.41 -7.007,12.967C-6.811,14.524 -6.515,15.947 -6.121,17.235L5.906,17.235C5.978,17.45 6.014,17.665 6.014,17.88C6.014,18.417 5.799,18.846 5.369,19.168C4.939,19.49 4.259,19.651 3.329,19.651L0,19.651L0,35.168Z" style="fill:none;fill-rule:nonzero;stroke:rgb(249,220,173);stroke-width:18.95px;"/>
                </g>
                <g transform="matrix(1.78578,0,0,2.81342,2857.35,5318.38)">
                    <path d="M0,45.691C0,49.092 0.511,51.928 1.53,54.201C2.551,56.474 3.839,58.291 5.396,59.65C6.953,61.011 8.671,61.978 10.551,62.55C12.43,63.122 14.229,63.409 15.946,63.409C18.165,63.409 20.215,63.105 22.094,62.496C23.973,61.888 25.592,60.948 26.953,59.677C28.312,58.407 29.369,56.787 30.121,54.818C30.872,52.85 31.248,50.505 31.248,47.785L31.248,46.845C31.248,46.434 31.229,46.085 31.194,45.798C29.691,44.868 28.671,43.517 28.134,41.745C27.598,39.973 27.329,37.852 27.329,35.382L27.329,14.121C27.257,14.013 27.096,13.844 26.846,13.611C26.595,13.378 26.326,13.137 26.04,12.886C25.753,12.636 25.484,12.421 25.234,12.242C24.984,12.063 24.806,11.938 24.698,11.866C22.765,13.298 20.903,14.013 19.114,14.013C18.541,14.013 18.139,13.808 17.906,13.396C17.673,12.985 17.557,12.51 17.557,11.973C19.061,11.651 20.51,11.07 21.906,10.228C23.302,9.388 24.519,8.341 25.557,7.087C26.595,5.835 27.427,4.412 28.054,2.819C28.68,1.227 28.993,-0.5 28.993,-2.362C28.993,-4.545 28.608,-6.577 27.839,-8.456C27.068,-10.335 26.004,-11.955 24.645,-13.315C23.283,-14.675 21.682,-15.749 19.839,-16.537C17.995,-17.323 15.981,-17.718 13.799,-17.718C11.651,-17.718 9.646,-17.342 7.785,-16.59C5.924,-15.838 4.296,-14.791 2.899,-13.449C1.504,-12.107 0.403,-10.497 -0.402,-8.617C-1.208,-6.738 -1.61,-4.652 -1.61,-2.362C-1.61,-0.894 -1.423,0.43 -1.047,1.611C-0.671,2.792 -0.187,3.839 0.403,4.752C0.993,5.665 1.646,6.443 2.362,7.087C3.078,7.732 3.776,8.233 4.457,8.591C3.633,9.02 2.863,9.378 2.147,9.665C1.432,9.951 0.716,10.327 0,10.792L0,45.691Z" style="fill:none;fill-rule:nonzero;stroke:rgb(249,220,173);stroke-width:18.95px;"/>
                </g>
                <g transform="matrix(1.78578,0,0,2.81342,2994.74,5330.01)">
                    <path d="M0,57.824C3.723,56.393 6.872,54.344 9.449,51.677C12.026,49.011 13.995,45.78 15.355,41.986C16.716,38.192 17.396,33.932 17.396,29.207C17.396,24.626 16.671,20.411 15.222,16.563C13.771,12.716 11.731,9.405 9.101,6.63C6.47,3.857 3.311,1.7 -0.376,0.16C-4.062,-1.378 -8.144,-2.148 -12.617,-2.148C-17.092,-2.148 -21.173,-1.432 -24.858,-0.001C-28.546,1.431 -31.714,3.489 -34.362,6.174C-37.012,8.858 -39.069,12.107 -40.536,15.919C-42.005,19.731 -42.737,23.999 -42.737,28.724C-42.737,33.95 -41.951,38.514 -40.375,42.415C-38.801,46.317 -36.662,49.574 -33.959,52.187C-31.257,54.8 -28.071,56.75 -24.402,58.039C-20.733,59.327 -16.805,59.972 -12.617,59.972C-7.929,59.972 -3.723,59.255 0,57.824ZM-13.853,28.402C-13.853,27.22 -13.87,26.21 -13.906,25.368C-13.942,24.528 -13.978,23.794 -14.014,23.167C-14.049,22.541 -14.103,21.977 -14.174,21.475C-14.246,20.975 -14.3,20.438 -14.335,19.865C-14.192,19.722 -14.022,19.596 -13.825,19.489C-13.629,19.382 -13.369,19.328 -13.047,19.328C-12.689,19.328 -12.376,19.435 -12.107,19.65C-11.839,19.865 -11.615,20.33 -11.437,21.046C-11.258,21.762 -11.141,22.675 -11.087,23.784C-11.033,24.894 -11.007,26.254 -11.007,27.865L-11.007,35.543C-11.007,36.474 -11.123,37.145 -11.355,37.556C-11.589,37.968 -12.045,38.174 -12.725,38.174C-13.227,38.174 -13.603,38.049 -13.853,37.798L-13.853,28.402Z" style="fill:none;fill-rule:nonzero;stroke:rgb(249,220,173);stroke-width:18.95px;"/>
                </g>
                <g transform="matrix(1.78578,0,0,2.81342,3037.51,5493.15)">
                    <path d="M0,-58.361C-1.074,-56.75 -1.871,-54.906 -2.39,-52.831C-2.907,-50.755 -3.168,-48.858 -3.168,-47.139C-3.168,-45.063 -2.907,-43.077 -2.39,-41.18C-1.871,-39.282 -1.074,-37.583 0,-36.079L0,-10.093C0,-8.16 0.43,-6.486 1.289,-5.073C2.147,-3.658 3.248,-2.477 4.591,-1.529C5.933,-0.58 7.437,0.127 9.101,0.592C10.765,1.056 12.402,1.289 14.014,1.289C17.234,1.289 20.107,0.797 22.631,-0.187C25.154,-1.171 27.203,-2.486 28.778,-4.133C28.062,-5.457 27.427,-7.032 26.872,-8.858C26.316,-10.683 26.04,-12.992 26.04,-15.784C26.04,-16.285 26.058,-16.929 26.094,-17.717C26.129,-18.504 26.183,-19.382 26.255,-20.348C26.326,-21.314 26.424,-22.343 26.55,-23.435C26.675,-24.527 26.827,-25.61 27.007,-26.683L26.309,-35.435C26.773,-35.721 27.275,-35.864 27.812,-35.864C28.635,-35.864 29.234,-35.55 29.61,-34.925C29.986,-34.298 30.174,-33.126 30.174,-31.408C30.174,-30.477 30.102,-29.457 29.959,-28.348C29.816,-27.238 29.664,-26.03 29.503,-24.724C29.342,-23.417 29.198,-22.012 29.073,-20.509C28.947,-19.006 28.886,-17.412 28.886,-15.731C28.886,-12.58 29.323,-9.923 30.201,-7.757C31.078,-5.591 32.259,-3.838 33.744,-2.496C35.229,-1.153 36.947,-0.187 38.899,0.404C40.85,0.994 42.898,1.289 45.047,1.289C47.087,1.289 49.011,0.958 50.818,0.296C52.625,-0.366 54.209,-1.359 55.57,-2.684C56.93,-4.007 58.004,-5.645 58.791,-7.596C59.578,-9.547 59.973,-11.793 59.973,-14.335L59.973,-15.274C59.973,-15.685 59.954,-16.034 59.919,-16.321C58.415,-17.252 57.396,-18.522 56.858,-20.133C56.321,-21.744 56.053,-23.784 56.053,-26.254C56.053,-27.972 56.08,-29.833 56.134,-31.838C56.188,-33.842 56.214,-35.65 56.214,-37.26C56.214,-41.663 55.534,-45.314 54.174,-48.213C52.813,-51.112 51.06,-53.403 48.912,-55.086C46.765,-56.768 44.356,-57.949 41.69,-58.629C39.024,-59.309 36.402,-59.65 33.825,-59.65C31.642,-59.65 29.592,-59.389 27.678,-58.871C25.763,-58.352 24.026,-57.663 22.47,-56.804C20.912,-55.944 19.552,-54.942 18.389,-53.797C17.226,-52.651 16.286,-51.452 15.57,-50.2C14.89,-50.2 14.407,-50.369 14.121,-50.71C13.834,-51.049 13.691,-51.435 13.691,-51.864C13.691,-52.831 14.479,-54.047 16.054,-55.515C15.266,-56.338 14.362,-57.019 13.342,-57.555C12.322,-58.092 11.061,-58.361 9.557,-58.361L0,-58.361Z" style="fill:none;fill-rule:nonzero;stroke:rgb(249,220,173);stroke-width:18.95px;"/>
                </g>
                <g transform="matrix(1.78578,0,0,2.81342,3339.53,5371.46)">
                    <path d="M0,-25.278L-6.1,-25.278C-8.28,-25.278 -10.032,-25.322 -11.358,-25.41C-12.685,-25.499 -13.716,-25.66 -14.452,-25.897C-15.189,-26.132 -15.676,-26.412 -15.91,-26.736C-16.146,-27.06 -16.264,-27.487 -16.264,-28.018C-16.264,-28.429 -16.176,-28.871 -15.999,-29.344L9.899,-29.344C12.374,-29.344 14.642,-29.726 16.705,-30.493C18.767,-31.258 20.55,-32.451 22.053,-34.072C23.555,-35.693 24.733,-37.785 25.588,-40.348C26.441,-42.911 26.869,-45.99 26.869,-49.585C26.869,-53.414 26.295,-57.215 25.146,-60.987C23.997,-64.757 22.597,-67.91 20.947,-70.445L-70.446,-70.445C-71.448,-69.56 -72.435,-68.456 -73.407,-67.13C-74.379,-65.804 -75.249,-64.271 -76.015,-62.533C-76.781,-60.795 -77.399,-58.821 -77.87,-56.611C-78.343,-54.402 -78.577,-51.941 -78.577,-49.231C-78.577,-45.636 -78.077,-42.233 -77.075,-39.022C-76.073,-35.81 -74.454,-32.584 -72.214,-29.344L-51.619,-29.344L-51.619,27.578C-51.619,30.583 -50.927,33.191 -49.542,35.401C-48.158,37.61 -46.302,39.437 -43.974,40.881C-41.646,42.325 -38.95,43.4 -35.886,44.107C-32.823,44.814 -29.641,45.167 -26.34,45.167C-20.095,45.167 -14.747,44.313 -10.298,42.604C-5.85,40.896 -2.417,38.98 0,36.859L0,-25.278Z" style="fill:none;fill-rule:nonzero;stroke:rgb(249,220,173);stroke-width:18.95px;"/>
                </g>
                <g transform="matrix(1.78578,0,0,2.81342,3449.49,5467.01)">
                    <path d="M0,-56.321C0,-58.218 -0.421,-59.838 -1.262,-61.18C-2.103,-62.522 -3.213,-63.613 -4.59,-64.455C-5.969,-65.296 -7.543,-65.913 -9.315,-66.307C-11.087,-66.701 -12.904,-66.898 -14.765,-66.898C-17.307,-66.898 -19.785,-66.567 -22.201,-65.905C-24.617,-65.242 -26.648,-64.428 -28.295,-63.462L-28.295,-0.805C-28.295,1.128 -27.865,2.802 -27.006,4.215C-26.147,5.63 -25.047,6.811 -23.704,7.759C-22.362,8.708 -20.858,9.415 -19.194,9.88C-17.529,10.345 -15.893,10.577 -14.281,10.577C-11.06,10.577 -8.188,10.085 -5.664,9.101C-3.141,8.117 -1.092,6.802 0.483,5.155C-0.233,3.831 -0.868,2.256 -1.423,0.43C-1.978,-1.395 -2.255,-3.704 -2.255,-6.496C-2.255,-6.997 -2.237,-7.641 -2.201,-8.429C-2.166,-9.216 -2.112,-10.093 -2.04,-11.06C-1.969,-12.026 -1.87,-13.055 -1.745,-14.147C-1.62,-15.238 -1.468,-16.321 -1.288,-17.395L-1.986,-26.147C-1.521,-26.433 -1.02,-26.576 -0.483,-26.576C0.34,-26.576 0.939,-26.262 1.315,-25.637C1.691,-25.01 1.88,-23.838 1.88,-22.12C1.88,-21.189 1.808,-20.169 1.665,-19.06C1.521,-17.95 1.369,-16.742 1.208,-15.436C1.047,-14.129 0.903,-12.724 0.778,-11.221C0.653,-9.717 0.591,-8.124 0.591,-6.443C0.591,-3.292 1.028,-0.634 1.906,1.531C2.783,3.697 3.964,5.45 5.45,6.792C6.935,8.135 8.653,9.101 10.604,9.692C12.555,10.282 14.604,10.577 16.752,10.577C18.792,10.577 20.716,10.246 22.523,9.584C24.33,8.922 25.914,7.929 27.275,6.604C28.635,5.281 29.709,3.643 30.496,1.692C31.283,-0.258 31.678,-2.505 31.678,-5.047L31.678,-5.986C31.678,-6.397 31.659,-6.746 31.624,-7.033C30.121,-7.964 29.101,-9.234 28.563,-10.845C28.026,-12.456 27.759,-14.496 27.759,-16.966C27.759,-18.684 27.785,-20.456 27.839,-22.281C27.893,-24.107 27.919,-25.825 27.919,-27.435C27.919,-30.37 27.562,-32.947 26.846,-35.167C26.129,-37.386 25.172,-39.301 23.974,-40.912C22.773,-42.523 21.404,-43.856 19.866,-44.912C18.326,-45.967 16.716,-46.818 15.033,-47.462C13.351,-48.106 11.678,-48.553 10.014,-48.804C8.35,-49.054 6.801,-49.18 5.369,-49.18C3.186,-49.18 1.217,-49.001 -0.537,-48.643C-2.291,-48.285 -3.848,-47.811 -5.208,-47.22C-6.568,-46.63 -7.75,-45.967 -8.751,-45.234C-9.754,-44.5 -10.577,-43.758 -11.221,-43.006C-11.579,-43.077 -11.911,-43.256 -12.214,-43.543C-12.519,-43.829 -12.671,-44.187 -12.671,-44.616C-12.671,-45.154 -12.34,-45.771 -11.678,-46.469C-11.016,-47.167 -10.112,-47.846 -8.966,-48.509C-7.821,-49.171 -6.479,-49.761 -4.939,-50.281C-3.4,-50.799 -1.754,-51.113 0,-51.22L0,-56.321Z" style="fill:none;fill-rule:nonzero;stroke:rgb(249,220,173);stroke-width:18.95px;"/>
                </g>
                <g transform="matrix(1.78578,0,0,2.81342,3513.92,5318.38)">
                    <path d="M0,45.691C0,49.092 0.511,51.928 1.53,54.201C2.551,56.474 3.839,58.291 5.396,59.65C6.953,61.011 8.671,61.978 10.551,62.55C12.43,63.122 14.229,63.409 15.946,63.409C18.165,63.409 20.215,63.105 22.094,62.496C23.973,61.888 25.592,60.948 26.953,59.677C28.312,58.407 29.369,56.787 30.121,54.818C30.872,52.85 31.248,50.505 31.248,47.785L31.248,46.845C31.248,46.434 31.229,46.085 31.194,45.798C29.691,44.868 28.671,43.517 28.134,41.745C27.598,39.973 27.329,37.852 27.329,35.382L27.329,14.121C27.257,14.013 27.096,13.844 26.846,13.611C26.595,13.378 26.326,13.137 26.04,12.886C25.753,12.636 25.484,12.421 25.234,12.242C24.984,12.063 24.806,11.938 24.698,11.866C22.765,13.298 20.903,14.013 19.114,14.013C18.541,14.013 18.139,13.808 17.906,13.396C17.673,12.985 17.557,12.51 17.557,11.973C19.061,11.651 20.51,11.07 21.906,10.228C23.302,9.388 24.519,8.341 25.557,7.087C26.595,5.835 27.427,4.412 28.054,2.819C28.68,1.227 28.993,-0.5 28.993,-2.362C28.993,-4.545 28.608,-6.577 27.839,-8.456C27.068,-10.335 26.004,-11.955 24.645,-13.315C23.283,-14.675 21.682,-15.749 19.839,-16.537C17.995,-17.323 15.981,-17.718 13.799,-17.718C11.651,-17.718 9.646,-17.342 7.785,-16.59C5.924,-15.838 4.296,-14.791 2.899,-13.449C1.504,-12.107 0.403,-10.497 -0.402,-8.617C-1.208,-6.738 -1.61,-4.652 -1.61,-2.362C-1.61,-0.894 -1.423,0.43 -1.047,1.611C-0.671,2.792 -0.187,3.839 0.403,4.752C0.993,5.665 1.646,6.443 2.362,7.087C3.078,7.732 3.776,8.233 4.457,8.591C3.633,9.02 2.863,9.378 2.147,9.665C1.432,9.951 0.716,10.327 0,10.792L0,45.691Z" style="fill:none;fill-rule:nonzero;stroke:rgb(249,220,173);stroke-width:18.95px;"/>
                </g>
                <g transform="matrix(1.78578,0,0,2.81342,3642.06,5446.85)">
                    <path d="M0,-25.236C1.413,-25.039 2.756,-24.779 4.026,-24.457C5.297,-24.135 6.47,-23.768 7.543,-23.357C8.617,-22.944 9.565,-22.506 10.389,-22.041C11.355,-22.971 12.196,-24.26 12.912,-25.907C13.628,-27.553 13.986,-29.611 13.986,-32.081C13.986,-33.155 13.905,-34.318 13.745,-35.571C13.584,-36.824 13.323,-37.826 12.966,-38.578C11.785,-39.257 10.397,-39.911 8.805,-40.538C7.212,-41.163 5.477,-41.71 3.597,-42.175C1.718,-42.64 -0.296,-43.007 -2.443,-43.276C-4.591,-43.544 -6.828,-43.678 -9.154,-43.678C-13.879,-43.678 -17.996,-43.106 -21.503,-41.961C-25.012,-40.815 -27.929,-39.276 -30.255,-37.343C-32.582,-35.41 -34.317,-33.164 -35.463,-30.605C-36.608,-28.045 -37.181,-25.352 -37.181,-22.525C-37.181,-19.123 -36.483,-16.224 -35.087,-13.826C-33.691,-11.428 -31.812,-9.451 -29.449,-7.894C-27.087,-6.337 -24.341,-5.2 -21.208,-4.485C-18.076,-3.768 -14.757,-3.41 -11.248,-3.41L-10.658,-3.41C-10.443,-3.41 -10.14,-3.428 -9.745,-3.464C-9.638,-3.177 -9.584,-2.891 -9.584,-2.605C-9.584,-2.104 -9.736,-1.71 -10.04,-1.424C-10.345,-1.137 -11.033,-0.994 -12.107,-0.994C-14.435,-0.994 -16.636,-1.173 -18.711,-1.531C-20.788,-1.889 -22.711,-2.354 -24.483,-2.927C-26.255,-3.5 -27.83,-4.153 -29.208,-4.887C-30.586,-5.62 -31.704,-6.345 -32.563,-7.062C-33.065,-6.739 -33.566,-6.283 -34.066,-5.693C-34.568,-5.102 -35.016,-4.412 -35.409,-3.625C-35.804,-2.838 -36.126,-1.969 -36.376,-1.021C-36.626,-0.072 -36.751,0.921 -36.751,1.958C-36.751,4.75 -36.107,7.176 -34.818,9.234C-33.53,11.292 -31.723,13.001 -29.396,14.361C-27.069,15.722 -24.269,16.742 -20.993,17.422C-17.718,18.101 -14.112,18.442 -10.175,18.442C-5.915,18.442 -2.05,17.985 1.423,17.073C4.895,16.16 7.865,14.791 10.335,12.965C12.805,11.139 14.711,8.84 16.054,6.066C17.396,3.292 18.066,0.044 18.066,-3.679C18.066,-6.149 17.727,-8.35 17.047,-10.283C16.366,-12.216 15.444,-13.898 14.281,-15.33C13.118,-16.761 11.749,-17.978 10.174,-18.981C8.599,-19.983 6.926,-20.788 5.154,-21.397C3.383,-22.005 1.548,-22.444 -0.349,-22.712C-2.247,-22.981 -4.09,-23.115 -5.879,-23.115L-7.168,-23.115C-7.598,-23.115 -8.116,-23.096 -8.725,-23.061C-8.761,-23.132 -8.778,-23.231 -8.778,-23.357L-8.778,-23.652C-8.778,-24.117 -8.653,-24.475 -8.402,-24.726C-8.152,-24.976 -7.821,-25.164 -7.409,-25.289C-6.998,-25.414 -6.523,-25.486 -5.986,-25.504C-5.45,-25.522 -4.896,-25.531 -4.322,-25.531C-2.854,-25.531 -1.414,-25.432 0,-25.236Z" style="fill:none;fill-rule:nonzero;stroke:rgb(249,220,173);stroke-width:18.95px;"/>
                </g>
                <g transform="matrix(1.78578,0,0,2.81342,3728.88,5445.72)">
                    <path d="M0,-42.631C0,-45.852 -0.296,-48.59 -0.886,-50.845C-1.477,-53.101 -2.39,-54.926 -3.624,-56.322C-4.859,-57.718 -6.435,-58.738 -8.35,-59.382C-10.265,-60.027 -12.546,-60.349 -15.194,-60.349C-16.52,-60.349 -17.825,-60.25 -19.114,-60.053C-20.402,-59.857 -21.629,-59.588 -22.792,-59.248C-23.955,-58.907 -25.012,-58.514 -25.96,-58.067C-26.908,-57.619 -27.705,-57.163 -28.349,-56.698L-28.349,-39.194C-28.349,-36.689 -28.187,-34.174 -27.866,-31.651C-27.544,-29.128 -27.069,-26.675 -26.443,-24.296C-25.817,-21.915 -25.065,-19.625 -24.187,-17.423C-23.312,-15.222 -22.336,-13.19 -21.262,-11.329C-23.624,-9.968 -25.539,-8.089 -27.007,-5.692C-28.475,-3.293 -29.208,-0.626 -29.208,2.308C-29.208,4.421 -28.797,6.415 -27.973,8.295C-27.15,10.174 -26.04,11.811 -24.645,13.207C-23.248,14.603 -21.62,15.704 -19.759,16.51C-17.897,17.315 -15.911,17.718 -13.799,17.718C-11.651,17.718 -9.629,17.315 -7.731,16.51C-5.835,15.704 -4.18,14.603 -2.766,13.207C-1.352,11.811 -0.233,10.174 0.59,8.295C1.413,6.415 1.825,4.421 1.825,2.308C1.825,0.268 1.449,-1.673 0.697,-3.517C-0.054,-5.36 -1.093,-6.98 -2.416,-8.376C-3.741,-9.772 -5.289,-10.9 -7.061,-11.759C-8.832,-12.618 -10.738,-13.119 -12.778,-13.262L-12.778,-13.477C-12.778,-14.193 -12.556,-14.702 -12.107,-15.007C-11.66,-15.311 -11.133,-15.464 -10.523,-15.464C-9.844,-15.464 -9.047,-15.338 -8.135,-15.088C-7.222,-14.837 -6.408,-14.55 -5.691,-14.229C-5.012,-15.696 -4.332,-17.316 -3.651,-19.088C-2.972,-20.86 -2.362,-22.792 -1.826,-24.886C-1.289,-26.98 -0.851,-29.216 -0.511,-31.597C-0.171,-33.978 0,-36.51 0,-39.194L0,-42.631Z" style="fill:none;fill-rule:nonzero;stroke:rgb(249,220,173);stroke-width:18.95px;"/>
                </g>
                <g transform="matrix(1.78578,0,0,2.81342,2121.07,5003.12)">
                    <text x="114.412px" y="169.08px" style="font-family:'Modak';font-size:181.019px;fill:rgb(46,41,79);">C</text>
                    <text x="230.275px" y="169.08px" style="font-family:'Modak';font-size:109.959px;fill:rgb(46,41,79);">a<tspan x="292.977px 354.928px 404.852px 439.957px 505.237px " y="169.08px 169.08px 169.08px 169.08px 169.08px ">ption</tspan></text>
                    <text x="597.698px" y="169.08px" style="font-family:'Modak';font-size:181.019px;fill:rgb(46,41,79);">T</text>
                    <text x="708.17px" y="169.08px" style="font-family:'Modak';font-size:109.959px;fill:rgb(46,41,79);">h<tspan x="772.536px 808.447px 865.673px " y="169.08px 169.08px 169.08px ">is!</tspan></text>
                </g>
            </g>
        </g>
    </g>
</svg>
