<?xml version="1.0" encoding="UTF-8" standalone="no"?>
<!DOCTYPE svg PUBLIC "-//W3C//DTD SVG 1.1//EN" "http://www.w3.org/Graphics/SVG/1.1/DTD/svg11.dtd">
<svg width="100%" height="100%" viewBox="0 0 583 314" version="1.1" xmlns="http://www.w3.org/2000/svg" xmlns:xlink="http://www.w3.org/1999/xlink" xml:space="preserve" xmlns:serif="http://www.serif.com/" style="fill-rule:evenodd;clip-rule:evenodd;stroke-miterlimit:10;">
    <g transform="matrix(1,0,0,1,-516.634,-3762.45)">
        <g id="Logo" transform="matrix(0.303201,0,0,0.28999,516.634,3762.45)">
            <rect x="0" y="0" width="1920" height="1080" style="fill:none;"/>
            <clipPath id="_clip1">
                <rect x="0" y="0" width="1920" height="1080"/>
            </clipPath>
            <g clip-path="url(#_clip1)">
                <g id="Layer-1" serif:id="Layer 1">
                </g>
                <g id="Game-Pin" serif:id="Game Pin" transform="matrix(3.29814,0,0,3.4484,0,0)">
                    <g>
                        <g transform="matrix(112.614,0,0,112.614,45.2168,117.191)">
                            <path d="M0.129,0C0.093,0 0.065,-0.009 0.045,-0.028C0.025,-0.048 0.016,-0.076 0.016,-0.115L0.016,-0.593C0.033,-0.607 0.054,-0.619 0.079,-0.627C0.104,-0.635 0.13,-0.639 0.156,-0.639C0.196,-0.639 0.229,-0.629 0.256,-0.609C0.286,-0.587 0.301,-0.557 0.301,-0.518L0.301,-0.25C0.283,-0.249 0.265,-0.244 0.247,-0.235C0.229,-0.226 0.221,-0.218 0.221,-0.208C0.221,-0.203 0.224,-0.198 0.23,-0.194C0.262,-0.221 0.31,-0.235 0.374,-0.235L0.489,-0.235C0.511,-0.197 0.521,-0.159 0.521,-0.119C0.521,-0.1 0.518,-0.078 0.511,-0.054C0.504,-0.03 0.495,-0.012 0.484,0L0.129,0Z" style="fill:rgb(35,31,32);fill-rule:nonzero;"/>
                        </g>
                        <g transform="matrix(68.4062,0,0,68.4062,106.303,117.191)">
                            <path d="M0.303,0.015C0.213,0.015 0.142,-0.01 0.09,-0.06C0.036,-0.111 0.01,-0.18 0.01,-0.267C0.01,-0.355 0.037,-0.425 0.092,-0.476C0.143,-0.524 0.207,-0.548 0.285,-0.548C0.363,-0.548 0.425,-0.526 0.472,-0.484C0.519,-0.441 0.543,-0.388 0.543,-0.326C0.543,-0.27 0.524,-0.228 0.485,-0.2C0.449,-0.173 0.4,-0.16 0.338,-0.16C0.292,-0.16 0.253,-0.169 0.221,-0.188C0.219,-0.187 0.217,-0.183 0.217,-0.178C0.217,-0.168 0.23,-0.159 0.256,-0.151C0.282,-0.142 0.311,-0.138 0.344,-0.138C0.376,-0.138 0.406,-0.142 0.433,-0.15C0.46,-0.158 0.481,-0.168 0.498,-0.18C0.505,-0.173 0.512,-0.16 0.516,-0.142C0.521,-0.123 0.523,-0.107 0.523,-0.092C0.523,-0.076 0.522,-0.063 0.519,-0.051C0.494,-0.03 0.468,-0.014 0.441,-0.005C0.403,0.008 0.357,0.015 0.303,0.015ZM0.297,-0.315C0.313,-0.315 0.321,-0.322 0.321,-0.334C0.321,-0.346 0.313,-0.352 0.295,-0.352C0.278,-0.352 0.268,-0.342 0.266,-0.324C0.275,-0.318 0.285,-0.315 0.297,-0.315Z" style="fill:rgb(35,31,32);fill-rule:nonzero;"/>
                        </g>
                        <g transform="matrix(68.4062,0,0,68.4062,144.879,117.191)">
                            <path d="M0.072,-0.309L0.103,-0.309C0.119,-0.309 0.127,-0.314 0.127,-0.325C0.127,-0.326 0.127,-0.328 0.126,-0.331L0.017,-0.331C0.009,-0.353 0.006,-0.379 0.006,-0.407C0.006,-0.435 0.008,-0.458 0.012,-0.476C0.031,-0.487 0.056,-0.505 0.089,-0.529C0.098,-0.551 0.11,-0.587 0.125,-0.635C0.126,-0.641 0.129,-0.648 0.131,-0.654C0.157,-0.66 0.186,-0.664 0.218,-0.664C0.251,-0.664 0.283,-0.66 0.314,-0.653L0.314,-0.534L0.399,-0.534C0.418,-0.505 0.427,-0.471 0.427,-0.433C0.427,-0.415 0.425,-0.397 0.42,-0.378C0.415,-0.36 0.408,-0.344 0.399,-0.331L0.329,-0.331L0.329,-0.257C0.329,-0.216 0.347,-0.195 0.381,-0.195L0.402,-0.195C0.409,-0.17 0.413,-0.149 0.413,-0.13C0.413,-0.085 0.399,-0.051 0.37,-0.027C0.342,-0.003 0.301,0.009 0.248,0.009C0.194,0.009 0.152,-0.006 0.12,-0.036C0.088,-0.066 0.072,-0.11 0.072,-0.167L0.072,-0.309Z" style="fill:rgb(35,31,32);fill-rule:nonzero;"/>
                        </g>
                        <g transform="matrix(68.4062,0,0,68.4062,175.94,117.191)">
                            <path d="M0.277,-0.383C0.268,-0.38 0.264,-0.375 0.264,-0.368L0.264,-0.365C0.264,-0.364 0.264,-0.363 0.265,-0.362C0.268,-0.363 0.273,-0.363 0.279,-0.363L0.291,-0.363C0.328,-0.363 0.362,-0.357 0.395,-0.346C0.427,-0.335 0.454,-0.317 0.474,-0.292C0.497,-0.264 0.508,-0.229 0.508,-0.186C0.508,-0.12 0.485,-0.069 0.439,-0.036C0.394,-0.002 0.332,0.015 0.255,0.015C0.179,0.015 0.118,0.002 0.075,-0.023C0.031,-0.048 0.01,-0.086 0.01,-0.135C0.01,-0.153 0.014,-0.17 0.021,-0.185C0.029,-0.2 0.038,-0.211 0.048,-0.217C0.066,-0.202 0.092,-0.189 0.126,-0.178C0.16,-0.167 0.196,-0.162 0.234,-0.162C0.249,-0.162 0.257,-0.166 0.257,-0.174C0.257,-0.178 0.256,-0.181 0.255,-0.184C0.253,-0.184 0.25,-0.184 0.247,-0.184L0.242,-0.184C0.173,-0.184 0.118,-0.197 0.076,-0.225C0.029,-0.256 0.006,-0.299 0.006,-0.355C0.006,-0.412 0.027,-0.457 0.069,-0.492C0.115,-0.531 0.179,-0.55 0.261,-0.55C0.301,-0.55 0.338,-0.546 0.373,-0.537C0.407,-0.529 0.437,-0.517 0.462,-0.503C0.468,-0.49 0.471,-0.47 0.471,-0.444C0.471,-0.405 0.46,-0.374 0.438,-0.353C0.422,-0.362 0.402,-0.37 0.378,-0.376C0.354,-0.382 0.332,-0.385 0.313,-0.385C0.294,-0.385 0.282,-0.384 0.277,-0.383Z" style="fill:rgb(35,31,32);fill-rule:nonzero;"/>
                        </g>
                        <g transform="matrix(112.614,0,0,112.614,229.694,117.191)">
                            <path d="M0.289,-0.328C0.29,-0.327 0.294,-0.326 0.3,-0.326C0.306,-0.326 0.311,-0.329 0.314,-0.333C0.317,-0.338 0.319,-0.346 0.319,-0.357L0.319,-0.395C0.319,-0.406 0.317,-0.415 0.315,-0.42C0.312,-0.425 0.307,-0.427 0.301,-0.427C0.295,-0.427 0.29,-0.427 0.288,-0.425C0.288,-0.424 0.289,-0.421 0.289,-0.417L0.289,-0.328ZM0.301,-0.107L0.301,-0.032C0.286,-0.02 0.266,-0.01 0.24,-0.003C0.214,0.005 0.187,0.009 0.159,0.009C0.118,0.009 0.085,0.001 0.06,-0.015C0.03,-0.033 0.016,-0.058 0.016,-0.092L0.016,-0.556C0.016,-0.567 0.023,-0.577 0.037,-0.587C0.051,-0.598 0.071,-0.607 0.096,-0.616C0.149,-0.634 0.211,-0.643 0.28,-0.643C0.375,-0.643 0.451,-0.619 0.508,-0.572C0.564,-0.524 0.593,-0.46 0.593,-0.38C0.593,-0.3 0.567,-0.237 0.516,-0.193C0.467,-0.151 0.399,-0.129 0.312,-0.129C0.292,-0.129 0.27,-0.132 0.248,-0.136C0.225,-0.141 0.21,-0.145 0.202,-0.149C0.2,-0.146 0.198,-0.143 0.198,-0.138C0.198,-0.122 0.232,-0.111 0.301,-0.107Z" style="fill:rgb(35,31,32);fill-rule:nonzero;"/>
                        </g>
                        <g transform="matrix(68.4062,0,0,68.4062,297.984,117.191)">
                            <path d="M0.267,-0.589L0.267,-0.246C0.267,-0.198 0.278,-0.166 0.302,-0.151C0.302,-0.15 0.302,-0.147 0.302,-0.142L0.302,-0.133C0.302,-0.087 0.29,-0.051 0.267,-0.027C0.243,-0.003 0.21,0.009 0.167,0.009C0.123,0.009 0.089,-0.003 0.063,-0.027C0.033,-0.056 0.018,-0.099 0.018,-0.157L0.018,-0.665C0.052,-0.685 0.091,-0.696 0.135,-0.696C0.18,-0.696 0.212,-0.686 0.234,-0.668C0.256,-0.649 0.267,-0.623 0.267,-0.589Z" style="fill:rgb(35,31,32);fill-rule:nonzero;"/>
                        </g>
                        <g transform="matrix(68.4062,0,0,68.4062,320.494,117.191)">
                            <path d="M0.509,-0.242C0.509,-0.218 0.512,-0.199 0.517,-0.185C0.522,-0.171 0.531,-0.16 0.544,-0.151C0.545,-0.15 0.545,-0.147 0.545,-0.142L0.545,-0.133C0.545,-0.087 0.531,-0.051 0.503,-0.025C0.478,-0.003 0.448,0.009 0.411,0.009C0.386,0.009 0.364,0.003 0.343,-0.009C0.323,-0.021 0.308,-0.037 0.299,-0.06C0.288,-0.06 0.283,-0.054 0.283,-0.043C0.283,-0.034 0.288,-0.024 0.3,-0.013C0.279,0.002 0.247,0.009 0.204,0.009C0.144,0.009 0.096,-0.008 0.06,-0.04C0.024,-0.073 0.006,-0.119 0.006,-0.177C0.006,-0.236 0.025,-0.282 0.063,-0.314C0.098,-0.343 0.143,-0.357 0.198,-0.357C0.217,-0.357 0.235,-0.356 0.253,-0.354C0.265,-0.351 0.271,-0.35 0.272,-0.35C0.273,-0.353 0.273,-0.356 0.273,-0.358C0.273,-0.366 0.266,-0.372 0.252,-0.375C0.238,-0.378 0.219,-0.379 0.196,-0.379C0.147,-0.379 0.105,-0.369 0.07,-0.35C0.054,-0.377 0.046,-0.411 0.046,-0.452C0.046,-0.476 0.049,-0.493 0.055,-0.504C0.078,-0.515 0.108,-0.525 0.144,-0.533C0.18,-0.541 0.218,-0.545 0.258,-0.545C0.341,-0.545 0.403,-0.527 0.446,-0.491C0.488,-0.455 0.509,-0.404 0.509,-0.337L0.509,-0.242ZM0.256,-0.218C0.242,-0.218 0.235,-0.212 0.235,-0.199C0.235,-0.188 0.243,-0.182 0.259,-0.182C0.27,-0.182 0.278,-0.184 0.284,-0.19C0.289,-0.195 0.292,-0.204 0.292,-0.218L0.256,-0.218Z" style="fill:rgb(35,31,32);fill-rule:nonzero;"/>
                        </g>
                        <g transform="matrix(68.4062,0,0,68.4062,359.003,117.191)">
                            <path d="M0.254,-0.247L0.254,-0.235C0.254,-0.23 0.254,-0.226 0.254,-0.224C0.258,-0.222 0.261,-0.222 0.265,-0.222C0.275,-0.222 0.279,-0.229 0.279,-0.243C0.279,-0.291 0.282,-0.341 0.287,-0.392C0.293,-0.444 0.299,-0.484 0.305,-0.512C0.331,-0.531 0.366,-0.541 0.41,-0.541C0.454,-0.541 0.488,-0.532 0.512,-0.515C0.536,-0.498 0.548,-0.477 0.548,-0.453C0.548,-0.443 0.542,-0.401 0.53,-0.328C0.516,-0.254 0.499,-0.175 0.479,-0.093C0.474,-0.076 0.467,-0.053 0.456,-0.023C0.445,0.007 0.433,0.032 0.421,0.052C0.382,0.113 0.334,0.151 0.277,0.166C0.251,0.173 0.224,0.176 0.197,0.176C0.144,0.176 0.104,0.163 0.075,0.137C0.049,0.114 0.036,0.085 0.036,0.05C0.036,0.015 0.046,-0.017 0.066,-0.048C0.071,-0.049 0.08,-0.05 0.093,-0.05C0.106,-0.05 0.123,-0.048 0.142,-0.045C0.196,-0.035 0.224,-0.03 0.225,-0.03C0.227,-0.029 0.229,-0.029 0.232,-0.029C0.235,-0.028 0.239,-0.028 0.243,-0.028C0.248,-0.028 0.252,-0.029 0.255,-0.032C0.258,-0.034 0.26,-0.04 0.26,-0.047L0.145,-0.069C0.116,-0.081 0.092,-0.106 0.071,-0.143C0.045,-0.189 0.028,-0.252 0.019,-0.331C-0.003,-0.359 -0.014,-0.393 -0.014,-0.432C-0.014,-0.471 -0.004,-0.505 0.016,-0.534L0.141,-0.534C0.183,-0.534 0.215,-0.522 0.235,-0.498C0.251,-0.48 0.26,-0.453 0.265,-0.419C0.257,-0.362 0.254,-0.305 0.254,-0.247Z" style="fill:rgb(35,31,32);fill-rule:nonzero;"/>
                        </g>
                        <g transform="matrix(112.614,0,0,112.614,45.2168,207.282)">
                            <path d="M0.289,-0.328C0.29,-0.327 0.294,-0.326 0.3,-0.326C0.306,-0.326 0.311,-0.329 0.314,-0.333C0.317,-0.338 0.319,-0.346 0.319,-0.357L0.319,-0.395C0.319,-0.406 0.317,-0.415 0.315,-0.42C0.312,-0.425 0.307,-0.427 0.301,-0.427C0.295,-0.427 0.29,-0.427 0.288,-0.425C0.288,-0.424 0.289,-0.421 0.289,-0.417L0.289,-0.328ZM0.301,-0.107L0.301,-0.032C0.286,-0.02 0.266,-0.01 0.24,-0.003C0.214,0.005 0.187,0.009 0.159,0.009C0.118,0.009 0.085,0.001 0.06,-0.015C0.03,-0.033 0.016,-0.058 0.016,-0.092L0.016,-0.556C0.016,-0.567 0.023,-0.577 0.037,-0.587C0.051,-0.598 0.071,-0.607 0.096,-0.616C0.149,-0.634 0.211,-0.643 0.28,-0.643C0.375,-0.643 0.451,-0.619 0.508,-0.572C0.564,-0.524 0.593,-0.46 0.593,-0.38C0.593,-0.3 0.567,-0.237 0.516,-0.193C0.467,-0.151 0.399,-0.129 0.312,-0.129C0.292,-0.129 0.27,-0.132 0.248,-0.136C0.225,-0.141 0.21,-0.145 0.202,-0.149C0.2,-0.146 0.198,-0.143 0.198,-0.138C0.198,-0.122 0.232,-0.111 0.301,-0.107Z" style="fill:rgb(35,31,32);fill-rule:nonzero;"/>
                        </g>
                        <g transform="matrix(112.614,0,0,112.614,116.804,207.282)">
                            <path d="M0.154,0.006C0.115,0.006 0.084,-0.001 0.061,-0.015C0.035,-0.029 0.022,-0.051 0.022,-0.08L0.022,-0.331C0.003,-0.358 -0.006,-0.391 -0.006,-0.431C-0.006,-0.47 0.003,-0.505 0.022,-0.534L0.097,-0.534C0.136,-0.534 0.163,-0.521 0.18,-0.497C0.172,-0.487 0.164,-0.476 0.158,-0.462C0.152,-0.448 0.149,-0.438 0.149,-0.432C0.149,-0.426 0.15,-0.421 0.154,-0.418C0.157,-0.416 0.161,-0.414 0.167,-0.414C0.178,-0.459 0.2,-0.493 0.232,-0.514C0.258,-0.532 0.291,-0.541 0.33,-0.541C0.378,-0.541 0.416,-0.53 0.443,-0.51C0.453,-0.484 0.458,-0.452 0.458,-0.414C0.458,-0.377 0.45,-0.343 0.435,-0.312C0.424,-0.306 0.409,-0.301 0.389,-0.297C0.37,-0.293 0.35,-0.291 0.33,-0.291C0.31,-0.291 0.292,-0.292 0.277,-0.295C0.261,-0.298 0.249,-0.3 0.242,-0.303C0.24,-0.3 0.238,-0.296 0.238,-0.292C0.238,-0.287 0.241,-0.283 0.248,-0.281C0.254,-0.278 0.265,-0.275 0.28,-0.272L0.28,-0.027C0.244,-0.005 0.202,0.006 0.154,0.006Z" style="fill:rgb(35,31,32);fill-rule:nonzero;"/>
                        </g>
                        <g transform="matrix(112.614,0,0,112.614,170.52,207.282)">
                            <path d="M0.303,0.015C0.213,0.015 0.142,-0.01 0.09,-0.06C0.036,-0.111 0.01,-0.18 0.01,-0.267C0.01,-0.355 0.037,-0.425 0.092,-0.476C0.143,-0.524 0.207,-0.548 0.285,-0.548C0.363,-0.548 0.425,-0.526 0.472,-0.484C0.519,-0.441 0.543,-0.388 0.543,-0.326C0.543,-0.27 0.524,-0.228 0.485,-0.2C0.449,-0.173 0.4,-0.16 0.338,-0.16C0.292,-0.16 0.253,-0.169 0.221,-0.188C0.219,-0.187 0.217,-0.183 0.217,-0.178C0.217,-0.168 0.23,-0.159 0.256,-0.151C0.282,-0.142 0.311,-0.138 0.344,-0.138C0.376,-0.138 0.406,-0.142 0.433,-0.15C0.46,-0.158 0.481,-0.168 0.498,-0.18C0.505,-0.173 0.512,-0.16 0.516,-0.142C0.521,-0.123 0.523,-0.107 0.523,-0.092C0.523,-0.076 0.522,-0.063 0.519,-0.051C0.494,-0.03 0.468,-0.014 0.441,-0.005C0.403,0.008 0.357,0.015 0.303,0.015ZM0.297,-0.315C0.313,-0.315 0.321,-0.322 0.321,-0.334C0.321,-0.346 0.313,-0.352 0.295,-0.352C0.278,-0.352 0.268,-0.342 0.266,-0.324C0.275,-0.318 0.285,-0.315 0.297,-0.315Z" style="fill:rgb(35,31,32);fill-rule:nonzero;"/>
                        </g>
                        <g transform="matrix(112.614,0,0,112.614,234.024,207.282)">
                            <path d="M0.072,-0.309L0.103,-0.309C0.119,-0.309 0.127,-0.314 0.127,-0.325C0.127,-0.326 0.127,-0.328 0.126,-0.331L0.017,-0.331C0.009,-0.353 0.006,-0.379 0.006,-0.407C0.006,-0.435 0.008,-0.458 0.012,-0.476C0.031,-0.487 0.056,-0.505 0.089,-0.529C0.098,-0.551 0.11,-0.587 0.125,-0.635C0.126,-0.641 0.129,-0.648 0.131,-0.654C0.157,-0.66 0.186,-0.664 0.218,-0.664C0.251,-0.664 0.283,-0.66 0.314,-0.653L0.314,-0.534L0.399,-0.534C0.418,-0.505 0.427,-0.471 0.427,-0.433C0.427,-0.415 0.425,-0.397 0.42,-0.378C0.415,-0.36 0.408,-0.344 0.399,-0.331L0.329,-0.331L0.329,-0.257C0.329,-0.216 0.347,-0.195 0.381,-0.195L0.402,-0.195C0.409,-0.17 0.413,-0.149 0.413,-0.13C0.413,-0.085 0.399,-0.051 0.37,-0.027C0.342,-0.003 0.301,0.009 0.248,0.009C0.194,0.009 0.152,-0.006 0.12,-0.036C0.088,-0.066 0.072,-0.11 0.072,-0.167L0.072,-0.309Z" style="fill:rgb(35,31,32);fill-rule:nonzero;"/>
                        </g>
                        <g transform="matrix(112.614,0,0,112.614,283.506,207.282)">
                            <path d="M0.303,0.015C0.213,0.015 0.142,-0.01 0.09,-0.06C0.036,-0.111 0.01,-0.18 0.01,-0.267C0.01,-0.355 0.037,-0.425 0.092,-0.476C0.143,-0.524 0.207,-0.548 0.285,-0.548C0.363,-0.548 0.425,-0.526 0.472,-0.484C0.519,-0.441 0.543,-0.388 0.543,-0.326C0.543,-0.27 0.524,-0.228 0.485,-0.2C0.449,-0.173 0.4,-0.16 0.338,-0.16C0.292,-0.16 0.253,-0.169 0.221,-0.188C0.219,-0.187 0.217,-0.183 0.217,-0.178C0.217,-0.168 0.23,-0.159 0.256,-0.151C0.282,-0.142 0.311,-0.138 0.344,-0.138C0.376,-0.138 0.406,-0.142 0.433,-0.15C0.46,-0.158 0.481,-0.168 0.498,-0.18C0.505,-0.173 0.512,-0.16 0.516,-0.142C0.521,-0.123 0.523,-0.107 0.523,-0.092C0.523,-0.076 0.522,-0.063 0.519,-0.051C0.494,-0.03 0.468,-0.014 0.441,-0.005C0.403,0.008 0.357,0.015 0.303,0.015ZM0.297,-0.315C0.313,-0.315 0.321,-0.322 0.321,-0.334C0.321,-0.346 0.313,-0.352 0.295,-0.352C0.278,-0.352 0.268,-0.342 0.266,-0.324C0.275,-0.318 0.285,-0.315 0.297,-0.315Z" style="fill:rgb(35,31,32);fill-rule:nonzero;"/>
                        </g>
                        <g transform="matrix(112.614,0,0,112.614,348.66,207.282)">
                            <path d="M0.532,-0.242C0.532,-0.218 0.535,-0.199 0.54,-0.185C0.545,-0.171 0.554,-0.16 0.567,-0.151C0.568,-0.15 0.568,-0.147 0.568,-0.142L0.568,-0.133C0.568,-0.088 0.555,-0.053 0.529,-0.029C0.503,-0.004 0.47,0.009 0.429,0.009C0.388,0.009 0.355,-0.003 0.33,-0.026C0.3,-0.052 0.285,-0.092 0.285,-0.146C0.285,-0.169 0.286,-0.189 0.288,-0.206C0.29,-0.224 0.292,-0.236 0.293,-0.244C0.294,-0.251 0.294,-0.258 0.295,-0.265C0.296,-0.271 0.297,-0.281 0.297,-0.293C0.297,-0.306 0.295,-0.315 0.292,-0.321C0.288,-0.326 0.284,-0.329 0.278,-0.329C0.272,-0.329 0.266,-0.328 0.262,-0.325L0.268,-0.246C0.262,-0.213 0.259,-0.178 0.259,-0.141C0.259,-0.104 0.268,-0.071 0.284,-0.041C0.252,-0.008 0.208,0.009 0.15,0.009C0.117,0.009 0.089,0 0.064,-0.017C0.036,-0.037 0.022,-0.063 0.022,-0.095L0.022,-0.331C0.003,-0.358 -0.006,-0.391 -0.006,-0.431C-0.006,-0.47 0.003,-0.505 0.022,-0.534L0.109,-0.534C0.132,-0.534 0.152,-0.525 0.168,-0.508C0.154,-0.494 0.147,-0.483 0.147,-0.475C0.147,-0.465 0.153,-0.459 0.164,-0.459C0.178,-0.484 0.2,-0.505 0.23,-0.521C0.259,-0.537 0.293,-0.545 0.33,-0.545C0.386,-0.545 0.432,-0.532 0.467,-0.504C0.512,-0.469 0.534,-0.415 0.534,-0.342L0.532,-0.242Z" style="fill:rgb(35,31,32);fill-rule:nonzero;"/>
                        </g>
                        <g transform="matrix(112.614,0,0,112.614,414.528,207.282)">
                            <path d="M0.294,-0.346C0.291,-0.349 0.287,-0.351 0.282,-0.351C0.275,-0.351 0.27,-0.346 0.268,-0.336C0.265,-0.325 0.264,-0.305 0.264,-0.273L0.264,-0.224C0.264,-0.215 0.265,-0.209 0.267,-0.205C0.269,-0.201 0.273,-0.2 0.278,-0.2C0.284,-0.2 0.287,-0.201 0.29,-0.203L0.29,-0.269C0.29,-0.3 0.291,-0.326 0.294,-0.346ZM0.259,-0.635C0.276,-0.655 0.295,-0.67 0.316,-0.68C0.337,-0.691 0.363,-0.696 0.396,-0.696C0.435,-0.696 0.466,-0.685 0.491,-0.663C0.516,-0.64 0.528,-0.608 0.528,-0.568L0.528,-0.246C0.528,-0.198 0.54,-0.166 0.563,-0.151C0.564,-0.15 0.564,-0.147 0.564,-0.142L0.564,-0.133C0.564,-0.087 0.55,-0.051 0.522,-0.025C0.497,-0.003 0.467,0.009 0.43,0.009C0.405,0.009 0.383,0.003 0.364,-0.007C0.342,-0.02 0.327,-0.037 0.318,-0.058C0.307,-0.058 0.302,-0.053 0.302,-0.042C0.302,-0.037 0.304,-0.031 0.307,-0.025C0.311,-0.019 0.316,-0.013 0.323,-0.008C0.304,0.003 0.279,0.009 0.248,0.009C0.207,0.009 0.168,-0.001 0.132,-0.02C0.096,-0.039 0.068,-0.068 0.046,-0.106C0.022,-0.15 0.01,-0.203 0.01,-0.266C0.01,-0.349 0.033,-0.414 0.08,-0.462C0.127,-0.509 0.186,-0.533 0.259,-0.533C0.302,-0.533 0.339,-0.525 0.371,-0.509C0.375,-0.512 0.376,-0.516 0.376,-0.52C0.376,-0.53 0.365,-0.538 0.342,-0.545C0.319,-0.552 0.295,-0.555 0.272,-0.555C0.272,-0.588 0.268,-0.615 0.259,-0.635Z" style="fill:rgb(35,31,32);fill-rule:nonzero;"/>
                        </g>
                        <g transform="matrix(112.614,0,0,112.614,481.606,207.282)">
                            <path d="M0.214,-0.286C0.197,-0.293 0.182,-0.297 0.169,-0.297C0.156,-0.297 0.149,-0.291 0.149,-0.279L0.149,-0.277C0.187,-0.274 0.218,-0.259 0.244,-0.232C0.269,-0.205 0.282,-0.172 0.282,-0.135C0.282,-0.097 0.268,-0.064 0.241,-0.036C0.213,-0.009 0.179,0.005 0.141,0.005C0.102,0.005 0.069,-0.009 0.041,-0.036C0.014,-0.064 0,-0.097 0,-0.135C0,-0.161 0.007,-0.185 0.02,-0.207C0.033,-0.229 0.05,-0.247 0.072,-0.259C0.053,-0.293 0.037,-0.332 0.025,-0.376C0.014,-0.42 0.008,-0.465 0.008,-0.513L0.008,-0.672C0.021,-0.682 0.039,-0.69 0.061,-0.696C0.083,-0.702 0.105,-0.705 0.127,-0.705C0.176,-0.705 0.212,-0.693 0.233,-0.668C0.255,-0.644 0.266,-0.602 0.266,-0.544L0.266,-0.513C0.266,-0.438 0.248,-0.362 0.214,-0.286Z" style="fill:rgb(35,31,32);fill-rule:nonzero;"/>
                        </g>
                    </g>
                    <g transform="matrix(1,0,0,1,103.08,48.6382)">
                        <path d="M0,71.979C0.66,71.246 1.246,70.348 1.76,69.285C2.272,68.222 2.712,67.067 3.08,65.82C3.445,64.574 3.73,63.263 3.932,61.889C4.133,60.514 4.234,59.167 4.234,57.847C4.234,56.931 4.142,55.941 3.959,54.878C3.775,53.815 3.528,52.743 3.217,51.661C2.905,50.58 2.529,49.517 2.089,48.472C1.65,47.427 1.155,46.429 0.605,45.475L-12.427,45.475C-15.873,45.475 -18.916,45.805 -21.555,46.465C-24.194,47.125 -26.541,48.316 -28.593,50.039C-28.887,49.856 -29.134,49.646 -29.335,49.407C-29.538,49.168 -29.638,48.848 -29.638,48.444C-29.638,47.895 -29.335,47.354 -28.73,46.822C-28.126,46.291 -27.375,45.805 -26.476,45.365C-25.579,44.925 -24.606,44.559 -23.562,44.265C-22.517,43.972 -21.537,43.79 -20.62,43.715L-20.62,13.637C-20.62,11.328 -21.079,9.312 -21.995,7.589C-22.912,5.866 -24.131,4.446 -25.651,3.327C-27.173,2.209 -28.915,1.375 -30.875,0.826C-32.837,0.275 -34.844,0 -36.896,0C-39.866,0 -42.762,0.45 -45.584,1.348C-48.408,2.247 -50.79,3.52 -52.732,5.169L-52.732,58.947C-52.732,63.42 -51.597,66.709 -49.323,68.817C-47.051,70.925 -43.935,71.979 -39.976,71.979L0,71.979Z" style="fill:none;fill-rule:nonzero;stroke:rgb(249,220,173);stroke-width:11.79px;"/>
                    </g>
                    <g transform="matrix(1,0,0,1,128.718,105.883)">
                        <path d="M0,-7.082C-0.356,-7.204 -0.646,-7.332 -0.869,-7.466C-0.78,-8.045 -0.551,-8.507 -0.184,-8.852C0.184,-9.197 0.679,-9.37 1.302,-9.37C1.748,-9.37 2.132,-9.281 2.455,-9.103C2.777,-8.924 2.939,-8.613 2.939,-8.167C2.939,-7.789 2.8,-7.483 2.521,-7.249C2.243,-7.015 1.825,-6.898 1.269,-6.898C0.779,-6.898 0.355,-6.959 0,-7.082ZM7.098,15.331C8.623,15.074 9.964,14.74 11.123,14.329C12.28,13.917 13.282,13.438 14.128,12.892C14.975,12.347 15.754,11.773 16.467,11.172C16.555,10.838 16.628,10.443 16.684,9.986C16.739,9.53 16.767,9.046 16.767,8.533C16.767,8.022 16.728,7.46 16.65,6.847C16.572,6.234 16.455,5.639 16.3,5.06C16.144,4.481 15.96,3.952 15.749,3.473C15.537,2.995 15.286,2.633 14.997,2.388C14.551,2.7 13.995,3.022 13.327,3.356C12.659,3.69 11.874,3.997 10.972,4.274C10.07,4.553 9.052,4.787 7.916,4.976C6.78,5.166 5.522,5.26 4.142,5.26C3.14,5.26 2.138,5.176 1.135,5.009C0.133,4.842 -0.757,4.631 -1.537,4.375C-2.316,4.119 -2.951,3.83 -3.44,3.506C-3.931,3.184 -4.175,2.855 -4.175,2.521C-4.175,2.41 -4.159,2.282 -4.125,2.137C-4.092,1.992 -4.02,1.876 -3.908,1.786C-2.906,2.388 -1.698,2.867 -0.284,3.223C1.13,3.579 2.594,3.757 4.108,3.757C6.112,3.757 7.971,3.535 9.686,3.089C11.4,2.644 12.881,1.959 14.128,1.035C15.375,0.111 16.35,-1.064 17.051,-2.489C17.752,-3.914 18.104,-5.617 18.104,-7.6C18.104,-9.692 17.691,-11.663 16.868,-13.512C16.043,-15.36 14.869,-16.974 13.344,-18.355C11.818,-19.735 9.975,-20.821 7.816,-21.611C5.656,-22.402 3.228,-22.797 0.534,-22.797C-2.004,-22.797 -4.421,-22.385 -6.714,-21.561C-9.008,-20.737 -11.018,-19.512 -12.743,-17.887C-14.469,-16.262 -15.838,-14.247 -16.851,-11.842C-17.865,-9.436 -18.371,-6.665 -18.371,-3.524C-18.371,-0.54 -17.898,2.143 -16.952,4.525C-16.005,6.908 -14.658,8.929 -12.91,10.587C-11.162,12.247 -9.052,13.516 -6.58,14.396C-4.108,15.275 -1.348,15.715 1.703,15.715C3.774,15.715 5.572,15.586 7.098,15.331Z" style="fill:none;fill-rule:nonzero;stroke:rgb(249,220,173);stroke-width:11.79px;"/>
                    </g>
                    <g transform="matrix(1,0,0,1,153.201,87.2275)">
                        <path d="M0,21.878C0,23.927 0.289,25.702 0.869,27.205C1.447,28.709 2.271,29.961 3.34,30.963C4.409,31.965 5.684,32.711 7.165,33.201C8.646,33.691 10.288,33.936 12.091,33.936C15.676,33.936 18.437,33.123 20.375,31.498C22.312,29.872 23.281,27.512 23.281,24.417C23.281,23.66 23.208,22.902 23.064,22.145C22.918,21.388 22.757,20.675 22.58,20.007L21.143,20.007C20.007,20.007 19.127,19.679 18.504,19.022C17.881,18.365 17.569,17.269 17.569,15.732L17.569,10.689L22.346,10.689C22.991,9.753 23.476,8.646 23.799,7.365C24.121,6.085 24.283,4.877 24.283,3.741C24.283,2.538 24.121,1.331 23.799,0.117C23.476,-1.097 22.991,-2.193 22.346,-3.173L16.567,-3.173L16.567,-11.356C15.409,-11.601 14.346,-11.779 13.377,-11.891C12.409,-12.002 11.445,-12.058 10.488,-12.058C9.263,-12.058 8.061,-11.991 6.881,-11.858C5.7,-11.724 4.754,-11.568 4.042,-11.39C3.863,-10.877 3.652,-10.238 3.407,-9.47C3.162,-8.701 2.906,-7.905 2.639,-7.081C2.372,-6.257 2.104,-5.466 1.837,-4.71C1.57,-3.953 1.336,-3.34 1.136,-2.872C0.423,-2.338 -0.396,-1.737 -1.319,-1.069C-2.244,-0.401 -3.173,0.223 -4.108,0.801C-4.242,1.358 -4.348,2.054 -4.426,2.889C-4.504,3.724 -4.542,4.465 -4.542,5.11C-4.542,6.112 -4.481,7.098 -4.359,8.066C-4.237,9.035 -4.053,9.92 -3.808,10.722L3.674,10.722C3.719,10.856 3.741,10.989 3.741,11.123C3.741,11.457 3.607,11.724 3.34,11.924C3.073,12.125 2.65,12.225 2.071,12.225L0,12.225L0,21.878Z" style="fill:none;fill-rule:nonzero;stroke:rgb(249,220,173);stroke-width:11.79px;"/>
                    </g>
                    <g transform="matrix(1,0,0,1,202.853,110.124)">
                        <path d="M0,-15.699C0.879,-15.576 1.714,-15.415 2.505,-15.215C3.295,-15.014 4.025,-14.785 4.693,-14.53C5.361,-14.274 5.951,-14.001 6.463,-13.712C7.064,-14.29 7.587,-15.092 8.033,-16.116C8.479,-17.14 8.701,-18.421 8.701,-19.958C8.701,-20.626 8.651,-21.349 8.551,-22.129C8.451,-22.908 8.289,-23.532 8.066,-23.999C7.332,-24.422 6.468,-24.828 5.478,-25.219C4.487,-25.608 3.407,-25.948 2.238,-26.237C1.069,-26.526 -0.184,-26.755 -1.52,-26.922C-2.856,-27.089 -4.248,-27.172 -5.695,-27.172C-8.634,-27.172 -11.195,-26.816 -13.377,-26.103C-15.56,-25.39 -17.375,-24.433 -18.822,-23.231C-20.27,-22.029 -21.349,-20.631 -22.062,-19.039C-22.774,-17.447 -23.13,-15.771 -23.13,-14.012C-23.13,-11.896 -22.696,-10.093 -21.828,-8.601C-20.959,-7.109 -19.791,-5.879 -18.321,-4.91C-16.851,-3.942 -15.142,-3.235 -13.193,-2.789C-11.245,-2.344 -9.18,-2.121 -6.998,-2.121L-6.63,-2.121C-6.497,-2.121 -6.308,-2.132 -6.062,-2.155C-5.996,-1.976 -5.962,-1.798 -5.962,-1.62C-5.962,-1.308 -6.057,-1.063 -6.246,-0.886C-6.436,-0.707 -6.864,-0.618 -7.532,-0.618C-8.979,-0.618 -10.349,-0.729 -11.64,-0.952C-12.932,-1.175 -14.129,-1.464 -15.231,-1.821C-16.333,-2.177 -17.313,-2.583 -18.17,-3.04C-19.028,-3.496 -19.724,-3.947 -20.258,-4.392C-20.57,-4.192 -20.881,-3.908 -21.193,-3.541C-21.505,-3.174 -21.783,-2.744 -22.028,-2.255C-22.273,-1.765 -22.474,-1.224 -22.629,-0.635C-22.786,-0.045 -22.863,0.573 -22.863,1.219C-22.863,2.956 -22.462,4.465 -21.661,5.745C-20.859,7.026 -19.735,8.089 -18.287,8.935C-16.84,9.781 -15.097,10.416 -13.06,10.839C-11.022,11.261 -8.779,11.473 -6.33,11.473C-3.68,11.473 -1.275,11.189 0.885,10.621C3.045,10.053 4.894,9.202 6.43,8.066C7.966,6.93 9.152,5.5 9.987,3.774C10.822,2.049 11.24,0.028 11.24,-2.288C11.24,-3.824 11.028,-5.194 10.605,-6.397C10.182,-7.599 9.608,-8.645 8.885,-9.536C8.161,-10.427 7.309,-11.184 6.33,-11.808C5.35,-12.431 4.309,-12.932 3.207,-13.311C2.104,-13.689 0.963,-13.962 -0.217,-14.129C-1.397,-14.296 -2.544,-14.38 -3.657,-14.38L-4.459,-14.38C-4.726,-14.38 -5.049,-14.368 -5.428,-14.346C-5.45,-14.39 -5.461,-14.451 -5.461,-14.53L-5.461,-14.714C-5.461,-15.003 -5.383,-15.225 -5.227,-15.382C-5.072,-15.537 -4.866,-15.654 -4.609,-15.732C-4.354,-15.81 -4.058,-15.854 -3.724,-15.866C-3.39,-15.877 -3.045,-15.883 -2.689,-15.883C-1.776,-15.883 -0.88,-15.821 0,-15.699Z" style="fill:none;fill-rule:nonzero;stroke:rgb(249,220,173);stroke-width:11.79px;"/>
                    </g>
                    <g transform="matrix(1,0,0,1,234.825,59.5264)">
                        <path d="M0,50.643C0,52.66 0.448,54.392 1.347,55.839C2.245,57.288 3.437,58.47 4.921,59.386C6.406,60.303 8.119,60.972 10.063,61.393C12.005,61.814 14.021,62.025 16.111,62.025C17.614,62.025 19.126,61.924 20.647,61.723C22.168,61.521 23.625,61.219 25.019,60.816C26.412,60.413 27.722,59.927 28.951,59.358C30.178,58.79 31.232,58.14 32.112,57.406L32.112,48.994C29.839,48.847 27.961,48.655 26.476,48.416C24.992,48.178 23.809,47.913 22.93,47.619C22.05,47.326 21.436,46.996 21.087,46.629C20.739,46.263 20.565,45.878 20.565,45.474C20.565,45.144 20.61,44.888 20.703,44.705C20.793,44.521 20.895,44.374 21.005,44.265C21.408,44.448 22.05,44.659 22.93,44.897C23.809,45.136 24.817,45.373 25.954,45.612C27.089,45.851 28.299,46.052 29.583,46.217C30.866,46.381 32.112,46.464 33.322,46.464C38.087,46.464 42.422,45.869 46.327,44.677C50.23,43.486 53.566,41.699 56.334,39.316C59.102,36.933 61.237,33.964 62.74,30.408C64.243,26.852 64.995,22.728 64.995,18.036C64.995,13.637 64.17,9.622 62.52,5.994C60.871,2.364 58.524,-0.733 55.482,-3.299C52.438,-5.865 48.746,-7.854 44.402,-9.266C40.058,-10.676 35.173,-11.382 29.748,-11.382C25.825,-11.382 22.077,-11.098 18.503,-10.53C14.929,-9.961 11.767,-9.211 9.018,-8.276C6.269,-7.341 4.078,-6.296 2.447,-5.142C0.815,-3.987 0,-2.805 0,-1.595L0,50.643ZM30.738,24.139L30.738,14.077C30.738,13.747 30.719,13.435 30.683,13.142C30.829,13.069 31.031,13.014 31.288,12.977C31.543,12.941 31.764,12.922 31.947,12.922C32.79,12.922 33.368,13.216 33.68,13.802C33.991,14.389 34.147,15.323 34.147,16.606L34.147,20.785C34.147,22.032 33.963,22.93 33.597,23.479C33.23,24.029 32.607,24.304 31.728,24.304C31.653,24.304 31.498,24.295 31.26,24.277C31.021,24.259 30.848,24.213 30.738,24.139Z" style="fill:none;fill-rule:nonzero;stroke:rgb(249,220,173);stroke-width:11.79px;"/>
                    </g>
                    <g transform="matrix(1,0,0,1,302.595,119.026)">
                        <path d="M0,-43.923L0,-9.219C0,-7.081 0.284,-5.288 0.852,-3.841C1.419,-2.393 2.171,-1.224 3.106,-0.334C4.042,0.557 5.122,1.191 6.346,1.57C7.571,1.948 8.84,2.138 10.154,2.138C13.071,2.138 15.348,1.325 16.985,-0.3C18.621,-1.926 19.439,-4.353 19.439,-7.582L19.439,-8.167C19.439,-8.423 19.428,-8.639 19.406,-8.818C18.471,-9.397 17.836,-10.237 17.502,-11.34C17.168,-12.442 17.001,-13.761 17.001,-15.298L17.001,-38.779C17.001,-39.87 16.829,-40.861 16.483,-41.752C16.138,-42.642 15.599,-43.405 14.864,-44.04C14.129,-44.674 13.188,-45.17 12.041,-45.526C10.894,-45.882 9.52,-46.061 7.916,-46.061C6.936,-46.061 6.012,-45.977 5.144,-45.81C4.275,-45.643 3.501,-45.443 2.822,-45.209C2.143,-44.975 1.559,-44.735 1.069,-44.491C0.579,-44.245 0.222,-44.056 0,-43.923Z" style="fill:none;fill-rule:nonzero;stroke:rgb(249,220,173);stroke-width:11.79px;"/>
                    </g>
                    <g transform="matrix(1,0,0,1,343.813,98.75)">
                        <path d="M0,6.915C0,7.85 -0.189,8.496 -0.568,8.852C-0.947,9.208 -1.492,9.387 -2.205,9.387C-2.65,9.387 -3.035,9.298 -3.357,9.12C-3.68,8.941 -3.841,8.63 -3.841,8.184C-3.841,7.85 -3.736,7.555 -3.524,7.299C-3.313,7.043 -2.951,6.915 -2.438,6.915L0,6.915ZM14.897,-1.269C14.897,-3.495 14.541,-5.494 13.828,-7.264C13.115,-9.034 12.046,-10.526 10.622,-11.74C9.196,-12.953 7.409,-13.883 5.26,-14.529C3.111,-15.174 0.601,-15.498 -2.271,-15.498C-3.92,-15.498 -5.461,-15.397 -6.897,-15.197C-8.334,-14.997 -9.648,-14.757 -10.839,-14.479C-12.03,-14.2 -13.077,-13.899 -13.979,-13.577C-14.88,-13.254 -15.621,-12.959 -16.2,-12.692C-16.445,-12.202 -16.606,-11.64 -16.684,-11.005C-16.763,-10.37 -16.801,-9.741 -16.801,-9.118C-16.801,-7.804 -16.651,-6.512 -16.35,-5.243C-16.05,-3.974 -15.655,-2.927 -15.165,-2.104C-13.962,-2.793 -12.604,-3.306 -11.089,-3.64C-9.576,-3.974 -8.062,-4.141 -6.547,-4.141C-5.879,-4.141 -5.222,-4.119 -4.576,-4.074C-3.931,-4.029 -3.363,-3.957 -2.873,-3.857C-2.383,-3.757 -1.988,-3.606 -1.687,-3.406C-1.386,-3.206 -1.236,-2.96 -1.236,-2.671C-1.236,-2.515 -1.27,-2.326 -1.336,-2.104C-1.693,-2.192 -2.127,-2.281 -2.639,-2.371C-3.084,-2.438 -3.619,-2.499 -4.242,-2.554C-4.866,-2.61 -5.578,-2.638 -6.38,-2.638C-8.162,-2.638 -9.849,-2.393 -11.44,-1.903C-13.033,-1.413 -14.43,-0.662 -15.632,0.352C-16.834,1.365 -17.787,2.645 -18.488,4.193C-19.189,5.741 -19.54,7.572 -19.54,9.687C-19.54,11.736 -19.212,13.545 -18.555,15.115C-17.898,16.685 -16.974,18.016 -15.782,19.106C-14.591,20.198 -13.166,21.022 -11.507,21.578C-9.849,22.135 -8.006,22.413 -5.979,22.413C-4.732,22.413 -3.507,22.29 -2.305,22.046C-1.103,21.801 -0.146,21.434 0.567,20.943C0.188,20.565 -0.101,20.198 -0.301,19.841C-0.501,19.485 -0.602,19.151 -0.602,18.839C-0.602,18.505 -0.507,18.238 -0.317,18.038C-0.128,17.837 0.155,17.737 0.534,17.737C0.846,18.539 1.274,19.235 1.82,19.825C2.366,20.415 2.978,20.899 3.657,21.278C4.336,21.656 5.06,21.94 5.828,22.129C6.597,22.318 7.381,22.413 8.183,22.413C9.319,22.413 10.432,22.224 11.523,21.845C12.614,21.467 13.588,20.882 14.446,20.092C15.303,19.302 15.999,18.294 16.534,17.069C17.068,15.845 17.335,14.386 17.335,12.693L17.335,12.109C17.335,11.853 17.324,11.636 17.302,11.457C16.367,10.879 15.732,10.088 15.398,9.086C15.064,8.084 14.897,6.815 14.897,5.278L14.897,-1.269Z" style="fill:none;fill-rule:nonzero;stroke:rgb(249,220,173);stroke-width:11.79px;"/>
                    </g>
                    <g transform="matrix(1,0,0,1,363.454,132.152)">
                        <path d="M0,-48.098C-0.713,-47.029 -1.225,-45.882 -1.537,-44.658C-1.848,-43.433 -2.004,-42.208 -2.004,-40.983C-2.004,-39.558 -1.787,-38.272 -1.353,-37.126C-0.918,-35.978 -0.401,-35.015 0.2,-34.236C0.534,-31.297 1.019,-28.769 1.653,-26.654C2.288,-24.538 2.995,-22.774 3.774,-21.36C4.554,-19.946 5.383,-18.838 6.263,-18.036C7.142,-17.235 7.994,-16.667 8.818,-16.333L16.701,-14.83C16.701,-14.251 16.572,-13.884 16.316,-13.728C16.061,-13.572 15.743,-13.494 15.365,-13.494C15.119,-13.494 14.875,-13.516 14.63,-13.561C14.385,-13.605 14.14,-13.65 13.895,-13.695L8.651,-14.663C8.25,-14.73 7.716,-14.802 7.048,-14.88C6.38,-14.958 5.711,-14.997 5.043,-14.997C4.776,-14.997 4.493,-14.986 4.192,-14.964C3.891,-14.941 3.652,-14.908 3.474,-14.864C2.716,-13.75 2.176,-12.676 1.854,-11.64C1.531,-10.605 1.37,-9.519 1.37,-8.384C1.37,-7.203 1.592,-6.079 2.038,-5.01C2.483,-3.941 3.156,-3.001 4.058,-2.188C4.96,-1.375 6.101,-0.729 7.482,-0.25C8.862,0.228 10.499,0.468 12.392,0.468C14.24,0.468 16.077,0.234 17.903,-0.234C19.729,-0.702 21.471,-1.564 23.13,-2.822C24.789,-4.08 26.314,-5.817 27.707,-8.033C29.098,-10.249 30.284,-13.115 31.264,-16.634C31.843,-18.726 32.371,-20.803 32.85,-22.863C33.329,-24.923 33.763,-26.888 34.153,-28.759C34.542,-30.629 34.876,-32.383 35.155,-34.019C35.433,-35.656 35.667,-37.086 35.856,-38.311C36.045,-39.535 36.185,-40.521 36.274,-41.267C36.363,-42.013 36.408,-42.453 36.408,-42.587C36.408,-43.344 36.212,-44.078 35.823,-44.791C35.433,-45.504 34.854,-46.138 34.086,-46.695C33.318,-47.251 32.354,-47.702 31.197,-48.048C30.039,-48.393 28.692,-48.566 27.155,-48.566C25.686,-48.566 24.333,-48.415 23.097,-48.115C21.861,-47.814 20.753,-47.307 19.773,-46.595C19.595,-45.771 19.4,-44.702 19.189,-43.389C18.977,-42.074 18.788,-40.604 18.621,-38.979C18.454,-37.354 18.315,-35.622 18.204,-33.785C18.092,-31.949 18.037,-30.095 18.037,-28.224C18.037,-27.778 17.964,-27.423 17.82,-27.155C17.675,-26.888 17.424,-26.754 17.068,-26.754C16.957,-26.754 16.839,-26.765 16.717,-26.788C16.595,-26.81 16.467,-26.855 16.333,-26.921C16.311,-27.144 16.3,-27.394 16.3,-27.673L16.3,-28.458C16.3,-29.616 16.322,-30.785 16.367,-31.965C16.411,-33.145 16.472,-34.264 16.55,-35.322C16.628,-36.379 16.712,-37.337 16.801,-38.195C16.89,-39.052 16.968,-39.736 17.035,-40.249C16.923,-41.228 16.717,-42.186 16.417,-43.121C16.116,-44.056 15.648,-44.891 15.014,-45.626C14.379,-46.361 13.544,-46.956 12.509,-47.413C11.474,-47.869 10.165,-48.098 8.584,-48.098L0,-48.098Z" style="fill:none;fill-rule:nonzero;stroke:rgb(249,220,173);stroke-width:11.79px;"/>
                    </g>
                    <g transform="matrix(1,0,0,1,50.3477,149.617)">
                        <path d="M0,50.643C0,52.66 0.448,54.392 1.347,55.839C2.245,57.288 3.437,58.47 4.921,59.386C6.406,60.303 8.119,60.972 10.063,61.393C12.005,61.814 14.021,62.025 16.111,62.025C17.614,62.025 19.126,61.924 20.647,61.723C22.168,61.521 23.625,61.219 25.019,60.816C26.412,60.413 27.722,59.927 28.951,59.358C30.178,58.79 31.232,58.14 32.112,57.406L32.112,48.994C29.839,48.847 27.961,48.655 26.476,48.416C24.992,48.178 23.809,47.913 22.93,47.619C22.05,47.326 21.436,46.996 21.087,46.629C20.739,46.263 20.565,45.878 20.565,45.474C20.565,45.144 20.61,44.888 20.703,44.705C20.793,44.521 20.895,44.374 21.005,44.265C21.408,44.448 22.05,44.659 22.93,44.897C23.809,45.136 24.817,45.373 25.954,45.612C27.089,45.851 28.299,46.052 29.583,46.217C30.866,46.381 32.112,46.464 33.322,46.464C38.087,46.464 42.422,45.869 46.327,44.677C50.23,43.486 53.566,41.699 56.334,39.316C59.102,36.933 61.237,33.964 62.74,30.408C64.243,26.852 64.995,22.728 64.995,18.036C64.995,13.637 64.17,9.622 62.52,5.994C60.871,2.364 58.524,-0.733 55.482,-3.299C52.438,-5.865 48.746,-7.854 44.402,-9.266C40.058,-10.676 35.173,-11.382 29.748,-11.382C25.825,-11.382 22.077,-11.098 18.503,-10.53C14.929,-9.961 11.767,-9.211 9.018,-8.276C6.269,-7.341 4.078,-6.296 2.447,-5.142C0.815,-3.987 0,-2.805 0,-1.595L0,50.643ZM30.738,24.139L30.738,14.077C30.738,13.747 30.719,13.435 30.683,13.142C30.829,13.069 31.031,13.014 31.288,12.977C31.543,12.941 31.764,12.922 31.947,12.922C32.79,12.922 33.368,13.216 33.68,13.802C33.99,14.389 34.147,15.323 34.147,16.606L34.147,20.785C34.147,22.032 33.963,22.93 33.597,23.479C33.23,24.029 32.607,24.304 31.728,24.304C31.653,24.304 31.498,24.295 31.26,24.277C31.021,24.259 30.848,24.213 30.738,24.139Z" style="fill:none;fill-rule:nonzero;stroke:rgb(249,220,173);stroke-width:11.79px;"/>
                    </g>
                    <g transform="matrix(1,0,0,1,122.711,210.598)">
                        <path d="M0,-60.046C-1.1,-58.396 -1.916,-56.508 -2.447,-54.382C-2.978,-52.256 -3.244,-50.313 -3.244,-48.554C-3.244,-46.427 -2.978,-44.393 -2.447,-42.45C-1.916,-40.506 -1.1,-38.766 0,-37.226L0,-8.908C0,-7.221 0.385,-5.774 1.155,-4.564C1.925,-3.354 2.978,-2.355 4.316,-1.567C5.654,-0.778 7.222,-0.192 9.018,0.193C10.813,0.578 12.738,0.77 14.792,0.77C15.745,0.77 16.78,0.724 17.898,0.632C19.016,0.54 20.189,0.357 21.417,0.082C22.646,-0.192 23.9,-0.577 25.184,-1.072C26.467,-1.567 27.731,-2.217 28.979,-3.024L28.979,-30.628C27.219,-30.958 26,-31.269 25.322,-31.563C24.643,-31.856 24.304,-32.258 24.304,-32.772C24.304,-33.322 24.451,-33.743 24.744,-34.037C25.404,-33.89 26.055,-33.734 26.696,-33.569C27.337,-33.404 28.043,-33.258 28.813,-33.129C29.583,-33.001 30.436,-32.9 31.37,-32.827C32.305,-32.754 33.377,-32.717 34.587,-32.717C35.723,-32.717 36.877,-32.781 38.051,-32.91C39.224,-33.038 40.333,-33.212 41.378,-33.432C42.423,-33.652 43.385,-33.908 44.265,-34.202C45.145,-34.495 45.877,-34.788 46.464,-35.082C47.087,-36.364 47.665,-37.996 48.196,-39.976C48.728,-41.955 48.994,-44.429 48.994,-47.399C48.994,-49.048 48.865,-50.734 48.609,-52.458C48.352,-54.18 47.93,-55.812 47.344,-57.352C46.794,-57.754 46.115,-58.167 45.31,-58.589C44.503,-59.01 43.568,-59.386 42.505,-59.716C41.441,-60.046 40.25,-60.311 38.931,-60.513C37.611,-60.714 36.163,-60.816 34.587,-60.816C32.644,-60.816 30.729,-60.587 28.841,-60.129C26.953,-59.67 25.193,-58.891 23.562,-57.792C21.931,-56.692 20.483,-55.225 19.218,-53.393C17.954,-51.559 16.972,-49.286 16.276,-46.574C15.58,-46.574 15.066,-46.748 14.737,-47.096C14.407,-47.444 14.242,-47.839 14.242,-48.278C14.242,-48.645 14.333,-49.149 14.517,-49.791C14.7,-50.432 14.947,-51.11 15.259,-51.825C15.57,-52.54 15.937,-53.264 16.359,-53.997C16.78,-54.73 17.229,-55.353 17.706,-55.867C16.826,-57.187 15.625,-58.213 14.104,-58.946C12.583,-59.679 10.686,-60.046 8.413,-60.046L0,-60.046Z" style="fill:none;fill-rule:nonzero;stroke:rgb(249,220,173);stroke-width:11.79px;"/>
                    </g>
                    <g transform="matrix(1,0,0,1,205.247,186.486)">
                        <path d="M0,-11.657C-0.587,-11.858 -1.064,-12.069 -1.43,-12.289C-1.284,-13.242 -0.907,-14.002 -0.303,-14.571C0.302,-15.139 1.118,-15.424 2.145,-15.424C2.877,-15.424 3.51,-15.277 4.042,-14.984C4.572,-14.69 4.839,-14.177 4.839,-13.444C4.839,-12.82 4.609,-12.317 4.151,-11.932C3.693,-11.547 3.005,-11.354 2.089,-11.354C1.283,-11.354 0.586,-11.455 0,-11.657ZM11.685,25.239C14.195,24.818 16.404,24.268 18.311,23.59C20.216,22.912 21.866,22.124 23.259,21.225C24.652,20.327 25.935,19.384 27.108,18.394C27.254,17.843 27.374,17.193 27.466,16.442C27.557,15.691 27.604,14.893 27.604,14.05C27.604,13.207 27.539,12.281 27.411,11.273C27.282,10.265 27.09,9.284 26.833,8.331C26.577,7.378 26.274,6.508 25.926,5.719C25.578,4.931 25.165,4.336 24.689,3.932C23.956,4.446 23.04,4.977 21.94,5.527C20.84,6.076 19.548,6.581 18.063,7.039C16.579,7.497 14.901,7.883 13.032,8.194C11.162,8.505 9.091,8.661 6.818,8.661C5.168,8.661 3.519,8.523 1.87,8.248C0.22,7.973 -1.247,7.626 -2.529,7.204C-3.813,6.782 -4.858,6.306 -5.664,5.774C-6.471,5.243 -6.874,4.702 -6.874,4.152C-6.874,3.969 -6.846,3.759 -6.791,3.52C-6.736,3.281 -6.618,3.089 -6.434,2.942C-4.784,3.932 -2.796,4.72 -0.467,5.307C1.86,5.893 4.27,6.186 6.763,6.186C10.063,6.186 13.123,5.821 15.946,5.087C18.769,4.354 21.206,3.227 23.259,1.705C25.312,0.184 26.916,-1.75 28.071,-4.096C29.226,-6.442 29.803,-9.246 29.803,-12.509C29.803,-15.954 29.124,-19.199 27.769,-22.242C26.412,-25.284 24.478,-27.942 21.967,-30.215C19.456,-32.488 16.422,-34.275 12.867,-35.576C9.311,-36.877 5.315,-37.529 0.88,-37.529C-3.299,-37.529 -7.277,-36.849 -11.053,-35.494C-14.829,-34.137 -18.137,-32.121 -20.978,-29.445C-23.819,-26.769 -26.073,-23.451 -27.741,-19.492C-29.41,-15.533 -30.243,-10.97 -30.243,-5.801C-30.243,-0.888 -29.465,3.529 -27.906,7.451C-26.349,11.374 -24.131,14.701 -21.252,17.431C-18.375,20.163 -14.902,22.252 -10.833,23.7C-6.764,25.148 -2.218,25.872 2.804,25.872C6.213,25.872 9.173,25.66 11.685,25.239Z" style="fill:none;fill-rule:nonzero;stroke:rgb(249,220,173);stroke-width:11.79px;"/>
                    </g>
                    <g transform="matrix(1,0,0,1,245.553,155.776)">
                        <path d="M0,36.017C0,39.39 0.476,42.313 1.43,44.787C2.382,47.262 3.739,49.324 5.499,50.973C7.258,52.623 9.356,53.851 11.794,54.658C14.232,55.463 16.936,55.867 19.905,55.867C25.807,55.867 30.353,54.529 33.542,51.853C36.731,49.178 38.326,45.291 38.326,40.196C38.326,38.95 38.207,37.704 37.969,36.456C37.729,35.211 37.464,34.037 37.171,32.937L34.807,32.937C32.937,32.937 31.489,32.397 30.463,31.315C29.436,30.234 28.923,28.429 28.923,25.899L28.923,17.596L36.786,17.596C37.849,16.057 38.646,14.233 39.178,12.125C39.709,10.017 39.976,8.028 39.976,6.159C39.976,4.179 39.709,2.191 39.178,0.193C38.646,-1.805 37.849,-3.61 36.786,-5.224L27.273,-5.224L27.273,-18.695C25.367,-19.098 23.617,-19.391 22.022,-19.575C20.428,-19.758 18.842,-19.85 17.266,-19.85C15.25,-19.85 13.27,-19.74 11.327,-19.52C9.384,-19.3 7.826,-19.044 6.653,-18.751C6.359,-17.907 6.012,-16.854 5.608,-15.588C5.205,-14.324 4.784,-13.013 4.344,-11.657C3.904,-10.3 3.464,-8.999 3.024,-7.753C2.584,-6.506 2.199,-5.499 1.87,-4.729C0.696,-3.849 -0.651,-2.859 -2.172,-1.759C-3.694,-0.66 -5.224,0.367 -6.764,1.32C-6.983,2.237 -7.158,3.382 -7.286,4.757C-7.415,6.131 -7.479,7.35 -7.479,8.413C-7.479,10.063 -7.378,11.685 -7.176,13.28C-6.975,14.874 -6.672,16.331 -6.269,17.651L6.048,17.651C6.122,17.871 6.159,18.091 6.159,18.311C6.159,18.861 5.938,19.301 5.499,19.631C5.059,19.96 4.362,20.125 3.409,20.125L0,20.125L0,36.017Z" style="fill:none;fill-rule:nonzero;stroke:rgb(249,220,173);stroke-width:11.79px;"/>
                    </g>
                    <g transform="matrix(1,0,0,1,318.247,186.486)">
                        <path d="M0,-11.657C-0.587,-11.858 -1.064,-12.069 -1.43,-12.289C-1.284,-13.242 -0.907,-14.002 -0.303,-14.571C0.302,-15.139 1.118,-15.424 2.145,-15.424C2.877,-15.424 3.51,-15.277 4.042,-14.984C4.572,-14.69 4.839,-14.177 4.839,-13.444C4.839,-12.82 4.609,-12.317 4.151,-11.932C3.693,-11.547 3.005,-11.354 2.089,-11.354C1.283,-11.354 0.586,-11.455 0,-11.657ZM11.685,25.239C14.195,24.818 16.404,24.268 18.311,23.59C20.216,22.912 21.866,22.124 23.259,21.225C24.652,20.327 25.935,19.384 27.108,18.394C27.254,17.843 27.374,17.193 27.466,16.442C27.557,15.691 27.604,14.893 27.604,14.05C27.604,13.207 27.539,12.281 27.411,11.273C27.282,10.265 27.09,9.284 26.833,8.331C26.577,7.378 26.274,6.508 25.926,5.719C25.578,4.931 25.165,4.336 24.689,3.932C23.956,4.446 23.04,4.977 21.94,5.527C20.84,6.076 19.548,6.581 18.063,7.039C16.579,7.497 14.901,7.883 13.032,8.194C11.162,8.505 9.091,8.661 6.818,8.661C5.168,8.661 3.519,8.523 1.87,8.248C0.22,7.973 -1.247,7.626 -2.529,7.204C-3.813,6.782 -4.858,6.306 -5.664,5.774C-6.471,5.243 -6.874,4.702 -6.874,4.152C-6.874,3.969 -6.846,3.759 -6.791,3.52C-6.736,3.281 -6.618,3.089 -6.434,2.942C-4.784,3.932 -2.796,4.72 -0.467,5.307C1.86,5.893 4.27,6.186 6.763,6.186C10.063,6.186 13.123,5.821 15.946,5.087C18.769,4.354 21.206,3.227 23.259,1.705C25.312,0.184 26.916,-1.75 28.071,-4.096C29.226,-6.442 29.803,-9.246 29.803,-12.509C29.803,-15.954 29.124,-19.199 27.769,-22.242C26.412,-25.284 24.478,-27.942 21.967,-30.215C19.456,-32.488 16.422,-34.275 12.867,-35.576C9.311,-36.877 5.315,-37.529 0.88,-37.529C-3.299,-37.529 -7.277,-36.849 -11.053,-35.494C-14.829,-34.137 -18.137,-32.121 -20.978,-29.445C-23.819,-26.769 -26.073,-23.451 -27.741,-19.492C-29.41,-15.533 -30.243,-10.97 -30.243,-5.801C-30.243,-0.888 -29.465,3.529 -27.906,7.451C-26.349,11.374 -24.131,14.701 -21.252,17.431C-18.375,20.163 -14.902,22.252 -10.833,23.7C-6.764,25.148 -2.218,25.872 2.804,25.872C6.213,25.872 9.173,25.66 11.685,25.239Z" style="fill:none;fill-rule:nonzero;stroke:rgb(249,220,173);stroke-width:11.79px;"/>
                    </g>
                    <g transform="matrix(1,0,0,1,354.593,210.324)">
                        <path d="M0,-59.772C-1.1,-58.122 -1.916,-56.234 -2.447,-54.108C-2.978,-51.982 -3.244,-50.039 -3.244,-48.28C-3.244,-46.153 -2.978,-44.119 -2.447,-42.176C-1.916,-40.232 -1.1,-38.492 0,-36.952L0,-10.338C0,-8.359 0.44,-6.645 1.32,-5.197C2.2,-3.749 3.327,-2.539 4.702,-1.568C6.076,-0.596 7.616,0.128 9.32,0.604C11.025,1.08 12.702,1.319 14.352,1.319C17.651,1.319 20.593,0.814 23.177,-0.193C25.762,-1.201 27.86,-2.548 29.473,-4.235C28.739,-5.591 28.089,-7.204 27.521,-9.074C26.953,-10.943 26.669,-13.308 26.669,-16.167C26.669,-16.68 26.687,-17.34 26.724,-18.147C26.76,-18.953 26.815,-19.851 26.889,-20.841C26.962,-21.831 27.062,-22.884 27.191,-24.003C27.319,-25.121 27.475,-26.23 27.659,-27.33L26.944,-36.293C27.42,-36.585 27.934,-36.732 28.483,-36.732C29.326,-36.732 29.94,-36.411 30.326,-35.77C30.71,-35.128 30.903,-33.928 30.903,-32.168C30.903,-31.215 30.829,-30.17 30.683,-29.034C30.536,-27.897 30.38,-26.66 30.215,-25.322C30.051,-23.984 29.904,-22.545 29.776,-21.006C29.647,-19.466 29.583,-17.834 29.583,-16.112C29.583,-12.886 30.032,-10.164 30.93,-7.946C31.828,-5.728 33.038,-3.933 34.56,-2.558C36.08,-1.183 37.84,-0.193 39.838,0.412C41.836,1.017 43.935,1.319 46.134,1.319C48.224,1.319 50.194,0.979 52.045,0.302C53.896,-0.376 55.518,-1.394 56.912,-2.75C58.305,-4.106 59.404,-5.783 60.211,-7.782C61.017,-9.779 61.421,-12.079 61.421,-14.683L61.421,-15.645C61.421,-16.065 61.402,-16.423 61.366,-16.717C59.826,-17.67 58.781,-18.971 58.231,-20.621C57.682,-22.271 57.407,-24.36 57.407,-26.89C57.407,-28.649 57.434,-30.555 57.489,-32.608C57.544,-34.661 57.572,-36.512 57.572,-38.162C57.572,-42.671 56.875,-46.41 55.482,-49.379C54.088,-52.349 52.293,-54.694 50.093,-56.418C47.894,-58.14 45.428,-59.35 42.698,-60.047C39.966,-60.743 37.281,-61.091 34.642,-61.091C32.406,-61.091 30.307,-60.825 28.346,-60.294C26.384,-59.762 24.607,-59.057 23.012,-58.177C21.417,-57.297 20.024,-56.271 18.833,-55.098C17.642,-53.924 16.679,-52.697 15.946,-51.414C15.25,-51.414 14.755,-51.587 14.462,-51.936C14.168,-52.284 14.022,-52.679 14.022,-53.119C14.022,-54.108 14.828,-55.354 16.441,-56.857C15.634,-57.7 14.709,-58.397 13.665,-58.947C12.62,-59.497 11.328,-59.772 9.788,-59.772L0,-59.772Z" style="fill:none;fill-rule:nonzero;stroke:rgb(249,220,173);stroke-width:11.79px;"/>
                    </g>
                    <g transform="matrix(1,0,0,1,477.435,197.291)">
                        <path d="M0,-50.643C0,-52.953 -0.376,-54.996 -1.127,-56.774C-1.879,-58.552 -2.924,-60.055 -4.262,-61.283C-5.6,-62.511 -7.185,-63.436 -9.018,-64.06C-10.852,-64.683 -12.831,-64.995 -14.957,-64.995C-16.9,-64.995 -18.632,-64.82 -20.153,-64.473C-21.674,-64.123 -23.049,-63.647 -24.277,-63.043C-25.505,-62.438 -26.614,-61.714 -27.604,-60.871C-28.593,-60.027 -29.51,-59.111 -30.353,-58.122C-30.097,-57.572 -29.877,-56.92 -29.693,-56.169C-29.51,-55.417 -29.354,-54.648 -29.226,-53.86C-29.098,-53.071 -29.006,-52.265 -28.951,-51.44C-28.896,-50.616 -28.868,-49.854 -28.868,-49.159C-27.623,-49.159 -26.303,-49.057 -24.909,-48.856C-23.517,-48.654 -22.242,-48.379 -21.087,-48.031C-19.933,-47.683 -18.98,-47.27 -18.228,-46.794C-17.478,-46.317 -17.101,-45.786 -17.101,-45.2C-17.101,-45.016 -17.156,-44.805 -17.266,-44.567C-17.376,-44.328 -17.523,-44.118 -17.706,-43.935C-19.172,-44.667 -20.95,-45.31 -23.04,-45.859C-25.129,-46.409 -27.567,-46.684 -30.353,-46.684C-34.312,-46.684 -38.005,-46.015 -41.433,-44.677C-44.861,-43.338 -47.83,-41.387 -50.341,-38.821C-52.852,-36.255 -54.822,-33.102 -56.252,-29.363C-57.682,-25.624 -58.396,-21.353 -58.396,-16.551C-58.396,-12.775 -58.03,-9.403 -57.296,-6.434C-56.564,-3.464 -55.564,-0.833 -54.3,1.457C-53.035,3.749 -51.542,5.71 -49.818,7.341C-48.096,8.972 -46.244,10.31 -44.265,11.355C-42.285,12.399 -40.214,13.161 -38.051,13.637C-35.889,14.113 -33.726,14.352 -31.562,14.352C-30.097,14.352 -28.593,14.187 -27.054,13.857C-25.514,13.527 -24.213,13.051 -23.149,12.427C-23.883,11.841 -24.46,11.19 -24.882,10.475C-25.304,9.76 -25.514,9.147 -25.514,8.633C-25.514,7.423 -24.891,6.818 -23.645,6.818C-23.131,8.102 -22.426,9.22 -21.527,10.172C-20.629,11.127 -19.622,11.914 -18.503,12.537C-17.385,13.161 -16.194,13.618 -14.929,13.912C-13.664,14.205 -12.372,14.352 -11.052,14.352C-9.183,14.352 -7.35,14.04 -5.554,13.417C-3.758,12.794 -2.154,11.832 -0.742,10.53C0.668,9.229 1.814,7.57 2.694,5.554C3.574,3.538 4.014,1.137 4.014,-1.65L4.014,-2.612C4.014,-3.033 3.995,-3.39 3.959,-3.684C2.419,-4.637 1.375,-6.021 0.825,-7.836C0.275,-9.65 0,-11.822 0,-14.351L0,-50.643ZM-26.889,-9.513C-27.146,-9.256 -27.53,-9.128 -28.043,-9.128C-28.74,-9.128 -29.208,-9.338 -29.446,-9.76C-29.685,-10.181 -29.803,-10.869 -29.803,-11.822L-29.803,-17.431C-29.803,-19.081 -29.775,-20.473 -29.721,-21.61C-29.666,-22.746 -29.547,-23.681 -29.363,-24.414C-29.18,-25.147 -28.951,-25.624 -28.676,-25.844C-28.401,-26.064 -28.081,-26.174 -27.713,-26.174C-27.384,-26.174 -27.118,-26.119 -26.916,-26.009C-26.715,-25.899 -26.541,-25.77 -26.394,-25.624C-26.468,-25.037 -26.531,-24.487 -26.586,-23.975C-26.641,-23.46 -26.687,-22.883 -26.724,-22.242C-26.761,-21.601 -26.798,-20.849 -26.833,-19.988C-26.871,-19.126 -26.889,-18.091 -26.889,-16.881L-26.889,-9.513Z" style="fill:none;fill-rule:nonzero;stroke:rgb(249,220,173);stroke-width:11.79px;"/>
                    </g>
                    <g transform="matrix(1,0,0,1,514.937,193.057)">
                        <path d="M0,-43.66C0,-46.959 -0.303,-49.764 -0.907,-52.073C-1.512,-54.382 -2.447,-56.252 -3.712,-57.681C-4.977,-59.111 -6.59,-60.156 -8.551,-60.816C-10.512,-61.475 -12.849,-61.806 -15.562,-61.806C-16.918,-61.806 -18.256,-61.704 -19.576,-61.503C-20.895,-61.301 -22.151,-61.026 -23.342,-60.679C-24.534,-60.329 -25.616,-59.927 -26.586,-59.469C-27.558,-59.01 -28.374,-58.542 -29.033,-58.066L-29.033,-40.14C-29.033,-37.574 -28.868,-34.999 -28.539,-32.415C-28.208,-29.83 -27.723,-27.319 -27.081,-24.882C-26.44,-22.443 -25.67,-20.098 -24.772,-17.844C-23.874,-15.589 -22.875,-13.508 -21.775,-11.602C-24.194,-10.209 -26.156,-8.284 -27.659,-5.828C-29.162,-3.372 -29.913,-0.641 -29.913,2.364C-29.913,4.528 -29.492,6.571 -28.648,8.495C-27.806,10.42 -26.669,12.097 -25.239,13.527C-23.81,14.957 -22.142,16.084 -20.235,16.908C-18.33,17.734 -16.295,18.146 -14.132,18.146C-11.932,18.146 -9.862,17.734 -7.918,16.908C-5.976,16.084 -4.28,14.957 -2.832,13.527C-1.384,12.097 -0.239,10.42 0.605,8.495C1.448,6.571 1.87,4.528 1.87,2.364C1.87,0.275 1.484,-1.713 0.715,-3.602C-0.055,-5.489 -1.119,-7.148 -2.475,-8.578C-3.831,-10.008 -5.417,-11.162 -7.231,-12.042C-9.045,-12.922 -10.998,-13.435 -13.087,-13.582L-13.087,-13.802C-13.087,-14.535 -12.858,-15.057 -12.4,-15.369C-11.942,-15.68 -11.401,-15.836 -10.777,-15.836C-10.082,-15.836 -9.266,-15.707 -8.331,-15.452C-7.396,-15.195 -6.562,-14.902 -5.829,-14.572C-5.133,-16.075 -4.436,-17.733 -3.739,-19.548C-3.043,-21.363 -2.419,-23.342 -1.87,-25.487C-1.32,-27.631 -0.871,-29.922 -0.522,-32.36C-0.174,-34.797 0,-37.391 0,-40.14L0,-43.66Z" style="fill:none;fill-rule:nonzero;stroke:rgb(249,220,173);stroke-width:11.79px;"/>
                    </g>
                    <g>
                        <g transform="matrix(112.614,0,0,112.614,45.2168,117.191)">
                            <path d="M0.129,0C0.093,0 0.065,-0.009 0.045,-0.028C0.025,-0.048 0.016,-0.076 0.016,-0.115L0.016,-0.593C0.033,-0.607 0.054,-0.619 0.079,-0.627C0.104,-0.635 0.13,-0.639 0.156,-0.639C0.196,-0.639 0.229,-0.629 0.256,-0.609C0.286,-0.587 0.301,-0.557 0.301,-0.518L0.301,-0.25C0.283,-0.249 0.265,-0.244 0.247,-0.235C0.229,-0.226 0.221,-0.218 0.221,-0.208C0.221,-0.203 0.224,-0.198 0.23,-0.194C0.262,-0.221 0.31,-0.235 0.374,-0.235L0.489,-0.235C0.511,-0.197 0.521,-0.159 0.521,-0.119C0.521,-0.1 0.518,-0.078 0.511,-0.054C0.504,-0.03 0.495,-0.012 0.484,0L0.129,0Z" style="fill:rgb(46,41,79);fill-rule:nonzero;"/>
                        </g>
                        <g transform="matrix(68.4062,0,0,68.4062,106.303,117.191)">
                            <path d="M0.303,0.015C0.213,0.015 0.142,-0.01 0.09,-0.06C0.036,-0.111 0.01,-0.18 0.01,-0.267C0.01,-0.355 0.037,-0.425 0.092,-0.476C0.143,-0.524 0.207,-0.548 0.285,-0.548C0.363,-0.548 0.425,-0.526 0.472,-0.484C0.519,-0.441 0.543,-0.388 0.543,-0.326C0.543,-0.27 0.524,-0.228 0.485,-0.2C0.449,-0.173 0.4,-0.16 0.338,-0.16C0.292,-0.16 0.253,-0.169 0.221,-0.188C0.219,-0.187 0.217,-0.183 0.217,-0.178C0.217,-0.168 0.23,-0.159 0.256,-0.151C0.282,-0.142 0.311,-0.138 0.344,-0.138C0.376,-0.138 0.406,-0.142 0.433,-0.15C0.46,-0.158 0.481,-0.168 0.498,-0.18C0.505,-0.173 0.512,-0.16 0.516,-0.142C0.521,-0.123 0.523,-0.107 0.523,-0.092C0.523,-0.076 0.522,-0.063 0.519,-0.051C0.494,-0.03 0.468,-0.014 0.441,-0.005C0.403,0.008 0.357,0.015 0.303,0.015ZM0.297,-0.315C0.313,-0.315 0.321,-0.322 0.321,-0.334C0.321,-0.346 0.313,-0.352 0.295,-0.352C0.278,-0.352 0.268,-0.342 0.266,-0.324C0.275,-0.318 0.285,-0.315 0.297,-0.315Z" style="fill:rgb(46,41,79);fill-rule:nonzero;"/>
                        </g>
                        <g transform="matrix(68.4062,0,0,68.4062,144.879,117.191)">
                            <path d="M0.072,-0.309L0.103,-0.309C0.119,-0.309 0.127,-0.314 0.127,-0.325C0.127,-0.326 0.127,-0.328 0.126,-0.331L0.017,-0.331C0.009,-0.353 0.006,-0.379 0.006,-0.407C0.006,-0.435 0.008,-0.458 0.012,-0.476C0.031,-0.487 0.056,-0.505 0.089,-0.529C0.098,-0.551 0.11,-0.587 0.125,-0.635C0.126,-0.641 0.129,-0.648 0.131,-0.654C0.157,-0.66 0.186,-0.664 0.218,-0.664C0.251,-0.664 0.283,-0.66 0.314,-0.653L0.314,-0.534L0.399,-0.534C0.418,-0.505 0.427,-0.471 0.427,-0.433C0.427,-0.415 0.425,-0.397 0.42,-0.378C0.415,-0.36 0.408,-0.344 0.399,-0.331L0.329,-0.331L0.329,-0.257C0.329,-0.216 0.347,-0.195 0.381,-0.195L0.402,-0.195C0.409,-0.17 0.413,-0.149 0.413,-0.13C0.413,-0.085 0.399,-0.051 0.37,-0.027C0.342,-0.003 0.301,0.009 0.248,0.009C0.194,0.009 0.152,-0.006 0.12,-0.036C0.088,-0.066 0.072,-0.11 0.072,-0.167L0.072,-0.309Z" style="fill:rgb(46,41,79);fill-rule:nonzero;"/>
                        </g>
                        <g transform="matrix(68.4062,0,0,68.4062,175.94,117.191)">
                            <path d="M0.277,-0.383C0.268,-0.38 0.264,-0.375 0.264,-0.368L0.264,-0.365C0.264,-0.364 0.264,-0.363 0.265,-0.362C0.268,-0.363 0.273,-0.363 0.279,-0.363L0.291,-0.363C0.328,-0.363 0.362,-0.357 0.395,-0.346C0.427,-0.335 0.454,-0.317 0.474,-0.292C0.497,-0.264 0.508,-0.229 0.508,-0.186C0.508,-0.12 0.485,-0.069 0.439,-0.036C0.394,-0.002 0.332,0.015 0.255,0.015C0.179,0.015 0.118,0.002 0.075,-0.023C0.031,-0.048 0.01,-0.086 0.01,-0.135C0.01,-0.153 0.014,-0.17 0.021,-0.185C0.029,-0.2 0.038,-0.211 0.048,-0.217C0.066,-0.202 0.092,-0.189 0.126,-0.178C0.16,-0.167 0.196,-0.162 0.234,-0.162C0.249,-0.162 0.257,-0.166 0.257,-0.174C0.257,-0.178 0.256,-0.181 0.255,-0.184C0.253,-0.184 0.25,-0.184 0.247,-0.184L0.242,-0.184C0.173,-0.184 0.118,-0.197 0.076,-0.225C0.029,-0.256 0.006,-0.299 0.006,-0.355C0.006,-0.412 0.027,-0.457 0.069,-0.492C0.115,-0.531 0.179,-0.55 0.261,-0.55C0.301,-0.55 0.338,-0.546 0.373,-0.537C0.407,-0.529 0.437,-0.517 0.462,-0.503C0.468,-0.49 0.471,-0.47 0.471,-0.444C0.471,-0.405 0.46,-0.374 0.438,-0.353C0.422,-0.362 0.402,-0.37 0.378,-0.376C0.354,-0.382 0.332,-0.385 0.313,-0.385C0.294,-0.385 0.282,-0.384 0.277,-0.383Z" style="fill:rgb(46,41,79);fill-rule:nonzero;"/>
                        </g>
                        <g transform="matrix(112.614,0,0,112.614,229.694,117.191)">
                            <path d="M0.289,-0.328C0.29,-0.327 0.294,-0.326 0.3,-0.326C0.306,-0.326 0.311,-0.329 0.314,-0.333C0.317,-0.338 0.319,-0.346 0.319,-0.357L0.319,-0.395C0.319,-0.406 0.317,-0.415 0.315,-0.42C0.312,-0.425 0.307,-0.427 0.301,-0.427C0.295,-0.427 0.29,-0.427 0.288,-0.425C0.288,-0.424 0.289,-0.421 0.289,-0.417L0.289,-0.328ZM0.301,-0.107L0.301,-0.032C0.286,-0.02 0.266,-0.01 0.24,-0.003C0.214,0.005 0.187,0.009 0.159,0.009C0.118,0.009 0.085,0.001 0.06,-0.015C0.03,-0.033 0.016,-0.058 0.016,-0.092L0.016,-0.556C0.016,-0.567 0.023,-0.577 0.037,-0.587C0.051,-0.598 0.071,-0.607 0.096,-0.616C0.149,-0.634 0.211,-0.643 0.28,-0.643C0.375,-0.643 0.451,-0.619 0.508,-0.572C0.564,-0.524 0.593,-0.46 0.593,-0.38C0.593,-0.3 0.567,-0.237 0.516,-0.193C0.467,-0.151 0.399,-0.129 0.312,-0.129C0.292,-0.129 0.27,-0.132 0.248,-0.136C0.225,-0.141 0.21,-0.145 0.202,-0.149C0.2,-0.146 0.198,-0.143 0.198,-0.138C0.198,-0.122 0.232,-0.111 0.301,-0.107Z" style="fill:rgb(46,41,79);fill-rule:nonzero;"/>
                        </g>
                        <g transform="matrix(68.4062,0,0,68.4062,297.984,117.191)">
                            <path d="M0.267,-0.589L0.267,-0.246C0.267,-0.198 0.278,-0.166 0.302,-0.151C0.302,-0.15 0.302,-0.147 0.302,-0.142L0.302,-0.133C0.302,-0.087 0.29,-0.051 0.267,-0.027C0.243,-0.003 0.21,0.009 0.167,0.009C0.123,0.009 0.089,-0.003 0.063,-0.027C0.033,-0.056 0.018,-0.099 0.018,-0.157L0.018,-0.665C0.052,-0.685 0.091,-0.696 0.135,-0.696C0.18,-0.696 0.212,-0.686 0.234,-0.668C0.256,-0.649 0.267,-0.623 0.267,-0.589Z" style="fill:rgb(46,41,79);fill-rule:nonzero;"/>
                        </g>
                        <g transform="matrix(68.4062,0,0,68.4062,320.494,117.191)">
                            <path d="M0.509,-0.242C0.509,-0.218 0.512,-0.199 0.517,-0.185C0.522,-0.171 0.531,-0.16 0.544,-0.151C0.545,-0.15 0.545,-0.147 0.545,-0.142L0.545,-0.133C0.545,-0.087 0.531,-0.051 0.503,-0.025C0.478,-0.003 0.448,0.009 0.411,0.009C0.386,0.009 0.364,0.003 0.343,-0.009C0.323,-0.021 0.308,-0.037 0.299,-0.06C0.288,-0.06 0.283,-0.054 0.283,-0.043C0.283,-0.034 0.288,-0.024 0.3,-0.013C0.279,0.002 0.247,0.009 0.204,0.009C0.144,0.009 0.096,-0.008 0.06,-0.04C0.024,-0.073 0.006,-0.119 0.006,-0.177C0.006,-0.236 0.025,-0.282 0.063,-0.314C0.098,-0.343 0.143,-0.357 0.198,-0.357C0.217,-0.357 0.235,-0.356 0.253,-0.354C0.265,-0.351 0.271,-0.35 0.272,-0.35C0.273,-0.353 0.273,-0.356 0.273,-0.358C0.273,-0.366 0.266,-0.372 0.252,-0.375C0.238,-0.378 0.219,-0.379 0.196,-0.379C0.147,-0.379 0.105,-0.369 0.07,-0.35C0.054,-0.377 0.046,-0.411 0.046,-0.452C0.046,-0.476 0.049,-0.493 0.055,-0.504C0.078,-0.515 0.108,-0.525 0.144,-0.533C0.18,-0.541 0.218,-0.545 0.258,-0.545C0.341,-0.545 0.403,-0.527 0.446,-0.491C0.488,-0.455 0.509,-0.404 0.509,-0.337L0.509,-0.242ZM0.256,-0.218C0.242,-0.218 0.235,-0.212 0.235,-0.199C0.235,-0.188 0.243,-0.182 0.259,-0.182C0.27,-0.182 0.278,-0.184 0.284,-0.19C0.289,-0.195 0.292,-0.204 0.292,-0.218L0.256,-0.218Z" style="fill:rgb(46,41,79);fill-rule:nonzero;"/>
                        </g>
                        <g transform="matrix(68.4062,0,0,68.4062,359.003,117.191)">
                            <path d="M0.254,-0.247L0.254,-0.235C0.254,-0.23 0.254,-0.226 0.254,-0.224C0.258,-0.222 0.261,-0.222 0.265,-0.222C0.275,-0.222 0.279,-0.229 0.279,-0.243C0.279,-0.291 0.282,-0.341 0.287,-0.392C0.293,-0.444 0.299,-0.484 0.305,-0.512C0.331,-0.531 0.366,-0.541 0.41,-0.541C0.454,-0.541 0.488,-0.532 0.512,-0.515C0.536,-0.498 0.548,-0.477 0.548,-0.453C0.548,-0.443 0.542,-0.401 0.53,-0.328C0.516,-0.254 0.499,-0.175 0.479,-0.093C0.474,-0.076 0.467,-0.053 0.456,-0.023C0.445,0.007 0.433,0.032 0.421,0.052C0.382,0.113 0.334,0.151 0.277,0.166C0.251,0.173 0.224,0.176 0.197,0.176C0.144,0.176 0.104,0.163 0.075,0.137C0.049,0.114 0.036,0.085 0.036,0.05C0.036,0.015 0.046,-0.017 0.066,-0.048C0.071,-0.049 0.08,-0.05 0.093,-0.05C0.106,-0.05 0.123,-0.048 0.142,-0.045C0.196,-0.035 0.224,-0.03 0.225,-0.03C0.227,-0.029 0.229,-0.029 0.232,-0.029C0.235,-0.028 0.239,-0.028 0.243,-0.028C0.248,-0.028 0.252,-0.029 0.255,-0.032C0.258,-0.034 0.26,-0.04 0.26,-0.047L0.145,-0.069C0.116,-0.081 0.092,-0.106 0.071,-0.143C0.045,-0.189 0.028,-0.252 0.019,-0.331C-0.003,-0.359 -0.014,-0.393 -0.014,-0.432C-0.014,-0.471 -0.004,-0.505 0.016,-0.534L0.141,-0.534C0.183,-0.534 0.215,-0.522 0.235,-0.498C0.251,-0.48 0.26,-0.453 0.265,-0.419C0.257,-0.362 0.254,-0.305 0.254,-0.247Z" style="fill:rgb(46,41,79);fill-rule:nonzero;"/>
                        </g>
                        <g transform="matrix(112.614,0,0,112.614,45.2168,207.282)">
                            <path d="M0.289,-0.328C0.29,-0.327 0.294,-0.326 0.3,-0.326C0.306,-0.326 0.311,-0.329 0.314,-0.333C0.317,-0.338 0.319,-0.346 0.319,-0.357L0.319,-0.395C0.319,-0.406 0.317,-0.415 0.315,-0.42C0.312,-0.425 0.307,-0.427 0.301,-0.427C0.295,-0.427 0.29,-0.427 0.288,-0.425C0.288,-0.424 0.289,-0.421 0.289,-0.417L0.289,-0.328ZM0.301,-0.107L0.301,-0.032C0.286,-0.02 0.266,-0.01 0.24,-0.003C0.214,0.005 0.187,0.009 0.159,0.009C0.118,0.009 0.085,0.001 0.06,-0.015C0.03,-0.033 0.016,-0.058 0.016,-0.092L0.016,-0.556C0.016,-0.567 0.023,-0.577 0.037,-0.587C0.051,-0.598 0.071,-0.607 0.096,-0.616C0.149,-0.634 0.211,-0.643 0.28,-0.643C0.375,-0.643 0.451,-0.619 0.508,-0.572C0.564,-0.524 0.593,-0.46 0.593,-0.38C0.593,-0.3 0.567,-0.237 0.516,-0.193C0.467,-0.151 0.399,-0.129 0.312,-0.129C0.292,-0.129 0.27,-0.132 0.248,-0.136C0.225,-0.141 0.21,-0.145 0.202,-0.149C0.2,-0.146 0.198,-0.143 0.198,-0.138C0.198,-0.122 0.232,-0.111 0.301,-0.107Z" style="fill:rgb(46,41,79);fill-rule:nonzero;"/>
                        </g>
                        <g transform="matrix(112.614,0,0,112.614,116.804,207.282)">
                            <path d="M0.154,0.006C0.115,0.006 0.084,-0.001 0.061,-0.015C0.035,-0.029 0.022,-0.051 0.022,-0.08L0.022,-0.331C0.003,-0.358 -0.006,-0.391 -0.006,-0.431C-0.006,-0.47 0.003,-0.505 0.022,-0.534L0.097,-0.534C0.136,-0.534 0.163,-0.521 0.18,-0.497C0.172,-0.487 0.164,-0.476 0.158,-0.462C0.152,-0.448 0.149,-0.438 0.149,-0.432C0.149,-0.426 0.15,-0.421 0.154,-0.418C0.157,-0.416 0.161,-0.414 0.167,-0.414C0.178,-0.459 0.2,-0.493 0.232,-0.514C0.258,-0.532 0.291,-0.541 0.33,-0.541C0.378,-0.541 0.416,-0.53 0.443,-0.51C0.453,-0.484 0.458,-0.452 0.458,-0.414C0.458,-0.377 0.45,-0.343 0.435,-0.312C0.424,-0.306 0.409,-0.301 0.389,-0.297C0.37,-0.293 0.35,-0.291 0.33,-0.291C0.31,-0.291 0.292,-0.292 0.277,-0.295C0.261,-0.298 0.249,-0.3 0.242,-0.303C0.24,-0.3 0.238,-0.296 0.238,-0.292C0.238,-0.287 0.241,-0.283 0.248,-0.281C0.254,-0.278 0.265,-0.275 0.28,-0.272L0.28,-0.027C0.244,-0.005 0.202,0.006 0.154,0.006Z" style="fill:rgb(46,41,79);fill-rule:nonzero;"/>
                        </g>
                        <g transform="matrix(112.614,0,0,112.614,170.52,207.282)">
                            <path d="M0.303,0.015C0.213,0.015 0.142,-0.01 0.09,-0.06C0.036,-0.111 0.01,-0.18 0.01,-0.267C0.01,-0.355 0.037,-0.425 0.092,-0.476C0.143,-0.524 0.207,-0.548 0.285,-0.548C0.363,-0.548 0.425,-0.526 0.472,-0.484C0.519,-0.441 0.543,-0.388 0.543,-0.326C0.543,-0.27 0.524,-0.228 0.485,-0.2C0.449,-0.173 0.4,-0.16 0.338,-0.16C0.292,-0.16 0.253,-0.169 0.221,-0.188C0.219,-0.187 0.217,-0.183 0.217,-0.178C0.217,-0.168 0.23,-0.159 0.256,-0.151C0.282,-0.142 0.311,-0.138 0.344,-0.138C0.376,-0.138 0.406,-0.142 0.433,-0.15C0.46,-0.158 0.481,-0.168 0.498,-0.18C0.505,-0.173 0.512,-0.16 0.516,-0.142C0.521,-0.123 0.523,-0.107 0.523,-0.092C0.523,-0.076 0.522,-0.063 0.519,-0.051C0.494,-0.03 0.468,-0.014 0.441,-0.005C0.403,0.008 0.357,0.015 0.303,0.015ZM0.297,-0.315C0.313,-0.315 0.321,-0.322 0.321,-0.334C0.321,-0.346 0.313,-0.352 0.295,-0.352C0.278,-0.352 0.268,-0.342 0.266,-0.324C0.275,-0.318 0.285,-0.315 0.297,-0.315Z" style="fill:rgb(46,41,79);fill-rule:nonzero;"/>
                        </g>
                        <g transform="matrix(112.614,0,0,112.614,234.024,207.282)">
                            <path d="M0.072,-0.309L0.103,-0.309C0.119,-0.309 0.127,-0.314 0.127,-0.325C0.127,-0.326 0.127,-0.328 0.126,-0.331L0.017,-0.331C0.009,-0.353 0.006,-0.379 0.006,-0.407C0.006,-0.435 0.008,-0.458 0.012,-0.476C0.031,-0.487 0.056,-0.505 0.089,-0.529C0.098,-0.551 0.11,-0.587 0.125,-0.635C0.126,-0.641 0.129,-0.648 0.131,-0.654C0.157,-0.66 0.186,-0.664 0.218,-0.664C0.251,-0.664 0.283,-0.66 0.314,-0.653L0.314,-0.534L0.399,-0.534C0.418,-0.505 0.427,-0.471 0.427,-0.433C0.427,-0.415 0.425,-0.397 0.42,-0.378C0.415,-0.36 0.408,-0.344 0.399,-0.331L0.329,-0.331L0.329,-0.257C0.329,-0.216 0.347,-0.195 0.381,-0.195L0.402,-0.195C0.409,-0.17 0.413,-0.149 0.413,-0.13C0.413,-0.085 0.399,-0.051 0.37,-0.027C0.342,-0.003 0.301,0.009 0.248,0.009C0.194,0.009 0.152,-0.006 0.12,-0.036C0.088,-0.066 0.072,-0.11 0.072,-0.167L0.072,-0.309Z" style="fill:rgb(46,41,79);fill-rule:nonzero;"/>
                        </g>
                        <g transform="matrix(112.614,0,0,112.614,283.506,207.282)">
                            <path d="M0.303,0.015C0.213,0.015 0.142,-0.01 0.09,-0.06C0.036,-0.111 0.01,-0.18 0.01,-0.267C0.01,-0.355 0.037,-0.425 0.092,-0.476C0.143,-0.524 0.207,-0.548 0.285,-0.548C0.363,-0.548 0.425,-0.526 0.472,-0.484C0.519,-0.441 0.543,-0.388 0.543,-0.326C0.543,-0.27 0.524,-0.228 0.485,-0.2C0.449,-0.173 0.4,-0.16 0.338,-0.16C0.292,-0.16 0.253,-0.169 0.221,-0.188C0.219,-0.187 0.217,-0.183 0.217,-0.178C0.217,-0.168 0.23,-0.159 0.256,-0.151C0.282,-0.142 0.311,-0.138 0.344,-0.138C0.376,-0.138 0.406,-0.142 0.433,-0.15C0.46,-0.158 0.481,-0.168 0.498,-0.18C0.505,-0.173 0.512,-0.16 0.516,-0.142C0.521,-0.123 0.523,-0.107 0.523,-0.092C0.523,-0.076 0.522,-0.063 0.519,-0.051C0.494,-0.03 0.468,-0.014 0.441,-0.005C0.403,0.008 0.357,0.015 0.303,0.015ZM0.297,-0.315C0.313,-0.315 0.321,-0.322 0.321,-0.334C0.321,-0.346 0.313,-0.352 0.295,-0.352C0.278,-0.352 0.268,-0.342 0.266,-0.324C0.275,-0.318 0.285,-0.315 0.297,-0.315Z" style="fill:rgb(46,41,79);fill-rule:nonzero;"/>
                        </g>
                        <g transform="matrix(112.614,0,0,112.614,348.66,207.282)">
                            <path d="M0.532,-0.242C0.532,-0.218 0.535,-0.199 0.54,-0.185C0.545,-0.171 0.554,-0.16 0.567,-0.151C0.568,-0.15 0.568,-0.147 0.568,-0.142L0.568,-0.133C0.568,-0.088 0.555,-0.053 0.529,-0.029C0.503,-0.004 0.47,0.009 0.429,0.009C0.388,0.009 0.355,-0.003 0.33,-0.026C0.3,-0.052 0.285,-0.092 0.285,-0.146C0.285,-0.169 0.286,-0.189 0.288,-0.206C0.29,-0.224 0.292,-0.236 0.293,-0.244C0.294,-0.251 0.294,-0.258 0.295,-0.265C0.296,-0.271 0.297,-0.281 0.297,-0.293C0.297,-0.306 0.295,-0.315 0.292,-0.321C0.288,-0.326 0.284,-0.329 0.278,-0.329C0.272,-0.329 0.266,-0.328 0.262,-0.325L0.268,-0.246C0.262,-0.213 0.259,-0.178 0.259,-0.141C0.259,-0.104 0.268,-0.071 0.284,-0.041C0.252,-0.008 0.208,0.009 0.15,0.009C0.117,0.009 0.089,0 0.064,-0.017C0.036,-0.037 0.022,-0.063 0.022,-0.095L0.022,-0.331C0.003,-0.358 -0.006,-0.391 -0.006,-0.431C-0.006,-0.47 0.003,-0.505 0.022,-0.534L0.109,-0.534C0.132,-0.534 0.152,-0.525 0.168,-0.508C0.154,-0.494 0.147,-0.483 0.147,-0.475C0.147,-0.465 0.153,-0.459 0.164,-0.459C0.178,-0.484 0.2,-0.505 0.23,-0.521C0.259,-0.537 0.293,-0.545 0.33,-0.545C0.386,-0.545 0.432,-0.532 0.467,-0.504C0.512,-0.469 0.534,-0.415 0.534,-0.342L0.532,-0.242Z" style="fill:rgb(46,41,79);fill-rule:nonzero;"/>
                        </g>
                        <g transform="matrix(112.614,0,0,112.614,414.528,207.282)">
                            <path d="M0.294,-0.346C0.291,-0.349 0.287,-0.351 0.282,-0.351C0.275,-0.351 0.27,-0.346 0.268,-0.336C0.265,-0.325 0.264,-0.305 0.264,-0.273L0.264,-0.224C0.264,-0.215 0.265,-0.209 0.267,-0.205C0.269,-0.201 0.273,-0.2 0.278,-0.2C0.284,-0.2 0.287,-0.201 0.29,-0.203L0.29,-0.269C0.29,-0.3 0.291,-0.326 0.294,-0.346ZM0.259,-0.635C0.276,-0.655 0.295,-0.67 0.316,-0.68C0.337,-0.691 0.363,-0.696 0.396,-0.696C0.435,-0.696 0.466,-0.685 0.491,-0.663C0.516,-0.64 0.528,-0.608 0.528,-0.568L0.528,-0.246C0.528,-0.198 0.54,-0.166 0.563,-0.151C0.564,-0.15 0.564,-0.147 0.564,-0.142L0.564,-0.133C0.564,-0.087 0.55,-0.051 0.522,-0.025C0.497,-0.003 0.467,0.009 0.43,0.009C0.405,0.009 0.383,0.003 0.364,-0.007C0.342,-0.02 0.327,-0.037 0.318,-0.058C0.307,-0.058 0.302,-0.053 0.302,-0.042C0.302,-0.037 0.304,-0.031 0.307,-0.025C0.311,-0.019 0.316,-0.013 0.323,-0.008C0.304,0.003 0.279,0.009 0.248,0.009C0.207,0.009 0.168,-0.001 0.132,-0.02C0.096,-0.039 0.068,-0.068 0.046,-0.106C0.022,-0.15 0.01,-0.203 0.01,-0.266C0.01,-0.349 0.033,-0.414 0.08,-0.462C0.127,-0.509 0.186,-0.533 0.259,-0.533C0.302,-0.533 0.339,-0.525 0.371,-0.509C0.375,-0.512 0.376,-0.516 0.376,-0.52C0.376,-0.53 0.365,-0.538 0.342,-0.545C0.319,-0.552 0.295,-0.555 0.272,-0.555C0.272,-0.588 0.268,-0.615 0.259,-0.635Z" style="fill:rgb(46,41,79);fill-rule:nonzero;"/>
                        </g>
                        <g transform="matrix(112.614,0,0,112.614,481.606,207.282)">
                            <path d="M0.214,-0.286C0.197,-0.293 0.182,-0.297 0.169,-0.297C0.156,-0.297 0.149,-0.291 0.149,-0.279L0.149,-0.277C0.187,-0.274 0.218,-0.259 0.244,-0.232C0.269,-0.205 0.282,-0.172 0.282,-0.135C0.282,-0.097 0.268,-0.064 0.241,-0.036C0.213,-0.009 0.179,0.005 0.141,0.005C0.102,0.005 0.069,-0.009 0.041,-0.036C0.014,-0.064 0,-0.097 0,-0.135C0,-0.161 0.007,-0.185 0.02,-0.207C0.033,-0.229 0.05,-0.247 0.072,-0.259C0.053,-0.293 0.037,-0.332 0.025,-0.376C0.014,-0.42 0.008,-0.465 0.008,-0.513L0.008,-0.672C0.021,-0.682 0.039,-0.69 0.061,-0.696C0.083,-0.702 0.105,-0.705 0.127,-0.705C0.176,-0.705 0.212,-0.693 0.233,-0.668C0.255,-0.644 0.266,-0.602 0.266,-0.544L0.266,-0.513C0.266,-0.438 0.248,-0.362 0.214,-0.286Z" style="fill:rgb(46,41,79);fill-rule:nonzero;"/>
                        </g>
                        <g transform="matrix(24.8832,0,0,24.8832,45.2168,265.625)">
                            <path d="M0.533,-0.183L0.21,-0.183L0.126,-0L0.004,-0L0.377,-0.801L0.737,-0L0.612,-0L0.533,-0.183ZM0.487,-0.29L0.375,-0.546L0.258,-0.29L0.487,-0.29Z" style="fill:rgb(230,230,230);fill-rule:nonzero;"/>
                        </g>
                        <g transform="matrix(24.8832,0,0,24.8832,63.6466,265.625)">
                            <path d="M0.069,-0.476L0.18,-0.476L0.18,-0.432C0.218,-0.47 0.261,-0.489 0.31,-0.489C0.365,-0.489 0.408,-0.471 0.439,-0.437C0.466,-0.407 0.479,-0.359 0.479,-0.292L0.479,-0L0.369,-0L0.369,-0.266C0.369,-0.313 0.362,-0.345 0.349,-0.363C0.336,-0.381 0.313,-0.39 0.28,-0.39C0.243,-0.39 0.217,-0.378 0.202,-0.354C0.187,-0.33 0.18,-0.289 0.18,-0.229L0.18,-0L0.069,-0L0.069,-0.476Z" style="fill:rgb(230,230,230);fill-rule:nonzero;"/>
                        </g>
                        <g transform="matrix(24.8832,0,0,24.8832,84.9706,265.625)">
                            <path d="M0.053,-0.38C0.053,-0.486 0.092,-0.578 0.169,-0.654C0.247,-0.73 0.34,-0.768 0.449,-0.768C0.556,-0.768 0.648,-0.73 0.725,-0.653C0.802,-0.576 0.841,-0.484 0.841,-0.376C0.841,-0.268 0.802,-0.176 0.725,-0.1C0.647,-0.024 0.553,0.014 0.443,0.014C0.346,0.014 0.258,-0.02 0.181,-0.087C0.095,-0.162 0.053,-0.26 0.053,-0.38ZM0.167,-0.379C0.167,-0.296 0.195,-0.227 0.251,-0.173C0.307,-0.12 0.371,-0.093 0.444,-0.093C0.523,-0.093 0.59,-0.12 0.645,-0.175C0.699,-0.23 0.726,-0.298 0.726,-0.377C0.726,-0.457 0.699,-0.525 0.646,-0.579C0.592,-0.634 0.526,-0.661 0.447,-0.661C0.369,-0.661 0.303,-0.634 0.249,-0.579C0.194,-0.525 0.167,-0.458 0.167,-0.379Z" style="fill:rgb(230,230,230);fill-rule:nonzero;"/>
                        </g>
                        <g transform="matrix(24.8832,0,0,24.8832,107.203,265.625)">
                            <path d="M0.069,-0.476L0.18,-0.476L0.18,-0.432C0.218,-0.47 0.261,-0.489 0.31,-0.489C0.365,-0.489 0.408,-0.471 0.439,-0.437C0.466,-0.407 0.479,-0.359 0.479,-0.292L0.479,-0L0.369,-0L0.369,-0.266C0.369,-0.313 0.362,-0.345 0.349,-0.363C0.336,-0.381 0.313,-0.39 0.28,-0.39C0.243,-0.39 0.217,-0.378 0.202,-0.354C0.187,-0.33 0.18,-0.289 0.18,-0.229L0.18,-0L0.069,-0L0.069,-0.476Z" style="fill:rgb(230,230,230);fill-rule:nonzero;"/>
                        </g>
                        <g transform="matrix(24.8832,0,0,24.8832,120.846,265.625)">
                            <rect x="0.069" y="-0.825" width="0.11" height="0.825" style="fill:rgb(230,230,230);fill-rule:nonzero;"/>
                        </g>
                        <g transform="matrix(24.8832,0,0,24.8832,127.041,265.625)">
                            <path d="M0.179,-0.476L0.179,-0L0.069,-0L0.069,-0.476L0.179,-0.476ZM0.053,-0.673C0.053,-0.693 0.06,-0.709 0.074,-0.723C0.088,-0.737 0.104,-0.744 0.124,-0.744C0.144,-0.744 0.161,-0.737 0.175,-0.723C0.189,-0.709 0.196,-0.693 0.196,-0.673C0.196,-0.653 0.189,-0.636 0.175,-0.622C0.161,-0.608 0.144,-0.601 0.125,-0.601C0.105,-0.601 0.088,-0.608 0.074,-0.622C0.06,-0.636 0.053,-0.653 0.053,-0.673Z" style="fill:rgb(230,230,230);fill-rule:nonzero;"/>
                        </g>
                        <g transform="matrix(24.8832,0,0,24.8832,133.235,265.625)">
                            <path d="M0.069,-0.476L0.18,-0.476L0.18,-0.432C0.218,-0.47 0.261,-0.489 0.31,-0.489C0.365,-0.489 0.408,-0.471 0.439,-0.437C0.466,-0.407 0.479,-0.359 0.479,-0.292L0.479,-0L0.369,-0L0.369,-0.266C0.369,-0.313 0.362,-0.345 0.349,-0.363C0.336,-0.381 0.313,-0.39 0.28,-0.39C0.243,-0.39 0.217,-0.378 0.202,-0.354C0.187,-0.33 0.18,-0.289 0.18,-0.229L0.18,-0L0.069,-0L0.069,-0.476Z" style="fill:rgb(230,230,230);fill-rule:nonzero;"/>
                        </g>
                        <g transform="matrix(24.8832,0,0,24.8832,146.878,265.625)">
                            <path d="M0.502,-0.212L0.162,-0.212C0.165,-0.173 0.177,-0.142 0.2,-0.119C0.222,-0.096 0.251,-0.084 0.286,-0.084C0.313,-0.084 0.336,-0.091 0.354,-0.104C0.372,-0.117 0.392,-0.141 0.414,-0.176L0.507,-0.125C0.493,-0.1 0.477,-0.079 0.461,-0.062C0.445,-0.044 0.428,-0.03 0.41,-0.019C0.392,-0.008 0.372,0.001 0.351,0.006C0.33,0.011 0.307,0.014 0.282,0.014C0.211,0.014 0.154,-0.009 0.111,-0.055C0.068,-0.101 0.047,-0.161 0.047,-0.237C0.047,-0.313 0.068,-0.373 0.109,-0.42C0.151,-0.466 0.207,-0.489 0.276,-0.489C0.346,-0.489 0.402,-0.466 0.442,-0.422C0.483,-0.378 0.503,-0.316 0.503,-0.238L0.502,-0.212ZM0.39,-0.302C0.374,-0.36 0.337,-0.39 0.279,-0.39C0.265,-0.39 0.253,-0.388 0.241,-0.384C0.229,-0.379 0.219,-0.374 0.209,-0.366C0.2,-0.358 0.191,-0.349 0.185,-0.338C0.178,-0.328 0.173,-0.315 0.169,-0.302L0.39,-0.302Z" style="fill:rgb(230,230,230);fill-rule:nonzero;"/>
                        </g>
                        <g transform="matrix(24.8832,0,0,24.8832,168.324,265.625)">
                            <path d="M0.647,-0.713L0.647,-0.579C0.582,-0.634 0.514,-0.661 0.443,-0.661C0.366,-0.661 0.301,-0.633 0.248,-0.578C0.194,-0.522 0.167,-0.455 0.167,-0.375C0.167,-0.295 0.194,-0.229 0.248,-0.174C0.301,-0.12 0.366,-0.093 0.444,-0.093C0.484,-0.093 0.518,-0.099 0.546,-0.112C0.562,-0.119 0.578,-0.128 0.594,-0.139C0.611,-0.15 0.629,-0.163 0.647,-0.179L0.647,-0.042C0.582,-0.005 0.514,0.014 0.442,0.014C0.335,0.014 0.243,-0.024 0.167,-0.099C0.091,-0.175 0.053,-0.266 0.053,-0.374C0.053,-0.47 0.084,-0.555 0.148,-0.63C0.226,-0.722 0.327,-0.769 0.451,-0.769C0.519,-0.769 0.584,-0.75 0.647,-0.713Z" style="fill:rgb(230,230,230);fill-rule:nonzero;"/>
                        </g>
                        <g transform="matrix(24.8832,0,0,24.8832,185.757,265.625)">
                            <path d="M0.42,-0.476L0.53,-0.476L0.53,-0L0.42,-0L0.42,-0.05C0.375,-0.007 0.326,0.014 0.274,0.014C0.208,0.014 0.154,-0.01 0.111,-0.058C0.068,-0.106 0.047,-0.167 0.047,-0.239C0.047,-0.311 0.068,-0.37 0.111,-0.417C0.153,-0.465 0.207,-0.489 0.271,-0.489C0.326,-0.489 0.376,-0.466 0.42,-0.42L0.42,-0.476ZM0.159,-0.239C0.159,-0.194 0.171,-0.157 0.196,-0.128C0.221,-0.099 0.252,-0.084 0.291,-0.084C0.331,-0.084 0.364,-0.098 0.389,-0.126C0.414,-0.155 0.427,-0.192 0.427,-0.237C0.427,-0.281 0.414,-0.318 0.389,-0.347C0.364,-0.375 0.332,-0.39 0.292,-0.39C0.254,-0.39 0.222,-0.375 0.197,-0.347C0.172,-0.318 0.159,-0.282 0.159,-0.239Z" style="fill:rgb(230,230,230);fill-rule:nonzero;"/>
                        </g>
                        <g transform="matrix(24.8832,0,0,24.8832,200.676,265.625)">
                            <path d="M0.179,0.259L0.069,0.259L0.069,-0.476L0.179,-0.476L0.179,-0.424C0.222,-0.467 0.272,-0.489 0.327,-0.489C0.392,-0.489 0.446,-0.465 0.488,-0.417C0.531,-0.369 0.553,-0.308 0.553,-0.235C0.553,-0.164 0.531,-0.105 0.489,-0.057C0.446,-0.01 0.393,0.014 0.329,0.014C0.273,0.014 0.223,-0.009 0.179,-0.053L0.179,0.259ZM0.44,-0.235C0.44,-0.28 0.428,-0.318 0.403,-0.346C0.378,-0.375 0.347,-0.39 0.309,-0.39C0.268,-0.39 0.236,-0.376 0.21,-0.348C0.185,-0.32 0.173,-0.283 0.173,-0.237C0.173,-0.193 0.185,-0.156 0.21,-0.127C0.235,-0.099 0.268,-0.084 0.308,-0.084C0.346,-0.084 0.378,-0.099 0.402,-0.127C0.428,-0.156 0.44,-0.192 0.44,-0.235Z" style="fill:rgb(230,230,230);fill-rule:nonzero;"/>
                        </g>
                        <g transform="matrix(24.8832,0,0,24.8832,215.813,265.625)">
                            <path d="M0.183,-0.373L0.183,-0L0.073,-0L0.073,-0.373L0.026,-0.373L0.026,-0.476L0.073,-0.476L0.073,-0.65L0.183,-0.65L0.183,-0.476L0.268,-0.476L0.268,-0.373L0.183,-0.373Z" style="fill:rgb(230,230,230);fill-rule:nonzero;"/>
                        </g>
                        <g transform="matrix(24.8832,0,0,24.8832,222.615,265.625)">
                            <path d="M0.179,-0.476L0.179,-0L0.069,-0L0.069,-0.476L0.179,-0.476ZM0.053,-0.673C0.053,-0.693 0.06,-0.709 0.074,-0.723C0.088,-0.737 0.104,-0.744 0.124,-0.744C0.144,-0.744 0.161,-0.737 0.175,-0.723C0.189,-0.709 0.196,-0.693 0.196,-0.673C0.196,-0.653 0.189,-0.636 0.175,-0.622C0.161,-0.608 0.144,-0.601 0.125,-0.601C0.105,-0.601 0.088,-0.608 0.074,-0.622C0.06,-0.636 0.053,-0.653 0.053,-0.673Z" style="fill:rgb(230,230,230);fill-rule:nonzero;"/>
                        </g>
                        <g transform="matrix(24.8832,0,0,24.8832,228.81,265.625)">
                            <path d="M0.047,-0.241C0.047,-0.31 0.071,-0.368 0.121,-0.417C0.17,-0.465 0.23,-0.489 0.3,-0.489C0.371,-0.489 0.431,-0.465 0.481,-0.416C0.53,-0.368 0.554,-0.308 0.554,-0.237C0.554,-0.166 0.53,-0.106 0.48,-0.058C0.431,-0.01 0.37,0.014 0.298,0.014C0.227,0.014 0.167,-0.011 0.119,-0.06C0.071,-0.108 0.047,-0.168 0.047,-0.241ZM0.159,-0.239C0.159,-0.192 0.172,-0.154 0.197,-0.126C0.223,-0.098 0.258,-0.084 0.3,-0.084C0.343,-0.084 0.378,-0.098 0.403,-0.126C0.429,-0.154 0.442,-0.191 0.442,-0.237C0.442,-0.283 0.429,-0.32 0.403,-0.348C0.377,-0.376 0.343,-0.39 0.3,-0.39C0.258,-0.39 0.224,-0.376 0.198,-0.348C0.172,-0.32 0.159,-0.284 0.159,-0.239Z" style="fill:rgb(230,230,230);fill-rule:nonzero;"/>
                        </g>
                        <g transform="matrix(24.8832,0,0,24.8832,243.764,265.625)">
                            <path d="M0.069,-0.476L0.18,-0.476L0.18,-0.432C0.218,-0.47 0.261,-0.489 0.31,-0.489C0.365,-0.489 0.408,-0.471 0.439,-0.437C0.466,-0.407 0.479,-0.359 0.479,-0.292L0.479,-0L0.369,-0L0.369,-0.266C0.369,-0.313 0.362,-0.345 0.349,-0.363C0.336,-0.381 0.313,-0.39 0.28,-0.39C0.243,-0.39 0.217,-0.378 0.202,-0.354C0.187,-0.33 0.18,-0.289 0.18,-0.229L0.18,-0L0.069,-0L0.069,-0.476Z" style="fill:rgb(230,230,230);fill-rule:nonzero;"/>
                        </g>
                        <g transform="matrix(24.8832,0,0,24.8832,265.089,265.625)">
                            <path d="M0.478,-0.393L0.79,-0.393L0.79,-0.368C0.79,-0.311 0.783,-0.261 0.77,-0.217C0.757,-0.177 0.735,-0.139 0.704,-0.104C0.634,-0.025 0.545,0.014 0.437,0.014C0.331,0.014 0.241,-0.024 0.166,-0.1C0.09,-0.177 0.053,-0.268 0.053,-0.375C0.053,-0.485 0.091,-0.578 0.167,-0.654C0.244,-0.73 0.337,-0.769 0.447,-0.769C0.506,-0.769 0.561,-0.757 0.612,-0.732C0.661,-0.708 0.709,-0.669 0.756,-0.615L0.675,-0.538C0.613,-0.62 0.538,-0.661 0.449,-0.661C0.369,-0.661 0.302,-0.634 0.248,-0.579C0.194,-0.525 0.167,-0.457 0.167,-0.375C0.167,-0.292 0.197,-0.222 0.257,-0.168C0.314,-0.118 0.375,-0.092 0.44,-0.092C0.496,-0.092 0.547,-0.111 0.591,-0.149C0.636,-0.187 0.661,-0.233 0.666,-0.286L0.478,-0.286L0.478,-0.393Z" style="fill:rgb(230,230,230);fill-rule:nonzero;"/>
                        </g>
                        <g transform="matrix(24.8832,0,0,24.8832,286.046,265.625)">
                            <path d="M0.42,-0.476L0.53,-0.476L0.53,-0L0.42,-0L0.42,-0.05C0.375,-0.007 0.326,0.014 0.274,0.014C0.208,0.014 0.154,-0.01 0.111,-0.058C0.068,-0.106 0.047,-0.167 0.047,-0.239C0.047,-0.311 0.068,-0.37 0.111,-0.417C0.153,-0.465 0.207,-0.489 0.271,-0.489C0.326,-0.489 0.376,-0.466 0.42,-0.42L0.42,-0.476ZM0.159,-0.239C0.159,-0.194 0.171,-0.157 0.196,-0.128C0.221,-0.099 0.252,-0.084 0.291,-0.084C0.331,-0.084 0.364,-0.098 0.389,-0.126C0.414,-0.155 0.427,-0.192 0.427,-0.237C0.427,-0.281 0.414,-0.318 0.389,-0.347C0.364,-0.375 0.332,-0.39 0.292,-0.39C0.254,-0.39 0.222,-0.375 0.197,-0.347C0.172,-0.318 0.159,-0.282 0.159,-0.239Z" style="fill:rgb(230,230,230);fill-rule:nonzero;"/>
                        </g>
                        <g transform="matrix(24.8832,0,0,24.8832,300.964,265.625)">
                            <path d="M0.069,-0.476L0.179,-0.476L0.179,-0.432C0.2,-0.454 0.218,-0.469 0.233,-0.477C0.249,-0.485 0.269,-0.489 0.293,-0.489C0.347,-0.489 0.39,-0.465 0.421,-0.418C0.455,-0.465 0.502,-0.489 0.561,-0.489C0.668,-0.489 0.722,-0.424 0.722,-0.294L0.722,-0L0.611,-0L0.611,-0.264C0.611,-0.31 0.606,-0.342 0.595,-0.361C0.583,-0.38 0.565,-0.39 0.539,-0.39C0.508,-0.39 0.486,-0.378 0.472,-0.355C0.459,-0.333 0.452,-0.296 0.452,-0.246L0.452,-0L0.341,-0L0.341,-0.263C0.341,-0.347 0.317,-0.39 0.268,-0.39C0.237,-0.39 0.215,-0.378 0.2,-0.355C0.186,-0.332 0.179,-0.295 0.179,-0.246L0.179,-0L0.069,-0L0.069,-0.476Z" style="fill:rgb(230,230,230);fill-rule:nonzero;"/>
                        </g>
                        <g transform="matrix(24.8832,0,0,24.8832,320.645,265.625)">
                            <path d="M0.502,-0.212L0.162,-0.212C0.165,-0.173 0.177,-0.142 0.2,-0.119C0.222,-0.096 0.251,-0.084 0.286,-0.084C0.313,-0.084 0.336,-0.091 0.354,-0.104C0.372,-0.117 0.392,-0.141 0.414,-0.176L0.507,-0.125C0.493,-0.1 0.477,-0.079 0.461,-0.062C0.445,-0.044 0.428,-0.03 0.41,-0.019C0.392,-0.008 0.372,0.001 0.351,0.006C0.33,0.011 0.307,0.014 0.282,0.014C0.211,0.014 0.154,-0.009 0.111,-0.055C0.068,-0.101 0.047,-0.161 0.047,-0.237C0.047,-0.313 0.068,-0.373 0.109,-0.42C0.151,-0.466 0.207,-0.489 0.276,-0.489C0.346,-0.489 0.402,-0.466 0.442,-0.422C0.483,-0.378 0.503,-0.316 0.503,-0.238L0.502,-0.212ZM0.39,-0.302C0.374,-0.36 0.337,-0.39 0.279,-0.39C0.265,-0.39 0.253,-0.388 0.241,-0.384C0.229,-0.379 0.219,-0.374 0.209,-0.366C0.2,-0.358 0.191,-0.349 0.185,-0.338C0.178,-0.328 0.173,-0.315 0.169,-0.302L0.39,-0.302Z" style="fill:rgb(230,230,230);fill-rule:nonzero;"/>
                        </g>
                        <g transform="matrix(24.8832,0,0,24.8832,334.409,265.625)">
                            <path d="M0.086,-0.055C0.086,-0.073 0.093,-0.089 0.106,-0.102C0.12,-0.115 0.136,-0.122 0.154,-0.122C0.173,-0.122 0.189,-0.115 0.202,-0.102C0.215,-0.089 0.222,-0.073 0.222,-0.054C0.222,-0.035 0.215,-0.019 0.202,-0.006C0.189,0.007 0.173,0.014 0.154,0.014C0.135,0.014 0.119,0.007 0.106,-0.006C0.093,-0.019 0.086,-0.035 0.086,-0.055Z" style="fill:rgb(230,230,230);fill-rule:nonzero;"/>
                        </g>
                    </g>
                </g>
            </g>
        </g>
    </g>
</svg>
