<?xml version="1.0" encoding="UTF-8" standalone="no"?>
<!DOCTYPE svg PUBLIC "-//W3C//DTD SVG 1.1//EN" "http://www.w3.org/Graphics/SVG/1.1/DTD/svg11.dtd">
<svg width="100%" height="100%" viewBox="0 0 468 145" version="1.1" xmlns="http://www.w3.org/2000/svg" xmlns:xlink="http://www.w3.org/1999/xlink" xml:space="preserve" xmlns:serif="http://www.serif.com/" style="fill-rule:evenodd;clip-rule:evenodd;stroke-linejoin:round;stroke-miterlimit:2;">
    <g transform="matrix(1,0,0,1,-2177.78,-2941.4)">
        <g id="Results" transform="matrix(0.446586,0,0,0.790575,1206.01,836.746)">
            <rect x="2176" y="2662.18" width="1047.11" height="182.961" style="fill:none;"/>
            <g transform="matrix(2.23921,0,0,1.2649,-2686.16,-1052.87)">
                <path d="M2391.92,3024.97C2390.99,3025.26 2390.52,3025.81 2390.52,3026.63L2390.52,3026.9C2390.52,3027.08 2390.54,3027.19 2390.58,3027.22C2390.97,3027.19 2391.49,3027.17 2392.13,3027.17L2393.42,3027.17C2397.5,3027.17 2401.32,3027.79 2404.88,3029.02C2408.45,3030.26 2411.35,3032.24 2413.61,3034.95C2416.11,3038.03 2417.37,3041.92 2417.37,3046.61C2417.37,3053.91 2414.84,3059.42 2409.8,3063.14C2404.75,3066.87 2398,3068.73 2389.55,3068.73C2381.11,3068.73 2374.49,3067.33 2369.72,3064.54C2364.94,3061.75 2362.55,3057.65 2362.55,3052.24C2362.55,3050.24 2362.98,3048.41 2363.84,3046.74C2364.7,3045.08 2365.66,3043.9 2366.74,3043.22C2368.7,3044.87 2371.56,3046.29 2375.3,3047.49C2379.04,3048.69 2383.01,3049.29 2387.19,3049.29C2388.88,3049.29 2389.72,3048.83 2389.72,3047.89C2389.72,3047.47 2389.66,3047.11 2389.55,3046.82C2389.3,3046.86 2389,3046.87 2388.64,3046.87L2388.05,3046.87C2380.46,3046.87 2374.4,3045.37 2369.85,3042.36C2364.7,3038.96 2362.12,3034.17 2362.12,3027.97C2362.12,3021.78 2364.43,3016.77 2369.05,3012.94C2374.16,3008.72 2381.2,3006.61 2390.15,3006.61C2394.55,3006.61 2398.66,3007.07 2402.47,3008C2406.28,3008.93 2409.55,3010.17 2412.27,3011.71C2412.95,3013.18 2413.29,3015.34 2413.29,3018.2C2413.29,3022.57 2412.09,3025.92 2409.69,3028.24C2407.86,3027.24 2405.64,3026.41 2403.01,3025.75C2400.37,3025.09 2398,3024.75 2395.89,3024.75C2393.78,3024.75 2392.45,3024.83 2391.92,3024.97ZM2600.08,3024.97C2599.15,3025.26 2598.68,3025.81 2598.68,3026.63L2598.68,3026.9C2598.68,3027.08 2598.7,3027.19 2598.74,3027.22C2599.13,3027.19 2599.65,3027.17 2600.3,3027.17L2601.59,3027.17C2605.66,3027.17 2609.49,3027.79 2613.05,3029.02C2616.61,3030.26 2619.52,3032.24 2621.77,3034.95C2624.28,3038.03 2625.53,3041.92 2625.53,3046.61C2625.53,3053.91 2623.01,3059.42 2617.96,3063.14C2612.91,3066.87 2606.17,3068.73 2597.72,3068.73C2589.27,3068.73 2582.66,3067.33 2577.88,3064.54C2573.1,3061.75 2570.71,3057.65 2570.71,3052.24C2570.71,3050.24 2571.14,3048.41 2572,3046.74C2572.86,3045.08 2573.83,3043.9 2574.9,3043.22C2576.87,3044.87 2579.72,3046.29 2583.46,3047.49C2587.2,3048.69 2591.17,3049.29 2595.36,3049.29C2597.04,3049.29 2597.88,3048.83 2597.88,3047.89C2597.88,3047.47 2597.83,3047.11 2597.72,3046.82C2597.47,3046.86 2597.16,3046.87 2596.81,3046.87L2596.22,3046.87C2588.63,3046.87 2582.56,3045.37 2578.01,3042.36C2572.86,3038.96 2570.28,3034.17 2570.28,3027.97C2570.28,3021.78 2572.59,3016.77 2577.21,3012.94C2582.33,3008.72 2589.36,3006.61 2598.31,3006.61C2602.71,3006.61 2606.82,3007.07 2610.63,3008C2614.44,3008.93 2617.71,3010.17 2620.43,3011.71C2621.11,3013.18 2621.45,3015.34 2621.45,3018.2C2621.45,3022.57 2620.25,3025.92 2617.85,3028.24C2616.03,3027.24 2613.8,3026.41 2611.17,3025.75C2608.54,3025.09 2606.17,3024.75 2604.05,3024.75C2601.94,3024.75 2600.62,3024.83 2600.08,3024.97ZM2331.19,3068.73C2321.28,3068.73 2313.46,3065.97 2307.73,3060.46C2301.86,3054.91 2298.92,3047.31 2298.92,3037.67C2298.92,3028.02 2301.95,3020.37 2308,3014.71C2313.58,3009.45 2320.65,3006.82 2329.21,3006.82C2337.76,3006.82 2344.62,3009.18 2349.8,3013.88C2354.97,3018.59 2357.55,3024.38 2357.55,3031.25C2357.55,3037.37 2355.43,3041.99 2351.16,3045.1C2347.23,3048.04 2341.86,3049.51 2335.06,3049.51C2329.97,3049.51 2325.68,3048.45 2322.17,3046.34C2321.89,3046.55 2321.74,3046.95 2321.74,3047.52C2321.74,3048.59 2323.16,3049.58 2325.98,3050.47C2328.81,3051.44 2332.03,3051.92 2335.62,3051.92C2339.22,3051.92 2342.49,3051.47 2345.45,3050.55C2348.4,3049.64 2350.77,3048.56 2352.56,3047.3C2353.42,3048.06 2354.11,3049.44 2354.63,3051.47C2355.15,3053.49 2355.41,3055.33 2355.41,3056.99C2355.41,3058.66 2355.25,3060.14 2354.92,3061.43C2352.13,3063.79 2349.27,3065.47 2346.33,3066.47C2342.18,3067.97 2337.13,3068.73 2331.19,3068.73ZM2280.52,3024.37L2295.82,3040.01C2294.76,3049.21 2291.85,3056.28 2287.11,3061.23C2282.37,3066.18 2275.81,3068.65 2267.44,3068.65C2261.14,3068.65 2255.66,3067.15 2251,3064.14C2245.05,3060.37 2240.6,3054.36 2237.66,3046.11L2234.47,3037.45C2232,3037.39 2228.88,3037.07 2225.11,3036.48C2224.63,3036.95 2224.4,3037.6 2224.4,3038.42C2224.4,3040.01 2226.78,3040.96 2231.56,3041.25L2236.6,3053.98L2236.6,3061.49C2229.82,3066.27 2221.13,3068.65 2210.52,3068.65C2202.92,3068.65 2196.85,3067.09 2192.31,3063.97C2187.78,3060.85 2185.51,3056.31 2185.51,3050.36L2185.51,2966.39C2185.51,2963.8 2187.89,2961.28 2192.67,2958.83C2197.44,2956.39 2203.68,2954.41 2211.41,2952.91C2219.12,2951.41 2226.84,2950.66 2234.56,2950.66C2252.24,2950.66 2266.06,2954.28 2276.02,2961.53C2286.51,2969.13 2291.75,2979.82 2291.75,2993.61C2291.75,3001.51 2289.53,3008.27 2285.08,3013.9C2280.63,3019.52 2275.01,3023.43 2268.24,3025.61C2268.24,3027.49 2269.37,3028.44 2271.64,3028.44C2273.91,3028.44 2276.87,3027.08 2280.52,3024.37ZM2514.44,3002.26L2514.44,3040C2514.44,3045.34 2515.73,3048.81 2518.31,3050.42C2518.34,3050.6 2518.36,3050.94 2518.36,3051.44L2518.36,3052.41C2518.36,3057.52 2517.06,3061.41 2514.47,3064.06C2511.87,3066.7 2508.2,3068.03 2503.44,3068.03C2498.68,3068.03 2494.9,3066.7 2492.11,3064.06C2488.78,3060.91 2487.11,3056.14 2487.11,3049.77L2487.11,2993.99C2490.87,2991.7 2495.18,2990.55 2500.03,2990.55C2504.88,2990.55 2508.49,2991.58 2510.87,2993.64C2513.25,2995.7 2514.44,2998.57 2514.44,3002.26ZM2527.65,3033.13L2530.98,3033.13C2532.77,3033.13 2533.66,3032.54 2533.66,3031.36C2533.66,3031.22 2533.63,3031 2533.56,3030.71L2521.53,3030.71C2520.74,3028.21 2520.35,3025.41 2520.35,3022.31C2520.35,3019.22 2520.58,3016.7 2521.05,3014.77C2523.09,3013.48 2525.9,3011.51 2529.48,3008.86C2530.48,3006.43 2531.78,3002.56 2533.4,2997.26C2533.61,2996.55 2533.86,2995.85 2534.15,2995.17C2536.94,2994.45 2540.12,2994.1 2543.7,2994.1C2547.28,2994.1 2550.81,2994.47 2554.28,2995.22L2554.28,3008.38L2563.57,3008.38C2565.65,3011.53 2566.68,3015.23 2566.68,3019.49C2566.68,3021.43 2566.42,3023.41 2565.88,3025.45C2565.34,3027.49 2564.57,3029.23 2563.57,3030.66L2555.89,3030.66L2555.89,3038.77C2555.89,3043.35 2557.81,3045.64 2561.64,3045.64L2563.95,3045.64C2564.7,3048.36 2565.07,3050.72 2565.07,3052.73C2565.07,3057.67 2563.53,3061.45 2560.43,3064.08C2557.33,3066.71 2552.84,3068.03 2546.95,3068.03C2541.07,3068.03 2536.38,3066.39 2532.89,3063.12C2529.4,3059.84 2527.65,3055.02 2527.65,3048.65L2527.65,3033.13ZM2450.82,3043.65C2451.25,3043.65 2451.71,3043.47 2452.21,3043.12C2451.86,3041.93 2451.68,3040.09 2451.68,3037.59L2451.68,3011.06C2455.47,3008.77 2460.03,3007.63 2465.37,3007.63C2468.37,3007.63 2471.01,3008.03 2473.29,3008.84C2475.56,3009.64 2477.3,3010.7 2478.52,3012.03L2478.52,3040C2478.52,3045.34 2479.81,3048.81 2482.39,3050.42C2482.42,3050.6 2482.44,3050.94 2482.44,3051.44L2482.44,3052.41C2482.44,3057.63 2481.06,3061.59 2478.31,3064.27C2475.8,3066.78 2472.35,3068.03 2467.95,3068.03C2465.19,3068.03 2462.69,3067.4 2460.45,3066.15C2458.22,3064.9 2456.55,3063.07 2455.43,3060.67C2454.22,3060.67 2453.61,3061.26 2453.61,3062.45C2453.61,3063.27 2454.02,3064.09 2454.84,3064.91C2453.7,3065.85 2452.32,3066.6 2450.71,3067.17C2449.1,3067.74 2446.73,3068.03 2443.6,3068.03C2440.46,3068.03 2437.41,3067.38 2434.44,3066.1C2430.76,3064.52 2427.93,3062.11 2425.96,3058.85C2423.56,3054.98 2422.36,3050.08 2422.36,3044.14L2422.36,3030.66C2420.54,3027.47 2419.62,3023.97 2419.62,3020.14C2419.62,3018.17 2419.87,3016.13 2420.38,3014.02C2420.88,3011.9 2421.68,3010.03 2422.79,3008.38L2434.6,3008.38C2439.04,3008.38 2442.52,3009.43 2445.05,3011.52C2447.57,3013.61 2448.83,3016.79 2448.83,3021.05L2448.83,3038.45C2448.83,3041.92 2449.49,3043.65 2450.82,3043.65ZM2330.49,3032.38C2332.28,3032.38 2333.18,3031.7 2333.18,3030.34C2333.18,3029.05 2332.23,3028.41 2330.33,3028.41C2328.44,3028.41 2327.34,3029.43 2327.06,3031.47C2328.06,3032.07 2329.21,3032.38 2330.49,3032.38ZM2234.92,3004.22C2235.15,3004.39 2235.83,3004.48 2236.95,3004.48C2238.07,3004.48 2238.92,3004.04 2239.51,3003.16C2240.1,3002.27 2240.4,3000.83 2240.4,2998.83L2240.4,2995.64C2240.4,2993.52 2240.15,2992.01 2239.64,2991.09C2239.14,2990.18 2238.32,2989.72 2237.17,2989.72C2236.02,2989.72 2235.24,2989.84 2234.83,2990.08C2234.89,2990.37 2234.92,2990.87 2234.92,2991.58L2234.92,3004.22Z" style="fill:none;fill-rule:nonzero;stroke:rgb(249,220,173);stroke-width:21px;"/>
            </g>
            <g transform="matrix(0.843314,0,0,0.866693,2090.48,2624.44)">
                <path d="M253.116,135.232C253.742,135.49 255.541,135.619 258.514,135.619C261.487,135.619 263.755,134.974 265.32,133.684C266.884,132.394 267.667,130.287 267.667,127.363L267.667,122.719C267.667,119.623 267.002,117.409 265.672,116.076C264.342,114.743 262.151,114.076 259.1,114.076C256.049,114.076 253.976,114.248 252.881,114.592C253.038,115.022 253.116,115.753 253.116,116.785L253.116,135.232ZM374.218,164.644L414.819,187.477C412.003,200.893 404.297,211.213 391.702,218.437C379.107,225.661 361.701,229.272 339.483,229.272C322.741,229.272 308.19,227.079 295.83,222.694C280.027,217.19 268.214,208.418 260.391,196.378L251.942,183.736C245.371,183.65 237.078,183.177 227.065,182.317C225.813,183.005 225.187,183.951 225.187,185.155C225.187,187.477 231.524,188.853 244.197,189.283L257.575,207.859L257.575,218.824C239.582,225.79 216.504,229.272 188.34,229.272C168.157,229.272 152.041,226.993 139.994,222.436C127.946,217.878 121.922,211.256 121.922,202.57L121.922,80.021C121.922,76.237 128.259,72.56 140.932,68.991C153.606,65.422 170.191,62.541 190.687,60.348C211.184,58.155 231.68,57.059 252.177,57.059C299.116,57.059 335.806,62.348 362.248,72.926C390.098,84.02 404.024,99.628 404.024,119.752C404.024,131.276 398.117,141.145 386.304,149.358C374.491,157.571 359.588,163.268 341.595,166.45C341.595,169.202 344.607,170.578 350.631,170.578C356.655,170.578 364.517,168.6 374.218,164.644Z" style="fill:rgb(46,41,79);fill-rule:nonzero;"/>
                <path d="M508.754,229.38C482.427,229.38 461.661,225.357 446.454,217.312C430.867,209.215 423.074,198.127 423.074,184.049C423.074,169.97 431.105,158.804 447.167,150.55C461.993,142.871 480.764,139.031 503.479,139.031C526.194,139.031 544.418,142.466 558.152,149.336C571.885,156.205 578.752,164.655 578.752,174.685C578.752,183.618 573.097,190.357 561.787,194.902C551.333,199.185 537.076,201.327 519.018,201.327C505.522,201.327 494.117,199.786 484.803,196.704C484.043,197.017 483.663,197.592 483.663,198.428C483.663,199.995 487.417,201.431 494.925,202.737C502.434,204.148 510.964,204.853 520.515,204.853C530.067,204.853 538.763,204.187 546.604,202.855C554.445,201.523 560.742,199.943 565.494,198.114C567.775,199.211 569.604,201.236 570.982,204.187C572.36,207.139 573.05,209.829 573.05,212.258C573.05,214.687 572.622,216.842 571.766,218.723C564.353,222.171 556.75,224.626 548.956,226.089C537.932,228.283 524.531,229.38 508.754,229.38ZM506.901,176.33C511.653,176.33 514.029,175.338 514.029,173.353C514.029,171.472 511.51,170.532 506.473,170.532C501.436,170.532 498.537,172.021 497.777,174.998C500.438,175.886 503.479,176.33 506.901,176.33Z" style="fill:rgb(46,41,79);fill-rule:nonzero;"/>
                <path d="M669.995,165.517C667.524,165.935 666.289,166.744 666.289,167.946L666.289,168.338C666.289,168.599 666.336,168.756 666.431,168.808C667.477,168.756 668.855,168.729 670.565,168.729L673.987,168.729C684.822,168.729 694.967,169.631 704.424,171.433C713.881,173.235 721.603,176.121 727.59,180.092C734.243,184.584 737.57,190.252 737.57,197.096C737.57,207.752 730.869,215.797 717.468,221.23C704.068,226.663 686.152,229.38 663.722,229.38C641.293,229.38 623.734,227.342 611.046,223.268C598.358,219.193 592.014,213.211 592.014,205.323C592.014,202.398 593.154,199.721 595.435,197.291C597.716,194.862 600.282,193.151 603.133,192.159C608.361,194.562 615.94,196.638 625.872,198.389C635.804,200.139 646.33,201.014 657.45,201.014C661.917,201.014 664.15,200.334 664.15,198.976C664.15,198.349 664.008,197.827 663.722,197.409C663.057,197.461 662.249,197.487 661.299,197.487L659.731,197.487C639.582,197.487 623.472,195.293 611.402,190.905C597.716,185.942 590.873,178.942 590.873,169.905C590.873,160.867 597.003,153.554 609.264,147.964C622.855,141.8 641.53,138.718 665.291,138.718C676.981,138.718 687.887,139.397 698.009,140.755C708.131,142.113 716.803,143.916 724.026,146.162C725.832,148.304 726.735,151.464 726.735,155.643C726.735,162.017 723.551,166.901 717.183,170.297C712.336,168.834 706.42,167.619 699.434,166.653C692.449,165.687 686.152,165.203 680.545,165.203C674.937,165.203 671.421,165.308 669.995,165.517Z" style="fill:rgb(46,41,79);fill-rule:nonzero;"/>
                <path d="M826.389,192.786C827.53,192.786 828.765,192.525 830.096,192.002C829.146,190.278 828.67,187.588 828.67,183.931L828.67,145.222C838.745,141.878 850.863,140.207 865.024,140.207C873.007,140.207 880.017,140.794 886.052,141.97C892.087,143.145 896.72,144.699 899.952,146.632L899.952,187.457C899.952,195.241 903.373,200.308 910.216,202.659C910.311,202.92 910.359,203.417 910.359,204.148L910.359,205.558C910.359,213.185 906.699,218.958 899.381,222.876C892.728,226.533 883.557,228.361 871.867,228.361C864.549,228.361 857.919,227.447 851.979,225.618C846.039,223.79 841.596,221.126 838.65,217.626C835.418,217.626 833.803,218.488 833.803,220.212C833.803,221.413 834.896,222.615 837.082,223.816C834.04,225.174 830.381,226.271 826.104,227.107C821.827,227.943 815.531,228.361 807.215,228.361C798.899,228.361 790.796,227.421 782.908,225.54C773.119,223.241 765.61,219.715 760.383,214.962C754.015,209.32 750.831,202.163 750.831,193.491L750.831,173.823C745.984,169.174 743.561,164.054 743.561,158.464C743.561,155.591 744.226,152.614 745.556,149.531C746.887,146.449 749.025,143.707 751.972,141.304L783.335,141.304C795.121,141.304 804.363,142.832 811.064,145.888C817.764,148.944 821.115,153.58 821.115,159.797L821.115,185.185C821.115,190.252 822.873,192.786 826.389,192.786Z" style="fill:rgb(46,41,79);fill-rule:nonzero;"/>
                <path d="M995.329,132.371L995.329,187.457C995.329,195.241 998.75,200.308 1005.59,202.659C1005.69,202.92 1005.74,203.417 1005.74,204.148L1005.74,205.558C1005.74,213.029 1002.29,218.697 995.4,222.562C988.51,226.428 978.744,228.361 966.104,228.361C953.463,228.361 943.436,226.428 936.023,222.562C927.184,217.965 922.765,211.017 922.765,201.719L922.765,120.303C932.744,116.96 944.173,115.288 957.051,115.288C969.929,115.288 979.528,116.79 985.849,119.794C992.169,122.798 995.329,126.99 995.329,132.371Z" style="fill:rgb(46,41,79);fill-rule:nonzero;"/>
                <path d="M1030.4,177.427L1039.24,177.427C1043.99,177.427 1046.37,176.565 1046.37,174.842C1046.37,174.633 1046.27,174.319 1046.08,173.901L1014.15,173.901C1012.06,170.244 1011.01,166.157 1011.01,161.638C1011.01,157.119 1011.63,153.449 1012.87,150.628C1018.28,148.748 1025.75,145.875 1035.25,142.009C1037.91,138.457 1041.38,132.815 1045.66,125.083C1046.23,124.039 1046.89,123.02 1047.65,122.027C1055.07,120.983 1063.53,120.46 1073.03,120.46C1082.53,120.46 1091.89,121.009 1101.11,122.106L1101.11,141.304L1125.78,141.304C1131.29,145.901 1134.05,151.308 1134.05,157.524C1134.05,160.345 1133.33,163.244 1131.91,166.222C1130.48,169.2 1128.44,171.733 1125.78,173.823L1105.39,173.823L1105.39,185.655C1105.39,192.342 1110.48,195.685 1120.64,195.685L1126.78,195.685C1128.77,199.655 1129.77,203.103 1129.77,206.029C1129.77,213.238 1125.66,218.762 1117.44,222.602C1109.22,226.441 1097.29,228.361 1081.65,228.361C1066.02,228.361 1053.57,225.971 1044.3,221.191C1035.04,216.411 1030.4,209.372 1030.4,200.073L1030.4,177.427Z" style="fill:rgb(46,41,79);fill-rule:nonzero;"/>
                <path d="M1222.72,165.517C1220.25,165.935 1219.02,166.744 1219.02,167.946L1219.02,168.338C1219.02,168.599 1219.06,168.756 1219.16,168.808C1220.2,168.756 1221.58,168.729 1223.29,168.729L1226.71,168.729C1237.55,168.729 1247.69,169.631 1257.15,171.433C1266.61,173.235 1274.33,176.121 1280.32,180.092C1286.97,184.584 1290.3,190.252 1290.3,197.096C1290.3,207.752 1283.6,215.797 1270.2,221.23C1256.8,226.663 1238.88,229.38 1216.45,229.38C1194.02,229.38 1176.46,227.342 1163.77,223.268C1151.09,219.193 1144.74,213.211 1144.74,205.323C1144.74,202.398 1145.88,199.721 1148.16,197.291C1150.44,194.862 1153.01,193.151 1155.86,192.159C1161.09,194.562 1168.67,196.638 1178.6,198.389C1188.53,200.139 1199.06,201.014 1210.18,201.014C1214.64,201.014 1216.88,200.334 1216.88,198.976C1216.88,198.349 1216.74,197.827 1216.45,197.409C1215.78,197.461 1214.98,197.487 1214.03,197.487L1212.46,197.487C1192.31,197.487 1176.2,195.293 1164.13,190.905C1150.44,185.942 1143.6,178.942 1143.6,169.905C1143.6,160.867 1149.73,153.554 1161.99,147.964C1175.58,141.8 1194.26,138.718 1218.02,138.718C1229.71,138.718 1240.61,139.397 1250.74,140.755C1260.86,142.113 1269.53,143.916 1276.75,146.162C1278.56,148.304 1279.46,151.464 1279.46,155.643C1279.46,162.017 1276.28,166.901 1269.91,170.297C1265.06,168.834 1259.15,167.619 1252.16,166.653C1245.18,165.687 1238.88,165.203 1233.27,165.203C1227.66,165.203 1224.15,165.308 1222.72,165.517Z" style="fill:rgb(46,41,79);fill-rule:nonzero;"/>
            </g>
        </g>
    </g>
</svg>
