<?xml version="1.0" encoding="UTF-8" standalone="no"?>
<!DOCTYPE svg PUBLIC "-//W3C//DTD SVG 1.1//EN" "http://www.w3.org/Graphics/SVG/1.1/DTD/svg11.dtd">
<svg width="100%" height="100%" viewBox="0 0 344 137" version="1.1" xmlns="http://www.w3.org/2000/svg" xmlns:xlink="http://www.w3.org/1999/xlink" xml:space="preserve" xmlns:serif="http://www.serif.com/" style="fill-rule:evenodd;clip-rule:evenodd;stroke-miterlimit:10;">
    <g transform="matrix(1,0,0,1,-2432.22,-3946.27)">
        <g id="Vote" transform="matrix(0.172083,0,0,0.264637,2035.3,2989.24)">
            <rect x="2306.61" y="3616.41" width="1993.86" height="517.062" style="fill:none;"/>
            <clipPath id="_clip1">
                <rect x="2306.61" y="3616.41" width="1993.86" height="517.062"/>
            </clipPath>
            <g clip-path="url(#_clip1)">
                <g transform="matrix(5.81116,0,0,3.77876,1670.76,3479.43)">
                    <g transform="matrix(181.019,0,0,181.019,114.611,156.891)">
                        <path d="M0.308,-0.538L0.292,-0.228C0.296,-0.227 0.3,-0.227 0.303,-0.227C0.313,-0.227 0.319,-0.235 0.321,-0.251L0.342,-0.606C0.352,-0.615 0.371,-0.623 0.398,-0.63C0.424,-0.636 0.447,-0.639 0.468,-0.639C0.517,-0.639 0.554,-0.627 0.578,-0.605C0.603,-0.583 0.615,-0.554 0.615,-0.518C0.615,-0.498 0.607,-0.454 0.591,-0.385C0.574,-0.315 0.551,-0.222 0.521,-0.104C0.51,-0.063 0.485,-0.033 0.446,-0.015C0.412,0.001 0.368,0.009 0.312,0.009C0.277,0.009 0.244,0.005 0.212,-0.003C0.181,-0.011 0.156,-0.022 0.137,-0.037C0.111,-0.093 0.086,-0.171 0.06,-0.27C0.034,-0.369 0.014,-0.47 0.001,-0.571C0.032,-0.617 0.08,-0.639 0.147,-0.639C0.233,-0.639 0.287,-0.605 0.308,-0.538Z" style="fill:rgb(35,31,32);fill-rule:nonzero;"/>
                    </g>
                    <g transform="matrix(109.959,0,0,109.959,230.294,156.891)">
                        <path d="M0.272,-0.272L0.272,-0.187C0.275,-0.184 0.278,-0.183 0.284,-0.183C0.289,-0.183 0.293,-0.185 0.295,-0.188C0.297,-0.192 0.298,-0.198 0.298,-0.207L0.298,-0.277C0.298,-0.308 0.297,-0.329 0.294,-0.339C0.292,-0.349 0.287,-0.354 0.28,-0.354C0.275,-0.354 0.271,-0.353 0.268,-0.35C0.271,-0.317 0.272,-0.292 0.272,-0.272ZM0.09,-0.056C0.036,-0.107 0.01,-0.177 0.01,-0.265C0.01,-0.353 0.035,-0.422 0.085,-0.473C0.135,-0.524 0.201,-0.55 0.283,-0.55C0.365,-0.55 0.431,-0.523 0.481,-0.47C0.532,-0.417 0.557,-0.348 0.557,-0.263C0.557,-0.178 0.532,-0.11 0.484,-0.06C0.436,-0.01 0.37,0.015 0.287,0.015C0.204,0.015 0.138,-0.008 0.09,-0.056Z" style="fill:rgb(35,31,32);fill-rule:nonzero;"/>
                    </g>
                    <g transform="matrix(109.959,0,0,109.959,293.531,156.891)">
                        <path d="M0.072,-0.309L0.103,-0.309C0.119,-0.309 0.127,-0.314 0.127,-0.325C0.127,-0.326 0.127,-0.328 0.126,-0.331L0.017,-0.331C0.009,-0.353 0.006,-0.379 0.006,-0.407C0.006,-0.435 0.008,-0.458 0.012,-0.476C0.031,-0.487 0.056,-0.505 0.089,-0.529C0.098,-0.551 0.11,-0.587 0.125,-0.635C0.126,-0.641 0.129,-0.648 0.131,-0.654C0.157,-0.66 0.186,-0.664 0.218,-0.664C0.251,-0.664 0.283,-0.66 0.314,-0.653L0.314,-0.534L0.399,-0.534C0.418,-0.505 0.427,-0.471 0.427,-0.433C0.427,-0.415 0.425,-0.397 0.42,-0.378C0.415,-0.36 0.408,-0.344 0.399,-0.331L0.329,-0.331L0.329,-0.257C0.329,-0.216 0.347,-0.195 0.381,-0.195L0.402,-0.195C0.409,-0.17 0.413,-0.149 0.413,-0.13C0.413,-0.085 0.399,-0.051 0.37,-0.027C0.342,-0.003 0.301,0.009 0.248,0.009C0.194,0.009 0.152,-0.006 0.12,-0.036C0.088,-0.066 0.072,-0.11 0.072,-0.167L0.072,-0.309Z" style="fill:rgb(35,31,32);fill-rule:nonzero;"/>
                    </g>
                    <g transform="matrix(109.959,0,0,109.959,341.842,156.891)">
                        <path d="M0.303,0.015C0.213,0.015 0.142,-0.01 0.09,-0.06C0.036,-0.111 0.01,-0.18 0.01,-0.267C0.01,-0.355 0.037,-0.425 0.092,-0.476C0.143,-0.524 0.207,-0.548 0.285,-0.548C0.363,-0.548 0.425,-0.526 0.472,-0.484C0.519,-0.441 0.543,-0.388 0.543,-0.326C0.543,-0.27 0.524,-0.228 0.485,-0.2C0.449,-0.173 0.4,-0.16 0.338,-0.16C0.292,-0.16 0.253,-0.169 0.221,-0.188C0.219,-0.187 0.217,-0.183 0.217,-0.178C0.217,-0.168 0.23,-0.159 0.256,-0.151C0.282,-0.142 0.311,-0.138 0.344,-0.138C0.376,-0.138 0.406,-0.142 0.433,-0.15C0.46,-0.158 0.481,-0.168 0.498,-0.18C0.505,-0.173 0.512,-0.16 0.516,-0.142C0.521,-0.123 0.523,-0.107 0.523,-0.092C0.523,-0.076 0.522,-0.063 0.519,-0.051C0.494,-0.03 0.468,-0.014 0.441,-0.005C0.403,0.008 0.357,0.015 0.303,0.015ZM0.297,-0.315C0.313,-0.315 0.321,-0.322 0.321,-0.334C0.321,-0.346 0.313,-0.352 0.295,-0.352C0.278,-0.352 0.268,-0.342 0.266,-0.324C0.275,-0.318 0.285,-0.315 0.297,-0.315Z" style="fill:rgb(35,31,32);fill-rule:nonzero;"/>
                    </g>
                    <g transform="matrix(109.959,0,0,109.959,405.454,156.891)">
                        <path d="M0.214,-0.286C0.197,-0.293 0.182,-0.297 0.169,-0.297C0.156,-0.297 0.149,-0.291 0.149,-0.279L0.149,-0.277C0.187,-0.274 0.218,-0.259 0.244,-0.232C0.269,-0.205 0.282,-0.172 0.282,-0.135C0.282,-0.097 0.268,-0.064 0.241,-0.036C0.213,-0.009 0.179,0.005 0.141,0.005C0.102,0.005 0.069,-0.009 0.041,-0.036C0.014,-0.064 0,-0.097 0,-0.135C0,-0.161 0.007,-0.185 0.02,-0.207C0.033,-0.229 0.05,-0.247 0.072,-0.259C0.053,-0.293 0.037,-0.332 0.025,-0.376C0.014,-0.42 0.008,-0.465 0.008,-0.513L0.008,-0.672C0.021,-0.682 0.039,-0.69 0.061,-0.696C0.083,-0.702 0.105,-0.705 0.127,-0.705C0.176,-0.705 0.212,-0.693 0.233,-0.668C0.255,-0.644 0.266,-0.602 0.266,-0.544L0.266,-0.513C0.266,-0.438 0.248,-0.362 0.214,-0.286Z" style="fill:rgb(35,31,32);fill-rule:nonzero;"/>
                    </g>
                </g>
                <g transform="matrix(5.81116,0,0,3.77876,2397.29,3941.29)">
                    <path d="M0,-33.941C1.914,-24.424 3.978,-15.468 6.187,-7.071C8.396,1.326 10.68,8.987 13.037,15.91C15.394,22.835 17.662,28.683 19.843,33.455C21.61,34.811 23.673,36.005 26.03,37.035C28.387,38.067 30.936,38.921 33.676,39.598C36.416,40.275 39.288,40.791 42.294,41.145C45.299,41.498 48.362,41.675 51.486,41.675C56.082,41.675 60.442,41.351 64.567,40.703C68.691,40.056 72.419,38.966 75.748,37.433C79.077,35.901 81.905,33.824 84.233,31.202C86.561,28.58 88.256,25.266 89.316,21.258C94.914,-0.426 99.141,-17.441 102,-29.787C104.857,-42.13 106.287,-50.101 106.287,-53.695C106.287,-56.701 105.785,-59.514 104.784,-62.137C103.781,-64.758 102.19,-67.071 100.011,-69.075C97.83,-71.078 95.062,-72.655 91.702,-73.804C88.344,-74.953 84.336,-75.527 79.682,-75.527C77.795,-75.527 75.748,-75.379 73.539,-75.086C71.329,-74.79 69.164,-74.392 67.042,-73.892C64.921,-73.391 62.961,-72.787 61.164,-72.08C59.366,-71.373 57.968,-70.578 56.966,-69.694L53.077,-5.347C52.958,-3.637 52.62,-2.475 52.061,-1.856C51.5,-1.237 50.748,-0.928 49.807,-0.928C49.276,-0.928 48.657,-1.016 47.95,-1.193L50.779,-57.319C50.013,-59.675 48.937,-61.96 47.553,-64.17C46.167,-66.379 44.326,-68.324 42.028,-70.003C39.73,-71.683 36.916,-73.037 33.587,-74.069C30.258,-75.099 26.265,-75.616 21.61,-75.616C15.658,-75.616 10.43,-74.555 5.922,-72.434C1.414,-70.313 -2.166,-67.277 -4.817,-63.33C-3.521,-53.253 -1.916,-43.456 0,-33.941Z" style="fill:none;fill-rule:nonzero;stroke:rgb(249,220,173);stroke-width:18.95px;"/>
                </g>
                <g transform="matrix(5.81116,0,0,3.77876,3295.22,3872.43)">
                    <path d="M0,57.824C3.723,56.393 6.872,54.344 9.449,51.677C12.026,49.011 13.995,45.78 15.355,41.986C16.716,38.192 17.396,33.932 17.396,29.207C17.396,24.626 16.671,20.411 15.222,16.563C13.771,12.716 11.731,9.405 9.101,6.63C6.47,3.857 3.311,1.7 -0.376,0.16C-4.062,-1.378 -8.144,-2.148 -12.617,-2.148C-17.092,-2.148 -21.173,-1.432 -24.858,-0.001C-28.546,1.431 -31.714,3.489 -34.362,6.174C-37.012,8.858 -39.069,12.107 -40.536,15.919C-42.005,19.731 -42.737,23.999 -42.737,28.724C-42.737,33.95 -41.951,38.514 -40.375,42.415C-38.801,46.317 -36.662,49.574 -33.959,52.187C-31.257,54.8 -28.071,56.75 -24.402,58.039C-20.733,59.327 -16.805,59.972 -12.617,59.972C-7.929,59.972 -3.723,59.255 0,57.824ZM-13.853,28.402C-13.853,27.22 -13.87,26.21 -13.906,25.368C-13.942,24.528 -13.978,23.794 -14.014,23.167C-14.049,22.541 -14.103,21.977 -14.174,21.475C-14.246,20.975 -14.3,20.438 -14.335,19.865C-14.192,19.722 -14.022,19.596 -13.825,19.489C-13.629,19.382 -13.369,19.328 -13.047,19.328C-12.689,19.328 -12.376,19.435 -12.107,19.65C-11.839,19.865 -11.615,20.33 -11.437,21.046C-11.258,21.762 -11.141,22.675 -11.087,23.784C-11.033,24.894 -11.007,26.254 -11.007,27.865L-11.007,35.543C-11.007,36.474 -11.123,37.145 -11.355,37.556C-11.589,37.968 -12.045,38.174 -12.725,38.174C-13.227,38.174 -13.603,38.049 -13.853,37.798L-13.853,28.402Z" style="fill:none;fill-rule:nonzero;stroke:rgb(249,220,173);stroke-width:18.95px;"/>
                </g>
                <g transform="matrix(5.81116,0,0,3.77876,3454.35,3890.28)">
                    <path d="M0,35.168C0,38.462 0.465,41.315 1.396,43.732C2.326,46.148 3.651,48.161 5.369,49.772C7.087,51.383 9.136,52.583 11.517,53.369C13.896,54.156 16.537,54.55 19.436,54.55C25.198,54.55 29.637,53.244 32.751,50.631C35.865,48.019 37.422,44.224 37.422,39.249C37.422,38.032 37.306,36.815 37.073,35.598C36.84,34.381 36.581,33.235 36.295,32.162L33.986,32.162C32.16,32.162 30.746,31.634 29.744,30.578C28.742,29.522 28.241,27.759 28.241,25.289L28.241,17.182L35.919,17.182C36.957,15.678 37.735,13.898 38.255,11.839C38.773,9.782 39.033,7.839 39.033,6.014C39.033,4.081 38.773,2.14 38.255,0.189C37.735,-1.762 36.957,-3.524 35.919,-5.1L26.631,-5.1L26.631,-18.254C24.769,-18.647 23.061,-18.934 21.503,-19.113C19.946,-19.292 18.397,-19.382 16.858,-19.382C14.89,-19.382 12.957,-19.274 11.061,-19.06C9.162,-18.845 7.642,-18.594 6.496,-18.308C6.21,-17.484 5.87,-16.456 5.477,-15.221C5.082,-13.986 4.671,-12.706 4.241,-11.382C3.812,-10.057 3.383,-8.786 2.953,-7.57C2.523,-6.353 2.147,-5.368 1.825,-4.617C0.68,-3.758 -0.636,-2.791 -2.121,-1.717C-3.606,-0.644 -5.101,0.359 -6.604,1.289C-6.818,2.185 -6.989,3.303 -7.114,4.645C-7.24,5.987 -7.302,7.178 -7.302,8.215C-7.302,9.826 -7.204,11.41 -7.007,12.967C-6.811,14.524 -6.515,15.947 -6.121,17.235L5.906,17.235C5.978,17.45 6.014,17.665 6.014,17.88C6.014,18.417 5.799,18.846 5.369,19.168C4.939,19.49 4.259,19.651 3.329,19.651L0,19.651L0,35.168Z" style="fill:none;fill-rule:nonzero;stroke:rgb(249,220,173);stroke-width:18.95px;"/>
                </g>
                <g transform="matrix(5.81116,0,0,3.77876,3866.81,4003.59)">
                    <path d="M0,-11.383C-0.573,-11.579 -1.038,-11.786 -1.396,-12C-1.253,-12.931 -0.886,-13.673 -0.295,-14.229C0.296,-14.783 1.092,-15.061 2.094,-15.061C2.81,-15.061 3.427,-14.917 3.946,-14.631C4.465,-14.344 4.725,-13.843 4.725,-13.128C4.725,-12.519 4.501,-12.027 4.054,-11.652C3.605,-11.276 2.935,-11.088 2.04,-11.088C1.253,-11.088 0.572,-11.186 0,-11.383ZM11.409,24.643C13.86,24.232 16.018,23.695 17.879,23.033C19.74,22.371 21.351,21.601 22.711,20.724C24.071,19.847 25.323,18.926 26.47,17.959C26.612,17.422 26.729,16.787 26.818,16.053C26.907,15.32 26.953,14.541 26.953,13.718C26.953,12.894 26.89,11.991 26.765,11.006C26.639,10.022 26.451,9.065 26.201,8.134C25.95,7.203 25.655,6.353 25.315,5.583C24.975,4.814 24.572,4.233 24.107,3.838C23.391,4.34 22.496,4.858 21.423,5.395C20.349,5.932 19.087,6.425 17.638,6.872C16.187,7.32 14.551,7.696 12.725,7.999C10.899,8.304 8.877,8.456 6.658,8.456C5.047,8.456 3.437,8.322 1.825,8.053C0.215,7.784 -1.217,7.445 -2.47,7.033C-3.723,6.622 -4.743,6.156 -5.53,5.637C-6.317,5.118 -6.711,4.59 -6.711,4.053C-6.711,3.874 -6.685,3.669 -6.631,3.436C-6.577,3.203 -6.461,3.015 -6.281,2.872C-4.671,3.838 -2.729,4.608 -0.456,5.18C1.816,5.754 4.17,6.04 6.604,6.04C9.825,6.04 12.813,5.682 15.57,4.966C18.326,4.25 20.706,3.15 22.711,1.664C24.716,0.179 26.282,-1.71 27.409,-4.001C28.537,-6.291 29.101,-9.029 29.101,-12.215C29.101,-15.579 28.437,-18.747 27.114,-21.718C25.789,-24.689 23.901,-27.284 21.449,-29.504C18.997,-31.722 16.035,-33.467 12.563,-34.738C9.092,-36.008 5.189,-36.644 0.859,-36.644C-3.222,-36.644 -7.105,-35.982 -10.792,-34.658C-14.479,-33.333 -17.709,-31.364 -20.482,-28.752C-23.257,-26.139 -25.458,-22.9 -27.087,-19.034C-28.716,-15.168 -29.529,-10.712 -29.529,-5.665C-29.529,-0.868 -28.77,3.445 -27.248,7.275C-25.727,11.105 -23.562,14.353 -20.751,17.019C-17.941,19.686 -14.55,21.726 -10.577,23.14C-6.604,24.554 -2.166,25.261 2.738,25.261C6.067,25.261 8.957,25.055 11.409,24.643Z" style="fill:none;fill-rule:nonzero;stroke:rgb(249,220,173);stroke-width:18.95px;"/>
                </g>
                <g transform="matrix(5.81116,0,0,3.77876,4228.43,4027.84)">
                    <path d="M0,-42.631C0,-45.852 -0.296,-48.59 -0.886,-50.845C-1.477,-53.101 -2.39,-54.926 -3.624,-56.322C-4.859,-57.718 -6.435,-58.738 -8.35,-59.382C-10.265,-60.027 -12.546,-60.349 -15.194,-60.349C-16.52,-60.349 -17.825,-60.25 -19.114,-60.053C-20.402,-59.857 -21.629,-59.588 -22.792,-59.248C-23.955,-58.907 -25.012,-58.514 -25.96,-58.067C-26.908,-57.619 -27.705,-57.163 -28.349,-56.698L-28.349,-39.194C-28.349,-36.689 -28.187,-34.174 -27.866,-31.651C-27.544,-29.128 -27.069,-26.675 -26.443,-24.296C-25.817,-21.915 -25.065,-19.625 -24.187,-17.423C-23.312,-15.222 -22.336,-13.19 -21.262,-11.329C-23.624,-9.968 -25.539,-8.089 -27.007,-5.692C-28.475,-3.293 -29.208,-0.626 -29.208,2.308C-29.208,4.421 -28.797,6.415 -27.973,8.295C-27.15,10.174 -26.04,11.811 -24.645,13.207C-23.248,14.603 -21.62,15.704 -19.759,16.51C-17.897,17.315 -15.911,17.718 -13.799,17.718C-11.651,17.718 -9.629,17.315 -7.731,16.51C-5.835,15.704 -4.18,14.603 -2.766,13.207C-1.352,11.811 -0.233,10.174 0.59,8.295C1.413,6.415 1.825,4.421 1.825,2.308C1.825,0.268 1.449,-1.673 0.697,-3.517C-0.054,-5.36 -1.093,-6.98 -2.416,-8.376C-3.741,-9.772 -5.289,-10.9 -7.061,-11.759C-8.832,-12.618 -10.738,-13.119 -12.778,-13.262L-12.778,-13.477C-12.778,-14.193 -12.556,-14.702 -12.107,-15.007C-11.66,-15.311 -11.133,-15.464 -10.523,-15.464C-9.844,-15.464 -9.047,-15.338 -8.135,-15.088C-7.222,-14.837 -6.408,-14.55 -5.691,-14.229C-5.012,-15.696 -4.332,-17.316 -3.651,-19.088C-2.972,-20.86 -2.362,-22.792 -1.826,-24.886C-1.289,-26.98 -0.851,-29.216 -0.511,-31.597C-0.171,-33.978 0,-36.51 0,-39.194L0,-42.631Z" style="fill:none;fill-rule:nonzero;stroke:rgb(249,220,173);stroke-width:18.95px;"/>
                </g>
                <g transform="matrix(5.81116,0,0,3.77876,1670.76,3479.43)">
                    <g transform="matrix(181.019,0,0,181.019,114.611,156.891)">
                        <path d="M0.308,-0.538L0.292,-0.228C0.296,-0.227 0.3,-0.227 0.303,-0.227C0.313,-0.227 0.319,-0.235 0.321,-0.251L0.342,-0.606C0.352,-0.615 0.371,-0.623 0.398,-0.63C0.424,-0.636 0.447,-0.639 0.468,-0.639C0.517,-0.639 0.554,-0.627 0.578,-0.605C0.603,-0.583 0.615,-0.554 0.615,-0.518C0.615,-0.498 0.607,-0.454 0.591,-0.385C0.574,-0.315 0.551,-0.222 0.521,-0.104C0.51,-0.063 0.485,-0.033 0.446,-0.015C0.412,0.001 0.368,0.009 0.312,0.009C0.277,0.009 0.244,0.005 0.212,-0.003C0.181,-0.011 0.156,-0.022 0.137,-0.037C0.111,-0.093 0.086,-0.171 0.06,-0.27C0.034,-0.369 0.014,-0.47 0.001,-0.571C0.032,-0.617 0.08,-0.639 0.147,-0.639C0.233,-0.639 0.287,-0.605 0.308,-0.538Z" style="fill:rgb(46,41,79);fill-rule:nonzero;"/>
                    </g>
                    <g transform="matrix(109.959,0,0,109.959,230.294,156.891)">
                        <path d="M0.272,-0.272L0.272,-0.187C0.275,-0.184 0.278,-0.183 0.284,-0.183C0.289,-0.183 0.293,-0.185 0.295,-0.188C0.297,-0.192 0.298,-0.198 0.298,-0.207L0.298,-0.277C0.298,-0.308 0.297,-0.329 0.294,-0.339C0.292,-0.349 0.287,-0.354 0.28,-0.354C0.275,-0.354 0.271,-0.353 0.268,-0.35C0.271,-0.317 0.272,-0.292 0.272,-0.272ZM0.09,-0.056C0.036,-0.107 0.01,-0.177 0.01,-0.265C0.01,-0.353 0.035,-0.422 0.085,-0.473C0.135,-0.524 0.201,-0.55 0.283,-0.55C0.365,-0.55 0.431,-0.523 0.481,-0.47C0.532,-0.417 0.557,-0.348 0.557,-0.263C0.557,-0.178 0.532,-0.11 0.484,-0.06C0.436,-0.01 0.37,0.015 0.287,0.015C0.204,0.015 0.138,-0.008 0.09,-0.056Z" style="fill:rgb(46,41,79);fill-rule:nonzero;"/>
                    </g>
                    <g transform="matrix(109.959,0,0,109.959,293.531,156.891)">
                        <path d="M0.072,-0.309L0.103,-0.309C0.119,-0.309 0.127,-0.314 0.127,-0.325C0.127,-0.326 0.127,-0.328 0.126,-0.331L0.017,-0.331C0.009,-0.353 0.006,-0.379 0.006,-0.407C0.006,-0.435 0.008,-0.458 0.012,-0.476C0.031,-0.487 0.056,-0.505 0.089,-0.529C0.098,-0.551 0.11,-0.587 0.125,-0.635C0.126,-0.641 0.129,-0.648 0.131,-0.654C0.157,-0.66 0.186,-0.664 0.218,-0.664C0.251,-0.664 0.283,-0.66 0.314,-0.653L0.314,-0.534L0.399,-0.534C0.418,-0.505 0.427,-0.471 0.427,-0.433C0.427,-0.415 0.425,-0.397 0.42,-0.378C0.415,-0.36 0.408,-0.344 0.399,-0.331L0.329,-0.331L0.329,-0.257C0.329,-0.216 0.347,-0.195 0.381,-0.195L0.402,-0.195C0.409,-0.17 0.413,-0.149 0.413,-0.13C0.413,-0.085 0.399,-0.051 0.37,-0.027C0.342,-0.003 0.301,0.009 0.248,0.009C0.194,0.009 0.152,-0.006 0.12,-0.036C0.088,-0.066 0.072,-0.11 0.072,-0.167L0.072,-0.309Z" style="fill:rgb(46,41,79);fill-rule:nonzero;"/>
                    </g>
                    <g transform="matrix(109.959,0,0,109.959,341.842,156.891)">
                        <path d="M0.303,0.015C0.213,0.015 0.142,-0.01 0.09,-0.06C0.036,-0.111 0.01,-0.18 0.01,-0.267C0.01,-0.355 0.037,-0.425 0.092,-0.476C0.143,-0.524 0.207,-0.548 0.285,-0.548C0.363,-0.548 0.425,-0.526 0.472,-0.484C0.519,-0.441 0.543,-0.388 0.543,-0.326C0.543,-0.27 0.524,-0.228 0.485,-0.2C0.449,-0.173 0.4,-0.16 0.338,-0.16C0.292,-0.16 0.253,-0.169 0.221,-0.188C0.219,-0.187 0.217,-0.183 0.217,-0.178C0.217,-0.168 0.23,-0.159 0.256,-0.151C0.282,-0.142 0.311,-0.138 0.344,-0.138C0.376,-0.138 0.406,-0.142 0.433,-0.15C0.46,-0.158 0.481,-0.168 0.498,-0.18C0.505,-0.173 0.512,-0.16 0.516,-0.142C0.521,-0.123 0.523,-0.107 0.523,-0.092C0.523,-0.076 0.522,-0.063 0.519,-0.051C0.494,-0.03 0.468,-0.014 0.441,-0.005C0.403,0.008 0.357,0.015 0.303,0.015ZM0.297,-0.315C0.313,-0.315 0.321,-0.322 0.321,-0.334C0.321,-0.346 0.313,-0.352 0.295,-0.352C0.278,-0.352 0.268,-0.342 0.266,-0.324C0.275,-0.318 0.285,-0.315 0.297,-0.315Z" style="fill:rgb(46,41,79);fill-rule:nonzero;"/>
                    </g>
                    <g transform="matrix(109.959,0,0,109.959,405.454,156.891)">
                        <path d="M0.214,-0.286C0.197,-0.293 0.182,-0.297 0.169,-0.297C0.156,-0.297 0.149,-0.291 0.149,-0.279L0.149,-0.277C0.187,-0.274 0.218,-0.259 0.244,-0.232C0.269,-0.205 0.282,-0.172 0.282,-0.135C0.282,-0.097 0.268,-0.064 0.241,-0.036C0.213,-0.009 0.179,0.005 0.141,0.005C0.102,0.005 0.069,-0.009 0.041,-0.036C0.014,-0.064 0,-0.097 0,-0.135C0,-0.161 0.007,-0.185 0.02,-0.207C0.033,-0.229 0.05,-0.247 0.072,-0.259C0.053,-0.293 0.037,-0.332 0.025,-0.376C0.014,-0.42 0.008,-0.465 0.008,-0.513L0.008,-0.672C0.021,-0.682 0.039,-0.69 0.061,-0.696C0.083,-0.702 0.105,-0.705 0.127,-0.705C0.176,-0.705 0.212,-0.693 0.233,-0.668C0.255,-0.644 0.266,-0.602 0.266,-0.544L0.266,-0.513C0.266,-0.438 0.248,-0.362 0.214,-0.286Z" style="fill:rgb(46,41,79);fill-rule:nonzero;"/>
                    </g>
                </g>
            </g>
        </g>
    </g>
</svg>
