<?xml version="1.0" encoding="UTF-8" standalone="no"?>
<!DOCTYPE svg PUBLIC "-//W3C//DTD SVG 1.1//EN" "http://www.w3.org/Graphics/SVG/1.1/DTD/svg11.dtd">
<svg width="100%" height="100%" viewBox="0 0 1349 167" version="1.1" xmlns="http://www.w3.org/2000/svg" xmlns:xlink="http://www.w3.org/1999/xlink" xml:space="preserve" xmlns:serif="http://www.serif.com/" style="fill-rule:evenodd;clip-rule:evenodd;stroke-miterlimit:10;">
    <g transform="matrix(1,0,0,1,-2420.28,-4213.05)">
        <g id="WaitingForPlayers" transform="matrix(0.702089,0,0,0.154539,2420.28,4213.05)">
            <rect x="0" y="0" width="1920" height="1080" style="fill:none;"/>
            <clipPath id="_clip1">
                <rect x="0" y="0" width="1920" height="1080"/>
            </clipPath>
            <g clip-path="url(#_clip1)">
                <g id="Layer-1" serif:id="Layer 1">
                </g>
                <g id="Waiting-For-Players" serif:id="Waiting For Players" transform="matrix(1.42432,0,0,6.47085,-149.478,-150.215)">
                    <g>
                        <g transform="matrix(181.019,0,0,181.019,114.329,150.281)">
                            <path d="M0.287,0.008C0.255,0.008 0.229,0.006 0.208,0.001C0.178,-0.005 0.157,-0.015 0.143,-0.028C0.112,-0.093 0.086,-0.164 0.064,-0.241C0.034,-0.347 0.013,-0.458 0.001,-0.571C0.016,-0.593 0.036,-0.609 0.061,-0.621C0.086,-0.633 0.115,-0.639 0.146,-0.639C0.193,-0.639 0.23,-0.63 0.257,-0.612C0.283,-0.594 0.297,-0.569 0.297,-0.536C0.295,-0.511 0.293,-0.475 0.291,-0.427C0.289,-0.379 0.288,-0.336 0.288,-0.297C0.288,-0.286 0.289,-0.278 0.291,-0.272C0.293,-0.266 0.298,-0.263 0.305,-0.263C0.307,-0.263 0.311,-0.263 0.314,-0.264C0.314,-0.267 0.314,-0.272 0.314,-0.279L0.314,-0.296C0.314,-0.343 0.316,-0.398 0.319,-0.459C0.322,-0.521 0.326,-0.567 0.331,-0.597C0.36,-0.615 0.395,-0.625 0.435,-0.625C0.475,-0.625 0.507,-0.619 0.532,-0.608C0.561,-0.594 0.576,-0.574 0.578,-0.548C0.576,-0.516 0.573,-0.485 0.569,-0.454C0.565,-0.423 0.559,-0.387 0.553,-0.347C0.547,-0.306 0.543,-0.28 0.542,-0.267C0.544,-0.265 0.548,-0.265 0.552,-0.265C0.556,-0.265 0.56,-0.266 0.563,-0.27C0.567,-0.273 0.57,-0.281 0.572,-0.293C0.582,-0.345 0.591,-0.4 0.597,-0.458C0.604,-0.516 0.608,-0.566 0.61,-0.609C0.64,-0.629 0.681,-0.639 0.734,-0.639C0.777,-0.639 0.811,-0.628 0.836,-0.605C0.861,-0.583 0.874,-0.552 0.874,-0.514C0.874,-0.489 0.862,-0.422 0.838,-0.314C0.826,-0.258 0.814,-0.209 0.802,-0.169C0.791,-0.129 0.782,-0.101 0.774,-0.084C0.759,-0.052 0.737,-0.028 0.707,-0.013C0.677,0.001 0.639,0.008 0.593,0.008C0.575,0.008 0.553,0.006 0.529,-0C0.505,-0.006 0.486,-0.012 0.474,-0.019C0.467,-0.029 0.46,-0.044 0.452,-0.064C0.444,-0.085 0.438,-0.1 0.437,-0.111C0.424,-0.111 0.417,-0.104 0.417,-0.09C0.417,-0.08 0.423,-0.061 0.433,-0.033C0.398,-0.005 0.35,0.008 0.287,0.008Z" style="fill:rgb(35,31,32);fill-rule:nonzero;"/>
                        </g>
                        <g transform="matrix(109.959,0,0,109.959,276.961,150.281)">
                            <path d="M0.509,-0.242C0.509,-0.218 0.512,-0.199 0.517,-0.185C0.522,-0.171 0.531,-0.16 0.544,-0.151C0.545,-0.15 0.545,-0.147 0.545,-0.142L0.545,-0.133C0.545,-0.087 0.531,-0.051 0.503,-0.025C0.478,-0.003 0.448,0.009 0.411,0.009C0.386,0.009 0.364,0.003 0.343,-0.009C0.323,-0.021 0.308,-0.037 0.299,-0.06C0.288,-0.06 0.283,-0.054 0.283,-0.043C0.283,-0.034 0.288,-0.024 0.3,-0.013C0.279,0.002 0.247,0.009 0.204,0.009C0.144,0.009 0.096,-0.008 0.06,-0.04C0.024,-0.073 0.006,-0.119 0.006,-0.177C0.006,-0.236 0.025,-0.282 0.063,-0.314C0.098,-0.343 0.143,-0.357 0.198,-0.357C0.217,-0.357 0.235,-0.356 0.253,-0.354C0.265,-0.351 0.271,-0.35 0.272,-0.35C0.273,-0.353 0.273,-0.356 0.273,-0.358C0.273,-0.366 0.266,-0.372 0.252,-0.375C0.238,-0.378 0.219,-0.379 0.196,-0.379C0.147,-0.379 0.105,-0.369 0.07,-0.35C0.054,-0.377 0.046,-0.411 0.046,-0.452C0.046,-0.476 0.049,-0.493 0.055,-0.504C0.078,-0.515 0.108,-0.525 0.144,-0.533C0.18,-0.541 0.218,-0.545 0.258,-0.545C0.341,-0.545 0.403,-0.527 0.446,-0.491C0.488,-0.455 0.509,-0.404 0.509,-0.337L0.509,-0.242ZM0.256,-0.218C0.242,-0.218 0.235,-0.212 0.235,-0.199C0.235,-0.188 0.243,-0.182 0.259,-0.182C0.27,-0.182 0.278,-0.184 0.284,-0.19C0.289,-0.195 0.292,-0.204 0.292,-0.218L0.256,-0.218Z" style="fill:rgb(35,31,32);fill-rule:nonzero;"/>
                        </g>
                        <g transform="matrix(109.959,0,0,109.959,339.402,150.281)">
                            <path d="M0.267,-0.439L0.267,-0.246C0.267,-0.198 0.278,-0.166 0.302,-0.151C0.302,-0.15 0.302,-0.147 0.302,-0.142L0.302,-0.133C0.302,-0.085 0.289,-0.049 0.263,-0.025C0.239,-0.003 0.207,0.009 0.167,0.009C0.127,0.009 0.093,-0.003 0.067,-0.025C0.035,-0.054 0.018,-0.097 0.018,-0.152L0.018,-0.47C0.024,-0.474 0.03,-0.477 0.037,-0.48C0.044,-0.483 0.051,-0.486 0.059,-0.49C0.045,-0.497 0.032,-0.509 0.021,-0.527C0.009,-0.545 0.003,-0.566 0.003,-0.589C0.003,-0.63 0.017,-0.664 0.044,-0.69C0.071,-0.716 0.104,-0.729 0.143,-0.729C0.183,-0.729 0.215,-0.716 0.242,-0.689C0.268,-0.663 0.282,-0.629 0.282,-0.589C0.282,-0.557 0.272,-0.529 0.251,-0.505C0.231,-0.48 0.207,-0.465 0.178,-0.459C0.178,-0.447 0.182,-0.44 0.192,-0.44C0.208,-0.44 0.225,-0.447 0.243,-0.46C0.256,-0.45 0.264,-0.443 0.267,-0.439Z" style="fill:rgb(35,31,32);fill-rule:nonzero;"/>
                        </g>
                        <g transform="matrix(109.959,0,0,109.959,373.978,150.281)">
                            <path d="M0.072,-0.309L0.103,-0.309C0.119,-0.309 0.127,-0.314 0.127,-0.325C0.127,-0.326 0.127,-0.328 0.126,-0.331L0.017,-0.331C0.009,-0.353 0.006,-0.379 0.006,-0.407C0.006,-0.435 0.008,-0.458 0.012,-0.476C0.031,-0.487 0.056,-0.505 0.089,-0.529C0.098,-0.551 0.11,-0.587 0.125,-0.635C0.126,-0.641 0.129,-0.648 0.131,-0.654C0.157,-0.66 0.186,-0.664 0.218,-0.664C0.251,-0.664 0.283,-0.66 0.314,-0.653L0.314,-0.534L0.399,-0.534C0.418,-0.505 0.427,-0.471 0.427,-0.433C0.427,-0.415 0.425,-0.397 0.42,-0.378C0.415,-0.36 0.408,-0.344 0.399,-0.331L0.329,-0.331L0.329,-0.257C0.329,-0.216 0.347,-0.195 0.381,-0.195L0.402,-0.195C0.409,-0.17 0.413,-0.149 0.413,-0.13C0.413,-0.085 0.399,-0.051 0.37,-0.027C0.342,-0.003 0.301,0.009 0.248,0.009C0.194,0.009 0.152,-0.006 0.12,-0.036C0.088,-0.066 0.072,-0.11 0.072,-0.167L0.072,-0.309Z" style="fill:rgb(35,31,32);fill-rule:nonzero;"/>
                        </g>
                        <g transform="matrix(109.959,0,0,109.959,423.909,150.281)">
                            <path d="M0.267,-0.439L0.267,-0.246C0.267,-0.198 0.278,-0.166 0.302,-0.151C0.302,-0.15 0.302,-0.147 0.302,-0.142L0.302,-0.133C0.302,-0.085 0.289,-0.049 0.263,-0.025C0.239,-0.003 0.207,0.009 0.167,0.009C0.127,0.009 0.093,-0.003 0.067,-0.025C0.035,-0.054 0.018,-0.097 0.018,-0.152L0.018,-0.47C0.024,-0.474 0.03,-0.477 0.037,-0.48C0.044,-0.483 0.051,-0.486 0.059,-0.49C0.045,-0.497 0.032,-0.509 0.021,-0.527C0.009,-0.545 0.003,-0.566 0.003,-0.589C0.003,-0.63 0.017,-0.664 0.044,-0.69C0.071,-0.716 0.104,-0.729 0.143,-0.729C0.183,-0.729 0.215,-0.716 0.242,-0.689C0.268,-0.663 0.282,-0.629 0.282,-0.589C0.282,-0.557 0.272,-0.529 0.251,-0.505C0.231,-0.48 0.207,-0.465 0.178,-0.459C0.178,-0.447 0.182,-0.44 0.192,-0.44C0.208,-0.44 0.225,-0.447 0.243,-0.46C0.256,-0.45 0.264,-0.443 0.267,-0.439Z" style="fill:rgb(35,31,32);fill-rule:nonzero;"/>
                        </g>
                        <g transform="matrix(109.959,0,0,109.959,460.095,150.281)">
                            <path d="M0.532,-0.242C0.532,-0.218 0.535,-0.199 0.54,-0.185C0.545,-0.171 0.554,-0.16 0.567,-0.151C0.568,-0.15 0.568,-0.147 0.568,-0.142L0.568,-0.133C0.568,-0.088 0.555,-0.053 0.529,-0.029C0.503,-0.004 0.47,0.009 0.429,0.009C0.388,0.009 0.355,-0.003 0.33,-0.026C0.3,-0.052 0.285,-0.092 0.285,-0.146C0.285,-0.169 0.286,-0.189 0.288,-0.206C0.29,-0.224 0.292,-0.236 0.293,-0.244C0.294,-0.251 0.294,-0.258 0.295,-0.265C0.296,-0.271 0.297,-0.281 0.297,-0.293C0.297,-0.306 0.295,-0.315 0.292,-0.321C0.288,-0.326 0.284,-0.329 0.278,-0.329C0.272,-0.329 0.266,-0.328 0.262,-0.325L0.268,-0.246C0.262,-0.213 0.259,-0.178 0.259,-0.141C0.259,-0.104 0.268,-0.071 0.284,-0.041C0.252,-0.008 0.208,0.009 0.15,0.009C0.117,0.009 0.089,0 0.064,-0.017C0.036,-0.037 0.022,-0.063 0.022,-0.095L0.022,-0.331C0.003,-0.358 -0.006,-0.391 -0.006,-0.431C-0.006,-0.47 0.003,-0.505 0.022,-0.534L0.109,-0.534C0.132,-0.534 0.152,-0.525 0.168,-0.508C0.154,-0.494 0.147,-0.483 0.147,-0.475C0.147,-0.465 0.153,-0.459 0.164,-0.459C0.178,-0.484 0.2,-0.505 0.23,-0.521C0.259,-0.537 0.293,-0.545 0.33,-0.545C0.386,-0.545 0.432,-0.532 0.467,-0.504C0.512,-0.469 0.534,-0.415 0.534,-0.342L0.532,-0.242Z" style="fill:rgb(35,31,32);fill-rule:nonzero;"/>
                        </g>
                        <g transform="matrix(109.959,0,0,109.959,524.683,150.281)">
                            <path d="M0.292,-0.35C0.292,-0.362 0.287,-0.368 0.278,-0.368C0.27,-0.368 0.266,-0.363 0.266,-0.353L0.266,-0.303C0.269,-0.3 0.273,-0.299 0.278,-0.299C0.283,-0.299 0.287,-0.301 0.289,-0.305C0.291,-0.309 0.292,-0.316 0.292,-0.327L0.292,-0.35ZM0.31,-0.152C0.289,-0.152 0.271,-0.154 0.256,-0.157C0.255,-0.154 0.255,-0.151 0.255,-0.148C0.255,-0.141 0.26,-0.136 0.27,-0.134C0.281,-0.132 0.294,-0.13 0.31,-0.13C0.36,-0.13 0.404,-0.138 0.439,-0.153C0.475,-0.144 0.502,-0.124 0.521,-0.093C0.537,-0.068 0.545,-0.039 0.545,-0.005C0.545,0.055 0.52,0.102 0.469,0.136C0.418,0.169 0.352,0.186 0.271,0.186C0.191,0.186 0.128,0.172 0.084,0.143C0.044,0.117 0.023,0.083 0.023,0.042C0.023,0.026 0.027,0.01 0.035,-0.005C0.042,-0.019 0.051,-0.03 0.061,-0.035C0.077,-0.021 0.101,-0.01 0.133,-0.002C0.164,0.007 0.197,0.011 0.23,0.011C0.264,0.011 0.286,0.009 0.295,0.007C0.305,0.004 0.31,-0 0.31,-0.007C0.31,-0.01 0.309,-0.013 0.307,-0.017C0.29,-0.013 0.27,-0.011 0.246,-0.011C0.183,-0.011 0.133,-0.02 0.098,-0.038C0.054,-0.06 0.032,-0.092 0.032,-0.135C0.032,-0.152 0.036,-0.168 0.042,-0.182C0.049,-0.197 0.059,-0.208 0.073,-0.215C0.055,-0.226 0.04,-0.243 0.027,-0.265C0.015,-0.288 0.008,-0.315 0.008,-0.348C0.008,-0.411 0.032,-0.46 0.079,-0.496C0.125,-0.532 0.186,-0.55 0.261,-0.55C0.297,-0.55 0.332,-0.544 0.366,-0.532L0.366,-0.566C0.385,-0.574 0.41,-0.578 0.442,-0.578C0.474,-0.578 0.498,-0.572 0.515,-0.562C0.535,-0.549 0.545,-0.526 0.545,-0.493C0.545,-0.474 0.543,-0.46 0.539,-0.449C0.536,-0.438 0.53,-0.426 0.523,-0.414C0.531,-0.393 0.536,-0.366 0.536,-0.334C0.536,-0.276 0.515,-0.232 0.474,-0.2C0.434,-0.168 0.379,-0.152 0.31,-0.152Z" style="fill:rgb(35,31,32);fill-rule:nonzero;"/>
                        </g>
                        <g transform="matrix(181.019,0,0,181.019,615.701,150.281)">
                            <path d="M0.3,-0.161L0.3,-0.037C0.285,-0.024 0.265,-0.013 0.24,-0.004C0.216,0.004 0.185,0.009 0.15,0.009C0.114,0.009 0.083,0.001 0.058,-0.015C0.029,-0.032 0.015,-0.057 0.015,-0.089L0.015,-0.585C0.015,-0.615 0.089,-0.63 0.235,-0.63L0.522,-0.63C0.531,-0.613 0.538,-0.593 0.543,-0.572C0.548,-0.551 0.55,-0.532 0.55,-0.515C0.55,-0.44 0.517,-0.403 0.452,-0.403L0.283,-0.403C0.27,-0.403 0.264,-0.398 0.264,-0.387L0.264,-0.384C0.264,-0.382 0.264,-0.381 0.265,-0.38L0.481,-0.38C0.498,-0.352 0.506,-0.32 0.506,-0.284C0.506,-0.24 0.496,-0.205 0.476,-0.181L0.237,-0.181C0.234,-0.178 0.233,-0.175 0.233,-0.172C0.233,-0.167 0.237,-0.164 0.245,-0.163C0.253,-0.162 0.262,-0.161 0.272,-0.161C0.282,-0.161 0.292,-0.161 0.3,-0.161Z" style="fill:rgb(35,31,32);fill-rule:nonzero;"/>
                        </g>
                        <g transform="matrix(109.959,0,0,109.959,716.108,150.281)">
                            <path d="M0.272,-0.272L0.272,-0.187C0.275,-0.184 0.278,-0.183 0.284,-0.183C0.289,-0.183 0.293,-0.185 0.295,-0.188C0.297,-0.192 0.298,-0.198 0.298,-0.207L0.298,-0.277C0.298,-0.308 0.297,-0.329 0.294,-0.339C0.292,-0.349 0.287,-0.354 0.28,-0.354C0.275,-0.354 0.271,-0.353 0.268,-0.35C0.271,-0.317 0.272,-0.292 0.272,-0.272ZM0.09,-0.056C0.036,-0.107 0.01,-0.177 0.01,-0.265C0.01,-0.353 0.035,-0.422 0.085,-0.473C0.135,-0.524 0.201,-0.55 0.283,-0.55C0.365,-0.55 0.431,-0.523 0.481,-0.47C0.532,-0.417 0.557,-0.348 0.557,-0.263C0.557,-0.178 0.532,-0.11 0.484,-0.06C0.436,-0.01 0.37,0.015 0.287,0.015C0.204,0.015 0.138,-0.008 0.09,-0.056Z" style="fill:rgb(35,31,32);fill-rule:nonzero;"/>
                        </g>
                        <g transform="matrix(109.959,0,0,109.959,781.395,150.281)">
                            <path d="M0.154,0.006C0.115,0.006 0.084,-0.001 0.061,-0.015C0.035,-0.029 0.022,-0.051 0.022,-0.08L0.022,-0.331C0.003,-0.358 -0.006,-0.391 -0.006,-0.431C-0.006,-0.47 0.003,-0.505 0.022,-0.534L0.097,-0.534C0.136,-0.534 0.163,-0.521 0.18,-0.497C0.172,-0.487 0.164,-0.476 0.158,-0.462C0.152,-0.448 0.149,-0.438 0.149,-0.432C0.149,-0.426 0.15,-0.421 0.154,-0.418C0.157,-0.416 0.161,-0.414 0.167,-0.414C0.178,-0.459 0.2,-0.493 0.232,-0.514C0.258,-0.532 0.291,-0.541 0.33,-0.541C0.378,-0.541 0.416,-0.53 0.443,-0.51C0.453,-0.484 0.458,-0.452 0.458,-0.414C0.458,-0.377 0.45,-0.343 0.435,-0.312C0.424,-0.306 0.409,-0.301 0.389,-0.297C0.37,-0.293 0.35,-0.291 0.33,-0.291C0.31,-0.291 0.292,-0.292 0.277,-0.295C0.261,-0.298 0.249,-0.3 0.242,-0.303C0.24,-0.3 0.238,-0.296 0.238,-0.292C0.238,-0.287 0.241,-0.283 0.248,-0.281C0.254,-0.278 0.265,-0.275 0.28,-0.272L0.28,-0.027C0.244,-0.005 0.202,0.006 0.154,0.006Z" style="fill:rgb(35,31,32);fill-rule:nonzero;"/>
                        </g>
                        <g transform="matrix(181.019,0,0,181.019,857.373,150.281)">
                            <path d="M0.289,-0.328C0.29,-0.327 0.294,-0.326 0.3,-0.326C0.306,-0.326 0.311,-0.329 0.314,-0.333C0.317,-0.338 0.319,-0.346 0.319,-0.357L0.319,-0.395C0.319,-0.406 0.317,-0.415 0.315,-0.42C0.312,-0.425 0.307,-0.427 0.301,-0.427C0.295,-0.427 0.29,-0.427 0.288,-0.425C0.288,-0.424 0.289,-0.421 0.289,-0.417L0.289,-0.328ZM0.301,-0.107L0.301,-0.032C0.286,-0.02 0.266,-0.01 0.24,-0.003C0.214,0.005 0.187,0.009 0.159,0.009C0.118,0.009 0.085,0.001 0.06,-0.015C0.03,-0.033 0.016,-0.058 0.016,-0.092L0.016,-0.556C0.016,-0.567 0.023,-0.577 0.037,-0.587C0.051,-0.598 0.071,-0.607 0.096,-0.616C0.149,-0.634 0.211,-0.643 0.28,-0.643C0.375,-0.643 0.451,-0.619 0.508,-0.572C0.564,-0.524 0.593,-0.46 0.593,-0.38C0.593,-0.3 0.567,-0.237 0.516,-0.193C0.467,-0.151 0.399,-0.129 0.312,-0.129C0.292,-0.129 0.27,-0.132 0.248,-0.136C0.225,-0.141 0.21,-0.145 0.202,-0.149C0.2,-0.146 0.198,-0.143 0.198,-0.138C0.198,-0.122 0.232,-0.111 0.301,-0.107Z" style="fill:rgb(35,31,32);fill-rule:nonzero;"/>
                        </g>
                        <g transform="matrix(109.96,0,0,109.96,967.149,150.281)">
                            <path d="M0.267,-0.589L0.267,-0.246C0.267,-0.198 0.278,-0.166 0.302,-0.151C0.302,-0.15 0.302,-0.147 0.302,-0.142L0.302,-0.133C0.302,-0.087 0.29,-0.051 0.267,-0.027C0.243,-0.003 0.21,0.009 0.167,0.009C0.123,0.009 0.089,-0.003 0.063,-0.027C0.033,-0.056 0.018,-0.099 0.018,-0.157L0.018,-0.665C0.052,-0.685 0.091,-0.696 0.135,-0.696C0.18,-0.696 0.212,-0.686 0.234,-0.668C0.256,-0.649 0.267,-0.623 0.267,-0.589Z" style="fill:rgb(35,31,32);fill-rule:nonzero;"/>
                        </g>
                        <g transform="matrix(109.96,0,0,109.96,1003.34,150.281)">
                            <path d="M0.509,-0.242C0.509,-0.218 0.512,-0.199 0.517,-0.185C0.522,-0.171 0.531,-0.16 0.544,-0.151C0.545,-0.15 0.545,-0.147 0.545,-0.142L0.545,-0.133C0.545,-0.087 0.531,-0.051 0.503,-0.025C0.478,-0.003 0.448,0.009 0.411,0.009C0.386,0.009 0.364,0.003 0.343,-0.009C0.323,-0.021 0.308,-0.037 0.299,-0.06C0.288,-0.06 0.283,-0.054 0.283,-0.043C0.283,-0.034 0.288,-0.024 0.3,-0.013C0.279,0.002 0.247,0.009 0.204,0.009C0.144,0.009 0.096,-0.008 0.06,-0.04C0.024,-0.073 0.006,-0.119 0.006,-0.177C0.006,-0.236 0.025,-0.282 0.063,-0.314C0.098,-0.343 0.143,-0.357 0.198,-0.357C0.217,-0.357 0.235,-0.356 0.253,-0.354C0.265,-0.351 0.271,-0.35 0.272,-0.35C0.273,-0.353 0.273,-0.356 0.273,-0.358C0.273,-0.366 0.266,-0.372 0.252,-0.375C0.238,-0.378 0.219,-0.379 0.196,-0.379C0.147,-0.379 0.105,-0.369 0.07,-0.35C0.054,-0.377 0.046,-0.411 0.046,-0.452C0.046,-0.476 0.049,-0.493 0.055,-0.504C0.078,-0.515 0.108,-0.525 0.144,-0.533C0.18,-0.541 0.218,-0.545 0.258,-0.545C0.341,-0.545 0.403,-0.527 0.446,-0.491C0.488,-0.455 0.509,-0.404 0.509,-0.337L0.509,-0.242ZM0.256,-0.218C0.242,-0.218 0.235,-0.212 0.235,-0.199C0.235,-0.188 0.243,-0.182 0.259,-0.182C0.27,-0.182 0.278,-0.184 0.284,-0.19C0.289,-0.195 0.292,-0.204 0.292,-0.218L0.256,-0.218Z" style="fill:rgb(35,31,32);fill-rule:nonzero;"/>
                        </g>
                        <g transform="matrix(109.96,0,0,109.96,1065.24,150.281)">
                            <path d="M0.254,-0.247L0.254,-0.235C0.254,-0.23 0.254,-0.226 0.254,-0.224C0.258,-0.222 0.261,-0.222 0.265,-0.222C0.275,-0.222 0.279,-0.229 0.279,-0.243C0.279,-0.291 0.282,-0.341 0.287,-0.392C0.293,-0.444 0.299,-0.484 0.305,-0.512C0.331,-0.531 0.366,-0.541 0.41,-0.541C0.454,-0.541 0.488,-0.532 0.512,-0.515C0.536,-0.498 0.548,-0.477 0.548,-0.453C0.548,-0.443 0.542,-0.401 0.53,-0.328C0.516,-0.254 0.499,-0.175 0.479,-0.093C0.474,-0.076 0.467,-0.053 0.456,-0.023C0.445,0.007 0.433,0.032 0.421,0.052C0.382,0.113 0.334,0.151 0.277,0.166C0.251,0.173 0.224,0.176 0.197,0.176C0.144,0.176 0.104,0.163 0.075,0.137C0.049,0.114 0.036,0.085 0.036,0.05C0.036,0.015 0.046,-0.017 0.066,-0.048C0.071,-0.049 0.08,-0.05 0.093,-0.05C0.106,-0.05 0.123,-0.048 0.142,-0.045C0.196,-0.035 0.224,-0.03 0.225,-0.03C0.227,-0.029 0.229,-0.029 0.232,-0.029C0.235,-0.028 0.239,-0.028 0.243,-0.028C0.248,-0.028 0.252,-0.029 0.255,-0.032C0.258,-0.034 0.26,-0.04 0.26,-0.047L0.145,-0.069C0.116,-0.081 0.092,-0.106 0.071,-0.143C0.045,-0.189 0.028,-0.252 0.019,-0.331C-0.003,-0.359 -0.014,-0.393 -0.014,-0.432C-0.014,-0.471 -0.004,-0.505 0.016,-0.534L0.141,-0.534C0.183,-0.534 0.215,-0.522 0.235,-0.498C0.251,-0.48 0.26,-0.453 0.265,-0.419C0.257,-0.362 0.254,-0.305 0.254,-0.247Z" style="fill:rgb(35,31,32);fill-rule:nonzero;"/>
                        </g>
                        <g transform="matrix(109.96,0,0,109.96,1127.09,150.281)">
                            <path d="M0.303,0.015C0.213,0.015 0.142,-0.01 0.09,-0.06C0.036,-0.111 0.01,-0.18 0.01,-0.267C0.01,-0.355 0.037,-0.425 0.092,-0.476C0.143,-0.524 0.207,-0.548 0.285,-0.548C0.363,-0.548 0.425,-0.526 0.472,-0.484C0.519,-0.441 0.543,-0.388 0.543,-0.326C0.543,-0.27 0.524,-0.228 0.485,-0.2C0.449,-0.173 0.4,-0.16 0.338,-0.16C0.292,-0.16 0.253,-0.169 0.221,-0.188C0.219,-0.187 0.217,-0.183 0.217,-0.178C0.217,-0.168 0.23,-0.159 0.256,-0.151C0.282,-0.142 0.311,-0.138 0.344,-0.138C0.376,-0.138 0.406,-0.142 0.433,-0.15C0.46,-0.158 0.481,-0.168 0.498,-0.18C0.505,-0.173 0.512,-0.16 0.516,-0.142C0.521,-0.123 0.523,-0.107 0.523,-0.092C0.523,-0.076 0.522,-0.063 0.519,-0.051C0.494,-0.03 0.468,-0.014 0.441,-0.005C0.403,0.008 0.357,0.015 0.303,0.015ZM0.297,-0.315C0.313,-0.315 0.321,-0.322 0.321,-0.334C0.321,-0.346 0.313,-0.352 0.295,-0.352C0.278,-0.352 0.268,-0.342 0.266,-0.324C0.275,-0.318 0.285,-0.315 0.297,-0.315Z" style="fill:rgb(35,31,32);fill-rule:nonzero;"/>
                        </g>
                        <g transform="matrix(109.96,0,0,109.96,1190.71,150.281)">
                            <path d="M0.154,0.006C0.115,0.006 0.084,-0.001 0.061,-0.015C0.035,-0.029 0.022,-0.051 0.022,-0.08L0.022,-0.331C0.003,-0.358 -0.006,-0.391 -0.006,-0.431C-0.006,-0.47 0.003,-0.505 0.022,-0.534L0.097,-0.534C0.136,-0.534 0.163,-0.521 0.18,-0.497C0.172,-0.487 0.164,-0.476 0.158,-0.462C0.152,-0.448 0.149,-0.438 0.149,-0.432C0.149,-0.426 0.15,-0.421 0.154,-0.418C0.157,-0.416 0.161,-0.414 0.167,-0.414C0.178,-0.459 0.2,-0.493 0.232,-0.514C0.258,-0.532 0.291,-0.541 0.33,-0.541C0.378,-0.541 0.416,-0.53 0.443,-0.51C0.453,-0.484 0.458,-0.452 0.458,-0.414C0.458,-0.377 0.45,-0.343 0.435,-0.312C0.424,-0.306 0.409,-0.301 0.389,-0.297C0.37,-0.293 0.35,-0.291 0.33,-0.291C0.31,-0.291 0.292,-0.292 0.277,-0.295C0.261,-0.298 0.249,-0.3 0.242,-0.303C0.24,-0.3 0.238,-0.296 0.238,-0.292C0.238,-0.287 0.241,-0.283 0.248,-0.281C0.254,-0.278 0.265,-0.275 0.28,-0.272L0.28,-0.027C0.244,-0.005 0.202,0.006 0.154,0.006Z" style="fill:rgb(35,31,32);fill-rule:nonzero;"/>
                        </g>
                        <g transform="matrix(109.96,0,0,109.96,1244.51,150.281)">
                            <path d="M0.277,-0.383C0.268,-0.38 0.264,-0.375 0.264,-0.368L0.264,-0.365C0.264,-0.364 0.264,-0.363 0.265,-0.362C0.268,-0.363 0.273,-0.363 0.279,-0.363L0.291,-0.363C0.328,-0.363 0.362,-0.357 0.395,-0.346C0.427,-0.335 0.454,-0.317 0.474,-0.292C0.497,-0.264 0.508,-0.229 0.508,-0.186C0.508,-0.12 0.485,-0.069 0.439,-0.036C0.394,-0.002 0.332,0.015 0.255,0.015C0.179,0.015 0.118,0.002 0.075,-0.023C0.031,-0.048 0.01,-0.086 0.01,-0.135C0.01,-0.153 0.014,-0.17 0.021,-0.185C0.029,-0.2 0.038,-0.211 0.048,-0.217C0.066,-0.202 0.092,-0.189 0.126,-0.178C0.16,-0.167 0.196,-0.162 0.234,-0.162C0.249,-0.162 0.257,-0.166 0.257,-0.174C0.257,-0.178 0.256,-0.181 0.255,-0.184C0.253,-0.184 0.25,-0.184 0.247,-0.184L0.242,-0.184C0.173,-0.184 0.118,-0.197 0.076,-0.225C0.029,-0.256 0.006,-0.299 0.006,-0.355C0.006,-0.412 0.027,-0.457 0.069,-0.492C0.115,-0.531 0.179,-0.55 0.261,-0.55C0.301,-0.55 0.338,-0.546 0.373,-0.537C0.407,-0.529 0.437,-0.517 0.462,-0.503C0.468,-0.49 0.471,-0.47 0.471,-0.444C0.471,-0.405 0.46,-0.374 0.438,-0.353C0.422,-0.362 0.402,-0.37 0.378,-0.376C0.354,-0.382 0.332,-0.385 0.313,-0.385C0.294,-0.385 0.282,-0.384 0.277,-0.383Z" style="fill:rgb(35,31,32);fill-rule:nonzero;"/>
                        </g>
                        <g transform="matrix(109.96,0,0,109.96,1330.84,150.281)">
                            <path d="M0.051,-0.236C0.079,-0.264 0.112,-0.277 0.15,-0.277C0.189,-0.277 0.222,-0.264 0.25,-0.236C0.278,-0.208 0.292,-0.174 0.292,-0.135C0.292,-0.097 0.278,-0.064 0.25,-0.036C0.222,-0.009 0.189,0.005 0.15,0.005C0.112,0.005 0.079,-0.009 0.051,-0.036C0.024,-0.064 0.01,-0.097 0.01,-0.135C0.01,-0.174 0.024,-0.208 0.051,-0.236Z" style="fill:rgb(35,31,32);fill-rule:nonzero;"/>
                        </g>
                        <g transform="matrix(109.96,0,0,109.96,1365.8,150.281)">
                            <path d="M0.051,-0.236C0.079,-0.264 0.112,-0.277 0.15,-0.277C0.189,-0.277 0.222,-0.264 0.25,-0.236C0.278,-0.208 0.292,-0.174 0.292,-0.135C0.292,-0.097 0.278,-0.064 0.25,-0.036C0.222,-0.009 0.189,0.005 0.15,0.005C0.112,0.005 0.079,-0.009 0.051,-0.036C0.024,-0.064 0.01,-0.097 0.01,-0.135C0.01,-0.174 0.024,-0.208 0.051,-0.236Z" style="fill:rgb(35,31,32);fill-rule:nonzero;"/>
                        </g>
                        <g transform="matrix(109.96,0,0,109.96,1400.75,150.281)">
                            <path d="M0.051,-0.236C0.079,-0.264 0.112,-0.277 0.15,-0.277C0.189,-0.277 0.222,-0.264 0.25,-0.236C0.278,-0.208 0.292,-0.174 0.292,-0.135C0.292,-0.097 0.278,-0.064 0.25,-0.036C0.222,-0.009 0.189,0.005 0.15,0.005C0.112,0.005 0.079,-0.009 0.051,-0.036C0.024,-0.064 0.01,-0.097 0.01,-0.135C0.01,-0.174 0.024,-0.208 0.051,-0.236Z" style="fill:rgb(35,31,32);fill-rule:nonzero;"/>
                        </g>
                    </g>
                    <g transform="matrix(1,0,0,1,124.83,112.434)">
                        <path d="M0,-27.665C2.033,-17.677 4.228,-8.558 6.585,-0.309C8.941,7.942 11.358,15.278 13.833,21.7C16.308,28.123 18.635,33.632 20.815,38.229C22.229,39.585 23.938,40.674 25.942,41.499C27.944,42.325 30.11,42.988 32.438,43.488C34.766,43.987 37.168,44.327 39.643,44.504C42.117,44.681 44.504,44.769 46.802,44.769C52.399,44.769 57.364,44.209 61.695,43.09C66.026,41.971 69.871,40.056 73.229,37.345C72.464,35.283 71.815,33.338 71.285,31.511C70.755,29.685 70.49,28.152 70.49,26.915C70.49,25.796 70.725,24.912 71.197,24.263C71.668,23.615 72.581,23.262 73.938,23.203C74.172,24.382 74.541,25.722 75.042,27.224C75.542,28.727 76.103,30.26 76.722,31.82C77.34,33.382 77.987,34.87 78.666,36.284C79.343,37.698 80.006,38.907 80.654,39.908C81.833,40.557 83.291,41.176 85.029,41.764C86.768,42.354 88.623,42.869 90.599,43.311C92.572,43.753 94.576,44.106 96.608,44.372C98.642,44.637 100.542,44.769 102.31,44.769C106.376,44.769 110.102,44.474 113.491,43.885C116.879,43.295 119.943,42.338 122.684,41.013C125.423,39.687 127.823,37.963 129.887,35.842C131.949,33.721 133.687,31.1 135.102,27.976C135.867,26.267 136.706,23.969 137.621,21.081C138.533,18.195 139.491,14.953 140.493,11.358C141.495,7.765 142.496,3.905 143.499,-0.22C144.5,-4.344 145.472,-8.498 146.415,-12.683C147.357,-16.866 148.241,-20.932 149.067,-24.881C149.892,-28.828 150.599,-32.467 151.188,-35.797C151.776,-39.125 152.249,-42.013 152.603,-44.458C152.956,-46.903 153.133,-48.686 153.133,-49.806C153.133,-53.223 152.528,-56.332 151.321,-59.131C150.112,-61.929 148.404,-64.316 146.194,-66.29C143.984,-68.264 141.318,-69.782 138.195,-70.843C135.071,-71.903 131.595,-72.434 127.766,-72.434C121.99,-72.434 117.35,-71.888 113.845,-70.798C110.338,-69.707 107.494,-68.426 105.314,-66.954C105.138,-63.241 104.873,-59.175 104.52,-54.756C104.166,-50.336 103.709,-45.681 103.149,-40.79C102.589,-35.899 101.926,-30.832 101.16,-25.588C100.395,-20.343 99.511,-15.07 98.509,-9.766C98.037,-7.468 97.478,-6.039 96.83,-5.479C96.181,-4.919 95.444,-4.64 94.62,-4.64C94.03,-4.64 93.471,-4.757 92.94,-4.993C93.588,-9.471 94.267,-14.053 94.974,-18.738C95.681,-23.422 96.344,-27.974 96.962,-32.394C97.581,-36.813 98.125,-41.04 98.598,-45.078C99.068,-49.113 99.393,-52.723 99.569,-55.905C99.393,-58.497 98.538,-60.678 97.007,-62.446C95.474,-64.213 93.529,-65.642 91.173,-66.732C88.815,-67.822 86.192,-68.603 83.307,-69.075C80.418,-69.546 77.53,-69.782 74.645,-69.782C70.932,-69.782 67.321,-69.34 63.816,-68.456C60.311,-67.572 57.29,-66.364 54.757,-64.832C54.284,-61.65 53.857,-57.717 53.476,-53.032C53.091,-48.348 52.769,-43.471 52.503,-38.404C52.237,-33.335 52.046,-28.328 51.929,-23.378C51.81,-18.428 51.752,-14.067 51.752,-10.297L51.752,-7.203C51.752,-6.26 51.78,-5.376 51.84,-4.551C51.133,-4.374 50.543,-4.286 50.072,-4.286C48.716,-4.286 47.876,-4.919 47.553,-6.186C47.229,-7.453 47.067,-8.882 47.067,-10.474C47.067,-13.006 47.096,-16.042 47.155,-19.578C47.214,-23.113 47.317,-26.825 47.465,-30.714C47.611,-34.603 47.774,-38.537 47.951,-42.514C48.128,-46.492 48.362,-50.218 48.658,-53.695C48.658,-56.758 48.009,-59.455 46.714,-61.783C45.417,-64.11 43.576,-66.07 41.189,-67.661C38.803,-69.251 35.93,-70.445 32.571,-71.24C29.213,-72.036 25.47,-72.434 21.346,-72.434C15.689,-72.434 10.563,-71.343 5.967,-69.163C1.37,-66.982 -2.254,-63.978 -4.905,-60.147C-3.668,-48.48 -2.032,-37.653 0,-27.665Z" style="fill:none;fill-rule:nonzero;stroke:rgb(249,220,173);stroke-width:18.95px;"/>
                    </g>
                    <g transform="matrix(1,0,0,1,314.436,120.639)">
                        <path d="M0,11.115C0,12.618 -0.305,13.657 -0.913,14.229C-1.522,14.802 -2.398,15.088 -3.544,15.088C-4.261,15.088 -4.878,14.945 -5.396,14.658C-5.916,14.372 -6.175,13.871 -6.175,13.155C-6.175,12.618 -6.005,12.144 -5.665,11.732C-5.325,11.321 -4.743,11.115 -3.92,11.115L0,11.115ZM23.945,-2.039C23.945,-5.618 23.373,-8.831 22.228,-11.677C21.082,-14.523 19.363,-16.92 17.073,-18.871C14.782,-20.822 11.91,-22.316 8.456,-23.355C5.001,-24.392 0.966,-24.912 -3.651,-24.912C-6.301,-24.912 -8.778,-24.751 -11.088,-24.428C-13.396,-24.106 -15.509,-23.721 -17.423,-23.274C-19.338,-22.826 -21.021,-22.343 -22.47,-21.824C-23.92,-21.305 -25.11,-20.831 -26.04,-20.402C-26.435,-19.614 -26.694,-18.71 -26.819,-17.69C-26.944,-16.67 -27.007,-15.658 -27.007,-14.657C-27.007,-12.544 -26.766,-10.469 -26.282,-8.428C-25.799,-6.388 -25.164,-4.705 -24.376,-3.382C-22.443,-4.491 -20.26,-5.315 -17.826,-5.851C-15.392,-6.388 -12.958,-6.657 -10.523,-6.657C-9.45,-6.657 -8.395,-6.621 -7.356,-6.55C-6.318,-6.477 -5.405,-6.362 -4.618,-6.2C-3.831,-6.039 -3.195,-5.798 -2.712,-5.476C-2.229,-5.154 -1.987,-4.759 -1.987,-4.295C-1.987,-4.044 -2.041,-3.739 -2.148,-3.382C-2.721,-3.524 -3.419,-3.668 -4.242,-3.811C-4.958,-3.919 -5.817,-4.017 -6.819,-4.107C-7.821,-4.196 -8.967,-4.241 -10.255,-4.241C-13.119,-4.241 -15.831,-3.846 -18.39,-3.06C-20.949,-2.272 -23.194,-1.064 -25.128,0.565C-27.061,2.194 -28.591,4.252 -29.718,6.739C-30.846,9.227 -31.409,12.171 -31.409,15.571C-31.409,18.865 -30.882,21.772 -29.825,24.296C-28.771,26.819 -27.284,28.959 -25.369,30.712C-23.455,32.466 -21.164,33.791 -18.497,34.685C-15.831,35.579 -12.868,36.027 -9.611,36.027C-7.606,36.027 -5.638,35.83 -3.705,35.437C-1.772,35.043 -0.233,34.452 0.912,33.665C0.304,33.056 -0.161,32.466 -0.483,31.893C-0.806,31.321 -0.967,30.784 -0.967,30.282C-0.967,29.745 -0.815,29.316 -0.511,28.994C-0.207,28.672 0.25,28.511 0.858,28.511C1.359,29.799 2.048,30.918 2.926,31.866C3.803,32.815 4.786,33.594 5.879,34.202C6.97,34.811 8.134,35.266 9.368,35.571C10.604,35.875 11.865,36.027 13.154,36.027C14.979,36.027 16.769,35.723 18.522,35.115C20.276,34.506 21.843,33.567 23.221,32.296C24.599,31.026 25.718,29.406 26.576,27.437C27.436,25.469 27.865,23.124 27.865,20.403L27.865,19.464C27.865,19.052 27.847,18.703 27.812,18.417C26.308,17.486 25.288,16.216 24.751,14.605C24.214,12.994 23.945,10.954 23.945,8.484L23.945,-2.039Z" style="fill:none;fill-rule:nonzero;stroke:rgb(249,220,173);stroke-width:18.95px;"/>
                    </g>
                    <g transform="matrix(1,0,0,1,346.812,93.2577)">
                        <path d="M0,45.691C0,49.092 0.511,51.928 1.53,54.201C2.551,56.474 3.839,58.291 5.396,59.65C6.953,61.011 8.671,61.978 10.551,62.55C12.43,63.122 14.229,63.409 15.946,63.409C18.165,63.409 20.215,63.105 22.094,62.496C23.973,61.888 25.592,60.948 26.953,59.677C28.312,58.407 29.369,56.787 30.121,54.818C30.872,52.85 31.248,50.505 31.248,47.785L31.248,46.845C31.248,46.434 31.229,46.085 31.194,45.798C29.691,44.868 28.671,43.517 28.134,41.745C27.598,39.973 27.329,37.852 27.329,35.382L27.329,14.121C27.257,14.013 27.096,13.844 26.846,13.611C26.595,13.378 26.326,13.137 26.04,12.886C25.753,12.636 25.484,12.421 25.234,12.242C24.984,12.063 24.806,11.938 24.698,11.866C22.765,13.298 20.903,14.013 19.114,14.013C18.541,14.013 18.139,13.808 17.906,13.396C17.673,12.985 17.557,12.51 17.557,11.973C19.061,11.651 20.51,11.07 21.906,10.228C23.302,9.388 24.519,8.341 25.557,7.087C26.595,5.835 27.427,4.412 28.054,2.819C28.68,1.227 28.993,-0.5 28.993,-2.362C28.993,-4.545 28.608,-6.577 27.839,-8.456C27.068,-10.335 26.004,-11.955 24.645,-13.315C23.283,-14.675 21.682,-15.749 19.839,-16.537C17.995,-17.323 15.981,-17.718 13.799,-17.718C11.651,-17.718 9.646,-17.342 7.785,-16.59C5.924,-15.838 4.296,-14.791 2.899,-13.449C1.504,-12.107 0.403,-10.497 -0.402,-8.617C-1.208,-6.738 -1.61,-4.652 -1.61,-2.362C-1.61,-0.894 -1.423,0.43 -1.047,1.611C-0.671,2.792 -0.187,3.839 0.403,4.752C0.993,5.665 1.646,6.443 2.362,7.087C3.078,7.732 3.776,8.233 4.457,8.591C3.633,9.02 2.863,9.378 2.147,9.665C1.432,9.951 0.716,10.327 0,10.792L0,45.691Z" style="fill:none;fill-rule:nonzero;stroke:rgb(249,220,173);stroke-width:18.95px;"/>
                    </g>
                    <g transform="matrix(1,0,0,1,387.35,102.116)">
                        <path d="M0,35.168C0,38.462 0.465,41.315 1.396,43.732C2.326,46.148 3.651,48.161 5.369,49.772C7.087,51.383 9.136,52.583 11.517,53.369C13.896,54.156 16.537,54.55 19.436,54.55C25.198,54.55 29.637,53.244 32.751,50.631C35.865,48.019 37.422,44.224 37.422,39.249C37.422,38.032 37.306,36.815 37.073,35.598C36.84,34.381 36.581,33.235 36.295,32.162L33.986,32.162C32.16,32.162 30.746,31.634 29.744,30.578C28.742,29.522 28.241,27.759 28.241,25.289L28.241,17.182L35.919,17.182C36.957,15.678 37.735,13.898 38.255,11.839C38.773,9.782 39.033,7.839 39.033,6.014C39.033,4.081 38.773,2.14 38.255,0.189C37.735,-1.762 36.957,-3.524 35.919,-5.1L26.631,-5.1L26.631,-18.254C24.769,-18.647 23.061,-18.934 21.503,-19.113C19.946,-19.292 18.397,-19.382 16.858,-19.382C14.89,-19.382 12.957,-19.274 11.061,-19.06C9.162,-18.845 7.642,-18.594 6.496,-18.308C6.21,-17.484 5.87,-16.456 5.477,-15.221C5.082,-13.986 4.671,-12.706 4.241,-11.382C3.812,-10.057 3.383,-8.786 2.953,-7.57C2.523,-6.353 2.147,-5.368 1.825,-4.617C0.68,-3.758 -0.636,-2.791 -2.121,-1.717C-3.606,-0.644 -5.101,0.359 -6.604,1.289C-6.818,2.185 -6.989,3.303 -7.114,4.645C-7.24,5.987 -7.302,7.178 -7.302,8.215C-7.302,9.826 -7.204,11.41 -7.007,12.967C-6.811,14.524 -6.515,15.947 -6.121,17.235L5.906,17.235C5.978,17.45 6.014,17.665 6.014,17.88C6.014,18.417 5.799,18.846 5.369,19.168C4.939,19.49 4.259,19.651 3.329,19.651L0,19.651L0,35.168Z" style="fill:none;fill-rule:nonzero;stroke:rgb(249,220,173);stroke-width:18.95px;"/>
                    </g>
                    <g transform="matrix(1,0,0,1,431.322,93.2577)">
                        <path d="M0,45.691C0,49.092 0.511,51.928 1.53,54.201C2.551,56.474 3.839,58.291 5.396,59.65C6.953,61.011 8.671,61.978 10.551,62.55C12.43,63.122 14.229,63.409 15.946,63.409C18.165,63.409 20.215,63.105 22.094,62.496C23.973,61.888 25.592,60.948 26.953,59.677C28.312,58.407 29.369,56.787 30.121,54.818C30.872,52.85 31.248,50.505 31.248,47.785L31.248,46.845C31.248,46.434 31.229,46.085 31.194,45.798C29.691,44.868 28.671,43.517 28.134,41.745C27.598,39.973 27.329,37.852 27.329,35.382L27.329,14.121C27.257,14.013 27.096,13.844 26.846,13.611C26.595,13.378 26.326,13.137 26.04,12.886C25.753,12.636 25.484,12.421 25.234,12.242C24.984,12.063 24.806,11.938 24.698,11.866C22.765,13.298 20.903,14.013 19.114,14.013C18.541,14.013 18.139,13.808 17.906,13.396C17.673,12.985 17.557,12.51 17.557,11.973C19.061,11.651 20.51,11.07 21.906,10.228C23.302,9.388 24.519,8.341 25.557,7.087C26.595,5.835 27.427,4.412 28.054,2.819C28.68,1.227 28.993,-0.5 28.993,-2.362C28.993,-4.545 28.608,-6.577 27.839,-8.456C27.068,-10.335 26.004,-11.955 24.645,-13.315C23.283,-14.675 21.682,-15.749 19.839,-16.537C17.995,-17.323 15.981,-17.718 13.799,-17.718C11.651,-17.718 9.646,-17.342 7.785,-16.59C5.924,-15.838 4.296,-14.791 2.899,-13.449C1.504,-12.107 0.403,-10.497 -0.402,-8.617C-1.208,-6.738 -1.61,-4.652 -1.61,-2.362C-1.61,-0.894 -1.423,0.43 -1.047,1.611C-0.671,2.792 -0.187,3.839 0.403,4.752C0.993,5.665 1.646,6.443 2.362,7.087C3.078,7.732 3.776,8.233 4.457,8.591C3.633,9.02 2.863,9.378 2.147,9.665C1.432,9.951 0.716,10.327 0,10.792L0,45.691Z" style="fill:none;fill-rule:nonzero;stroke:rgb(249,220,173);stroke-width:18.95px;"/>
                    </g>
                    <g transform="matrix(1,0,0,1,467.993,155.377)">
                        <path d="M0,-58.361C-1.074,-56.75 -1.871,-54.906 -2.39,-52.831C-2.907,-50.755 -3.168,-48.858 -3.168,-47.139C-3.168,-45.063 -2.907,-43.077 -2.39,-41.18C-1.871,-39.282 -1.074,-37.583 0,-36.079L0,-10.093C0,-8.16 0.43,-6.486 1.289,-5.073C2.147,-3.658 3.248,-2.477 4.591,-1.529C5.933,-0.58 7.437,0.127 9.101,0.592C10.765,1.056 12.402,1.289 14.014,1.289C17.234,1.289 20.107,0.797 22.631,-0.187C25.154,-1.171 27.203,-2.486 28.778,-4.133C28.062,-5.457 27.427,-7.032 26.872,-8.858C26.316,-10.683 26.04,-12.992 26.04,-15.784C26.04,-16.285 26.058,-16.929 26.094,-17.717C26.129,-18.504 26.183,-19.382 26.255,-20.348C26.326,-21.314 26.424,-22.343 26.55,-23.435C26.675,-24.527 26.827,-25.61 27.007,-26.683L26.309,-35.435C26.773,-35.721 27.274,-35.864 27.812,-35.864C28.635,-35.864 29.234,-35.55 29.61,-34.925C29.986,-34.298 30.174,-33.126 30.174,-31.408C30.174,-30.477 30.103,-29.457 29.959,-28.348C29.816,-27.238 29.664,-26.03 29.503,-24.724C29.342,-23.417 29.198,-22.012 29.073,-20.509C28.947,-19.006 28.886,-17.412 28.886,-15.731C28.886,-12.58 29.323,-9.923 30.201,-7.757C31.078,-5.591 32.259,-3.838 33.744,-2.496C35.229,-1.153 36.947,-0.187 38.899,0.404C40.85,0.994 42.898,1.289 45.047,1.289C47.087,1.289 49.011,0.958 50.818,0.296C52.625,-0.366 54.209,-1.359 55.57,-2.684C56.93,-4.007 58.004,-5.645 58.791,-7.596C59.578,-9.547 59.973,-11.793 59.973,-14.335L59.973,-15.274C59.973,-15.685 59.954,-16.034 59.919,-16.321C58.415,-17.252 57.396,-18.522 56.858,-20.133C56.321,-21.744 56.053,-23.784 56.053,-26.254C56.053,-27.972 56.08,-29.833 56.134,-31.838C56.188,-33.842 56.214,-35.65 56.214,-37.26C56.214,-41.663 55.534,-45.314 54.174,-48.213C52.813,-51.112 51.06,-53.403 48.912,-55.086C46.765,-56.768 44.356,-57.949 41.69,-58.629C39.024,-59.309 36.402,-59.65 33.825,-59.65C31.642,-59.65 29.592,-59.389 27.678,-58.871C25.763,-58.352 24.026,-57.663 22.47,-56.804C20.912,-55.944 19.552,-54.942 18.389,-53.797C17.226,-52.651 16.286,-51.452 15.57,-50.2C14.89,-50.2 14.407,-50.369 14.121,-50.71C13.834,-51.049 13.691,-51.435 13.691,-51.864C13.691,-52.831 14.479,-54.047 16.054,-55.515C15.266,-56.338 14.362,-57.019 13.342,-57.555C12.322,-58.092 11.061,-58.361 9.557,-58.361L0,-58.361Z" style="fill:none;fill-rule:nonzero;stroke:rgb(249,220,173);stroke-width:18.95px;"/>
                    </g>
                    <g transform="matrix(1,0,0,1,560.772,129.553)">
                        <path d="M0,9.235C1.109,9.342 2.236,9.396 3.383,9.396C7.069,9.396 10.434,8.966 13.477,8.108C16.519,7.249 19.132,5.978 21.315,4.296C23.498,2.613 25.198,0.529 26.416,-1.959C27.633,-4.447 28.241,-7.319 28.241,-10.577C28.241,-12.581 28.125,-14.263 27.893,-15.624C27.659,-16.984 27.311,-18.236 26.846,-19.382C27.562,-20.563 28.115,-21.744 28.51,-22.926C28.796,-23.749 28.993,-24.581 29.101,-25.422C29.208,-26.263 29.262,-27.131 29.262,-28.026C29.262,-29.959 28.966,-31.534 28.376,-32.751C27.785,-33.968 26.971,-34.916 25.933,-35.597C24.895,-36.276 23.659,-36.742 22.229,-36.993C20.796,-37.243 19.239,-37.369 17.557,-37.369C15.874,-37.369 14.326,-37.243 12.913,-36.993C11.498,-36.742 10.38,-36.456 9.557,-36.134L9.557,-32.375C8.125,-32.876 6.425,-33.332 4.456,-33.744C2.487,-34.156 0.357,-34.362 -1.933,-34.362C-5.942,-34.362 -9.646,-33.86 -13.047,-32.858C-16.447,-31.856 -19.382,-30.406 -21.852,-28.51C-24.321,-26.612 -26.255,-24.286 -27.65,-21.53C-29.047,-18.773 -29.744,-15.641 -29.744,-12.134C-29.744,-10.129 -29.529,-8.339 -29.101,-6.765C-28.671,-5.189 -28.116,-3.793 -27.436,-2.577C-26.756,-1.36 -25.995,-0.33 -25.154,0.51C-24.313,1.352 -23.481,2.023 -22.657,2.524C-24.196,3.347 -25.324,4.573 -26.04,6.201C-26.756,7.831 -27.113,9.522 -27.113,11.276C-27.113,13.853 -26.461,16.009 -25.154,17.745C-23.848,19.482 -22.112,20.886 -19.946,21.96C-17.78,23.033 -15.284,23.795 -12.456,24.241C-9.629,24.69 -6.693,24.913 -3.65,24.913C-2.613,24.913 -1.449,24.859 -0.161,24.752C1.128,24.644 2.201,24.502 3.061,24.322C3.132,24.465 3.203,24.617 3.275,24.778C3.347,24.94 3.383,25.146 3.383,25.396C3.383,26.148 2.863,26.658 1.825,26.926C0.787,27.194 -1.092,27.329 -3.812,27.329C-8.716,27.329 -12.886,26.845 -16.322,25.879C-19.758,24.913 -22.317,23.714 -24,22.282C-24.536,22.569 -25.047,22.989 -25.529,23.544C-26.013,24.099 -26.442,24.752 -26.818,25.503C-27.194,26.255 -27.499,27.068 -27.731,27.946C-27.964,28.823 -28.08,29.745 -28.08,30.711C-28.08,32.894 -27.525,34.943 -26.416,36.859C-25.307,38.773 -23.633,40.456 -21.396,41.906C-19.159,43.356 -16.367,44.501 -13.02,45.342C-9.674,46.183 -5.764,46.604 -1.288,46.604C3.186,46.604 7.302,46.148 11.061,45.235C14.818,44.322 18.049,42.98 20.752,41.208C23.454,39.436 25.557,37.243 27.061,34.631C28.563,32.018 29.315,29.011 29.315,25.61C29.315,23.965 29.108,22.3 28.698,20.617C28.286,18.935 27.615,17.361 26.685,15.893C25.753,14.425 24.555,13.11 23.087,11.946C21.619,10.784 19.812,9.915 17.664,9.342C15.874,10.094 13.709,10.694 11.168,11.141C8.626,11.589 6.031,11.812 3.383,11.812C1.558,11.812 0.099,11.67 -0.993,11.382C-2.085,11.097 -2.631,10.577 -2.631,9.826C-2.631,9.647 -2.613,9.468 -2.577,9.289C-2.542,9.11 -2.506,8.985 -2.47,8.913C-1.933,9.02 -1.109,9.128 0,9.235ZM1.396,-9.771C1.396,-8.733 1.307,-7.973 1.128,-7.49C0.948,-7.006 0.465,-6.765 -0.322,-6.765C-0.716,-6.765 -1.073,-6.89 -1.396,-7.14L-1.396,-12.671C-1.396,-13.279 -1.262,-13.699 -0.993,-13.932C-0.725,-14.165 -0.412,-14.282 -0.054,-14.282C0.447,-14.282 0.813,-14.111 1.047,-13.771C1.279,-13.431 1.396,-12.957 1.396,-12.348L1.396,-9.771Z" style="fill:none;fill-rule:nonzero;stroke:rgb(249,220,173);stroke-width:18.95px;"/>
                    </g>
                    <g transform="matrix(1,0,0,1,675.479,72.3496)">
                        <path d="M0,54.271C-2.416,54.213 -4.405,54.183 -5.966,54.183C-7.527,54.183 -8.766,54.125 -9.678,54.006C-10.593,53.888 -11.24,53.696 -11.623,53.431C-12.007,53.166 -12.197,52.768 -12.197,52.238C-12.197,51.649 -11.963,51.119 -11.49,50.647L31.82,50.647C33.115,49.056 34.339,46.714 35.488,43.62C36.638,40.526 37.212,36.624 37.212,31.909C37.212,28.609 36.77,25.427 35.886,22.363C35.002,19.299 33.941,16.706 32.704,14.584L-6.363,14.584C-6.482,14.467 -6.54,14.246 -6.54,13.921L-6.54,13.259C-6.54,12.434 -6.275,11.756 -5.745,11.226C-5.215,10.695 -4.361,10.43 -3.182,10.43L27.4,10.43C33.588,10.43 38.096,8.707 40.924,5.26C43.753,1.813 45.167,-3.21 45.167,-9.811C45.167,-11.402 45.048,-13.125 44.813,-14.981C44.577,-16.837 44.253,-18.694 43.841,-20.55C43.428,-22.406 42.897,-24.218 42.25,-25.986C41.601,-27.753 40.894,-29.314 40.129,-30.67L-11.755,-30.67C-38.331,-30.67 -51.618,-27.959 -51.618,-22.539L-51.618,67.264C-51.618,70.269 -50.927,72.892 -49.541,75.13C-48.157,77.371 -46.286,79.211 -43.929,80.655C-41.572,82.099 -38.861,83.174 -35.797,83.881C-32.733,84.588 -29.552,84.941 -26.251,84.941C-20.006,84.941 -14.672,84.087 -10.253,82.378C-5.833,80.67 -2.416,78.754 0,76.633L0,54.271Z" style="fill:none;fill-rule:nonzero;stroke:rgb(249,220,173);stroke-width:18.95px;"/>
                    </g>
                    <g transform="matrix(1,0,0,1,765.342,97.3928)">
                        <path d="M0,57.824C3.723,56.393 6.872,54.344 9.449,51.677C12.026,49.011 13.995,45.78 15.355,41.986C16.716,38.192 17.396,33.932 17.396,29.207C17.396,24.626 16.671,20.411 15.222,16.563C13.771,12.716 11.731,9.405 9.101,6.63C6.47,3.857 3.311,1.7 -0.376,0.16C-4.062,-1.378 -8.144,-2.148 -12.617,-2.148C-17.092,-2.148 -21.173,-1.432 -24.858,-0.001C-28.546,1.431 -31.714,3.489 -34.362,6.174C-37.012,8.858 -39.069,12.107 -40.536,15.919C-42.005,19.731 -42.737,23.999 -42.737,28.724C-42.737,33.95 -41.951,38.514 -40.375,42.415C-38.801,46.317 -36.662,49.574 -33.959,52.187C-31.257,54.8 -28.071,56.75 -24.402,58.039C-20.733,59.327 -16.805,59.972 -12.617,59.972C-7.929,59.972 -3.723,59.255 0,57.824ZM-13.853,28.402C-13.853,27.22 -13.87,26.21 -13.906,25.368C-13.942,24.528 -13.978,23.794 -14.014,23.167C-14.049,22.541 -14.103,21.977 -14.174,21.475C-14.246,20.975 -14.3,20.438 -14.335,19.865C-14.192,19.722 -14.022,19.596 -13.825,19.489C-13.629,19.382 -13.369,19.328 -13.047,19.328C-12.689,19.328 -12.376,19.435 -12.107,19.65C-11.839,19.865 -11.615,20.33 -11.437,21.046C-11.258,21.762 -11.141,22.675 -11.087,23.784C-11.033,24.894 -11.007,26.254 -11.007,27.865L-11.007,35.543C-11.007,36.474 -11.123,37.145 -11.355,37.556C-11.589,37.968 -12.045,38.174 -12.725,38.174C-13.227,38.174 -13.603,38.049 -13.853,37.798L-13.853,28.402Z" style="fill:none;fill-rule:nonzero;stroke:rgb(249,220,173);stroke-width:18.95px;"/>
                    </g>
                    <g transform="matrix(1,0,0,1,789.288,155.647)">
                        <path d="M0,-58.631C-1.074,-57.02 -1.871,-55.176 -2.39,-53.101C-2.907,-51.025 -3.168,-49.128 -3.168,-47.409C-3.168,-45.333 -2.907,-43.347 -2.39,-41.45C-1.871,-39.552 -1.074,-37.853 0,-36.349L0,-8.698C0,-7.052 0.376,-5.638 1.128,-4.457C1.879,-3.276 2.908,-2.3 4.215,-1.531C5.521,-0.761 7.051,-0.189 8.806,0.187C10.559,0.563 12.438,0.751 14.442,0.751C15.373,0.751 16.384,0.706 17.477,0.617C18.567,0.527 19.713,0.348 20.912,0.08C22.111,-0.189 23.337,-0.565 24.591,-1.048C25.843,-1.531 27.078,-2.166 28.295,-2.954L28.295,-29.906C26.577,-30.229 25.387,-30.532 24.725,-30.819C24.062,-31.105 23.731,-31.499 23.731,-32C23.731,-32.537 23.874,-32.948 24.161,-33.235C24.805,-33.091 25.44,-32.94 26.066,-32.779C26.692,-32.618 27.382,-32.474 28.134,-32.349C28.886,-32.223 29.718,-32.125 30.631,-32.054C31.543,-31.982 32.59,-31.946 33.771,-31.946C34.881,-31.946 36.008,-32.008 37.154,-32.134C38.299,-32.259 39.382,-32.43 40.402,-32.645C41.423,-32.86 42.362,-33.11 43.221,-33.396C44.08,-33.682 44.796,-33.968 45.369,-34.255C45.977,-35.508 46.541,-37.101 47.06,-39.034C47.578,-40.966 47.839,-43.382 47.839,-46.282C47.839,-47.893 47.713,-49.539 47.463,-51.221C47.212,-52.903 46.8,-54.497 46.228,-56C45.69,-56.393 45.028,-56.796 44.241,-57.208C43.453,-57.619 42.541,-57.986 41.503,-58.309C40.464,-58.631 39.302,-58.89 38.013,-59.087C36.725,-59.283 35.31,-59.382 33.771,-59.382C31.874,-59.382 30.004,-59.158 28.161,-58.712C26.316,-58.263 24.599,-57.503 23.007,-56.429C21.413,-55.356 20,-53.923 18.765,-52.134C17.53,-50.344 16.572,-48.125 15.893,-45.477C15.212,-45.477 14.711,-45.646 14.389,-45.986C14.067,-46.326 13.906,-46.712 13.906,-47.141C13.906,-47.498 13.995,-47.991 14.175,-48.617C14.354,-49.243 14.595,-49.906 14.899,-50.604C15.203,-51.302 15.562,-52.008 15.973,-52.725C16.384,-53.441 16.823,-54.048 17.288,-54.55C16.43,-55.839 15.257,-56.84 13.771,-57.557C12.286,-58.273 10.434,-58.631 8.215,-58.631L0,-58.631Z" style="fill:none;fill-rule:nonzero;stroke:rgb(249,220,173);stroke-width:18.95px;"/>
                    </g>
                    <g transform="matrix(1,0,0,1,865.62,57.5886)">
                        <path d="M0,81.406C0,84.648 0.722,87.432 2.166,89.759C3.609,92.087 5.524,93.988 7.911,95.46C10.298,96.933 13.052,98.01 16.176,98.686C19.298,99.363 22.539,99.702 25.898,99.702C28.313,99.702 30.744,99.54 33.19,99.217C35.635,98.892 37.977,98.406 40.217,97.758C42.456,97.11 44.562,96.33 46.537,95.416C48.511,94.503 50.205,93.457 51.619,92.278L51.619,78.755C47.965,78.52 44.945,78.21 42.56,77.826C40.173,77.444 38.272,77.017 36.858,76.545C35.444,76.074 34.456,75.544 33.897,74.954C33.337,74.365 33.058,73.747 33.058,73.098C33.058,72.567 33.131,72.156 33.278,71.86C33.425,71.566 33.588,71.33 33.765,71.153C34.412,71.448 35.444,71.787 36.858,72.17C38.272,72.553 39.893,72.936 41.72,73.319C43.545,73.702 45.49,74.026 47.553,74.291C49.615,74.556 51.619,74.689 53.563,74.689C61.223,74.689 68.191,73.732 74.468,71.816C80.743,69.902 86.104,67.029 90.554,63.198C95.003,59.368 98.435,54.595 100.852,48.879C103.267,43.164 104.476,36.535 104.476,28.992C104.476,21.921 103.149,15.468 100.498,9.635C97.846,3.802 94.074,-1.177 89.184,-5.302C84.292,-9.427 78.356,-12.624 71.374,-14.893C64.392,-17.16 56.538,-18.296 47.818,-18.296C41.513,-18.296 35.488,-17.839 29.743,-16.926C23.998,-16.011 18.915,-14.804 14.496,-13.302C10.076,-11.799 6.555,-10.12 3.934,-8.264C1.311,-6.407 0,-4.507 0,-2.563L0,81.406ZM49.409,38.803L49.409,22.628C49.409,22.098 49.379,21.598 49.321,21.125C49.556,21.008 49.88,20.92 50.293,20.86C50.705,20.802 51.059,20.772 51.354,20.772C52.709,20.772 53.637,21.244 54.138,22.186C54.638,23.129 54.89,24.632 54.89,26.694L54.89,33.411C54.89,35.415 54.594,36.859 54.006,37.742C53.416,38.626 52.414,39.068 51,39.068C50.882,39.068 50.632,39.054 50.249,39.024C49.865,38.995 49.586,38.922 49.409,38.803Z" style="fill:none;fill-rule:nonzero;stroke:rgb(249,220,173);stroke-width:18.95px;"/>
                    </g>
                    <g transform="matrix(1,0,0,1,974.557,153.231)">
                        <path d="M0,-70.605L0,-14.819C0,-11.383 0.457,-8.501 1.369,-6.175C2.282,-3.848 3.49,-1.969 4.993,-0.538C6.497,0.895 8.232,1.915 10.201,2.523C12.17,3.131 14.21,3.436 16.322,3.436C21.011,3.436 24.672,2.129 27.303,-0.484C29.934,-3.096 31.249,-6.998 31.249,-12.188L31.249,-13.128C31.249,-13.539 31.23,-13.888 31.195,-14.175C29.691,-15.105 28.672,-16.457 28.135,-18.229C27.598,-20.001 27.329,-22.122 27.329,-24.591L27.329,-62.336C27.329,-64.09 27.052,-65.683 26.497,-67.115C25.941,-68.546 25.074,-69.772 23.893,-70.792C22.712,-71.813 21.199,-72.609 19.356,-73.182C17.512,-73.754 15.303,-74.041 12.726,-74.041C11.149,-74.041 9.665,-73.907 8.269,-73.638C6.873,-73.37 5.629,-73.048 4.537,-72.672C3.445,-72.296 2.505,-71.911 1.719,-71.518C0.931,-71.123 0.357,-70.819 0,-70.605Z" style="fill:none;fill-rule:nonzero;stroke:rgb(249,220,173);stroke-width:18.95px;"/>
                    </g>
                    <g transform="matrix(1,0,0,1,1040.81,120.64)">
                        <path d="M0,11.114C0,12.617 -0.305,13.656 -0.913,14.228C-1.521,14.801 -2.398,15.087 -3.544,15.087C-4.26,15.087 -4.878,14.945 -5.396,14.657C-5.915,14.371 -6.175,13.871 -6.175,13.154C-6.175,12.617 -6.005,12.143 -5.664,11.731C-5.324,11.32 -4.743,11.114 -3.919,11.114L0,11.114ZM23.946,-2.04C23.946,-5.619 23.373,-8.832 22.229,-11.678C21.082,-14.524 19.364,-16.921 17.074,-18.873C14.783,-20.823 11.91,-22.317 8.456,-23.356C5.002,-24.394 0.967,-24.913 -3.651,-24.913C-6.301,-24.913 -8.778,-24.752 -11.087,-24.43C-13.396,-24.108 -15.509,-23.722 -17.423,-23.276C-19.338,-22.827 -21.021,-22.344 -22.47,-21.826C-23.92,-21.306 -25.11,-20.832 -26.04,-20.403C-26.435,-19.615 -26.693,-18.712 -26.818,-17.692C-26.944,-16.671 -27.007,-15.659 -27.007,-14.658C-27.007,-12.546 -26.765,-10.47 -26.282,-8.43C-25.799,-6.389 -25.164,-4.707 -24.376,-3.383C-22.443,-4.492 -20.26,-5.316 -17.825,-5.853C-15.392,-6.389 -12.958,-6.658 -10.523,-6.658C-9.449,-6.658 -8.395,-6.622 -7.355,-6.551C-6.318,-6.478 -5.405,-6.363 -4.617,-6.201C-3.83,-6.04 -3.194,-5.799 -2.711,-5.477C-2.229,-5.155 -1.986,-4.761 -1.986,-4.296C-1.986,-4.045 -2.04,-3.74 -2.147,-3.383C-2.721,-3.525 -3.419,-3.669 -4.241,-3.812C-4.958,-3.92 -5.817,-4.018 -6.818,-4.108C-7.821,-4.197 -8.967,-4.242 -10.255,-4.242C-13.119,-4.242 -15.83,-3.847 -18.39,-3.061C-20.949,-2.273 -23.194,-1.065 -25.128,0.564C-27.061,2.193 -28.591,4.251 -29.718,6.738C-30.846,9.226 -31.409,12.17 -31.409,15.571C-31.409,18.864 -30.882,21.772 -29.825,24.295C-28.771,26.819 -27.284,28.958 -25.369,30.711C-23.455,32.466 -21.164,33.79 -18.497,34.684C-15.83,35.579 -12.868,36.027 -9.61,36.027C-7.606,36.027 -5.638,35.83 -3.705,35.436C-1.771,35.043 -0.233,34.452 0.913,33.664C0.304,33.056 -0.161,32.466 -0.483,31.892C-0.806,31.321 -0.967,30.783 -0.967,30.282C-0.967,29.745 -0.814,29.315 -0.51,28.993C-0.206,28.671 0.25,28.51 0.859,28.51C1.36,29.799 2.049,30.918 2.926,31.865C3.803,32.815 4.787,33.593 5.879,34.201C6.971,34.81 8.135,35.266 9.369,35.571C10.604,35.874 11.866,36.027 13.154,36.027C14.979,36.027 16.77,35.722 18.523,35.114C20.277,34.506 21.843,33.566 23.222,32.295C24.599,31.025 25.718,29.405 26.577,27.436C27.437,25.468 27.866,23.123 27.866,20.403L27.866,19.463C27.866,19.052 27.848,18.703 27.812,18.416C26.309,17.486 25.289,16.215 24.752,14.604C24.215,12.993 23.946,10.953 23.946,8.483L23.946,-2.04Z" style="fill:none;fill-rule:nonzero;stroke:rgb(249,220,173);stroke-width:18.95px;"/>
                    </g>
                    <g transform="matrix(1,0,0,1,1072.38,174.331)">
                        <path d="M0,-77.315C-1.146,-75.597 -1.968,-73.753 -2.47,-71.785C-2.971,-69.816 -3.221,-67.847 -3.221,-65.879C-3.221,-63.588 -2.872,-61.521 -2.174,-59.677C-1.477,-57.834 -0.644,-56.286 0.322,-55.033C0.859,-50.308 1.638,-46.246 2.658,-42.845C3.678,-39.444 4.814,-36.608 6.067,-34.335C7.32,-32.062 8.653,-30.281 10.067,-28.993C11.481,-27.704 12.851,-26.792 14.175,-26.254L26.846,-23.838C26.846,-22.907 26.64,-22.316 26.229,-22.066C25.816,-21.816 25.307,-21.691 24.698,-21.691C24.304,-21.691 23.911,-21.726 23.518,-21.798C23.123,-21.87 22.729,-21.941 22.336,-22.013L13.906,-23.57C13.262,-23.677 12.403,-23.793 11.329,-23.919C10.256,-24.044 9.182,-24.107 8.107,-24.107C7.679,-24.107 7.222,-24.088 6.738,-24.053C6.256,-24.017 5.87,-23.963 5.584,-23.892C4.367,-22.102 3.499,-20.376 2.98,-18.711C2.461,-17.046 2.202,-15.301 2.202,-13.476C2.202,-11.579 2.56,-9.772 3.275,-8.053C3.991,-6.335 5.074,-4.823 6.523,-3.516C7.974,-2.21 9.808,-1.172 12.027,-0.402C14.246,0.367 16.877,0.752 19.92,0.752C22.891,0.752 25.844,0.376 28.779,-0.376C31.714,-1.127 34.515,-2.515 37.182,-4.537C39.848,-6.559 42.3,-9.351 44.537,-12.912C46.774,-16.474 48.68,-21.082 50.256,-26.738C51.186,-30.102 52.036,-33.44 52.806,-36.752C53.575,-40.062 54.273,-43.221 54.899,-46.228C55.525,-49.234 56.063,-52.053 56.511,-54.684C56.958,-57.315 57.334,-59.615 57.638,-61.584C57.941,-63.552 58.166,-65.136 58.31,-66.335C58.452,-67.534 58.524,-68.241 58.524,-68.456C58.524,-69.672 58.21,-70.854 57.584,-72C56.958,-73.145 56.027,-74.165 54.792,-75.06C53.558,-75.954 52.009,-76.679 50.148,-77.234C48.286,-77.789 46.121,-78.067 43.651,-78.067C41.289,-78.067 39.114,-77.825 37.128,-77.342C35.142,-76.859 33.36,-76.044 31.786,-74.899C31.499,-73.574 31.186,-71.856 30.846,-69.745C30.506,-67.632 30.202,-65.27 29.934,-62.657C29.665,-60.044 29.44,-57.261 29.262,-54.308C29.083,-51.356 28.994,-48.376 28.994,-45.369C28.994,-44.652 28.877,-44.08 28.645,-43.65C28.411,-43.221 28.009,-43.006 27.437,-43.006C27.257,-43.006 27.069,-43.024 26.873,-43.06C26.676,-43.095 26.47,-43.168 26.256,-43.275C26.22,-43.632 26.202,-44.035 26.202,-44.483L26.202,-45.745C26.202,-47.606 26.237,-49.484 26.31,-51.382C26.381,-53.279 26.479,-55.078 26.604,-56.778C26.729,-58.478 26.863,-60.017 27.007,-61.396C27.149,-62.773 27.275,-63.874 27.383,-64.698C27.203,-66.273 26.873,-67.812 26.39,-69.315C25.906,-70.818 25.154,-72.161 24.135,-73.342C23.114,-74.523 21.772,-75.481 20.107,-76.214C18.443,-76.948 16.34,-77.315 13.799,-77.315L0,-77.315Z" style="fill:none;fill-rule:nonzero;stroke:rgb(249,220,173);stroke-width:18.95px;"/>
                    </g>
                    <g transform="matrix(1,0,0,1,1163.12,132.103)">
                        <path d="M0,-11.383C-0.573,-11.579 -1.039,-11.786 -1.396,-12C-1.254,-12.931 -0.887,-13.673 -0.296,-14.229C0.295,-14.783 1.091,-15.061 2.094,-15.061C2.81,-15.061 3.427,-14.917 3.946,-14.632C4.465,-14.344 4.725,-13.843 4.725,-13.128C4.725,-12.519 4.5,-12.027 4.054,-11.652C3.605,-11.276 2.935,-11.088 2.04,-11.088C1.252,-11.088 0.571,-11.186 0,-11.383ZM11.409,24.644C13.86,24.232 16.018,23.695 17.879,23.033C19.739,22.371 21.351,21.602 22.711,20.724C24.071,19.848 25.323,18.926 26.47,17.959C26.612,17.423 26.729,16.787 26.818,16.054C26.907,15.32 26.953,14.542 26.953,13.718C26.953,12.895 26.89,11.991 26.765,11.006C26.639,10.022 26.451,9.065 26.201,8.134C25.95,7.203 25.655,6.354 25.315,5.583C24.975,4.814 24.572,4.233 24.107,3.839C23.391,4.34 22.496,4.859 21.423,5.396C20.349,5.932 19.087,6.425 17.638,6.872C16.187,7.32 14.55,7.696 12.725,8C10.899,8.304 8.876,8.456 6.657,8.456C5.047,8.456 3.436,8.322 1.825,8.054C0.215,7.785 -1.218,7.445 -2.47,7.033C-3.724,6.622 -4.744,6.157 -5.53,5.637C-6.318,5.119 -6.712,4.59 -6.712,4.054C-6.712,3.875 -6.685,3.669 -6.631,3.436C-6.577,3.203 -6.462,3.015 -6.282,2.872C-4.672,3.839 -2.73,4.609 -0.457,5.181C1.815,5.754 4.169,6.04 6.604,6.04C9.825,6.04 12.813,5.682 15.57,4.966C18.326,4.25 20.706,3.15 22.711,1.664C24.715,0.179 26.281,-1.709 27.409,-4C28.536,-6.291 29.101,-9.029 29.101,-12.215C29.101,-15.579 28.437,-18.747 27.113,-21.718C25.789,-24.689 23.9,-27.284 21.449,-29.504C18.997,-31.723 16.035,-33.468 12.563,-34.739C9.091,-36.009 5.189,-36.645 0.858,-36.645C-3.222,-36.645 -7.106,-35.982 -10.792,-34.658C-14.479,-33.334 -17.71,-31.364 -20.483,-28.752C-23.258,-26.139 -25.459,-22.9 -27.088,-19.034C-28.717,-15.168 -29.53,-10.712 -29.53,-5.665C-29.53,-0.868 -28.771,3.445 -27.249,7.275C-25.728,11.105 -23.562,14.354 -20.752,17.02C-17.942,19.687 -14.551,21.727 -10.577,23.14C-6.604,24.554 -2.166,25.262 2.738,25.262C6.066,25.262 8.957,25.055 11.409,24.644Z" style="fill:none;fill-rule:nonzero;stroke:rgb(249,220,173);stroke-width:18.95px;"/>
                    </g>
                    <g transform="matrix(1,0,0,1,1198.61,155.646)">
                        <path d="M0,-58.63C-1.074,-57.019 -1.871,-55.175 -2.39,-53.1C-2.907,-51.024 -3.168,-49.127 -3.168,-47.409C-3.168,-45.332 -2.907,-43.346 -2.39,-41.449C-1.871,-39.551 -1.074,-37.852 0,-36.348L0,-8.697C0,-7.05 0.376,-5.637 1.128,-4.456C1.879,-3.275 2.908,-2.298 4.215,-1.529C5.521,-0.759 7.051,-0.187 8.806,0.189C10.559,0.565 12.438,0.752 14.443,0.752C15.373,0.752 16.385,0.707 17.477,0.619C18.568,0.529 19.713,0.35 20.913,0.081C22.111,-0.187 23.337,-0.563 24.591,-1.046C25.844,-1.529 27.078,-2.164 28.296,-2.952L28.296,-29.905C26.577,-30.227 25.387,-30.531 24.725,-30.818C24.062,-31.104 23.731,-31.498 23.731,-31.999C23.731,-32.536 23.874,-32.947 24.161,-33.234C24.806,-33.09 25.44,-32.939 26.067,-32.778C26.693,-32.617 27.383,-32.473 28.135,-32.348C28.886,-32.222 29.719,-32.124 30.631,-32.053C31.544,-31.981 32.591,-31.945 33.771,-31.945C34.881,-31.945 36.009,-32.007 37.154,-32.133C38.3,-32.258 39.383,-32.429 40.403,-32.644C41.423,-32.858 42.362,-33.108 43.222,-33.395C44.081,-33.681 44.796,-33.967 45.369,-34.254C45.978,-35.507 46.541,-37.1 47.061,-39.033C47.579,-40.965 47.839,-43.382 47.839,-46.281C47.839,-47.892 47.713,-49.538 47.463,-51.221C47.213,-52.903 46.801,-54.496 46.229,-55.999C45.691,-56.393 45.028,-56.796 44.242,-57.207C43.454,-57.618 42.541,-57.986 41.504,-58.308C40.465,-58.63 39.302,-58.889 38.014,-59.087C36.725,-59.283 35.311,-59.382 33.771,-59.382C31.874,-59.382 30.004,-59.158 28.161,-58.711C26.317,-58.263 24.6,-57.503 23.007,-56.429C21.414,-55.355 20,-53.923 18.766,-52.133C17.53,-50.343 16.572,-48.124 15.893,-45.476C15.212,-45.476 14.712,-45.645 14.39,-45.986C14.067,-46.326 13.906,-46.711 13.906,-47.14C13.906,-47.498 13.995,-47.99 14.175,-48.617C14.354,-49.242 14.595,-49.905 14.899,-50.603C15.203,-51.301 15.562,-52.007 15.974,-52.724C16.385,-53.44 16.823,-54.048 17.289,-54.549C16.43,-55.838 15.257,-56.84 13.771,-57.556C12.286,-58.272 10.434,-58.63 8.215,-58.63L0,-58.63Z" style="fill:none;fill-rule:nonzero;stroke:rgb(249,220,173);stroke-width:18.95px;"/>
                    </g>
                    <g transform="matrix(1,0,0,1,1287.77,138.922)">
                        <path d="M0,-25.235C1.414,-25.038 2.756,-24.778 4.027,-24.456C5.298,-24.134 6.471,-23.767 7.544,-23.356C8.618,-22.944 9.565,-22.505 10.39,-22.04C11.356,-22.97 12.196,-24.259 12.913,-25.906C13.629,-27.552 13.987,-29.61 13.987,-32.081C13.987,-33.154 13.906,-34.317 13.745,-35.57C13.584,-36.823 13.324,-37.825 12.967,-38.577C11.786,-39.256 10.398,-39.91 8.806,-40.537C7.213,-41.163 5.477,-41.709 3.598,-42.174C1.719,-42.639 -0.295,-43.006 -2.442,-43.275C-4.59,-43.544 -6.828,-43.678 -9.154,-43.678C-13.879,-43.678 -17.995,-43.105 -21.503,-41.96C-25.012,-40.814 -27.929,-39.275 -30.255,-37.342C-32.582,-35.409 -34.317,-33.163 -35.463,-30.604C-36.608,-28.045 -37.181,-25.351 -37.181,-22.524C-37.181,-19.122 -36.482,-16.223 -35.087,-13.825C-33.691,-11.427 -31.812,-9.449 -29.449,-7.893C-27.087,-6.336 -24.34,-5.199 -21.208,-4.483C-18.076,-3.767 -14.756,-3.409 -11.248,-3.409L-10.657,-3.409C-10.442,-3.409 -10.139,-3.427 -9.744,-3.463C-9.637,-3.176 -9.584,-2.89 -9.584,-2.604C-9.584,-2.102 -9.736,-1.709 -10.04,-1.423C-10.345,-1.136 -11.033,-0.993 -12.107,-0.993C-14.435,-0.993 -16.636,-1.172 -18.711,-1.53C-20.787,-1.887 -22.711,-2.353 -24.482,-2.926C-26.255,-3.498 -27.83,-4.152 -29.208,-4.886C-30.586,-5.619 -31.704,-6.344 -32.563,-7.06C-33.065,-6.738 -33.566,-6.282 -34.066,-5.691C-34.568,-5.101 -35.016,-4.411 -35.409,-3.624C-35.804,-2.836 -36.126,-1.968 -36.376,-1.02C-36.626,-0.071 -36.751,0.922 -36.751,1.96C-36.751,4.752 -36.107,7.177 -34.818,9.235C-33.53,11.294 -31.723,13.003 -29.396,14.363C-27.069,15.723 -24.269,16.744 -20.993,17.423C-17.718,18.102 -14.112,18.443 -10.174,18.443C-5.915,18.443 -2.049,17.987 1.423,17.074C4.895,16.161 7.866,14.792 10.336,12.967C12.806,11.141 14.712,8.842 16.054,6.067C17.396,3.294 18.067,0.045 18.067,-3.678C18.067,-6.148 17.727,-8.349 17.048,-10.282C16.367,-12.214 15.445,-13.897 14.282,-15.329C13.119,-16.76 11.75,-17.977 10.175,-18.98C8.6,-19.982 6.927,-20.787 5.154,-21.396C3.383,-22.004 1.548,-22.443 -0.349,-22.712C-2.246,-22.98 -4.09,-23.114 -5.879,-23.114L-7.167,-23.114C-7.597,-23.114 -8.116,-23.095 -8.725,-23.06C-8.761,-23.131 -8.778,-23.23 -8.778,-23.356L-8.778,-23.651C-8.778,-24.116 -8.653,-24.474 -8.402,-24.725C-8.152,-24.975 -7.821,-25.163 -7.409,-25.289C-6.998,-25.414 -6.523,-25.485 -5.986,-25.504C-5.449,-25.521 -4.895,-25.53 -4.321,-25.53C-2.854,-25.53 -1.414,-25.431 0,-25.235Z" style="fill:none;fill-rule:nonzero;stroke:rgb(249,220,173);stroke-width:18.95px;"/>
                    </g>
                    <g transform="matrix(1,0,0,1,1338.64,134.626)">
                        <path d="M0,12.188C0.823,14.067 1.933,15.705 3.329,17.101C4.725,18.497 6.354,19.597 8.215,20.403C10.075,21.208 12.063,21.611 14.175,21.611C16.322,21.611 18.344,21.208 20.242,20.403C22.139,19.597 23.794,18.497 25.208,17.101C26.622,15.705 27.74,14.067 28.563,12.188C29.387,10.309 29.799,8.313 29.799,6.201C29.799,4.054 29.387,2.032 28.563,0.134C27.74,-1.763 26.622,-3.418 25.208,-4.833C23.794,-6.246 22.139,-7.364 20.242,-8.188C18.344,-9.011 16.322,-9.423 14.175,-9.423C12.063,-9.423 10.075,-9.011 8.215,-8.188C6.354,-7.364 4.725,-6.246 3.329,-4.833C1.933,-3.418 0.823,-1.763 0,0.134C-0.823,2.032 -1.234,4.054 -1.234,6.201C-1.234,8.313 -0.823,10.309 0,12.188Z" style="fill:none;fill-rule:nonzero;stroke:rgb(249,220,173);stroke-width:18.95px;"/>
                    </g>
                    <g transform="matrix(1,0,0,1,1373.59,134.626)">
                        <path d="M0,12.188C0.823,14.067 1.933,15.705 3.329,17.101C4.725,18.497 6.354,19.597 8.215,20.403C10.075,21.208 12.063,21.611 14.175,21.611C16.322,21.611 18.344,21.208 20.242,20.403C22.139,19.597 23.794,18.497 25.208,17.101C26.622,15.705 27.74,14.067 28.563,12.188C29.387,10.309 29.799,8.313 29.799,6.201C29.799,4.054 29.387,2.032 28.563,0.134C27.74,-1.763 26.622,-3.418 25.208,-4.833C23.794,-6.246 22.139,-7.364 20.242,-8.188C18.344,-9.011 16.322,-9.423 14.175,-9.423C12.063,-9.423 10.075,-9.011 8.215,-8.188C6.354,-7.364 4.725,-6.246 3.329,-4.833C1.933,-3.418 0.823,-1.763 0,0.134C-0.823,2.032 -1.234,4.054 -1.234,6.201C-1.234,8.313 -0.823,10.309 0,12.188Z" style="fill:none;fill-rule:nonzero;stroke:rgb(249,220,173);stroke-width:18.95px;"/>
                    </g>
                    <g transform="matrix(1,0,0,1,1408.55,134.626)">
                        <path d="M0,12.188C0.823,14.067 1.933,15.705 3.329,17.101C4.725,18.497 6.354,19.597 8.215,20.403C10.075,21.208 12.063,21.611 14.175,21.611C16.322,21.611 18.344,21.208 20.242,20.403C22.139,19.597 23.794,18.497 25.208,17.101C26.622,15.705 27.74,14.067 28.564,12.188C29.387,10.309 29.799,8.313 29.799,6.201C29.799,4.054 29.387,2.032 28.564,0.134C27.74,-1.763 26.622,-3.418 25.208,-4.833C23.794,-6.246 22.139,-7.364 20.242,-8.188C18.344,-9.011 16.322,-9.423 14.175,-9.423C12.063,-9.423 10.075,-9.011 8.215,-8.188C6.354,-7.364 4.725,-6.246 3.329,-4.833C1.933,-3.418 0.823,-1.763 0,0.134C-0.823,2.032 -1.234,4.054 -1.234,6.201C-1.234,8.313 -0.823,10.309 0,12.188Z" style="fill:none;fill-rule:nonzero;stroke:rgb(249,220,173);stroke-width:18.95px;"/>
                    </g>
                    <g>
                        <g transform="matrix(181.019,0,0,181.019,114.329,150.281)">
                            <path d="M0.287,0.008C0.255,0.008 0.229,0.006 0.208,0.001C0.178,-0.005 0.157,-0.015 0.143,-0.028C0.112,-0.093 0.086,-0.164 0.064,-0.241C0.034,-0.347 0.013,-0.458 0.001,-0.571C0.016,-0.593 0.036,-0.609 0.061,-0.621C0.086,-0.633 0.115,-0.639 0.146,-0.639C0.193,-0.639 0.23,-0.63 0.257,-0.612C0.283,-0.594 0.297,-0.569 0.297,-0.536C0.295,-0.511 0.293,-0.475 0.291,-0.427C0.289,-0.379 0.288,-0.336 0.288,-0.297C0.288,-0.286 0.289,-0.278 0.291,-0.272C0.293,-0.266 0.298,-0.263 0.305,-0.263C0.307,-0.263 0.311,-0.263 0.314,-0.264C0.314,-0.267 0.314,-0.272 0.314,-0.279L0.314,-0.296C0.314,-0.343 0.316,-0.398 0.319,-0.459C0.322,-0.521 0.326,-0.567 0.331,-0.597C0.36,-0.615 0.395,-0.625 0.435,-0.625C0.475,-0.625 0.507,-0.619 0.532,-0.608C0.561,-0.594 0.576,-0.574 0.578,-0.548C0.576,-0.516 0.573,-0.485 0.569,-0.454C0.565,-0.423 0.559,-0.387 0.553,-0.347C0.547,-0.306 0.543,-0.28 0.542,-0.267C0.544,-0.265 0.548,-0.265 0.552,-0.265C0.556,-0.265 0.56,-0.266 0.563,-0.27C0.567,-0.273 0.57,-0.281 0.572,-0.293C0.582,-0.345 0.591,-0.4 0.597,-0.458C0.604,-0.516 0.608,-0.566 0.61,-0.609C0.64,-0.629 0.681,-0.639 0.734,-0.639C0.777,-0.639 0.811,-0.628 0.836,-0.605C0.861,-0.583 0.874,-0.552 0.874,-0.514C0.874,-0.489 0.862,-0.422 0.838,-0.314C0.826,-0.258 0.814,-0.209 0.802,-0.169C0.791,-0.129 0.782,-0.101 0.774,-0.084C0.759,-0.052 0.737,-0.028 0.707,-0.013C0.677,0.001 0.639,0.008 0.593,0.008C0.575,0.008 0.553,0.006 0.529,-0C0.505,-0.006 0.486,-0.012 0.474,-0.019C0.467,-0.029 0.46,-0.044 0.452,-0.064C0.444,-0.085 0.438,-0.1 0.437,-0.111C0.424,-0.111 0.417,-0.104 0.417,-0.09C0.417,-0.08 0.423,-0.061 0.433,-0.033C0.398,-0.005 0.35,0.008 0.287,0.008Z" style="fill:rgb(46,41,79);fill-rule:nonzero;"/>
                        </g>
                        <g transform="matrix(109.959,0,0,109.959,276.961,150.281)">
                            <path d="M0.509,-0.242C0.509,-0.218 0.512,-0.199 0.517,-0.185C0.522,-0.171 0.531,-0.16 0.544,-0.151C0.545,-0.15 0.545,-0.147 0.545,-0.142L0.545,-0.133C0.545,-0.087 0.531,-0.051 0.503,-0.025C0.478,-0.003 0.448,0.009 0.411,0.009C0.386,0.009 0.364,0.003 0.343,-0.009C0.323,-0.021 0.308,-0.037 0.299,-0.06C0.288,-0.06 0.283,-0.054 0.283,-0.043C0.283,-0.034 0.288,-0.024 0.3,-0.013C0.279,0.002 0.247,0.009 0.204,0.009C0.144,0.009 0.096,-0.008 0.06,-0.04C0.024,-0.073 0.006,-0.119 0.006,-0.177C0.006,-0.236 0.025,-0.282 0.063,-0.314C0.098,-0.343 0.143,-0.357 0.198,-0.357C0.217,-0.357 0.235,-0.356 0.253,-0.354C0.265,-0.351 0.271,-0.35 0.272,-0.35C0.273,-0.353 0.273,-0.356 0.273,-0.358C0.273,-0.366 0.266,-0.372 0.252,-0.375C0.238,-0.378 0.219,-0.379 0.196,-0.379C0.147,-0.379 0.105,-0.369 0.07,-0.35C0.054,-0.377 0.046,-0.411 0.046,-0.452C0.046,-0.476 0.049,-0.493 0.055,-0.504C0.078,-0.515 0.108,-0.525 0.144,-0.533C0.18,-0.541 0.218,-0.545 0.258,-0.545C0.341,-0.545 0.403,-0.527 0.446,-0.491C0.488,-0.455 0.509,-0.404 0.509,-0.337L0.509,-0.242ZM0.256,-0.218C0.242,-0.218 0.235,-0.212 0.235,-0.199C0.235,-0.188 0.243,-0.182 0.259,-0.182C0.27,-0.182 0.278,-0.184 0.284,-0.19C0.289,-0.195 0.292,-0.204 0.292,-0.218L0.256,-0.218Z" style="fill:rgb(46,41,79);fill-rule:nonzero;"/>
                        </g>
                        <g transform="matrix(109.959,0,0,109.959,339.402,150.281)">
                            <path d="M0.267,-0.439L0.267,-0.246C0.267,-0.198 0.278,-0.166 0.302,-0.151C0.302,-0.15 0.302,-0.147 0.302,-0.142L0.302,-0.133C0.302,-0.085 0.289,-0.049 0.263,-0.025C0.239,-0.003 0.207,0.009 0.167,0.009C0.127,0.009 0.093,-0.003 0.067,-0.025C0.035,-0.054 0.018,-0.097 0.018,-0.152L0.018,-0.47C0.024,-0.474 0.03,-0.477 0.037,-0.48C0.044,-0.483 0.051,-0.486 0.059,-0.49C0.045,-0.497 0.032,-0.509 0.021,-0.527C0.009,-0.545 0.003,-0.566 0.003,-0.589C0.003,-0.63 0.017,-0.664 0.044,-0.69C0.071,-0.716 0.104,-0.729 0.143,-0.729C0.183,-0.729 0.215,-0.716 0.242,-0.689C0.268,-0.663 0.282,-0.629 0.282,-0.589C0.282,-0.557 0.272,-0.529 0.251,-0.505C0.231,-0.48 0.207,-0.465 0.178,-0.459C0.178,-0.447 0.182,-0.44 0.192,-0.44C0.208,-0.44 0.225,-0.447 0.243,-0.46C0.256,-0.45 0.264,-0.443 0.267,-0.439Z" style="fill:rgb(46,41,79);fill-rule:nonzero;"/>
                        </g>
                        <g transform="matrix(109.959,0,0,109.959,373.978,150.281)">
                            <path d="M0.072,-0.309L0.103,-0.309C0.119,-0.309 0.127,-0.314 0.127,-0.325C0.127,-0.326 0.127,-0.328 0.126,-0.331L0.017,-0.331C0.009,-0.353 0.006,-0.379 0.006,-0.407C0.006,-0.435 0.008,-0.458 0.012,-0.476C0.031,-0.487 0.056,-0.505 0.089,-0.529C0.098,-0.551 0.11,-0.587 0.125,-0.635C0.126,-0.641 0.129,-0.648 0.131,-0.654C0.157,-0.66 0.186,-0.664 0.218,-0.664C0.251,-0.664 0.283,-0.66 0.314,-0.653L0.314,-0.534L0.399,-0.534C0.418,-0.505 0.427,-0.471 0.427,-0.433C0.427,-0.415 0.425,-0.397 0.42,-0.378C0.415,-0.36 0.408,-0.344 0.399,-0.331L0.329,-0.331L0.329,-0.257C0.329,-0.216 0.347,-0.195 0.381,-0.195L0.402,-0.195C0.409,-0.17 0.413,-0.149 0.413,-0.13C0.413,-0.085 0.399,-0.051 0.37,-0.027C0.342,-0.003 0.301,0.009 0.248,0.009C0.194,0.009 0.152,-0.006 0.12,-0.036C0.088,-0.066 0.072,-0.11 0.072,-0.167L0.072,-0.309Z" style="fill:rgb(46,41,79);fill-rule:nonzero;"/>
                        </g>
                        <g transform="matrix(109.959,0,0,109.959,423.909,150.281)">
                            <path d="M0.267,-0.439L0.267,-0.246C0.267,-0.198 0.278,-0.166 0.302,-0.151C0.302,-0.15 0.302,-0.147 0.302,-0.142L0.302,-0.133C0.302,-0.085 0.289,-0.049 0.263,-0.025C0.239,-0.003 0.207,0.009 0.167,0.009C0.127,0.009 0.093,-0.003 0.067,-0.025C0.035,-0.054 0.018,-0.097 0.018,-0.152L0.018,-0.47C0.024,-0.474 0.03,-0.477 0.037,-0.48C0.044,-0.483 0.051,-0.486 0.059,-0.49C0.045,-0.497 0.032,-0.509 0.021,-0.527C0.009,-0.545 0.003,-0.566 0.003,-0.589C0.003,-0.63 0.017,-0.664 0.044,-0.69C0.071,-0.716 0.104,-0.729 0.143,-0.729C0.183,-0.729 0.215,-0.716 0.242,-0.689C0.268,-0.663 0.282,-0.629 0.282,-0.589C0.282,-0.557 0.272,-0.529 0.251,-0.505C0.231,-0.48 0.207,-0.465 0.178,-0.459C0.178,-0.447 0.182,-0.44 0.192,-0.44C0.208,-0.44 0.225,-0.447 0.243,-0.46C0.256,-0.45 0.264,-0.443 0.267,-0.439Z" style="fill:rgb(46,41,79);fill-rule:nonzero;"/>
                        </g>
                        <g transform="matrix(109.959,0,0,109.959,460.095,150.281)">
                            <path d="M0.532,-0.242C0.532,-0.218 0.535,-0.199 0.54,-0.185C0.545,-0.171 0.554,-0.16 0.567,-0.151C0.568,-0.15 0.568,-0.147 0.568,-0.142L0.568,-0.133C0.568,-0.088 0.555,-0.053 0.529,-0.029C0.503,-0.004 0.47,0.009 0.429,0.009C0.388,0.009 0.355,-0.003 0.33,-0.026C0.3,-0.052 0.285,-0.092 0.285,-0.146C0.285,-0.169 0.286,-0.189 0.288,-0.206C0.29,-0.224 0.292,-0.236 0.293,-0.244C0.294,-0.251 0.294,-0.258 0.295,-0.265C0.296,-0.271 0.297,-0.281 0.297,-0.293C0.297,-0.306 0.295,-0.315 0.292,-0.321C0.288,-0.326 0.284,-0.329 0.278,-0.329C0.272,-0.329 0.266,-0.328 0.262,-0.325L0.268,-0.246C0.262,-0.213 0.259,-0.178 0.259,-0.141C0.259,-0.104 0.268,-0.071 0.284,-0.041C0.252,-0.008 0.208,0.009 0.15,0.009C0.117,0.009 0.089,0 0.064,-0.017C0.036,-0.037 0.022,-0.063 0.022,-0.095L0.022,-0.331C0.003,-0.358 -0.006,-0.391 -0.006,-0.431C-0.006,-0.47 0.003,-0.505 0.022,-0.534L0.109,-0.534C0.132,-0.534 0.152,-0.525 0.168,-0.508C0.154,-0.494 0.147,-0.483 0.147,-0.475C0.147,-0.465 0.153,-0.459 0.164,-0.459C0.178,-0.484 0.2,-0.505 0.23,-0.521C0.259,-0.537 0.293,-0.545 0.33,-0.545C0.386,-0.545 0.432,-0.532 0.467,-0.504C0.512,-0.469 0.534,-0.415 0.534,-0.342L0.532,-0.242Z" style="fill:rgb(46,41,79);fill-rule:nonzero;"/>
                        </g>
                        <g transform="matrix(109.959,0,0,109.959,524.683,150.281)">
                            <path d="M0.292,-0.35C0.292,-0.362 0.287,-0.368 0.278,-0.368C0.27,-0.368 0.266,-0.363 0.266,-0.353L0.266,-0.303C0.269,-0.3 0.273,-0.299 0.278,-0.299C0.283,-0.299 0.287,-0.301 0.289,-0.305C0.291,-0.309 0.292,-0.316 0.292,-0.327L0.292,-0.35ZM0.31,-0.152C0.289,-0.152 0.271,-0.154 0.256,-0.157C0.255,-0.154 0.255,-0.151 0.255,-0.148C0.255,-0.141 0.26,-0.136 0.27,-0.134C0.281,-0.132 0.294,-0.13 0.31,-0.13C0.36,-0.13 0.404,-0.138 0.439,-0.153C0.475,-0.144 0.502,-0.124 0.521,-0.093C0.537,-0.068 0.545,-0.039 0.545,-0.005C0.545,0.055 0.52,0.102 0.469,0.136C0.418,0.169 0.352,0.186 0.271,0.186C0.191,0.186 0.128,0.172 0.084,0.143C0.044,0.117 0.023,0.083 0.023,0.042C0.023,0.026 0.027,0.01 0.035,-0.005C0.042,-0.019 0.051,-0.03 0.061,-0.035C0.077,-0.021 0.101,-0.01 0.133,-0.002C0.164,0.007 0.197,0.011 0.23,0.011C0.264,0.011 0.286,0.009 0.295,0.007C0.305,0.004 0.31,-0 0.31,-0.007C0.31,-0.01 0.309,-0.013 0.307,-0.017C0.29,-0.013 0.27,-0.011 0.246,-0.011C0.183,-0.011 0.133,-0.02 0.098,-0.038C0.054,-0.06 0.032,-0.092 0.032,-0.135C0.032,-0.152 0.036,-0.168 0.042,-0.182C0.049,-0.197 0.059,-0.208 0.073,-0.215C0.055,-0.226 0.04,-0.243 0.027,-0.265C0.015,-0.288 0.008,-0.315 0.008,-0.348C0.008,-0.411 0.032,-0.46 0.079,-0.496C0.125,-0.532 0.186,-0.55 0.261,-0.55C0.297,-0.55 0.332,-0.544 0.366,-0.532L0.366,-0.566C0.385,-0.574 0.41,-0.578 0.442,-0.578C0.474,-0.578 0.498,-0.572 0.515,-0.562C0.535,-0.549 0.545,-0.526 0.545,-0.493C0.545,-0.474 0.543,-0.46 0.539,-0.449C0.536,-0.438 0.53,-0.426 0.523,-0.414C0.531,-0.393 0.536,-0.366 0.536,-0.334C0.536,-0.276 0.515,-0.232 0.474,-0.2C0.434,-0.168 0.379,-0.152 0.31,-0.152Z" style="fill:rgb(46,41,79);fill-rule:nonzero;"/>
                        </g>
                        <g transform="matrix(181.019,0,0,181.019,615.701,150.281)">
                            <path d="M0.3,-0.161L0.3,-0.037C0.285,-0.024 0.265,-0.013 0.24,-0.004C0.216,0.004 0.185,0.009 0.15,0.009C0.114,0.009 0.083,0.001 0.058,-0.015C0.029,-0.032 0.015,-0.057 0.015,-0.089L0.015,-0.585C0.015,-0.615 0.089,-0.63 0.235,-0.63L0.522,-0.63C0.531,-0.613 0.538,-0.593 0.543,-0.572C0.548,-0.551 0.55,-0.532 0.55,-0.515C0.55,-0.44 0.517,-0.403 0.452,-0.403L0.283,-0.403C0.27,-0.403 0.264,-0.398 0.264,-0.387L0.264,-0.384C0.264,-0.382 0.264,-0.381 0.265,-0.38L0.481,-0.38C0.498,-0.352 0.506,-0.32 0.506,-0.284C0.506,-0.24 0.496,-0.205 0.476,-0.181L0.237,-0.181C0.234,-0.178 0.233,-0.175 0.233,-0.172C0.233,-0.167 0.237,-0.164 0.245,-0.163C0.253,-0.162 0.262,-0.161 0.272,-0.161C0.282,-0.161 0.292,-0.161 0.3,-0.161Z" style="fill:rgb(46,41,79);fill-rule:nonzero;"/>
                        </g>
                        <g transform="matrix(109.959,0,0,109.959,716.108,150.281)">
                            <path d="M0.272,-0.272L0.272,-0.187C0.275,-0.184 0.278,-0.183 0.284,-0.183C0.289,-0.183 0.293,-0.185 0.295,-0.188C0.297,-0.192 0.298,-0.198 0.298,-0.207L0.298,-0.277C0.298,-0.308 0.297,-0.329 0.294,-0.339C0.292,-0.349 0.287,-0.354 0.28,-0.354C0.275,-0.354 0.271,-0.353 0.268,-0.35C0.271,-0.317 0.272,-0.292 0.272,-0.272ZM0.09,-0.056C0.036,-0.107 0.01,-0.177 0.01,-0.265C0.01,-0.353 0.035,-0.422 0.085,-0.473C0.135,-0.524 0.201,-0.55 0.283,-0.55C0.365,-0.55 0.431,-0.523 0.481,-0.47C0.532,-0.417 0.557,-0.348 0.557,-0.263C0.557,-0.178 0.532,-0.11 0.484,-0.06C0.436,-0.01 0.37,0.015 0.287,0.015C0.204,0.015 0.138,-0.008 0.09,-0.056Z" style="fill:rgb(46,41,79);fill-rule:nonzero;"/>
                        </g>
                        <g transform="matrix(109.959,0,0,109.959,781.395,150.281)">
                            <path d="M0.154,0.006C0.115,0.006 0.084,-0.001 0.061,-0.015C0.035,-0.029 0.022,-0.051 0.022,-0.08L0.022,-0.331C0.003,-0.358 -0.006,-0.391 -0.006,-0.431C-0.006,-0.47 0.003,-0.505 0.022,-0.534L0.097,-0.534C0.136,-0.534 0.163,-0.521 0.18,-0.497C0.172,-0.487 0.164,-0.476 0.158,-0.462C0.152,-0.448 0.149,-0.438 0.149,-0.432C0.149,-0.426 0.15,-0.421 0.154,-0.418C0.157,-0.416 0.161,-0.414 0.167,-0.414C0.178,-0.459 0.2,-0.493 0.232,-0.514C0.258,-0.532 0.291,-0.541 0.33,-0.541C0.378,-0.541 0.416,-0.53 0.443,-0.51C0.453,-0.484 0.458,-0.452 0.458,-0.414C0.458,-0.377 0.45,-0.343 0.435,-0.312C0.424,-0.306 0.409,-0.301 0.389,-0.297C0.37,-0.293 0.35,-0.291 0.33,-0.291C0.31,-0.291 0.292,-0.292 0.277,-0.295C0.261,-0.298 0.249,-0.3 0.242,-0.303C0.24,-0.3 0.238,-0.296 0.238,-0.292C0.238,-0.287 0.241,-0.283 0.248,-0.281C0.254,-0.278 0.265,-0.275 0.28,-0.272L0.28,-0.027C0.244,-0.005 0.202,0.006 0.154,0.006Z" style="fill:rgb(46,41,79);fill-rule:nonzero;"/>
                        </g>
                        <g transform="matrix(181.019,0,0,181.019,857.373,150.281)">
                            <path d="M0.289,-0.328C0.29,-0.327 0.294,-0.326 0.3,-0.326C0.306,-0.326 0.311,-0.329 0.314,-0.333C0.317,-0.338 0.319,-0.346 0.319,-0.357L0.319,-0.395C0.319,-0.406 0.317,-0.415 0.315,-0.42C0.312,-0.425 0.307,-0.427 0.301,-0.427C0.295,-0.427 0.29,-0.427 0.288,-0.425C0.288,-0.424 0.289,-0.421 0.289,-0.417L0.289,-0.328ZM0.301,-0.107L0.301,-0.032C0.286,-0.02 0.266,-0.01 0.24,-0.003C0.214,0.005 0.187,0.009 0.159,0.009C0.118,0.009 0.085,0.001 0.06,-0.015C0.03,-0.033 0.016,-0.058 0.016,-0.092L0.016,-0.556C0.016,-0.567 0.023,-0.577 0.037,-0.587C0.051,-0.598 0.071,-0.607 0.096,-0.616C0.149,-0.634 0.211,-0.643 0.28,-0.643C0.375,-0.643 0.451,-0.619 0.508,-0.572C0.564,-0.524 0.593,-0.46 0.593,-0.38C0.593,-0.3 0.567,-0.237 0.516,-0.193C0.467,-0.151 0.399,-0.129 0.312,-0.129C0.292,-0.129 0.27,-0.132 0.248,-0.136C0.225,-0.141 0.21,-0.145 0.202,-0.149C0.2,-0.146 0.198,-0.143 0.198,-0.138C0.198,-0.122 0.232,-0.111 0.301,-0.107Z" style="fill:rgb(46,41,79);fill-rule:nonzero;"/>
                        </g>
                        <g transform="matrix(109.96,0,0,109.96,967.149,150.281)">
                            <path d="M0.267,-0.589L0.267,-0.246C0.267,-0.198 0.278,-0.166 0.302,-0.151C0.302,-0.15 0.302,-0.147 0.302,-0.142L0.302,-0.133C0.302,-0.087 0.29,-0.051 0.267,-0.027C0.243,-0.003 0.21,0.009 0.167,0.009C0.123,0.009 0.089,-0.003 0.063,-0.027C0.033,-0.056 0.018,-0.099 0.018,-0.157L0.018,-0.665C0.052,-0.685 0.091,-0.696 0.135,-0.696C0.18,-0.696 0.212,-0.686 0.234,-0.668C0.256,-0.649 0.267,-0.623 0.267,-0.589Z" style="fill:rgb(46,41,79);fill-rule:nonzero;"/>
                        </g>
                        <g transform="matrix(109.96,0,0,109.96,1003.34,150.281)">
                            <path d="M0.509,-0.242C0.509,-0.218 0.512,-0.199 0.517,-0.185C0.522,-0.171 0.531,-0.16 0.544,-0.151C0.545,-0.15 0.545,-0.147 0.545,-0.142L0.545,-0.133C0.545,-0.087 0.531,-0.051 0.503,-0.025C0.478,-0.003 0.448,0.009 0.411,0.009C0.386,0.009 0.364,0.003 0.343,-0.009C0.323,-0.021 0.308,-0.037 0.299,-0.06C0.288,-0.06 0.283,-0.054 0.283,-0.043C0.283,-0.034 0.288,-0.024 0.3,-0.013C0.279,0.002 0.247,0.009 0.204,0.009C0.144,0.009 0.096,-0.008 0.06,-0.04C0.024,-0.073 0.006,-0.119 0.006,-0.177C0.006,-0.236 0.025,-0.282 0.063,-0.314C0.098,-0.343 0.143,-0.357 0.198,-0.357C0.217,-0.357 0.235,-0.356 0.253,-0.354C0.265,-0.351 0.271,-0.35 0.272,-0.35C0.273,-0.353 0.273,-0.356 0.273,-0.358C0.273,-0.366 0.266,-0.372 0.252,-0.375C0.238,-0.378 0.219,-0.379 0.196,-0.379C0.147,-0.379 0.105,-0.369 0.07,-0.35C0.054,-0.377 0.046,-0.411 0.046,-0.452C0.046,-0.476 0.049,-0.493 0.055,-0.504C0.078,-0.515 0.108,-0.525 0.144,-0.533C0.18,-0.541 0.218,-0.545 0.258,-0.545C0.341,-0.545 0.403,-0.527 0.446,-0.491C0.488,-0.455 0.509,-0.404 0.509,-0.337L0.509,-0.242ZM0.256,-0.218C0.242,-0.218 0.235,-0.212 0.235,-0.199C0.235,-0.188 0.243,-0.182 0.259,-0.182C0.27,-0.182 0.278,-0.184 0.284,-0.19C0.289,-0.195 0.292,-0.204 0.292,-0.218L0.256,-0.218Z" style="fill:rgb(46,41,79);fill-rule:nonzero;"/>
                        </g>
                        <g transform="matrix(109.96,0,0,109.96,1065.24,150.281)">
                            <path d="M0.254,-0.247L0.254,-0.235C0.254,-0.23 0.254,-0.226 0.254,-0.224C0.258,-0.222 0.261,-0.222 0.265,-0.222C0.275,-0.222 0.279,-0.229 0.279,-0.243C0.279,-0.291 0.282,-0.341 0.287,-0.392C0.293,-0.444 0.299,-0.484 0.305,-0.512C0.331,-0.531 0.366,-0.541 0.41,-0.541C0.454,-0.541 0.488,-0.532 0.512,-0.515C0.536,-0.498 0.548,-0.477 0.548,-0.453C0.548,-0.443 0.542,-0.401 0.53,-0.328C0.516,-0.254 0.499,-0.175 0.479,-0.093C0.474,-0.076 0.467,-0.053 0.456,-0.023C0.445,0.007 0.433,0.032 0.421,0.052C0.382,0.113 0.334,0.151 0.277,0.166C0.251,0.173 0.224,0.176 0.197,0.176C0.144,0.176 0.104,0.163 0.075,0.137C0.049,0.114 0.036,0.085 0.036,0.05C0.036,0.015 0.046,-0.017 0.066,-0.048C0.071,-0.049 0.08,-0.05 0.093,-0.05C0.106,-0.05 0.123,-0.048 0.142,-0.045C0.196,-0.035 0.224,-0.03 0.225,-0.03C0.227,-0.029 0.229,-0.029 0.232,-0.029C0.235,-0.028 0.239,-0.028 0.243,-0.028C0.248,-0.028 0.252,-0.029 0.255,-0.032C0.258,-0.034 0.26,-0.04 0.26,-0.047L0.145,-0.069C0.116,-0.081 0.092,-0.106 0.071,-0.143C0.045,-0.189 0.028,-0.252 0.019,-0.331C-0.003,-0.359 -0.014,-0.393 -0.014,-0.432C-0.014,-0.471 -0.004,-0.505 0.016,-0.534L0.141,-0.534C0.183,-0.534 0.215,-0.522 0.235,-0.498C0.251,-0.48 0.26,-0.453 0.265,-0.419C0.257,-0.362 0.254,-0.305 0.254,-0.247Z" style="fill:rgb(46,41,79);fill-rule:nonzero;"/>
                        </g>
                        <g transform="matrix(109.96,0,0,109.96,1127.09,150.281)">
                            <path d="M0.303,0.015C0.213,0.015 0.142,-0.01 0.09,-0.06C0.036,-0.111 0.01,-0.18 0.01,-0.267C0.01,-0.355 0.037,-0.425 0.092,-0.476C0.143,-0.524 0.207,-0.548 0.285,-0.548C0.363,-0.548 0.425,-0.526 0.472,-0.484C0.519,-0.441 0.543,-0.388 0.543,-0.326C0.543,-0.27 0.524,-0.228 0.485,-0.2C0.449,-0.173 0.4,-0.16 0.338,-0.16C0.292,-0.16 0.253,-0.169 0.221,-0.188C0.219,-0.187 0.217,-0.183 0.217,-0.178C0.217,-0.168 0.23,-0.159 0.256,-0.151C0.282,-0.142 0.311,-0.138 0.344,-0.138C0.376,-0.138 0.406,-0.142 0.433,-0.15C0.46,-0.158 0.481,-0.168 0.498,-0.18C0.505,-0.173 0.512,-0.16 0.516,-0.142C0.521,-0.123 0.523,-0.107 0.523,-0.092C0.523,-0.076 0.522,-0.063 0.519,-0.051C0.494,-0.03 0.468,-0.014 0.441,-0.005C0.403,0.008 0.357,0.015 0.303,0.015ZM0.297,-0.315C0.313,-0.315 0.321,-0.322 0.321,-0.334C0.321,-0.346 0.313,-0.352 0.295,-0.352C0.278,-0.352 0.268,-0.342 0.266,-0.324C0.275,-0.318 0.285,-0.315 0.297,-0.315Z" style="fill:rgb(46,41,79);fill-rule:nonzero;"/>
                        </g>
                        <g transform="matrix(109.96,0,0,109.96,1190.71,150.281)">
                            <path d="M0.154,0.006C0.115,0.006 0.084,-0.001 0.061,-0.015C0.035,-0.029 0.022,-0.051 0.022,-0.08L0.022,-0.331C0.003,-0.358 -0.006,-0.391 -0.006,-0.431C-0.006,-0.47 0.003,-0.505 0.022,-0.534L0.097,-0.534C0.136,-0.534 0.163,-0.521 0.18,-0.497C0.172,-0.487 0.164,-0.476 0.158,-0.462C0.152,-0.448 0.149,-0.438 0.149,-0.432C0.149,-0.426 0.15,-0.421 0.154,-0.418C0.157,-0.416 0.161,-0.414 0.167,-0.414C0.178,-0.459 0.2,-0.493 0.232,-0.514C0.258,-0.532 0.291,-0.541 0.33,-0.541C0.378,-0.541 0.416,-0.53 0.443,-0.51C0.453,-0.484 0.458,-0.452 0.458,-0.414C0.458,-0.377 0.45,-0.343 0.435,-0.312C0.424,-0.306 0.409,-0.301 0.389,-0.297C0.37,-0.293 0.35,-0.291 0.33,-0.291C0.31,-0.291 0.292,-0.292 0.277,-0.295C0.261,-0.298 0.249,-0.3 0.242,-0.303C0.24,-0.3 0.238,-0.296 0.238,-0.292C0.238,-0.287 0.241,-0.283 0.248,-0.281C0.254,-0.278 0.265,-0.275 0.28,-0.272L0.28,-0.027C0.244,-0.005 0.202,0.006 0.154,0.006Z" style="fill:rgb(46,41,79);fill-rule:nonzero;"/>
                        </g>
                        <g transform="matrix(109.96,0,0,109.96,1244.51,150.281)">
                            <path d="M0.277,-0.383C0.268,-0.38 0.264,-0.375 0.264,-0.368L0.264,-0.365C0.264,-0.364 0.264,-0.363 0.265,-0.362C0.268,-0.363 0.273,-0.363 0.279,-0.363L0.291,-0.363C0.328,-0.363 0.362,-0.357 0.395,-0.346C0.427,-0.335 0.454,-0.317 0.474,-0.292C0.497,-0.264 0.508,-0.229 0.508,-0.186C0.508,-0.12 0.485,-0.069 0.439,-0.036C0.394,-0.002 0.332,0.015 0.255,0.015C0.179,0.015 0.118,0.002 0.075,-0.023C0.031,-0.048 0.01,-0.086 0.01,-0.135C0.01,-0.153 0.014,-0.17 0.021,-0.185C0.029,-0.2 0.038,-0.211 0.048,-0.217C0.066,-0.202 0.092,-0.189 0.126,-0.178C0.16,-0.167 0.196,-0.162 0.234,-0.162C0.249,-0.162 0.257,-0.166 0.257,-0.174C0.257,-0.178 0.256,-0.181 0.255,-0.184C0.253,-0.184 0.25,-0.184 0.247,-0.184L0.242,-0.184C0.173,-0.184 0.118,-0.197 0.076,-0.225C0.029,-0.256 0.006,-0.299 0.006,-0.355C0.006,-0.412 0.027,-0.457 0.069,-0.492C0.115,-0.531 0.179,-0.55 0.261,-0.55C0.301,-0.55 0.338,-0.546 0.373,-0.537C0.407,-0.529 0.437,-0.517 0.462,-0.503C0.468,-0.49 0.471,-0.47 0.471,-0.444C0.471,-0.405 0.46,-0.374 0.438,-0.353C0.422,-0.362 0.402,-0.37 0.378,-0.376C0.354,-0.382 0.332,-0.385 0.313,-0.385C0.294,-0.385 0.282,-0.384 0.277,-0.383Z" style="fill:rgb(46,41,79);fill-rule:nonzero;"/>
                        </g>
                        <g transform="matrix(109.96,0,0,109.96,1330.84,150.281)">
                            <path d="M0.051,-0.236C0.079,-0.264 0.112,-0.277 0.15,-0.277C0.189,-0.277 0.222,-0.264 0.25,-0.236C0.278,-0.208 0.292,-0.174 0.292,-0.135C0.292,-0.097 0.278,-0.064 0.25,-0.036C0.222,-0.009 0.189,0.005 0.15,0.005C0.112,0.005 0.079,-0.009 0.051,-0.036C0.024,-0.064 0.01,-0.097 0.01,-0.135C0.01,-0.174 0.024,-0.208 0.051,-0.236Z" style="fill:rgb(46,41,79);fill-rule:nonzero;"/>
                        </g>
                        <g transform="matrix(109.96,0,0,109.96,1365.8,150.281)">
                            <path d="M0.051,-0.236C0.079,-0.264 0.112,-0.277 0.15,-0.277C0.189,-0.277 0.222,-0.264 0.25,-0.236C0.278,-0.208 0.292,-0.174 0.292,-0.135C0.292,-0.097 0.278,-0.064 0.25,-0.036C0.222,-0.009 0.189,0.005 0.15,0.005C0.112,0.005 0.079,-0.009 0.051,-0.036C0.024,-0.064 0.01,-0.097 0.01,-0.135C0.01,-0.174 0.024,-0.208 0.051,-0.236Z" style="fill:rgb(46,41,79);fill-rule:nonzero;"/>
                        </g>
                        <g transform="matrix(109.96,0,0,109.96,1400.75,150.281)">
                            <path d="M0.051,-0.236C0.079,-0.264 0.112,-0.277 0.15,-0.277C0.189,-0.277 0.222,-0.264 0.25,-0.236C0.278,-0.208 0.292,-0.174 0.292,-0.135C0.292,-0.097 0.278,-0.064 0.25,-0.036C0.222,-0.009 0.189,0.005 0.15,0.005C0.112,0.005 0.079,-0.009 0.051,-0.036C0.024,-0.064 0.01,-0.097 0.01,-0.135C0.01,-0.174 0.024,-0.208 0.051,-0.236Z" style="fill:rgb(46,41,79);fill-rule:nonzero;"/>
                        </g>
                    </g>
                </g>
            </g>
        </g>
    </g>
</svg>
